<?xml version="1.0" encoding="UTF-8"?>
<svg width="24px" height="24px" viewBox="0 0 24 24" version="1.1" xmlns="http://www.w3.org/2000/svg" xmlns:xlink="http://www.w3.org/1999/xlink">
    <title>Icon-Architecture/16/Arch_AWS-SimSpace-Weaver_16</title>
    <defs>
        <linearGradient x1="0%" y1="100%" x2="100%" y2="0%" id="linearGradient-1">
            <stop stop-color="#C8511B" offset="0%"></stop>
            <stop stop-color="#FF9900" offset="100%"></stop>
        </linearGradient>
    </defs>
    <g id="Icon-Architecture/16/Arch_AWS-SimSpace-Weaver_16" stroke="none" stroke-width="1" fill="none" fill-rule="evenodd">
        <g id="Icon-Architecture-BG/16/Compute" fill="url(#linearGradient-1)">
            <rect id="Rectangle" x="0" y="0" width="24" height="24"></rect>
        </g>
        <g id="Icon-Service/16/AWS-SimSpace-Weaver_16" transform="translate(4.000000, 4.000000)" fill="#FFFFFF">
            <path d="M15,11.92425 L13.505,12.70725 L12,11.88325 L12,9.86325 L13.504,9.01725 L15,9.83625 L15,11.92425 Z M14.565,15.02525 L8,15.02525 L8,12.02525 L11,12.02525 L11,12.18025 C11,12.36225 11.1,12.53125 11.26,12.61825 L13.26,13.71225 C13.335,13.75325 13.417,13.77425 13.5,13.77425 C13.579,13.77425 13.659,13.75525 13.731,13.71625 L13.836,13.66225 L14.565,15.02525 Z M1.403,15.02525 L2.165,13.66025 L2.26,13.71225 C2.335,13.75325 2.417,13.77425 2.5,13.77425 C2.579,13.77425 2.659,13.75525 2.731,13.71625 L4.731,12.67025 C4.896,12.58425 5,12.41325 5,12.22725 L5,12.02525 L7,12.02525 L7,15.02525 L1.403,15.02525 Z M1,9.86325 L2.504,9.01725 L4,9.83625 L4,11.92425 L2.505,12.70725 L1,11.88325 L1,9.86325 Z M5.269,8.07725 L7,9.09025 L7,11.02525 L5,11.02525 L5,9.53925 C5,9.35725 4.9,9.18825 4.74,9.10125 L4.708,9.08325 L5.269,8.07725 Z M8,1.06725 L10.498,2.41025 L7.714,3.63625 L5.548,2.38525 L8,1.06725 Z M8,8.06825 L8,8.02525 L8,4.60325 L11,3.28125 L11,6.72325 L8,8.06825 Z M5,6.76025 L5,3.22325 L7,4.37925 L7,7.93125 L5,6.76025 Z M11.387,9.06125 L11.255,9.13525 C11.098,9.22325 11,9.39025 11,9.57025 L11,11.02525 L8,11.02525 L8,9.16325 L10.777,7.91925 L11.387,9.06125 Z M15.74,9.10125 L13.74,8.00725 C13.588,7.92425 13.405,7.92525 13.255,8.01025 L12.259,8.57025 L11.691,7.50925 L11.704,7.50325 C11.885,7.42325 12,7.24425 12,7.04725 L12,2.38125 C12,2.19625 11.898,2.02725 11.736,1.94025 L8.236,0.05925 C8.09,-0.01975 7.91,-0.01975 7.764,0.05925 L4.264,1.94025 C4.102,2.02725 4,2.19625 4,2.38125 L4,7.04725 C4,7.22525 4.094,7.38925 4.247,7.47925 L4.406,7.57125 L3.83,8.60325 L2.74,8.00725 C2.588,7.92425 2.405,7.92525 2.255,8.01025 L0.255,9.13525 C0.098,9.22325 0,9.39025 0,9.57025 L0,12.18025 C0,12.36225 0.1,12.53125 0.26,12.61825 L1.287,13.18025 L0.117,15.27825 C0.031,15.43125 0.032,15.61825 0.12,15.77125 C0.208,15.92325 0.368,16.01825 0.544,16.02225 L15.399,16.02525 C15.575,16.02525 15.738,15.93225 15.828,15.78125 C15.919,15.63125 15.923,15.44425 15.84,15.28925 L14.722,13.19825 L15.731,12.67025 C15.896,12.58425 16,12.41325 16,12.22725 L16,9.53925 C16,9.35725 15.9,9.18825 15.74,9.10125 L15.74,9.10125 Z" id="Fill-7"></path>
        </g>
    </g>
</svg>