<?xml version="1.0" encoding="UTF-8"?>
<svg width="24px" height="24px" viewBox="0 0 24 24" version="1.1" xmlns="http://www.w3.org/2000/svg" xmlns:xlink="http://www.w3.org/1999/xlink">
    <title>Icon-Architecture/16/Arch_Amazon-File-Cache_16</title>
    <defs>
        <linearGradient x1="0%" y1="100%" x2="100%" y2="0%" id="linearGradient-1">
            <stop stop-color="#1B660F" offset="0%"></stop>
            <stop stop-color="#6CAE3E" offset="100%"></stop>
        </linearGradient>
    </defs>
    <g id="Icon-Architecture/16/Arch_Amazon-File-Cache_16" stroke="none" stroke-width="1" fill="none" fill-rule="evenodd">
        <g id="Icon-Architecture-BG/16/Storage" fill="url(#linearGradient-1)">
            <rect id="Rectangle" x="0" y="0" width="24" height="24"></rect>
        </g>
        <g id="Icon-Service/16/Amazon-File-Cache_16" transform="translate(4.000000, 4.000000)" fill="#FFFFFF">
            <path d="M9.75,11 C9.75,11.414 9.414,11.75 9,11.75 C8.586,11.75 8.25,11.414 8.25,11 C8.25,10.586 8.586,10.25 9,10.25 C9.414,10.25 9.75,10.586 9.75,11 L9.75,11 Z M12,14.5 L11.3,13.975 C11.18,13.883 11.022,13.853 10.874,13.891 C10.727,13.929 10.604,14.033 10.543,14.172 L10.175,15 L7.825,15 L7.457,14.172 C7.396,14.033 7.273,13.929 7.126,13.891 C6.977,13.853 6.821,13.883 6.7,13.975 L6,14.5 L6,12.707 L6.854,11.854 C6.947,11.76 7,11.633 7,11.5 C7,9.099 8.39,7.651 9,7.132 C9.61,7.651 11,9.099 11,11.5 C11,11.633 11.053,11.76 11.146,11.854 L12,12.707 L12,14.5 Z M11.997,11.29 C11.897,7.869 9.387,6.157 9.277,6.084 C9.109,5.972 8.891,5.972 8.723,6.084 C8.613,6.157 6.103,7.869 6.003,11.29 L5.146,12.146 C5.053,12.24 5,12.367 5,12.5 L5,15.5 C5,15.689 5.107,15.862 5.276,15.947 C5.445,16.031 5.648,16.014 5.8,15.9 L6.798,15.151 L7.043,15.703 C7.123,15.884 7.303,16 7.5,16 L10.5,16 C10.697,16 10.877,15.884 10.957,15.703 L11.202,15.151 L12.2,15.9 C12.288,15.966 12.394,16 12.5,16 C12.576,16 12.653,15.982 12.724,15.947 C12.893,15.862 13,15.689 13,15.5 L13,12.5 C13,12.367 12.947,12.24 12.854,12.146 L11.997,11.29 Z M13,3 L2.5,3 C2.224,3 2,3.224 2,3.5 L2,11.5 C2,11.776 1.775,12 1.5,12 C1.225,12 1,11.776 1,11.5 L1,1 L4.382,1 L6.276,1.947 C6.346,1.982 6.423,2 6.5,2 L13,2 L13,3 Z M15.5,3 L14,3 L14,1.5 C14,1.224 13.776,1 13.5,1 L6.618,1 L4.724,0.053 C4.654,0.018 4.577,0 4.5,0 L0.5,0 C0.224,0 0,0.224 0,0.5 L0,11.5 C0,12.327 0.673,13 1.5,13 L4,13 L4,12 L2.908,12 C2.964,11.843 3,11.676 3,11.5 L3,4 L15,4 L15,12 L14,12 L14,13 L15.5,13 C15.776,13 16,12.776 16,12.5 L16,3.5 C16,3.224 15.776,3 15.5,3 L15.5,3 Z" id="Fill-7"></path>
        </g>
    </g>
</svg>