<?xml version="1.0" encoding="UTF-8"?>
<svg width="64px" height="64px" viewBox="0 0 64 64" version="1.1" xmlns="http://www.w3.org/2000/svg" xmlns:xlink="http://www.w3.org/1999/xlink">
    <title>Icon-Architecture/48/Arch_Amazon-File-Cache_48</title>
    <defs>
        <linearGradient x1="0%" y1="100%" x2="100%" y2="0%" id="linearGradient-1">
            <stop stop-color="#1B660F" offset="0%"></stop>
            <stop stop-color="#6CAE3E" offset="100%"></stop>
        </linearGradient>
    </defs>
    <g id="Icon-Architecture/48/Arch_Amazon-File-Cache_48" stroke="none" stroke-width="1" fill="none" fill-rule="evenodd">
        <g id="Icon-Architecture-BG/48/Storage" fill="url(#linearGradient-1)">
            <rect id="Rectangle" x="0" y="0" width="64" height="64"></rect>
        </g>
        <g id="Icon-Service/48/Amazon-File-Cache_48" transform="translate(10.000000, 10.000000)" fill="#FFFFFF">
            <path d="M25.5,24 C25.5,24.828 24.828,25.5 24,25.5 C23.172,25.5 22.5,24.828 22.5,24 C22.5,23.172 23.172,22.5 24,22.5 C24.828,22.5 25.5,23.172 25.5,24 L25.5,24 Z M30,30.919 L28.874,29.793 C28.63,29.548 28.275,29.447 27.937,29.527 C27.6,29.606 27.328,29.855 27.219,30.184 L26.612,32 L21.388,32 L20.781,30.184 C20.672,29.855 20.4,29.606 20.062,29.527 C19.725,29.448 19.371,29.548 19.126,29.793 L18,30.919 L17.557,28.258 L19.8,25.267 C19.93,25.093 20,24.883 20,24.667 C20,19.505 22.719,15.86 24.002,14.427 C25.288,15.855 28,19.483 28,24.667 C28,24.883 28.07,25.093 28.2,25.267 L30.443,28.258 L30,30.919 Z M29.997,24.329 C29.85,16.875 24.873,12.436 24.658,12.248 C24.281,11.917 23.719,11.917 23.342,12.248 C23.127,12.436 18.15,16.875 18.003,24.329 L15.7,27.4 C15.536,27.619 15.469,27.895 15.514,28.165 L16.347,33.165 C16.408,33.534 16.671,33.838 17.027,33.952 C17.386,34.067 17.775,33.972 18.04,33.707 L19.396,32.351 L19.719,33.316 C19.854,33.725 20.236,34.0000872 20.667,34.0000872 L27.333,34.0000872 C27.764,34.0000872 28.146,33.725 28.281,33.316 L28.604,32.351 L29.96,33.707 C30.15,33.897 30.406,34.0000872 30.667,34.0000872 C30.77,34.0000872 30.872,33.984 30.973,33.952 C31.329,33.838 31.592,33.534 31.653,33.165 L32.486,28.165 C32.531,27.895 32.464,27.619 32.3,27.4 L29.997,24.329 Z M27,42 L29,42 L29,38 L27,38 L27,42 Z M19,42 L21,42 L21,38 L19,38 L19,42 Z M23,44 L25,44 L25,36 L23,36 L23,44 Z M38,7 L5,7 C4.447,7 4,7.448 4,8 L4,33 C4,33.551 3.552,34 3,34 C2.448,34 2,33.551 2,33 L2,2 L11.586,2 L14.293,4.707 C14.48,4.895 14.734,5 15,5 L38,5 L38,7 Z M43,7 L40,7 L40,4 C40,3.448 39.553,3 39,3 L15.414,3 L12.707,0.293 C12.52,0.105 12.266,0 12,0 L1,0 C0.447,0 0,0.448 0,1 L0,33 C0,34.654 1.346,36 3,36 L13,36 L13,34 L5.816,34 C5.928,33.686 6,33.352 6,33 L6,9 L42,9 L42,34 L35,34 L35,36 L43,36 C43.553,36 44,35.552 44,35 L44,8 C44,7.448 43.553,7 43,7 L43,7 Z" id="Fill-3"></path>
        </g>
    </g>
</svg>