<?xml version="1.0" encoding="UTF-8"?>
<svg width="24px" height="24px" viewBox="0 0 24 24" version="1.1" xmlns="http://www.w3.org/2000/svg" xmlns:xlink="http://www.w3.org/1999/xlink">
    <title>Icon-Architecture/16/Arch_Amazon-DataZone_16</title>
    <defs>
        <linearGradient x1="0%" y1="100%" x2="100%" y2="0%" id="linearGradient-1">
            <stop stop-color="#4D27A8" offset="0%"></stop>
            <stop stop-color="#A166FF" offset="100%"></stop>
        </linearGradient>
    </defs>
    <g id="Icon-Architecture/16/Arch_Amazon-DataZone_16" stroke="none" stroke-width="1" fill="none" fill-rule="evenodd">
        <g id="Icon-Architecture-BG/16/Analytics" fill="url(#linearGradient-1)">
            <rect id="Rectangle" x="0" y="0" width="24" height="24"></rect>
        </g>
        <g id="Icon-Service/16/Amazon-DataZone_16" transform="translate(4.000000, 4.000000)" fill="#FFFFFF">
            <path d="M13.98125,12.49525 C13.98125,11.66825 13.30825,10.99525 12.48125,10.99525 C11.65425,10.99525 10.98125,11.66825 10.98125,12.49525 C10.98125,13.32225 11.65425,13.99525 12.48125,13.99525 C13.30825,13.99525 13.98125,13.32225 13.98125,12.49525 L13.98125,12.49525 Z M10.49425,10.99525 C10.63325,10.81125 10.79725,10.64725 10.98125,10.50825 L10.98125,5.48225 C10.79725,5.34325 10.63325,5.17925 10.49425,4.99525 L5.46825,4.99525 C5.32925,5.17925 5.16525,5.34325 4.98125,5.48225 L4.98125,10.50825 C5.16525,10.64725 5.32925,10.81125 5.46825,10.99525 L10.49425,10.99525 Z M4.98125,12.49525 C4.98125,11.66825 4.30825,10.99525 3.48125,10.99525 C2.65425,10.99525 1.98125,11.66825 1.98125,12.49525 C1.98125,13.32225 2.65425,13.99525 3.48125,13.99525 C4.30825,13.99525 4.98125,13.32225 4.98125,12.49525 L4.98125,12.49525 Z M3.48125,4.99525 C4.30825,4.99525 4.98125,4.32225 4.98125,3.49525 C4.98125,2.66825 4.30825,1.99525 3.48125,1.99525 C2.65425,1.99525 1.98125,2.66825 1.98125,3.49525 C1.98125,4.32225 2.65425,4.99525 3.48125,4.99525 L3.48125,4.99525 Z M10.98125,3.49525 C10.98125,4.32225 11.65425,4.99525 12.48125,4.99525 C13.30825,4.99525 13.98125,4.32225 13.98125,3.49525 C13.98125,2.66825 13.30825,1.99525 12.48125,1.99525 C11.65425,1.99525 10.98125,2.66825 10.98125,3.49525 L10.98125,3.49525 Z M14.98125,12.49525 C14.98125,13.87325 13.86025,14.99525 12.48125,14.99525 C11.10225,14.99525 9.98125,13.87325 9.98125,12.49525 C9.98125,12.32425 9.99925,12.15725 10.03225,11.99525 L5.93025,11.99525 C5.96325,12.15725 5.98125,12.32425 5.98125,12.49525 C5.98125,13.87325 4.86025,14.99525 3.48125,14.99525 C2.10225,14.99525 0.98125,13.87325 0.98125,12.49525 C0.98125,11.11725 2.10225,9.99525 3.48125,9.99525 C3.65225,9.99525 3.81925,10.01325 3.98125,10.04625 L3.98125,5.94425 C3.81925,5.97725 3.65225,5.99525 3.48125,5.99525 C2.10225,5.99525 0.98125,4.87325 0.98125,3.49525 C0.98125,2.11725 2.10225,0.99525 3.48125,0.99525 C4.86025,0.99525 5.98125,2.11725 5.98125,3.49525 C5.98125,3.66625 5.96325,3.83325 5.93025,3.99525 L10.03225,3.99525 C9.99925,3.83325 9.98125,3.66625 9.98125,3.49525 C9.98125,2.11725 11.10225,0.99525 12.48125,0.99525 C13.86025,0.99525 14.98125,2.11725 14.98125,3.49525 C14.98125,4.87325 13.86025,5.99525 12.48125,5.99525 C12.31025,5.99525 12.14325,5.97725 11.98125,5.94425 L11.98125,10.04625 C12.14325,10.01325 12.31025,9.99525 12.48125,9.99525 C13.86025,9.99525 14.98125,11.11725 14.98125,12.49525 L14.98125,12.49525 Z M2.33525,9.10425 L1.20725,7.97625 L2.33525,6.84825 L1.62725,6.14125 L0.14625,7.62225 C-0.04875,7.81825 -0.04875,8.13425 0.14625,8.32925 L1.62725,9.81125 L2.33525,9.10425 Z M7.97625,14.78425 L6.83425,13.64125 L6.12725,14.34925 L7.62325,15.84425 C7.72025,15.94225 7.84825,15.99125 7.97625,15.99125 C8.10425,15.99125 8.23225,15.94225 8.33025,15.84425 L9.82625,14.34925 L9.11925,13.64125 L7.97625,14.78425 Z M7.97625,1.20625 L9.11925,2.34925 L9.82625,1.64125 L8.33025,0.14625 C8.13425,-0.04875 7.81825,-0.04875 7.62325,0.14625 L6.12725,1.64125 L6.83425,2.34925 L7.97625,1.20625 Z M15.80625,8.32925 L14.33525,9.80125 L13.62725,9.09425 L14.74625,7.97625 L13.62725,6.85825 L14.33525,6.15125 L15.80625,7.62225 C16.00225,7.81825 16.00225,8.13425 15.80625,8.32925 L15.80625,8.32925 Z" id="Fill-8"></path>
        </g>
    </g>
</svg>