<?xml version="1.0" encoding="UTF-8"?>
<svg width="24px" height="24px" viewBox="0 0 24 24" version="1.1" xmlns="http://www.w3.org/2000/svg" xmlns:xlink="http://www.w3.org/1999/xlink">
    <title>Icon-Architecture/16/Arch_AWS-Clean-Rooms_16</title>
    <defs>
        <linearGradient x1="0%" y1="100%" x2="100%" y2="0%" id="linearGradient-1">
            <stop stop-color="#4D27A8" offset="0%"></stop>
            <stop stop-color="#A166FF" offset="100%"></stop>
        </linearGradient>
    </defs>
    <g id="Icon-Architecture/16/Arch_AWS-Clean-Rooms_16" stroke="none" stroke-width="1" fill="none" fill-rule="evenodd">
        <g id="Icon-Architecture-BG/16/Analytics" fill="url(#linearGradient-1)">
            <rect id="Rectangle" x="0" y="0" width="24" height="24"></rect>
        </g>
        <g id="Icon-Service/16/AWS-Clean-Rooms_16" transform="translate(4.000000, 4.000000)" fill="#FFFFFF">
            <path d="M14.25,12.9771251 C13.837,12.9771251 13.5,12.6411251 13.5,12.2271251 C13.5,11.8131251 13.837,11.4771251 14.25,11.4771251 C14.663,11.4771251 15,11.8131251 15,12.2271251 C15,12.6411251 14.663,12.9771251 14.25,12.9771251 L14.25,12.9771251 Z M14.25,10.4771251 C13.95,10.4771251 13.671,10.5601251 13.424,10.6941251 L12.354,9.62312507 L11.646,10.3311251 L12.717,11.4011251 C12.583,11.6481251 12.5,11.9271251 12.5,12.2271251 C12.5,13.1921251 13.285,13.9771251 14.25,13.9771251 C15.215,13.9771251 16,13.1921251 16,12.2271251 C16,11.2621251 15.215,10.4771251 14.25,10.4771251 L14.25,10.4771251 Z M14.25,2.97712507 C14.663,2.97712507 15,3.31312507 15,3.72712507 C15,4.14112507 14.663,4.47712507 14.25,4.47712507 C13.837,4.47712507 13.5,4.14112507 13.5,3.72712507 C13.5,3.31312507 13.837,2.97712507 14.25,2.97712507 L14.25,2.97712507 Z M12.354,6.33112507 L13.424,5.26012507 C13.671,5.39412507 13.95,5.47712507 14.25,5.47712507 C15.215,5.47712507 16,4.69212507 16,3.72712507 C16,2.76212507 15.215,1.97712507 14.25,1.97712507 C13.285,1.97712507 12.5,2.76212507 12.5,3.72712507 C12.5,4.02712507 12.583,4.30612507 12.717,4.55312507 L11.646,5.62312507 L12.354,6.33112507 Z M1.75,12.9771251 C1.337,12.9771251 1,12.6411251 1,12.2271251 C1,11.8131251 1.337,11.4771251 1.75,11.4771251 C2.163,11.4771251 2.5,11.8131251 2.5,12.2271251 C2.5,12.6411251 2.163,12.9771251 1.75,12.9771251 L1.75,12.9771251 Z M3.646,9.62312507 L2.576,10.6941251 C2.329,10.5601251 2.05,10.4771251 1.75,10.4771251 C0.785,10.4771251 0,11.2621251 0,12.2271251 C0,13.1921251 0.785,13.9771251 1.75,13.9771251 C2.715,13.9771251 3.5,13.1921251 3.5,12.2271251 C3.5,11.9271251 3.417,11.6481251 3.283,11.4011251 L4.354,10.3311251 L3.646,9.62312507 Z M1,3.72712507 C1,3.31312507 1.337,2.97712507 1.75,2.97712507 C2.163,2.97712507 2.5,3.31312507 2.5,3.72712507 C2.5,4.14112507 2.163,4.47712507 1.75,4.47712507 C1.337,4.47712507 1,4.14112507 1,3.72712507 L1,3.72712507 Z M3.5,3.72712507 C3.5,2.76212507 2.715,1.97712507 1.75,1.97712507 C0.785,1.97712507 0,2.76212507 0,3.72712507 C0,4.69212507 0.785,5.47712507 1.75,5.47712507 C2.05,5.47712507 2.329,5.39412507 2.576,5.26012507 L3.646,6.33112507 L4.354,5.62312507 L3.283,4.55312507 C3.417,4.30612507 3.5,4.02712507 3.5,3.72712507 L3.5,3.72712507 Z M6,10.9771251 L10,10.9771251 L10,7.97712507 L6,7.97712507 L6,10.9771251 Z M7,5.53312507 C7,5.22712507 7.249,4.97712507 7.556,4.97712507 L8.436,4.97712507 C8.747,4.97712507 9,5.23012507 9,5.54112507 L9,6.97712507 L7,6.97712507 L7,5.53312507 Z M7.47,1.20312507 C7.611,1.06112507 7.799,0.983125071 8,0.983125071 C8.2,0.983125071 8.389,1.06112507 8.53,1.20312507 C8.822,1.49512507 8.822,1.97112507 8.53,2.26412507 C8.389,2.40512507 8.2,2.48312507 8,2.48312507 L7.999,2.48312507 C7.799,2.48312507 7.611,2.40512507 7.47,2.26412507 C7.178,1.97112507 7.178,1.49512507 7.47,1.20312507 L7.47,1.20312507 Z M8.53,14.7551251 C8.389,14.8971251 8.2,14.9751251 8,14.9751251 L7.999,14.9751251 C7.799,14.9751251 7.611,14.8971251 7.47,14.7551251 C7.178,14.4631251 7.178,13.9871251 7.47,13.6941251 C7.611,13.5531251 7.799,13.4751251 8,13.4751251 C8.2,13.4751251 8.389,13.5531251 8.53,13.6941251 C8.822,13.9871251 8.822,14.4631251 8.53,14.7551251 L8.53,14.7551251 Z M10.312,6.97712507 L10,6.97712507 L10,5.54112507 C10,4.70112507 9.332,4.01812507 8.5,3.98412507 L8.5,3.40212507 C8.775,3.32012507 9.029,3.17912507 9.237,2.97112507 C9.92,2.28812507 9.92,1.17812507 9.237,0.496125071 C8.575,-0.165874929 7.423,-0.164874929 6.763,0.496125071 C6.08,1.17812507 6.08,2.28812507 6.763,2.97012507 C6.97,3.17912507 7.225,3.32112507 7.5,3.40312507 L7.5,3.98312507 C6.669,4.01312507 6,4.69412507 6,5.53312507 L6,6.97712507 L5.697,6.97712507 C5.312,6.97712507 5,7.29012507 5,7.67412507 L5,11.2801251 C5,11.6641251 5.312,11.9771251 5.697,11.9771251 L7.5,11.9771251 L7.5,12.5691251 C7.227,12.6461251 6.969,12.7811251 6.763,12.9871251 C6.08,13.6701251 6.08,14.7801251 6.763,15.4621251 C7.092,15.7921251 7.531,15.9751251 7.999,15.9751251 L8,15.9751251 C8.467,15.9751251 8.907,15.7931251 9.237,15.4621251 C9.92,14.7801251 9.92,13.6691251 9.237,12.9871251 C9.03,12.7801251 8.773,12.6461251 8.5,12.5691251 L8.5,11.9771251 L10.5,11.9771251 C10.776,11.9771251 11,11.7531251 11,11.4771251 L11,7.66512507 C11,7.28612507 10.691,6.97712507 10.312,6.97712507 L10.312,6.97712507 Z" id="Fill-5"></path>
        </g>
    </g>
</svg>