<svg xmlns="http://www.w3.org/2000/svg" xmlns:xlink="http://www.w3.org/1999/xlink" viewBox="0 0 212.03 71.81"><defs><style>.cls-1{fill:#253858;}.cls-2{fill:#2684ff;}.cls-3{fill:url(#New_Gradient_Swatch_1);}.cls-4{fill:url(#New_Gradient_Swatch_1-2);}</style><linearGradient id="New_Gradient_Swatch_1" x1="53.96" y1="17.29" x2="39.25" y2="32.46" gradientUnits="userSpaceOnUse"><stop offset="0.18" stop-color="#0052cc"/><stop offset="1" stop-color="#2684ff"/></linearGradient><linearGradient id="New_Gradient_Swatch_1-2" x1="37.83" y1="34.62" x2="20.82" y2="51.16" xlink:href="#New_Gradient_Swatch_1"/></defs><title>Jira-blue</title><g id="Layer_2" data-name="Layer 2"><g id="Blue"><path class="cls-1" d="M108.55,7h7.92V47.21c0,10.65-4.66,18-15.58,18a28.14,28.14,0,0,1-9.5-1.5V56a22.2,22.2,0,0,0,8.18,1.5c6.69,0,9-4,9-9.77Z"/><path class="cls-1" d="M130.9,3.92a4.94,4.94,0,0,1,5.28,5.28,5.28,5.28,0,1,1-10.56,0A4.94,4.94,0,0,1,130.9,3.92ZM127,20.81h7.57v44H127Z"/><path class="cls-1" d="M146,20.81h7.39v7.74c2.55-5.19,7-8.89,15.58-8.36v7.39c-9.68-1-15.58,1.94-15.58,11.26v26H146Z"/><path class="cls-1" d="M204.46,56.89c-2.82,5.81-8.1,8.8-14.87,8.8-11.7,0-17.6-9.94-17.6-22.88,0-12.41,6.16-22.88,18.48-22.88,6.42,0,11.35,2.9,14,8.62V20.81H212v44h-7.57Zm-12.85,1.76c6.78,0,12.85-4.31,12.85-14.08V41.05c0-9.77-5.54-14.08-12-14.08-8.54,0-12.94,5.63-12.94,15.84C179.56,53.37,183.78,58.65,191.62,58.65Z"/><path class="cls-2" d="M68.81,0H34.23A15.61,15.61,0,0,0,49.84,15.61h6.37v6.15A15.61,15.61,0,0,0,71.81,37.36V3A3,3,0,0,0,68.81,0Z"/><path class="cls-3" d="M51.7,17.23H17.12A15.61,15.61,0,0,0,32.72,32.83h6.37V39A15.61,15.61,0,0,0,54.7,54.59V20.23A3,3,0,0,0,51.7,17.23Z"/><path class="cls-4" d="M34.58,34.45H0A15.61,15.61,0,0,0,15.61,50.06H22v6.15A15.61,15.61,0,0,0,37.58,71.81V37.45A3,3,0,0,0,34.58,34.45Z"/></g></g></svg>