<svg xmlns="http://www.w3.org/2000/svg" viewBox="0 0 179.05 60.01"><defs><style>.cls-1,.cls-2,.cls-3{fill:#fff;}.cls-2{fill-rule:evenodd;}.cls-3{opacity:0.7;}</style></defs><title>Asset 1</title><g id="Layer_2" data-name="Layer 2"><g id="Logo"><path class="cls-1" d="M61.23,7.86V4.63h-3V7.86H56.77V.11h1.51V3.36h3V.11h1.51V7.86Zm7,0h-1.2L67,7.48A3.28,3.28,0,0,1,65.22,8c-1.06,0-1.52-.7-1.52-1.66,0-1.14.51-1.57,1.7-1.57h1.4V4.15c0-.62-.18-.84-1.11-.84a8.46,8.46,0,0,0-1.61.17l-.18-1.07a7.89,7.89,0,0,1,2-.26c1.83,0,2.37.62,2.37,2ZM66.8,5.75H65.72c-.48,0-.61.13-.61.55s.13.56.59.56a2.37,2.37,0,0,0,1.1-.29ZM71.31,8a7.12,7.12,0,0,1-2-.32l.2-1.07a6.77,6.77,0,0,0,1.73.24c.65,0,.74-.14.74-.56s-.07-.52-1-.73c-1.42-.33-1.59-.68-1.59-1.76s.51-1.62,2.18-1.62a8,8,0,0,1,1.75.2l-.14,1.11a10.66,10.66,0,0,0-1.6-.16c-.63,0-.74.14-.74.48s0,.48.82.68c1.63.41,1.78.62,1.78,1.77S73.07,8,71.31,8ZM78,7.86V4c0-.3-.13-.45-.47-.45A4.14,4.14,0,0,0,76,4V7.86H74.54V0L76,.22V2.69a5.31,5.31,0,0,1,2.13-.54c1,0,1.32.65,1.32,1.65V7.86Zm2.68-6.38V.11h1.46V1.48Zm0,6.38V2.27h1.46V7.86Zm2.62-5.54c0-1.4.85-2.22,2.83-2.22a9.37,9.37,0,0,1,2.16.25L88.12,1.6a12.21,12.21,0,0,0-1.95-.2c-1,0-1.37.34-1.37,1.16V5.5c0,.81.33,1.16,1.37,1.16a12.21,12.21,0,0,0,1.95-.2l.17,1.25A9.37,9.37,0,0,1,86.13,8c-2,0-2.83-.81-2.83-2.22ZM91.51,8C89.52,8,89,6.92,89,5.77V4.36c0-1.15.54-2.2,2.53-2.2S94,3.21,94,4.36V5.77C94,6.92,93.51,8,91.51,8Zm0-4.63c-.78,0-1.08.33-1.08,1v1.5c0,.63.3,1,1.08,1s1.08-.33,1.08-1V4.31C92.59,3.68,92.29,3.35,91.51,3.35Zm6.64.09a11.57,11.57,0,0,0-1.54.81v3.6H95.15V2.27h1.23l.1.62A6.63,6.63,0,0,1,98,2.15ZM104,6a1.73,1.73,0,0,1-1.92,2,8.36,8.36,0,0,1-1.55-.16V10.1L99,10.31v-8h1.16l.14.47a3.15,3.15,0,0,1,1.84-.59c1.17,0,1.79.67,1.79,1.94Zm-3.48.63a6.72,6.72,0,0,0,1.29.15c.53,0,.73-.24.73-.75v-2c0-.46-.18-.71-.72-.71a2.11,2.11,0,0,0-1.3.51Z"/><polygon class="cls-2" points="0 7.34 19.45 18.58 19.45 60.01 0 48.77 0 7.34"/><path class="cls-3" d="M29.07,12.19,7.94,0V8.47l14.37,8.3V42.13L29.07,46c4.19,2.42,7.61,1,7.61-3.22V24.19C36.68,20,33.26,14.6,29.07,12.19Z"/><path class="cls-1" d="M56.77,14.1H69.25c7.4,0,10.13,3,10.13,8.65v4.37c0,5.57-3,8.6-10.42,8.6H62.82V46.09H56.77Zm12.15,5.33h-6.1v11h6.1c3.41,0,4.42-1.25,4.42-3.89V23.22C73.34,20.58,72.23,19.43,68.92,19.43Z"/><path class="cls-1" d="M99.85,46.09H95l-.43-1.58a12.79,12.79,0,0,1-7,2.07c-4.27,0-6.1-2.93-6.1-7,0-4.76,2.07-6.58,6.82-6.58H94V30.57c0-2.59-.72-3.51-4.47-3.51a32.68,32.68,0,0,0-6.48.72l-.72-4.47a30.52,30.52,0,0,1,8-1.1c7.35,0,9.51,2.59,9.51,8.45ZM94,37.25H89.67c-1.92,0-2.45.53-2.45,2.31s.53,2.35,2.35,2.35A9.22,9.22,0,0,0,94,40.71Z"/><path class="cls-1" d="M103.35,37.59V31.2c0-6.29,2.74-9,10.09-9a20.15,20.15,0,0,1,5.72.86l-.72,4.8a21.31,21.31,0,0,0-4.85-.62c-3.36,0-4.37,1-4.37,3.89v6.48c0,2.88,1,3.89,4.37,3.89a19.79,19.79,0,0,0,4.85-.62l.72,4.8a19.29,19.29,0,0,1-5.72.86C106.09,46.57,103.35,43.88,103.35,37.59Z"/><path class="cls-1" d="M122.85,46.09V13.14l5.86-.82V46.09ZM142.74,22.7l-6.87,11.58L143,46.09h-6.44l-7.06-11.82,6.68-11.58Z"/><path class="cls-1" d="M154.94,41.76a24.51,24.51,0,0,0,7.16-1.1l.91,4.42a25.11,25.11,0,0,1-8.6,1.49c-7.35,0-9.89-3.41-9.89-9v-6.2c0-4.95,2.21-9.13,9.7-9.13s9.17,4.37,9.17,9.41v5h-13v1.2C150.37,40.66,151.38,41.76,154.94,41.76Zm-4.56-9.85h7.44V30.77c0-2.21-.67-3.75-3.55-3.75s-3.89,1.54-3.89,3.75Z"/><path class="cls-1" d="M179,27.6a45.86,45.86,0,0,0-6.2,3.41V46.09H167V22.7h4.95l.38,2.59a26.21,26.21,0,0,1,6.15-3.07Z"/></g></g></svg>