<?xml version="1.0" encoding="utf-8"?>
<!-- Generator: Adobe Illustrator 23.0.3, SVG Export Plug-In . SVG Version: 6.00 Build 0)  -->
<svg version="1.1" id="Layer_1" xmlns="http://www.w3.org/2000/svg" xmlns:xlink="http://www.w3.org/1999/xlink" x="0px" y="0px"
	 width="32px" height="32px" viewBox="0 0 32 32" enable-background="new 0 0 32 32" xml:space="preserve">
<path fill="#FF8C00" d="M7.27,18.15c0,0-3.83-2.8-6.77-1.79C1.44,13.44,5.59,10,9.22,9.19c4.21,0.29,4.91,0.99,4.91,0.99L7.27,18.15
	L7.27,18.15L7.27,18.15z"/>
<path fill="#DD5900" d="M14.17,25.04L14.17,25.04l7.97-6.86c0,0,0.71,0.71,0.99,4.91c-0.81,3.63-4.25,7.78-7.17,8.71
	C16.97,28.87,14.17,25.04,14.17,25.04L14.17,25.04z"/>
<path fill="#DD5900" d="M31.84,0.23c0,0-15.46,2.73-24.75,17.68l7.07,7.07C29.11,15.68,31.84,0.23,31.84,0.23z"/>
<path fill="#DD5900" d="M31.84,0.23L10.62,21.44l3.54,3.54C29.11,15.68,31.84,0.23,31.84,0.23L31.84,0.23z"/>
<path fill="#FF8C00" d="M8.05,18.87C15.31,7.73,25.79,3.4,29.77,2.29c-1.11,3.99-5.43,14.46-16.58,21.72L8.05,18.87z"/>
<path fill="#0072C6" d="M31.84,0.23c0,0-3.86,0.68-8.89,3.23l5.66,5.66C31.15,4.09,31.84,0.23,31.84,0.23z"/>
<path fill="#FF8C00" d="M1.55,30.51c0,0,0.59-9.07,5.54-12.61l7.07,7.07C10.62,29.93,1.55,30.51,1.55,30.51z"/>
<path fill="#FCD116" d="M3.15,28.92c-0.17-1.64,2.09-7.44,4.93-10.03l5.1,5.1C10.58,26.84,4.78,29.09,3.15,28.92z"/>
<path opacity="0.6" fill="#FFFFFF" d="M4.81,27.25c0.02-1.57,2.47-5.85,3.98-7.64l3.66,3.66C10.44,24.99,5.96,27.24,4.81,27.25z"/>
<circle fill="#FFFFFF" cx="20.52" cy="11.54" r="4"/>
<circle fill="#FCD116" cx="20.52" cy="11.54" r="3"/>
<path opacity="0.4" fill="#FFFFFF" d="M17.81,12.81c-0.7-1.5-0.05-3.28,1.45-3.98c1.5-0.7,3.28-0.05,3.98,1.45L17.81,12.81z"/>
<rect x="9.62" y="17.44" transform="matrix(0.7071 0.7071 -0.7071 0.7071 18.2728 -1.2314)" fill="#DD5900" width="2" height="8"/>
</svg>
