<?xml version="1.0" encoding="utf-8"?>
<!-- Generator: Adobe Illustrator 19.1.0, SVG Export Plug-In . SVG Version: 6.00 Build 0)  -->
<svg version="1.1" id="Layer_1" xmlns="http://www.w3.org/2000/svg" xmlns:xlink="http://www.w3.org/1999/xlink" x="0px" y="0px"
	 width="50px" height="50px" viewBox="0 0 50 50" enable-background="new 0 0 50 50" xml:space="preserve">
<polygon fill="#59B4D9" points="45,6.8 40.2,2 38.2,0 38,0 3,0 3,50 47,50 47,9 47,8.8 "/>
<polygon opacity="0.8" fill="#FFFFFF" enable-background="new    " points="38,2 5,2 5,48 45,48 45,9 38,9 "/>
<g>
	<path fill="#59B4D9" d="M13.243,26.675c0,1.08-0.267,1.921-0.8,2.52c-0.534,0.6-1.246,0.899-2.135,0.899
		c-0.416,0-0.756-0.049-1.023-0.146v-1.424c0.242,0.165,0.553,0.248,0.935,0.248c1.008,0,1.512-0.78,1.512-2.339v-5.605h1.512
		V26.675z"/>
	<path fill="#59B4D9" d="M14.991,29.579v-1.557c0.14,0.127,0.306,0.241,0.499,0.343s0.397,0.188,0.613,0.258
		c0.216,0.069,0.432,0.124,0.648,0.162c0.216,0.038,0.415,0.057,0.597,0.057c0.636,0,1.109-0.105,1.42-0.317
		s0.467-0.519,0.467-0.922c0-0.216-0.052-0.403-0.155-0.563c-0.104-0.158-0.249-0.304-0.436-0.435
		c-0.187-0.132-0.406-0.258-0.658-0.379c-0.252-0.12-0.522-0.246-0.81-0.377c-0.31-0.166-0.598-0.333-0.864-0.503
		c-0.267-0.169-0.499-0.356-0.696-0.562c-0.197-0.206-0.352-0.438-0.464-0.696c-0.112-0.259-0.168-0.562-0.168-0.909
		c0-0.428,0.096-0.799,0.289-1.115c0.192-0.315,0.447-0.576,0.763-0.781c0.315-0.206,0.674-0.358,1.077-0.458
		c0.402-0.099,0.813-0.149,1.232-0.149c0.954,0,1.648,0.108,2.084,0.324v1.494c-0.517-0.373-1.182-0.559-1.995-0.559
		c-0.225,0-0.448,0.021-0.67,0.063c-0.223,0.042-0.422,0.112-0.598,0.209c-0.176,0.098-0.319,0.223-0.429,0.375
		c-0.11,0.152-0.166,0.337-0.166,0.553c0,0.204,0.042,0.379,0.127,0.528c0.084,0.148,0.208,0.284,0.372,0.406
		c0.163,0.123,0.362,0.243,0.597,0.359c0.235,0.117,0.507,0.243,0.817,0.378c0.317,0.166,0.617,0.339,0.899,0.521
		c0.282,0.182,0.53,0.383,0.744,0.604c0.214,0.22,0.383,0.465,0.508,0.733c0.125,0.27,0.188,0.575,0.188,0.919
		c0,0.462-0.093,0.852-0.28,1.169c-0.186,0.317-0.438,0.576-0.753,0.775s-0.679,0.343-1.09,0.433
		c-0.411,0.089-0.845,0.133-1.303,0.133c-0.152,0-0.34-0.012-0.563-0.035c-0.222-0.023-0.45-0.057-0.683-0.102
		c-0.233-0.044-0.453-0.099-0.661-0.162S15.118,29.66,14.991,29.579z"/>
	<path fill="#59B4D9" d="M26.252,30.094c-1.314,0-2.366-0.426-3.156-1.277c-0.79-0.852-1.185-1.959-1.185-3.323
		c0-1.466,0.402-2.635,1.208-3.508c0.805-0.873,1.897-1.309,3.278-1.309c1.279,0,2.311,0.423,3.092,1.271
		c0.783,0.847,1.174,1.955,1.174,3.323c0,1.487-0.4,2.663-1.201,3.527S27.59,30.094,26.252,30.094z M26.32,22.004
		c-0.834,0-1.513,0.311-2.036,0.934c-0.523,0.623-0.785,1.442-0.785,2.46c0,1.012,0.254,1.827,0.763,2.446
		c0.508,0.618,1.173,0.928,1.996,0.928c0.873,0,1.561-0.295,2.064-0.884s0.756-1.413,0.756-2.472c0-1.089-0.244-1.93-0.732-2.523
		C27.855,22.301,27.182,22.004,26.32,22.004z"/>
	<path fill="#59B4D9" d="M40.061,29.941h-1.652l-4.354-6.698c-0.11-0.169-0.201-0.346-0.273-0.528h-0.038
		c0.034,0.195,0.051,0.612,0.051,1.252v5.974h-1.461v-9.113h1.76l4.207,6.54c0.178,0.271,0.293,0.457,0.344,0.559h0.025
		c-0.043-0.241-0.063-0.65-0.063-1.227v-5.872h1.455V29.941z"/>
</g>
</svg>
