<svg xmlns="http://www.w3.org/2000/svg" viewBox="0 0 222.53 60.01"><defs><style>.cls-1,.cls-2{fill:#fff;}.cls-2{opacity:0.7;}</style></defs><title>Asset 1</title><g id="Layer_2" data-name="Layer 2"><g id="Logo"><path class="cls-1" d="M82.58,7.86V4.63h-3V7.86H78.12V.11h1.51V3.36h3V.11h1.51V7.86Zm7,0h-1.2l-.11-.38A3.28,3.28,0,0,1,86.57,8c-1.06,0-1.52-.7-1.52-1.66,0-1.14.51-1.57,1.7-1.57h1.4V4.15c0-.62-.18-.84-1.11-.84a8.46,8.46,0,0,0-1.61.17l-.18-1.07a7.89,7.89,0,0,1,2-.26c1.83,0,2.37.62,2.37,2ZM88.15,5.75H87.07c-.48,0-.61.13-.61.55s.13.56.59.56a2.37,2.37,0,0,0,1.1-.29ZM92.66,8a7.12,7.12,0,0,1-2-.32l.2-1.07a6.77,6.77,0,0,0,1.73.24c.65,0,.74-.14.74-.56s-.07-.52-1-.73c-1.42-.33-1.59-.68-1.59-1.76s.51-1.62,2.18-1.62a8,8,0,0,1,1.75.2L94.5,3.46a10.66,10.66,0,0,0-1.6-.16c-.63,0-.74.14-.74.48s0,.48.82.68c1.63.41,1.78.62,1.78,1.77S94.42,8,92.66,8Zm6.68-.11V4c0-.3-.13-.45-.47-.45A4.14,4.14,0,0,0,97.35,4V7.86H95.9V0l1.46.22V2.69a5.31,5.31,0,0,1,2.13-.54c1,0,1.32.65,1.32,1.65V7.86ZM102,1.48V.11h1.46V1.48Zm0,6.38V2.27h1.46V7.86Zm2.62-5.54c0-1.4.85-2.22,2.83-2.22a9.37,9.37,0,0,1,2.16.25l-.17,1.25a12.21,12.21,0,0,0-1.95-.2c-1,0-1.37.34-1.37,1.16V5.5c0,.81.33,1.16,1.37,1.16a12.21,12.21,0,0,0,1.95-.2l.17,1.25a9.37,9.37,0,0,1-2.16.25c-2,0-2.83-.81-2.83-2.22ZM112.86,8c-2,0-2.53-1.06-2.53-2.2V4.36c0-1.15.54-2.2,2.53-2.2s2.53,1.06,2.53,2.2V5.77C115.4,6.92,114.86,8,112.86,8Zm0-4.63c-.78,0-1.08.33-1.08,1v1.5c0,.63.3,1,1.08,1s1.08-.33,1.08-1V4.31C113.94,3.68,113.64,3.35,112.86,3.35Zm6.64.09a11.57,11.57,0,0,0-1.54.81v3.6H116.5V2.27h1.23l.1.62a6.63,6.63,0,0,1,1.53-.73ZM125.34,6a1.73,1.73,0,0,1-1.92,2,8.36,8.36,0,0,1-1.55-.16V10.1l-1.46.22v-8h1.16l.14.47a3.15,3.15,0,0,1,1.84-.59c1.17,0,1.79.67,1.79,1.94Zm-3.48.63a6.72,6.72,0,0,0,1.29.15c.53,0,.73-.24.73-.75v-2c0-.46-.18-.71-.72-.71a2.11,2.11,0,0,0-1.3.51Z"/><path class="cls-1" d="M99.88,14.1h6.29l-9.56,32H87.68l-9.56-32h6.29l7.73,26.66Z"/><path class="cls-1" d="M123.66,46.1h-4.8l-.43-1.59a12.8,12.8,0,0,1-7,2.07c-4.28,0-6.1-2.93-6.1-7,0-4.76,2.07-6.58,6.82-6.58h5.62V30.58c0-2.59-.72-3.51-4.47-3.51a32.69,32.69,0,0,0-6.49.72l-.72-4.47a30.53,30.53,0,0,1,8-1.11c7.35,0,9.51,2.59,9.51,8.46Zm-5.86-8.84h-4.32c-1.92,0-2.45.53-2.45,2.31s.53,2.35,2.35,2.35a9.23,9.23,0,0,0,4.42-1.2Z"/><path class="cls-1" d="M134.85,39.8a2.52,2.52,0,0,0-1.39,1.87c0,.62.38.91,1.3,1,2.59.29,4,.43,6.77.72,3.8.43,5,2.31,5,5.67,0,5-1.83,7-10.57,7a34.06,34.06,0,0,1-9-1.2l.72-4.37a32.49,32.49,0,0,0,7.88,1c4.66,0,5.57-.34,5.57-1.87s-.43-1.68-2.21-1.87c-2.69-.29-3.8-.43-6.77-.77-3.31-.38-4.61-1.49-4.61-4.47a5,5,0,0,1,2.45-4c-2.16-1.3-3.17-3.46-3.17-6.29V30c.1-4.85,2.64-7.78,9.42-7.78a15.9,15.9,0,0,1,4,.48h7.21v2.93c-.82.24-1.78.48-2.59.72a8,8,0,0,1,.82,3.65v2.21c0,4.76-2.88,7.64-9.42,7.64A12.18,12.18,0,0,1,134.85,39.8Zm1.34-12.88c-2.88,0-3.89,1.06-3.89,3.27V32c0,2.31,1.15,3.17,3.89,3.17s3.94-.91,3.94-3.17V30.19C140.14,28,139.13,26.93,136.2,26.93Z"/><path class="cls-1" d="M162.09,27.6A45.87,45.87,0,0,0,155.9,31V46.1H150V22.7H155l.38,2.59a26.22,26.22,0,0,1,6.15-3.07Z"/><path class="cls-1" d="M181.69,46.1h-4.8l-.43-1.59a12.8,12.8,0,0,1-7,2.07c-4.28,0-6.1-2.93-6.1-7,0-4.76,2.07-6.58,6.82-6.58h5.62V30.58c0-2.59-.72-3.51-4.47-3.51a32.69,32.69,0,0,0-6.49.72l-.72-4.47a30.53,30.53,0,0,1,8-1.11c7.35,0,9.51,2.59,9.51,8.46Zm-5.86-8.84h-4.32c-1.92,0-2.45.53-2.45,2.31s.53,2.35,2.35,2.35a9.23,9.23,0,0,0,4.42-1.2Z"/><path class="cls-1" d="M199.13,46.1V29.76c0-1.25-.53-1.87-1.87-1.87a16.16,16.16,0,0,0-6.1,2V46.1H185.3V22.7h4.47l.58,2a23.43,23.43,0,0,1,9.37-2.45c3.89,0,5.28,2.74,5.28,6.92v17Z"/><path class="cls-1" d="M222.24,45.66a16.25,16.25,0,0,1-5.14.91c-4.28,0-6.44-2-6.44-6.2v-13h-3.51V22.7h3.51V16.89l5.86-.82V22.7h6l-.38,4.66h-5.62V39.61a1.85,1.85,0,0,0,2.11,2.07,11.27,11.27,0,0,0,2.93-.48Z"/><polygon class="cls-2" points="58.03 10.12 58.03 4.63 44.84 12.3 44.84 16.94 34.29 39.7 29.01 43.34 29.01 60.01 40.32 53.49 58.03 10.12"/><polygon class="cls-2" points="29.01 31.47 21.1 13 21.1 7.78 21.05 7.76 13.19 12.3 13.19 16.94 23.74 40.7 29.01 38.09 29.01 31.47"/><polygon class="cls-1" points="50.12 0.01 36.94 7.73 36.93 7.73 36.93 7.74 36.93 7.74 36.93 7.74 36.93 13 29.01 31.47 29.01 37.64 23.74 40.7 13.19 16.94 13.19 12.29 21.11 7.74 7.91 0.01 0 4.63 0 10.29 17.81 53.54 29.01 60.01 29.01 43.76 34.29 40.7 34.22 40.66 44.84 16.94 44.84 12.3 44.84 12.29 58.03 4.63 50.12 0.01"/></g></g></svg>