<?xml version="1.0" encoding="UTF-8"?>
<svg width="64px" height="64px" viewBox="0 0 64 64" version="1.1" xmlns="http://www.w3.org/2000/svg" xmlns:xlink="http://www.w3.org/1999/xlink">
    <title>Icon-Architecture/48/Arch_AWS-SimSpace-Weaver_48</title>
    <defs>
        <linearGradient x1="0%" y1="100%" x2="100%" y2="0%" id="linearGradient-1">
            <stop stop-color="#C8511B" offset="0%"></stop>
            <stop stop-color="#FF9900" offset="100%"></stop>
        </linearGradient>
    </defs>
    <g id="Icon-Architecture/48/Arch_AWS-SimSpace-Weaver_48" stroke="none" stroke-width="1" fill="none" fill-rule="evenodd">
        <g id="Icon-Architecture-BG/48/Compute" fill="url(#linearGradient-1)">
            <rect id="Rectangle" x="0" y="0" width="64" height="64"></rect>
        </g>
        <g id="Icon-Service/48/AWS-SimSpace-Weaver_48" transform="translate(10.000000, 10.000000)" fill="#FFFFFF">
            <path d="M38,37.028519 L38,31.262519 L42,28.906519 L42,34.790519 L38,37.028519 Z M41.314,42.130519 L30.427,42.130519 L29.211,37.130519 L32,37.130519 L32,37.127519 L36.504,39.597519 C36.657,39.685519 36.829,39.729519 37,39.729519 C37.173,39.729519 37.347,39.684519 37.502,39.594519 C37.525,39.581519 37.543,39.561519 37.565,39.546519 L37.572,39.559519 L39.389,38.542519 L41.314,42.130519 Z M4.717,38.575519 L6.504,39.597519 C6.657,39.685519 6.829,39.729519 7,39.729519 C7.173,39.729519 7.347,39.684519 7.502,39.594519 C7.525,39.581519 7.543,39.561519 7.565,39.546519 L7.572,39.559519 L12,37.082519 L12,37.130519 L14.679,37.130519 L13.386,42.130519 L2.725,42.130519 L4.717,38.575519 Z M2,28.910519 L6,31.131519 L6,37.005519 L2,34.716519 L2,28.910519 Z M7.112,24.820519 L11.06,27.155519 L7.13,29.470519 L3.047,27.204519 L7.112,24.820519 Z M14.204,21.480519 L18.164,23.646519 L17.005,28.130519 L14,28.130519 L14,27.366519 C14.015,27.298519 14.027,27.229519 14.027,27.158519 C14.027,26.804519 13.841,26.477519 13.536,26.297519 L11.97,25.370519 L14.204,21.480519 Z M22.002,2.13351899 L29.902,6.29151899 L22.138,10.560519 L14.114,6.40351899 L22.002,2.13351899 Z M32.26,25.329519 L30.493,26.364519 C30.216,26.527519 30.044,26.814519 30.012,27.130519 L30,27.130519 L30,27.231519 C30,27.234519 29.999,27.236519 29.999,27.239519 C29.999,27.241519 30,27.243519 30,27.246519 L30,28.130519 L27.022,28.130519 L25.926,23.621519 L30.1,21.379519 L32.26,25.329519 Z M32,30.130519 L32,28.927519 L36,31.147519 L36,37.005519 L32,34.716519 L32,30.130519 Z M21.521,25.481519 C21.67,25.563519 21.835,25.604519 22,25.604519 C22.177,25.604519 22.353,25.557519 22.51,25.464519 C22.524,25.456519 22.534,25.443519 22.547,25.435519 L24.105,24.598519 L24.964,28.130519 L19.07,28.130519 L19.973,24.635519 L21.521,25.481519 Z M23,22.922519 L23,12.368519 L31,7.97051899 L31,18.626519 L23,22.922519 Z M13,18.542519 L13,8.07851899 L21,12.223519 L21,22.917519 L13,18.542519 Z M14,30.130519 L16.488,30.130519 L15.196,35.130519 L14,35.130519 L14,30.130519 Z M8,31.279519 L12,28.923519 L12,34.790519 L8,37.028519 L8,31.279519 Z M27.152,37.130519 L28.368,42.130519 L15.451,42.130519 L16.744,37.130519 L27.152,37.130519 Z M17.261,35.130519 L18.553,30.130519 L25.45,30.130519 L26.666,35.130519 L17.261,35.130519 Z M30,35.130519 L28.724,35.130519 L27.508,30.130519 L30,30.130519 L30,35.130519 Z M37.082,24.820519 L41.03,27.155519 L37.101,29.470519 L33.017,27.203519 L37.082,24.820519 Z M44,35.377519 L44,27.130519 L43.993,27.130519 C43.983,26.787519 43.802,26.472519 43.506,26.297519 L37.593,22.799519 C37.281,22.613519 36.892,22.613519 36.578,22.797519 L33.977,24.322519 L31.86,20.434519 L32.473,20.105519 C32.798,19.931519 33,19.592519 33,19.224519 L33,6.36251899 C33.003,6.32851899 33.013,6.29651899 33.013,6.26251899 C33.012,6.23251899 33.003,6.20551899 33,6.17551899 L33,6.13051899 L32.993,6.13051899 C32.948,5.81651899 32.763,5.53751899 32.479,5.38751899 L22.461,0.115518987 C22.166,-0.0404810127 21.813,-0.0384810127 21.52,0.121518987 L11.502,5.54351899 C11.268,5.66951899 11.101,5.88351899 11.026,6.13051899 L11,6.13051899 L11,6.25751899 C10.99,6.31451899 10.977,6.37151899 10.978,6.43151899 C10.978,6.48451899 10.991,6.53451899 11,6.58551899 L11,19.135519 C11,19.501519 11.199,19.837519 11.521,20.012519 L12.447,20.519519 L10.23,24.341519 L7.623,22.799519 C7.311,22.613519 6.921,22.613519 6.608,22.797519 L0.523,26.364519 C0.246,26.527519 0.074,26.814519 0.043,27.130519 L0,27.130519 L0,35.297519 C0,35.655519 0.192,35.986519 0.504,36.165519 L2.981,37.582519 L0.151,42.632519 C-0.021,42.939519 -0.019,43.313519 0.155,43.618519 C0.33,43.923519 0.651,44.114519 1.003,44.121519 L42.696,44.130519 L42.988,44.130519 C43.34,44.129519 43.665,43.944519 43.845,43.642519 C44.025,43.340519 44.033,42.966519 43.867,42.656519 L41.135,37.566519 L43.488,36.249519 C43.805,36.072519 44,35.739519 44,35.377519 L44,35.377519 Z" id="Fill-1"></path>
        </g>
    </g>
</svg>