<?xml version="1.0" encoding="UTF-8"?>
<svg width="64px" height="64px" viewBox="0 0 64 64" version="1.1" xmlns="http://www.w3.org/2000/svg" xmlns:xlink="http://www.w3.org/1999/xlink">
    <title>Icon-Architecture/48/Arch_AWS-Verified-Access_48</title>
    <defs>
        <linearGradient x1="0%" y1="100%" x2="100%" y2="0%" id="linearGradient-1">
            <stop stop-color="#4D27A8" offset="0%"></stop>
            <stop stop-color="#A166FF" offset="100%"></stop>
        </linearGradient>
    </defs>
    <g id="Icon-Architecture/48/Arch_AWS-Verified-Access_48" stroke="none" stroke-width="1" fill="none" fill-rule="evenodd">
        <g id="Icon-Architecture-BG/48/Networking-Content-Delivery" fill="url(#linearGradient-1)">
            <rect id="Rectangle" x="0" y="0" width="64" height="64"></rect>
        </g>
        <g id="Icon-Service/48/AWS-Verified-Access_48" transform="translate(10.000000, 10.000000)" fill="#FFFFFF">
            <path d="M16.0246232,38.292 L15.3586232,40.178 C10.2266232,38.363 6.11362323,34.425 4.07362323,29.375 L5.92662323,28.626 C7.75362323,33.145 11.4336232,36.668 16.0246232,38.292 L16.0246232,38.292 Z M38.3316232,28.626 L40.1846232,29.375 C38.1446232,34.425 34.0306232,38.363 28.8986232,40.178 L28.2326232,38.292 C32.8236232,36.668 36.5046232,33.145 38.3316232,28.626 L38.3316232,28.626 Z M5.92662323,16.144 L4.07362323,15.395 C6.11462323,10.344 10.2276232,6.407 15.3586232,4.592 L16.0246232,6.478 C11.4336232,8.101 7.75362323,11.625 5.92662323,16.144 L5.92662323,16.144 Z M28.2326232,6.478 L28.8986232,4.592 C34.0306232,6.407 38.1436232,10.344 40.1846232,15.395 L38.3316232,16.144 C36.5036232,11.625 32.8236232,8.101 28.2326232,6.478 L28.2326232,6.478 Z M22.0006232,2 C23.1026232,2 24.0006232,2.897 24.0006232,4 C24.0006232,5.104 23.1026232,6 22.0006232,6 C20.8976232,6 20.0006232,5.104 20.0006232,4 C20.0006232,2.897 20.8976232,2 22.0006232,2 L22.0006232,2 Z M22.0006232,8 C24.2066232,8 26.0006232,6.206 26.0006232,4 C26.0006232,1.795 24.2066232,0 22.0006232,0 C19.7946232,0 18.0006232,1.795 18.0006232,4 C18.0006232,6.206 19.7946232,8 22.0006232,8 L22.0006232,8 Z M23.2796232,41.538 C22.8686232,41.88 22.3456232,42.037 21.8176232,41.992 C21.2866232,41.943 20.8046232,41.69 20.4626232,41.28 C19.7576232,40.432 19.8736232,39.168 20.7206232,38.463 C21.0836232,38.162 21.5306232,38 21.9966232,38 C22.0586232,38 22.1206232,38.003 22.1826232,38.009 C22.7136232,38.058 23.1956232,38.311 23.5376232,38.721 C24.2426232,39.569 24.1276232,40.833 23.2796232,41.538 L23.2796232,41.538 Z M22.3656232,36.017 C21.2906232,35.922 20.2616232,36.243 19.4416232,36.926 C18.6206232,37.609 18.1146232,38.572 18.0166232,39.636 C17.9206232,40.7 18.2426232,41.738 18.9256232,42.559 C19.6096232,43.38 20.5716232,43.886 21.6346232,43.984 C21.7596232,43.995 21.8836232,44 22.0066232,44 C22.9396232,44 23.8346232,43.678 24.5586232,43.075 C25.3796232,42.392 25.8856232,41.429 25.9836232,40.365 C26.0806232,39.301 25.7576232,38.263 25.0746232,37.442 C24.3906232,36.621 23.4286232,36.115 22.3656232,36.017 L22.3656232,36.017 Z M40.0006232,24 C38.8976232,24 38.0006232,23.104 38.0006232,22 C38.0006232,20.897 38.8976232,20 40.0006232,20 C41.1026232,20 42.0006232,20.897 42.0006232,22 C42.0006232,23.104 41.1026232,24 40.0006232,24 L40.0006232,24 Z M40.0006232,18 C37.7946232,18 36.0006232,19.795 36.0006232,22 C36.0006232,24.206 37.7946232,26 40.0006232,26 C42.2066232,26 44.0006232,24.206 44.0006232,22 C44.0006232,19.795 42.2066232,18 40.0006232,18 L40.0006232,18 Z M5.27962323,23.538 C4.86862323,23.88 4.34462323,24.037 3.81762323,23.992 C3.28662323,23.943 2.80462323,23.69 2.46262323,23.28 C1.75762323,22.432 1.87362323,21.168 2.72062323,20.463 C3.08362323,20.162 3.53062323,20 3.99662323,20 C4.05862323,20 4.12062323,20.003 4.18262323,20.009 C4.71362323,20.058 5.19562323,20.311 5.53762323,20.721 C6.24262323,21.569 6.12762323,22.833 5.27962323,23.538 L5.27962323,23.538 Z M7.98362323,22.365 C8.08062323,21.301 7.75762323,20.263 7.07462323,19.442 C6.39062323,18.621 5.42862323,18.115 4.36562323,18.017 C3.29562323,17.921 2.26262323,18.243 1.44162323,18.926 C0.620623227,19.609 0.114623227,20.572 0.0166232267,21.636 C-0.0793767733,22.7 0.242623227,23.738 0.925623227,24.559 C1.60962323,25.38 2.57162323,25.886 3.63462323,25.984 C3.75962323,25.995 3.88362323,26 4.00662323,26 C4.93962323,26 5.83462323,25.678 6.55862323,25.075 C7.37962323,24.392 7.88562323,23.429 7.98362323,22.365 L7.98362323,22.365 Z M20.4336232,28.332 L16.8956232,25.002 L18.2666232,23.546 L20.5236232,25.669 L25.9266232,21.228 L27.1966232,22.773 L20.4336232,28.332 Z M20.4046232,13 L23.5956232,13 C24.9216232,13 26.0006232,13.834 26.0006232,14.858 L26.0006232,17 L18.0006232,17 L18.0006232,14.858 C18.0006232,13.834 19.0786232,13 20.4046232,13 L20.4046232,13 Z M14.0006232,31 L30.0006232,31 L30.0006232,19 L14.0006232,19 L14.0006232,31 Z M16.0006232,17 L13.5546232,17 C12.6976232,17 12.0006232,17.698 12.0006232,18.555 L12.0006232,31.446 C12.0006232,32.303 12.6976232,33 13.5546232,33 L30.4456232,33 C31.3026232,33 32.0006232,32.303 32.0006232,31.446 L32.0006232,18.555 C32.0006232,17.698 31.3026232,17 30.4456232,17 L28.0006232,17 L28.0006232,14.858 C28.0006232,12.731 26.0246232,11 23.5956232,11 L20.4046232,11 C17.9756232,11 16.0006232,12.731 16.0006232,14.858 L16.0006232,17 Z" id="Fill-1"></path>
        </g>
    </g>
</svg>