<svg xmlns="http://www.w3.org/2000/svg" viewBox="0 0 250 60"><defs><style>.cls-1,.cls-2{fill:#fff;}.cls-2{fill-rule:evenodd;}</style></defs><title>Asset 1</title><g id="Layer_2" data-name="Layer 2"><g id="Logo"><path class="cls-1" d="M81.78,19.39H72.89V14.08H96.7v5.31H87.8V45.92h-6Z"/><path class="cls-1" d="M102.19,41.62a24.39,24.39,0,0,0,7.12-1.1l.91,4.4a25,25,0,0,1-8.56,1.48c-7.31,0-9.85-3.39-9.85-9V31.24c0-4.92,2.2-9.08,9.66-9.08s9.13,4.35,9.13,9.37v5h-13v1.2C97.65,40.52,98.65,41.62,102.19,41.62Zm-4.54-9.8h7.41V30.67c0-2.2-.67-3.73-3.54-3.73s-3.87,1.53-3.87,3.73Z"/><path class="cls-1" d="M126.19,27.51A45.65,45.65,0,0,0,120,30.91v15h-5.83V22.64h4.92l.38,2.58a26.09,26.09,0,0,1,6.12-3.06Z"/><path class="cls-1" d="M140.43,27.51a45.65,45.65,0,0,0-6.17,3.39v15h-5.83V22.64h4.92l.38,2.58a26.09,26.09,0,0,1,6.12-3.06Z"/><path class="cls-1" d="M159.94,45.92h-4.78l-.43-1.58a12.73,12.73,0,0,1-6.93,2.06c-4.25,0-6.07-2.92-6.07-6.93,0-4.73,2.06-6.55,6.79-6.55h5.59V30.48c0-2.58-.72-3.49-4.45-3.49a32.53,32.53,0,0,0-6.45.72l-.72-4.45a30.38,30.38,0,0,1,8-1.1c7.31,0,9.47,2.58,9.47,8.41Zm-5.83-8.8h-4.3c-1.91,0-2.44.53-2.44,2.29s.53,2.34,2.34,2.34a9.18,9.18,0,0,0,4.4-1.2Z"/><path class="cls-1" d="M177.86,17.33a17.11,17.11,0,0,0-3.35-.38c-2.29,0-2.63,1-2.63,2.77v2.92h5.93l-.33,4.64h-5.59V45.92h-5.83V27.27h-3.73V22.64h3.73V19.39c0-4.83,2.25-7.22,7.41-7.22a18.47,18.47,0,0,1,5,.67Z"/><path class="cls-1" d="M189.24,46.4c-8,0-10.13-4.4-10.13-9.18V31.34c0-4.78,2.15-9.18,10.13-9.18s10.13,4.4,10.13,9.18v5.88C199.38,42,197.22,46.4,189.24,46.4Zm0-19.27c-3.11,0-4.3,1.39-4.3,4v6.26c0,2.63,1.2,4,4.3,4s4.3-1.39,4.3-4V31.15C193.54,28.52,192.35,27.13,189.24,27.13Z"/><path class="cls-1" d="M214.38,27.51a45.65,45.65,0,0,0-6.17,3.39v15h-5.83V22.64h4.92l.38,2.58a26.08,26.08,0,0,1,6.12-3.06Z"/><path class="cls-1" d="M230.4,45.92V29.66c0-1.24-.53-1.86-1.86-1.86a16.08,16.08,0,0,0-6.07,2V45.92h-5.83V22.64h4.45l.57,2A23.32,23.32,0,0,1,231,22.16a4.42,4.42,0,0,1,4.4,2.49,22.83,22.83,0,0,1,9.37-2.49c3.87,0,5.26,2.72,5.26,6.88V45.92h-5.83V29.66c0-1.24-.53-1.86-1.86-1.86a15.43,15.43,0,0,0-6.07,2V45.92Z"/><polygon class="cls-2" points="18.2 10.57 34.6 20.04 34.6 38.98 18.2 29.51 18.2 10.57"/><polygon class="cls-2" points="36.4 20.04 36.4 38.98 52.8 29.51 52.8 10.57 36.4 20.04"/><polygon class="cls-2" points="0 0 0 18.94 16.4 28.41 16.4 9.47 0 0"/><polygon class="cls-2" points="18.2 50.53 34.6 60 34.6 41.18 34.6 41.06 18.2 31.59 18.2 50.53"/><path class="cls-2" d="M45.87,47.57"/><path class="cls-2" d="M18.2,31.59"/><path class="cls-1" d="M81.77,51.63h4.8v.94H82.82v2.56H86.3v.94H82.82v2.77h3.76v.94H81.77Z"/><path class="cls-1" d="M90.11,52.85V59.8h-1V51.63h1.45l3.55,7v-7h1V59.8H93.67Z"/><path class="cls-1" d="M99.56,52.58H97.13v-.94h5.93v.94h-2.44V59.8H99.56Z"/><path class="cls-1" d="M105.07,51.63h4.8v.94h-3.75v2.56h3.48v.94h-3.48v2.77h3.76v.94h-4.82Z"/><path class="cls-1" d="M115.46,56.84h-2v3h-1.05V51.63h3.11c1.75,0,2.37.76,2.37,2v1.18a1.72,1.72,0,0,1-1.3,1.9l2.12,3.08H117.5Zm0-4.27h-2v3.33h2c1,0,1.35-.28,1.35-1.08V53.66C116.84,52.85,116.49,52.58,115.49,52.58Z"/><path class="cls-1" d="M120.88,51.63h3c1.75,0,2.37.76,2.37,2v1.21c0,1.26-.61,2-2.37,2h-1.9V59.8h-1.05Zm2.92.94h-1.86v3.36h1.86c1,0,1.35-.28,1.35-1.08v-1.2C125.15,52.85,124.81,52.58,123.8,52.58Z"/><path class="cls-1" d="M131.49,56.84h-2v3h-1.05V51.63h3.11c1.75,0,2.37.76,2.37,2v1.18a1.72,1.72,0,0,1-1.3,1.9l2.12,3.08h-1.21Zm0-4.27h-2v3.33h2c1,0,1.35-.28,1.35-1.08V53.66C132.86,52.85,132.52,52.58,131.51,52.58Z"/><path class="cls-1" d="M138,59.8H137V51.63H138Z"/><path class="cls-1" d="M143,59.92a7,7,0,0,1-2.43-.43l.17-.86A7.75,7.75,0,0,0,143,59c1.31,0,1.58-.34,1.58-1.27,0-1.1,0-1.2-1.69-1.58-2-.44-2.21-.82-2.21-2.51,0-1.42.59-2.11,2.61-2.11a9.3,9.3,0,0,1,2.21.27l-.09.89a10,10,0,0,0-2.1-.23c-1.34,0-1.58.27-1.58,1.21,0,1.13,0,1.18,1.62,1.58,2.17.54,2.28.86,2.28,2.45C145.67,59.11,145.25,59.92,143,59.92Z"/><path class="cls-1" d="M148.23,51.63H153v.94h-3.75v2.56h3.48v.94h-3.48v2.77h3.76v.94h-4.82Z"/></g></g></svg>