<svg xmlns="http://www.w3.org/2000/svg" viewBox="0 0 116.3 114.36"><defs><style>.cls-1,.cls-2{fill:#fff;}.cls-2{fill-rule:evenodd;}</style></defs><title>Asset 1</title><g id="Layer_2" data-name="Layer 2"><g id="Logo"><path class="cls-1" d="M5.84,87.74H0V84.26H15.63v3.48H9.79v17.42h-4Z"/><path class="cls-1" d="M19.24,102.34a16,16,0,0,0,4.68-.72l.6,2.89a16.41,16.41,0,0,1-5.62,1c-4.8,0-6.47-2.23-6.47-5.9v-4c0-3.23,1.44-6,6.34-6s6,2.86,6,6.15V99H16.26v.78C16.26,101.62,16.92,102.34,19.24,102.34Zm-3-6.44h4.87v-.75c0-1.44-.44-2.45-2.32-2.45s-2.54,1-2.54,2.45Z"/><path class="cls-1" d="M35,93.08a30,30,0,0,0-4,2.23v9.86H27.12V89.88h3.23l.25,1.7a17.13,17.13,0,0,1,4-2Z"/><path class="cls-1" d="M44.35,93.08a30,30,0,0,0-4,2.23v9.86H36.47V89.88h3.23l.25,1.7a17.13,17.13,0,0,1,4-2Z"/><path class="cls-1" d="M57.16,105.17H54l-.28-1a8.36,8.36,0,0,1-4.55,1.35c-2.79,0-4-1.91-4-4.55,0-3.11,1.35-4.3,4.46-4.3h3.67V95c0-1.7-.47-2.29-2.92-2.29a21.36,21.36,0,0,0-4.24.47l-.47-2.92a20,20,0,0,1,5.24-.72c4.8,0,6.22,1.7,6.22,5.52Zm-3.83-5.78H50.51c-1.26,0-1.6.35-1.6,1.51s.35,1.54,1.54,1.54a6,6,0,0,0,2.89-.78Z"/><path class="cls-1" d="M68.93,86.39a11.23,11.23,0,0,0-2.2-.25C65.23,86.14,65,86.8,65,88v1.91H68.9l-.22,3H65v12.24H61.18V92.92H58.73v-3h2.45V87.74C61.18,84.57,62.65,83,66,83a12.13,12.13,0,0,1,3.3.44Z"/><path class="cls-1" d="M76.4,105.48c-5.24,0-6.65-2.89-6.65-6V95.59c0-3.14,1.41-6,6.65-6s6.66,2.89,6.66,6v3.86C83.06,102.59,81.64,105.48,76.4,105.48Zm0-12.65c-2,0-2.83.91-2.83,2.64v4.11c0,1.73.78,2.64,2.83,2.64s2.83-.91,2.83-2.64V95.47C79.23,93.74,78.44,92.83,76.4,92.83Z"/><path class="cls-1" d="M92.91,93.08a30,30,0,0,0-4,2.23v9.86H85V89.88h3.23l.25,1.7a17.12,17.12,0,0,1,4-2Z"/><path class="cls-1" d="M103.43,105.17V94.49c0-.82-.35-1.22-1.22-1.22a10.56,10.56,0,0,0-4,1.29v10.61H94.39V89.88h2.92l.38,1.29a15.31,15.31,0,0,1,6.12-1.6,2.9,2.9,0,0,1,2.89,1.63,15,15,0,0,1,6.15-1.63c2.54,0,3.45,1.79,3.45,4.52v11.08h-3.83V94.49c0-.82-.35-1.22-1.22-1.22a10.13,10.13,0,0,0-4,1.29v10.61Z"/><path class="cls-1" d="M5.83,108.92H9v.62H6.52v1.68H8.81v.62H6.52v1.82H9v.62H5.83Z"/><path class="cls-1" d="M11.31,109.72v4.56h-.66v-5.36h.95l2.33,4.59v-4.59h.66v5.36h-.95Z"/><path class="cls-1" d="M17.52,109.54h-1.6v-.62h3.9v.62h-1.6v4.74h-.69Z"/><path class="cls-1" d="M21.13,108.92h3.15v.62H21.82v1.68h2.29v.62H21.82v1.82h2.47v.62H21.13Z"/><path class="cls-1" d="M28,112.34H26.65v1.94H26v-5.36h2c1.15,0,1.55.5,1.55,1.32V111a1.13,1.13,0,0,1-.85,1.25l1.39,2h-.8Zm0-2.8H26.65v2.19H28c.66,0,.89-.19.89-.71v-.77C28.86,109.72,28.63,109.54,28,109.54Z"/><path class="cls-1" d="M31.52,108.92h1.94c1.15,0,1.55.5,1.55,1.32v.8c0,.83-.4,1.33-1.55,1.33H32.21v1.92h-.69Zm1.92.62H32.21v2.21h1.22c.66,0,.89-.19.89-.71v-.79C34.32,109.72,34.09,109.54,33.43,109.54Z"/><path class="cls-1" d="M38.48,112.34H37.17v1.94h-.69v-5.36h2c1.15,0,1.55.5,1.55,1.32V111a1.13,1.13,0,0,1-.85,1.25l1.39,2h-.8Zm0-2.8H37.17v2.19h1.33c.66,0,.89-.19.89-.71v-.77C39.38,109.72,39.15,109.54,38.49,109.54Z"/><path class="cls-1" d="M42.77,114.28h-.69v-5.36h.69Z"/><path class="cls-1" d="M46,114.36a4.58,4.58,0,0,1-1.59-.28l.11-.56a5.09,5.09,0,0,0,1.5.23c.86,0,1-.23,1-.84s0-.79-1.11-1c-1.3-.29-1.45-.54-1.45-1.65,0-.93.39-1.38,1.71-1.38a6.11,6.11,0,0,1,1.45.18l-.06.59a6.57,6.57,0,0,0-1.38-.15c-.88,0-1,.18-1,.8s0,.77,1.06,1c1.42.35,1.5.56,1.5,1.61S47.52,114.36,46,114.36Z"/><path class="cls-1" d="M49.47,108.92h3.15v.62H50.17v1.68h2.29v.62H50.17v1.82h2.47v.62H49.47Z"/><polygon class="cls-2" points="47.57 13.64 68.73 25.86 68.73 50.3 47.57 38.08 47.57 13.64"/><polygon class="cls-2" points="71.05 25.86 71.05 50.3 92.21 38.08 92.21 13.64 71.05 25.86"/><polygon class="cls-2" points="24.08 0 24.08 24.44 45.25 36.66 45.25 12.22 24.08 0"/><polygon class="cls-2" points="47.57 65.19 68.73 77.41 68.73 53.14 68.73 52.98 47.57 40.76 47.57 65.19"/><path class="cls-2" d="M83.27,61.37"/><path class="cls-2" d="M47.57,40.76"/></g></g></svg>