<svg xmlns="http://www.w3.org/2000/svg" viewBox="0 0 537.23 211.68"><defs><style>.cls-1{fill:#fff;}</style></defs><title>atl-trello</title><g id="Layer_2" data-name="Layer 2"><g id="Layer_1-2" data-name="Layer 1"><path class="cls-1" d="M183.48,1.76a1.18,1.18,0,0,0-1.12-.82h-11a1.18,1.18,0,0,0-1.12.82L156.41,45.69a1.18,1.18,0,0,0,1.12,1.53h7.56a1.17,1.17,0,0,0,1.13-.84l9.54-32.31a1.19,1.19,0,0,1,1.11-.81,1.14,1.14,0,0,1,1.09.84l4.43,15.32h-5.94a1.18,1.18,0,0,0-1.13.86l-1.71,6.07a1.18,1.18,0,0,0,1.13,1.5h10.12l2.67,8.56a1.18,1.18,0,0,0,1.12.83h7.56a1.18,1.18,0,0,0,1.12-1.53Z"/><path class="cls-1" d="M216.41,40.45a1.17,1.17,0,0,0-1.45-1,14.48,14.48,0,0,1-3.31.47c-1.72,0-2.49-.75-2.49-2.42V20.71h6.75a1.18,1.18,0,0,0,1.18-1.18V14.28a1.18,1.18,0,0,0-1.18-1.18h-6.75V5a1.18,1.18,0,0,0-1.34-1.16l-6.95,1a1.18,1.18,0,0,0-1,1.17v7.14h-3.79a1.18,1.18,0,0,0-1.18,1.18v5.25a1.18,1.18,0,0,0,1.18,1.18h3.79V38.63c0,6.15,3.24,9.27,9.62,9.27a25,25,0,0,0,6.91-1.12,1.18,1.18,0,0,0,.78-1.29Z"/><rect class="cls-1" x="221.15" y="0.08" width="9.3" height="47.14" rx="1.18" ry="1.18"/><path class="cls-1" d="M247.15,12.43a44.7,44.7,0,0,0-10.91,1.41,1.17,1.17,0,0,0-.85,1.32l.81,5a1.18,1.18,0,0,0,1.39,1,45.67,45.67,0,0,1,8.4-.87c5,0,5.82,1.06,5.82,4.46v3h-7.45c-7.12,0-10.16,2.94-10.16,9.82,0,6.58,3.33,10.36,9.14,10.36a18.67,18.67,0,0,0,9.55-2.64l.3,1.09a1.18,1.18,0,0,0,1.13.87h5.61A1.18,1.18,0,0,0,261.11,46V24.9C261.11,15.81,257.33,12.43,247.15,12.43Zm4.66,22.29v4.09a12.5,12.5,0,0,1-5.75,1.49c-2.17,0-2.83-.66-2.83-2.83s.41-2.76,3-2.76Z"/><path class="cls-1" d="M278.53,26.11c-4.31-1.11-4.31-1.16-4.31-3.52,0-1.59.16-2.35,3.71-2.35a57.59,57.59,0,0,1,8.33.82,1.18,1.18,0,0,0,1.37-1l.65-5.3a1.18,1.18,0,0,0-.9-1.29,45.58,45.58,0,0,0-9.45-1c-10.69,0-12.88,4-12.88,10.09,0,6.66,1.24,8.9,9.43,10.89,5.39,1.3,5.39,2.26,5.39,3.86,0,2.1-.18,2.83-3.71,2.83a36.6,36.6,0,0,1-9-1.21,1.18,1.18,0,0,0-1.46.93l-.92,5a1.18,1.18,0,0,0,.79,1.33,40.15,40.15,0,0,0,11,1.74c10.35,0,12.47-4.33,12.47-10.84C289,29.88,287.76,28.55,278.53,26.11Z"/><path class="cls-1" d="M305.38,26.11c-4.31-1.11-4.31-1.16-4.31-3.52,0-1.59.16-2.35,3.71-2.35a57.59,57.59,0,0,1,8.33.82,1.18,1.18,0,0,0,1.37-1l.65-5.3a1.18,1.18,0,0,0-.9-1.29,45.58,45.58,0,0,0-9.45-1c-10.69,0-12.88,4-12.88,10.09,0,6.66,1.24,8.9,9.43,10.89,5.39,1.3,5.39,2.26,5.39,3.86,0,2.1-.18,2.83-3.71,2.83a36.6,36.6,0,0,1-9-1.21,1.18,1.18,0,0,0-1.46.93l-.92,5a1.18,1.18,0,0,0,.79,1.33,40.15,40.15,0,0,0,11,1.74c10.35,0,12.47-4.33,12.47-10.84C315.89,29.88,314.61,28.55,305.38,26.11Z"/><rect class="cls-1" x="319.74" width="9.3" height="8.53" rx="1.18" ry="1.18"/><rect class="cls-1" x="319.74" y="13.11" width="9.3" height="34.12" rx="1.18" ry="1.18"/><path class="cls-1" d="M345.91,12.43A44.69,44.69,0,0,0,335,13.84a1.17,1.17,0,0,0-.85,1.32l.81,5a1.18,1.18,0,0,0,1.39,1,45.64,45.64,0,0,1,8.4-.87c5,0,5.82,1.06,5.82,4.46v3h-7.45C336,27.72,333,30.66,333,37.54c0,6.58,3.33,10.36,9.14,10.36a18.67,18.67,0,0,0,9.55-2.64l.3,1.09a1.18,1.18,0,0,0,1.13.87h5.61A1.18,1.18,0,0,0,359.88,46V24.9C359.88,15.81,356.09,12.43,345.91,12.43Zm4.66,22.29v4.09a12.49,12.49,0,0,1-5.75,1.49c-2.17,0-2.83-.66-2.83-2.83s.41-2.76,3-2.76Z"/><path class="cls-1" d="M385.58,12.43a33.31,33.31,0,0,0-12.94,3.26L372.14,14a1.18,1.18,0,0,0-1.13-.85h-5.14a1.18,1.18,0,0,0-1.18,1.18V46a1.18,1.18,0,0,0,1.18,1.18h6.95A1.18,1.18,0,0,0,374,46V24c2.5-1.27,6-2.59,8.13-2.59,1.56,0,2.15.58,2.15,2.15V46a1.18,1.18,0,0,0,1.18,1.18h6.95A1.18,1.18,0,0,0,393.57,46V22.72C393.57,15.89,390.88,12.43,385.58,12.43Z"/><path id="Type" class="cls-1" d="M433,173.5c-8.21,3.35-14.69,14.91-24.55,21.48a3.25,3.25,0,0,1-1.63.61c-.81,0-1.83-.81-1.83-4.48,0-12.63,4.07-18.74,7.54-27.71,12-31.17,32.6-57.86,50.94-87a13.5,13.5,0,0,0,2.24-7.33c0-2.24-.81-4.07-1.83-6.32-.81-1.83-4.48-3.46-8.56-3.46-2.24,0-4.28.2-6.93.2-9.58,0-11.61,14.06-13.85,17.73-15.28,25.88-32.8,57.86-41.77,80.48-2,5.07-4.09,10.14-5.7,15.34-8.86,2.57-15.5,15-25.88,21.94a3.25,3.25,0,0,1-1.63.61c-.81,0-1.83-.81-1.83-4.48,0-12.63,4.07-18.74,7.54-27.71,12-31.17,32.6-57.86,50.94-87a13.5,13.5,0,0,0,2.24-7.33c0-2.24-.81-4.07-1.83-6.32-.81-1.83-4.48-3.46-8.56-3.46-2.24,0-4.28.2-6.93.2-9.58,0-11.61,14.06-13.85,17.73-15.28,25.88-32.8,57.86-41.77,80.48-.71,1.84-1.45,3.68-2.17,5.52l-.68.39c-10.39,6.11-19.15,16.91-31.78,24.25-2.44,1.43-10,6.72-16.1,6.72a8.43,8.43,0,0,1-3.87-1c-1.83-.81-3.67-4.69-3.67-5.91,0-1,.2-1.22,2.24-2.44,17.93-10.8,32.6-26.28,45.23-41.77,4.69-5.7,10.8-16.91,10.8-25.06,0-5.3-1.83-11.41-8.15-13.65a42.06,42.06,0,0,0-13.65-2.44,32.06,32.06,0,0,0-23.23,9.58c-4.56,4.87-9,9.87-13.08,15.05-4.28-3.7-10.33-5.27-16.06-5.27-6.72,0-19.36,8.35-25.88,13.24-1,.81-1.63,1.22-2,1.22-.2,0-.41-.2-.41-.61a32.78,32.78,0,0,0,.41-5.3,21.06,21.06,0,0,0-3.26-11c-.61-1-4.28-3.26-8.76-3.26-5.5,0-10.59,2.65-10.59,5.5,0,2,1.83,2.85,1.83,4.69a64.6,64.6,0,0,1-2,10.19c-3.46,13-7.74,25.88-12.22,38.71-2.44,7.13-10.59,13.45-10.59,21.19,0,2.44,1.63,5.7,3.87,8.15,3.67,4.07,5.91,5.5,9.17,5.5a6.79,6.79,0,0,0,4.48-1.63,15.55,15.55,0,0,0,5.5-9c5.3-24,20.58-40.34,37.49-51.14,5.7-3.67,13.45-7.54,14.47-7.54a19.63,19.63,0,0,1,4.32,1A99.44,99.44,0,0,0,266,166a29.61,29.61,0,0,0-1.22,8.35,44.06,44.06,0,0,0,2.65,14.26c2.24,6.52,5.91,12.22,11,14.87,9.37,4.89,16.1,7.54,22.21,7.54a16.78,16.78,0,0,0,9-2.24c13.39-7.58,21.6-13.32,27.53-18.43.16,5.18,1.18,8,4.86,11.91a32.64,32.64,0,0,0,16.91,9,22.45,22.45,0,0,0,3.67.41c8.63,0,16.93-7,23.33-14a18.42,18.42,0,0,0,3.36,4.59,32.64,32.64,0,0,0,16.91,9,22.45,22.45,0,0,0,3.67.41c10.1,0,19.76-9.62,26.44-17.49,2.23,4.61,8.45,9.16,15.94,12.81a15.56,15.56,0,0,0,6.72,1.63c8.76,0,15.08-7.13,20-12.43,12.63-13.85,19.56-31,24.86-52.57.41-1.63,1-2.24,1.83-2.24a52.06,52.06,0,0,0,7.54-.41c5.5-.81,9.78-2.65,14.87-3.46,3.06-.61,2.65-1.63,5.5-2.65,2-.81,3.67-1.63,3.67-3.67,0-3.46-6.32-7.13-15.89-7.13-7.54,0-12,.61-15.08.61-4.69,0-5.91-1.43-9-9.37h0a8.93,8.93,0,0,0-3.06-4.07,21.38,21.38,0,0,0-13.85-4.89c-10.19,0-18.95,10.39-25.06,19.15-1.43,2-3.46,3.67-4.89,5.91C442,144,434,158.19,433,173.5ZM172.53,104.11c5.09,0,7.95-.41,8.56-.41s1,.2,1,.81c0,.41-.2,1-1.63,4.07-12.43,26.69-21,53.79-28.52,83.74a33.07,33.07,0,0,0-.81,6.93c0,2.85.81,5.91,3.67,7.54,5.5,3.26,10,4.69,13,4.69,4.48,0,6.72-2.85,6.72-7.54a67.72,67.72,0,0,1,.81-11.61c5.7-30,14.26-53.38,27.51-77.83,6.32-11.61,7.13-12.22,7.13-13.24a3.25,3.25,0,0,0-.61-1.63,127.92,127.92,0,0,1,26.89-3.06,17.29,17.29,0,0,1,5.7,2c1.43,1.43,2.85,2.85,5.3,2.85A16.39,16.39,0,0,0,254,99.22c2.85-2,4.28-4.28,4.28-7.95,0-3.46-12.84-12-21.8-12a155.77,155.77,0,0,0-30.36,3.26c-4.07.81-18.74,3.06-29.34,3.06-10.19,0-9.58-1.43-13.85-1.43a6.07,6.07,0,0,0-4.69,2.24c-1,1-1.63,5.09-1.63,8.76,0,1.83,0,3.26,1,4.48,3.06,3.67,9,4.48,14.87,4.48Zm151,16.5c0,1.83-.61,3.06-3.06,6.93s-1.43,3.87-4.48,7.95a175.53,175.53,0,0,1-22.82,24.65c-2.65,2.44-3.06,2.44-3.46,2.44a.65.65,0,0,1-.61-.61c0-.61.2-1.43,2.24-5.7,6.32-13.24,14.06-22,22.62-30.56,4.69-4.69,7.54-6.32,8.56-6.32.61,0,1,.2,1,1.22Zm156.68,5.3q.31,0,.61.61a4.4,4.4,0,0,0,1.63,2c.81.61.81,3.46.81,5.7,0,19.76-11.21,36.06-22.21,52.57-2.44,3.67-3.87,4.28-5.09,4.28-1,0-2.65-2.65-3.26-4.28a19.67,19.67,0,0,1-1-5.91c0-15.89,15.08-39.53,25.06-52.57,1.63-2.24,2.85-2.44,3.46-2.44Z"/><path class="cls-1" d="M112.55,81.79H16.08A16.08,16.08,0,0,0,0,97.87v96.47a16.08,16.08,0,0,0,16.08,16.08h96.47a16.08,16.08,0,0,0,16.08-16.08V97.87A16.08,16.08,0,0,0,112.55,81.79ZM56,179.23a7.72,7.72,0,0,1-7.72,7.72H24.44a7.72,7.72,0,0,1-7.72-7.72v-73a7.72,7.72,0,0,1,7.72-7.72h23.8A7.72,7.72,0,0,1,56,106.23Zm56-32.16a7.72,7.72,0,0,1-7.72,7.72H80.39a7.72,7.72,0,0,1-7.72-7.72V106.23a7.72,7.72,0,0,1,7.72-7.72h23.8a7.72,7.72,0,0,1,7.72,7.72Z"/></g></g></svg>