<svg xmlns="http://www.w3.org/2000/svg" viewBox="0 0 101.99 101.99"><defs><style>.cls-1{fill:#fff;}</style></defs><title>mark- trello</title><g id="Layer_2" data-name="Layer 2"><g id="Layer_1-2" data-name="Layer 1"><path class="cls-1" d="M89.24,0H12.75A12.75,12.75,0,0,0,0,12.75V89.24A12.75,12.75,0,0,0,12.75,102H89.24A12.75,12.75,0,0,0,102,89.24V12.75A12.75,12.75,0,0,0,89.24,0ZM44.37,77.51a6.12,6.12,0,0,1-6.12,6.12H19.38a6.12,6.12,0,0,1-6.12-6.12V19.38a6.12,6.12,0,0,1,6.12-6.12H38.25a6.12,6.12,0,0,1,6.12,6.12ZM88.74,52a6.12,6.12,0,0,1-6.12,6.12H63.75A6.12,6.12,0,0,1,57.63,52V19.38a6.12,6.12,0,0,1,6.12-6.12H82.62a6.12,6.12,0,0,1,6.12,6.12Z"/></g></g></svg>