<?xml version="1.0" encoding="utf-8"?>
<!-- Generator: Adobe Illustrator 22.1.0, SVG Export Plug-In . SVG Version: 6.00 Build 0)  -->
<svg version="1.1" xmlns="http://www.w3.org/2000/svg" xmlns:xlink="http://www.w3.org/1999/xlink" x="0px" y="0px"
	 viewBox="0 0 66 63" style="enable-background:new 0 0 66 63;" xml:space="preserve">
<style type="text/css">
	.st0{fill-rule:evenodd;clip-rule:evenodd;fill:none;}
	.st1{display:none;}
	.st2{display:inline;fill-rule:evenodd;clip-rule:evenodd;fill:#0072C6;}
	.st3{display:inline;fill:#59B4D9;}
	.st4{display:inline;opacity:0.2;fill:#FFFFFF;}
	.st5{display:inline;opacity:0.15;}
	.st6{display:inline;fill:#FF8C00;}
	.st7{display:inline;opacity:0.12;}
	.st8{display:inline;fill:#FCD116;}
	.st9{display:inline;opacity:0.2;fill:#FF8C00;}
	.st10{display:inline;}
	.st11{opacity:0.15;}
	.st12{fill:#FF8C00;}
	.st13{display:inline;fill:#DD5900;}
	.st14{display:inline;opacity:0.2;fill:#FCD116;}
	.st15{fill:#DD5900;}
	.st16{opacity:0.2;fill:#FF8C00;}
	.st17{display:inline;opacity:0.4;fill:#FFFFFF;}
	.st18{display:inline;fill:#FFFFFF;}
	.st19{display:inline;fill:#0072C6;}
	.st20{fill:#0072C6;}
	.st21{opacity:0.2;fill:#1E1E1E;}
	.st22{display:inline;fill:#7A7A7A;}
	.st23{display:inline;opacity:0.2;fill:#1E1E1E;}
	.st24{display:inline;opacity:0.2;}
	.st25{fill:#1E1E1E;}
	.st26{fill:#7A7A7A;}
	.st27{fill:#A0A1A2;}
	.st28{opacity:0.2;fill:#FFFFFF;enable-background:new    ;}
	.st29{fill:#59B4D9;}
	.st30{fill:#B8D432;}
	.st31{display:inline;opacity:0.3;fill:#0072C6;}
	.st32{fill:#3999C6;}
	.st33{opacity:0.3;fill:#59B4D9;}
	.st34{display:inline;opacity:0.8;fill:#3999C6;}
	.st35{display:inline;opacity:0.6;fill:#7A7A7A;}
	.st36{display:inline;opacity:0.4;fill:#DD5900;}
	.st37{display:inline;fill:none;stroke:#FFFFFF;stroke-width:2;stroke-miterlimit:10;}
	.st38{display:inline;opacity:0.6;fill:#DD5900;}
	.st39{opacity:0.6;fill:#0072C6;}
	.st40{display:inline;opacity:0.6;fill:#0072C6;}
	.st41{fill:#FFFFFF;}
	.st42{display:inline;fill:#3999C6;}
	.st43{display:inline;opacity:0.7;}
	.st44{display:inline;fill:none;stroke:#FFFFFF;stroke-width:2.5;stroke-miterlimit:10;}
	.st45{display:inline;fill:none;stroke:#FFFFFF;stroke-width:0.7875;stroke-linecap:round;stroke-miterlimit:10;}
	.st46{display:inline;opacity:0.4;fill:#0072C6;}
	.st47{display:inline;fill:none;stroke:#FFFFFF;stroke-width:0.7229;stroke-miterlimit:10;}
	.st48{fill:#BA141A;}
	.st49{display:inline;opacity:0.4;}
	.st50{display:inline;opacity:0.2;fill:#BA141A;}
	.st51{display:inline;opacity:0.25;fill:#BA141A;}
	.st52{clip-path:url(#SVGID_2_);fill-rule:evenodd;clip-rule:evenodd;fill:#E5E5E5;}
	.st53{clip-path:url(#SVGID_2_);fill-rule:evenodd;clip-rule:evenodd;fill:#A0A1A2;}
	.st54{clip-path:url(#SVGID_2_);fill-rule:evenodd;clip-rule:evenodd;fill:#FFFFFF;}
	.st55{clip-path:url(#SVGID_2_);fill-rule:evenodd;clip-rule:evenodd;fill:#7A7A7A;}
	.st56{clip-path:url(#SVGID_2_);fill-rule:evenodd;clip-rule:evenodd;fill:#3E3E3E;}
	.st57{clip-path:url(#SVGID_2_);fill-rule:evenodd;clip-rule:evenodd;fill:#777777;}
	.st58{clip-path:url(#SVGID_2_);fill-rule:evenodd;clip-rule:evenodd;fill:#F2F2F2;}
	.st59{clip-path:url(#SVGID_2_);fill-rule:evenodd;clip-rule:evenodd;fill:#1E1E1E;}
	.st60{clip-path:url(#SVGID_2_);fill-rule:evenodd;clip-rule:evenodd;fill:#BA141A;}
	.st61{clip-path:url(#SVGID_2_);fill-rule:evenodd;clip-rule:evenodd;fill:#DD5900;}
	.st62{clip-path:url(#SVGID_2_);fill-rule:evenodd;clip-rule:evenodd;fill:#FF8C00;}
	.st63{clip-path:url(#SVGID_2_);fill-rule:evenodd;clip-rule:evenodd;fill:#FCD116;}
	.st64{clip-path:url(#SVGID_2_);fill-rule:evenodd;clip-rule:evenodd;fill:#FEE087;}
	.st65{clip-path:url(#SVGID_2_);fill-rule:evenodd;clip-rule:evenodd;fill:#B8D432;}
	.st66{clip-path:url(#SVGID_2_);fill-rule:evenodd;clip-rule:evenodd;fill:#7FBA00;}
	.st67{clip-path:url(#SVGID_2_);fill-rule:evenodd;clip-rule:evenodd;fill:#59B4D9;}
	.st68{clip-path:url(#SVGID_2_);fill-rule:evenodd;clip-rule:evenodd;fill:#3999C6;}
	.st69{clip-path:url(#SVGID_2_);fill-rule:evenodd;clip-rule:evenodd;fill:#804998;}
	.st70{clip-path:url(#SVGID_2_);fill-rule:evenodd;clip-rule:evenodd;fill:#EC008C;}
	.st71{clip-path:url(#SVGID_2_);fill-rule:evenodd;clip-rule:evenodd;fill:#0072C6;}
	.st72{clip-path:url(#SVGID_2_);fill-rule:evenodd;clip-rule:evenodd;fill:#68217A;}
	.st73{clip-path:url(#SVGID_2_);fill-rule:evenodd;clip-rule:evenodd;fill:#00188F;}
	.st74{clip-path:url(#SVGID_2_);fill:#929497;}
	.st75{display:none;fill:#59B4D9;}
	.st76{fill:#804998;}
	.st77{fill:#7FBA00;}
	.st78{opacity:0.4;fill:#FFFFFF;}
</style>
<g id="slices">
	<rect id="_x3C_Slice_x3E__7_" x="343" y="137" class="st0" width="115" height="115"/>
	<rect id="_x3C_Slice_x3E__6_" x="273" y="277" class="st0" width="255" height="115"/>
	<rect id="_x3C_Slice_x3E__5_" x="513" y="137" class="st0" width="90" height="90"/>
	<rect id="_x3C_Slice_x3E__1_" x="643" y="137" class="st0" width="40" height="40"/>
</g>
<g id="tiles" class="st1">
	<rect x="488" y="257" class="st2" width="40" height="40"/>
	<rect x="358" y="257" class="st2" width="90" height="90"/>
	<rect x="188" y="257" class="st2" width="115" height="115"/>
	<rect x="118" y="397" class="st2" width="255" height="115"/>
	<rect x="988" y="257" class="st2" width="40" height="40"/>
	<rect x="858" y="257" class="st2" width="90" height="90"/>
	<rect x="688" y="257" class="st2" width="115" height="115"/>
	<rect x="618" y="397" class="st2" width="255" height="115"/>
</g>
<g id="tiles_2">
</g>
<g id="archive" class="st1">
	<path class="st3" d="M241.1,74.1c0.8-2,1-4.2,0.5-6.5c-0.9-4.2-4.4-7.5-8.6-8.3c-2.5-0.5-4.8-0.1-6.8,0.9c-2.4-3.1-6.1-5-10.2-5
		c-7.2,0-12.9,5.8-12.9,12.9c0,0.6,0.1,1.1,0.1,1.7c-4.5,1.7-7.6,6.3-7,11.6c0.7,5.6,5.6,9.6,11.2,9.6h29.3c4.5,0,8.5-3.2,9.1-7.7
		C246.3,79.3,244.3,75.8,241.1,74.1z"/>
	<path class="st4" d="M241.1,74.1c0.8-2,1-4.2,0.5-6.5c-0.9-4.2-4.4-7.5-8.6-8.3c-2.5-0.5-4.8-0.1-6.8,0.9c-2.4-3.1-6.1-5-10.2-5
		c-7.2,0-12.9,5.8-12.9,12.9c0,0.6,0.1,1.1,0.1,1.7c-4.5,1.7-7.6,6.3-7,11.6c0.7,5.6,5.6,9.6,11.2,9.6h29.3c4.5,0,8.5-3.2,9.1-7.7
		C246.3,79.3,244.3,75.8,241.1,74.1z"/>
	<path class="st3" d="M341.1,74.1c0.8-2,1-4.2,0.5-6.5c-0.9-4.2-4.4-7.5-8.6-8.3c-2.5-0.5-4.8-0.1-6.8,0.9c-2.4-3.1-6.1-5-10.2-5
		c-7.2,0-12.9,5.8-12.9,12.9c0,0.6,0.1,1.1,0.1,1.7c-4.5,1.7-7.6,6.3-7,11.6c0.7,5.6,5.6,9.6,11.2,9.6h29.3c4.5,0,8.5-3.2,9.1-7.7
		C346.3,79.3,344.3,75.8,341.1,74.1z"/>
	<path class="st4" d="M341.1,74.1c0.8-2,1-4.2,0.5-6.5c-0.9-4.2-4.4-7.5-8.6-8.3c-2.5-0.5-4.8-0.1-6.8,0.9c-2.4-3.1-6.1-5-10.2-5
		c-7.2,0-12.9,5.8-12.9,12.9c0,0.6,0.1,1.1,0.1,1.7c-4.5,1.7-7.6,6.3-7,11.6c0.7,5.6,5.6,9.6,11.2,9.6h29.3c4.5,0,8.5-3.2,9.1-7.7
		C346.3,79.3,344.3,75.8,341.1,74.1z"/>
	<path class="st3" d="M449.1,71.5c0.6-1.6,0.8-3.3,0.4-5.2c-0.8-3.3-3.5-6-6.9-6.6c-2-0.4-3.8-0.1-5.4,0.7c-1.9-2.4-4.9-4-8.2-4
		c-5.7,0-10.3,4.6-10.3,10.3c0,0.5,0,0.9,0.1,1.4c-3.6,1.4-6.1,5-5.6,9.2c0.5,4.4,4.5,7.7,8.9,7.7h23.4c3.6,0,6.8-2.6,7.3-6.2
		C453.3,75.7,451.6,72.9,449.1,71.5z"/>
	<path class="st4" d="M449.1,71.5c0.6-1.6,0.8-3.3,0.4-5.2c-0.8-3.3-3.5-6-6.9-6.6c-2-0.4-3.8-0.1-5.4,0.7c-1.9-2.4-4.9-4-8.2-4
		c-5.7,0-10.3,4.6-10.3,10.3c0,0.5,0,0.9,0.1,1.4c-3.6,1.4-6.1,5-5.6,9.2c0.5,4.4,4.5,7.7,8.9,7.7h23.4c3.6,0,6.8-2.6,7.3-6.2
		C453.3,75.7,451.6,72.9,449.1,71.5z"/>
	<path class="st3" d="M644.8,84.2c0.5-1.3,0.7-2.7,0.3-4.2c-0.6-2.7-2.9-4.8-5.7-5.3c-1.6-0.3-3.2-0.1-4.5,0.6c-1.6-2-4-3.2-6.8-3.2
		c-4.7,0-8.6,3.7-8.6,8.3c0,0.4,0,0.7,0.1,1.1c-3,1.1-5.1,4.1-4.7,7.4c0.4,3.6,3.7,6.2,7.4,6.2h19.4c3,0,5.7-2.1,6.1-5
		C648.3,87.5,646.9,85.3,644.8,84.2z"/>
	<path class="st4" d="M644.8,84.2c0.5-1.3,0.7-2.7,0.3-4.2c-0.6-2.7-2.9-4.8-5.7-5.3c-1.6-0.3-3.2-0.1-4.5,0.6c-1.6-2-4-3.2-6.8-3.2
		c-4.7,0-8.6,3.7-8.6,8.3c0,0.4,0,0.7,0.1,1.1c-3,1.1-5.1,4.1-4.7,7.4c0.4,3.6,3.7,6.2,7.4,6.2h19.4c3,0,5.7-2.1,6.1-5
		C648.3,87.5,646.9,85.3,644.8,84.2z"/>
	<path class="st5" d="M214.1,84.7c0.9-0.8,3.1-1.9,5.4-3c0.7-0.3,1.4-0.7,2.2-1c2.3,0.7,4.2,1.3,5,2.4c0.7,1,1.1,4.6,0.1,6.8
		c1.5-0.5,4.8-3.7,4.4-7.4c-0.2-2.4-1.9-3.8-4-4.8c2.7-1.8,4.7-3.9,4.8-6.5c0.3-5.9-5.1-7.9-10.2-9.5c1.2-0.8,2.4-1.7,3.4-2.8
		c-1.4-1.4-3.1-2.4-5-3.1c-1.2,0.9-2.8,1.6-4.4,2.4c-0.5,0.2-0.9,0.4-1.4,0.7c-1.1-0.7-1.9-1.6-2.1-2.7c0-0.1,0-0.3,0-0.4
		c-1.9,0.6-3.7,1.7-5.1,3c0.3,1.5,1,2.7,1.9,3.6c-1.4,1.5-2.3,3.4-2.3,6c0,5.2,3.1,7.9,6.8,9.6c-3.7,2.3-7,5.2-6.2,10.1
		c0.2,1,0.7,2.1,1.2,2.9h3.2C211.3,88.6,212.2,86.4,214.1,84.7z M216.1,66.4c3.8,1.4,6.1,2.6,6.1,5.4c0,0.9-1,1.8-2.6,2.8
		c-2-1.1-3.6-2.5-4.1-4.9C215.3,68.3,215.5,67.3,216.1,66.4z"/>
	<path class="st5" d="M314.1,84.7c0.9-0.8,3.1-1.9,5.4-3c0.7-0.3,1.4-0.7,2.2-1c2.3,0.7,4.2,1.3,5,2.4c0.7,1,1.1,4.6,0.1,6.8
		c1.5-0.5,4.8-3.7,4.4-7.4c-0.2-2.4-1.9-3.8-4-4.8c2.7-1.8,4.7-3.9,4.8-6.5c0.3-5.9-5.1-7.9-10.2-9.5c1.2-0.8,2.4-1.7,3.4-2.8
		c-1.4-1.4-3.1-2.4-5-3.1c-1.2,0.9-2.8,1.6-4.4,2.4c-0.5,0.2-0.9,0.4-1.4,0.7c-1.1-0.7-1.9-1.6-2.1-2.7c0-0.1,0-0.3,0-0.4
		c-1.9,0.6-3.7,1.7-5.1,3c0.3,1.5,1,2.7,1.9,3.6c-1.4,1.5-2.3,3.4-2.3,6c0,5.2,3.1,7.9,6.8,9.6c-3.7,2.3-7,5.2-6.2,10.1
		c0.2,1,0.7,2.1,1.2,2.9h3.2C311.3,88.6,312.2,86.4,314.1,84.7z M316.1,66.4c3.8,1.4,6.1,2.6,6.1,5.4c0,0.9-1,1.8-2.6,2.8
		c-2-1.1-3.6-2.5-4.1-4.9C315.3,68.3,315.5,67.3,316.1,66.4z"/>
	<path class="st6" d="M214.6,49.7c0,0-4.3,1.9-3.5,6.7c1.1,7.4,20.2,4.7,19.7,14.8c-0.3,6.1-14.2,9.9-17.4,12.8
		c-2.9,2.6-3.8,6-1.5,10.9c0,0-2.8-1.7-3.7-6.9c-1.5-9.6,15.1-11.2,15-16.2c-0.2-7.6-13.7-5.3-15.3-13.2
		C207,53.7,212.8,49.7,214.6,49.7z"/>
	<path class="st7" d="M217.8,76.8c-1,0.6-2.1,1.1-3.2,1.7c1.8,0.7,3.7,1.3,5.5,1.7c0,0,0.1,0,0.1,0c1-0.5,2-1,3-1.5L217.8,76.8z"/>
	<path class="st8" d="M218.6,45.1c2.2,1,5.4,2.7,5.4,5.6c0,9.7-16.3,7.3-16.3,17.8c0,11.4,16.5,9.8,19.8,14c1,1.4,0.9,3.7,0.2,6.3
		c0,0,2.8-2.9,2.5-6.2c-0.6-6.2-13.8-4.3-15.6-12.6c-1.6-7.5,10.3-8,12.1-15.9C228.2,47.3,220.4,45.3,218.6,45.1z"/>
	<path class="st9" d="M218.6,45.1c2.2,1,5.4,2.7,5.4,5.6c0,9.7-16.3,7.3-16.3,17.8c0,11.4,16.5,9.8,19.8,14c1,1.4,0.9,3.7,0.2,6.3
		c0,0,2.8-2.9,2.5-6.2c-0.6-6.2-13.8-4.3-15.6-12.6c-1.6-7.5,10.3-8,12.1-15.9C228.2,47.3,220.4,45.3,218.6,45.1z"/>
	<g class="st10">
		<path class="st11" d="M209.6,63.1L209.6,63.1c1.6,1.3,3.4,2.1,5.5,2.8c0.5-0.8,1.1-1.5,1.9-2.2l-5-2.6
			C211.1,61.8,210.3,62.4,209.6,63.1z"/>
		<path class="st12" d="M215.7,65.1c0.8-1,2.3-2.1,3.7-3.1c-1.9-0.6-3.8-1.2-5.3-2c-1.4,0.7-2.7,1.4-3.8,2.4
			C211.8,63.6,213.8,64.4,215.7,65.1z"/>
	</g>
	<path class="st13" d="M314.6,49.7c0,0-4.3,1.9-3.5,6.7c1.1,7.4,20.2,4.7,19.7,14.8c-0.3,6.1-14.2,9.9-17.4,12.8
		c-2.9,2.6-3.8,6-1.5,10.9c0,0-2.8-1.7-3.7-6.9c-1.5-9.6,15.1-11.2,15-16.2c-0.2-7.6-13.7-5.3-15.3-13.2
		C307,53.7,312.8,49.7,314.6,49.7z"/>
	<path class="st9" d="M314.6,49.7c0,0-4.3,1.9-3.5,6.7c1.1,7.4,20.2,4.7,19.7,14.8c-0.3,6.1-14.2,9.9-17.4,12.8
		c-2.9,2.6-3.8,6-1.5,10.9c0,0-2.8-1.7-3.7-6.9c-1.5-9.6,15.1-11.2,15-16.2c-0.2-7.6-13.7-5.3-15.3-13.2
		C307,53.7,312.8,49.7,314.6,49.7z"/>
	<path class="st7" d="M317.8,76.8c-1,0.6-2.1,1.1-3.2,1.7c1.8,0.7,3.7,1.3,5.5,1.7c0,0,0.1,0,0.1,0c1-0.5,2-1,3-1.5L317.8,76.8z"/>
	<path class="st6" d="M318.6,45.1c2.2,1,5.4,2.7,5.4,5.6c0,9.7-16.3,7.3-16.3,17.8c0,11.4,16.5,9.8,19.8,14c1,1.4,0.9,3.7,0.2,6.3
		c0,0,2.8-2.9,2.5-6.2c-0.6-6.2-13.8-4.3-15.6-12.6c-1.6-7.5,10.3-8,12.1-15.9C328.2,47.3,320.4,45.3,318.6,45.1z"/>
	<path class="st14" d="M318.6,45.1c2.2,1,5.4,2.7,5.4,5.6c0,9.7-16.3,7.3-16.3,17.8c0,11.4,16.5,9.8,19.8,14c1,1.4,0.9,3.7,0.2,6.3
		c0,0,2.8-2.9,2.5-6.2c-0.6-6.2-13.8-4.3-15.6-12.6c-1.6-7.5,10.3-8,12.1-15.9C328.2,47.3,320.4,45.3,318.6,45.1z"/>
	<g class="st10">
		<path class="st11" d="M309.6,63.1L309.6,63.1c1.6,1.3,3.4,2.1,5.5,2.8c0.5-0.8,1.1-1.5,1.9-2.2l-5-2.6
			C311.1,61.8,310.3,62.4,309.6,63.1z"/>
		<path class="st15" d="M315.7,65.1c0.8-1,2.3-2.1,3.7-3.1c-1.9-0.6-3.8-1.2-5.3-2c-1.4,0.7-2.7,1.4-3.8,2.4
			C311.8,63.6,313.8,64.4,315.7,65.1z"/>
		<path class="st16" d="M315.7,65.1c0.8-1,2.3-2.1,3.7-3.1c-1.9-0.6-3.8-1.2-5.3-2c-1.4,0.7-2.7,1.4-3.8,2.4
			C311.8,63.6,313.8,64.4,315.7,65.1z"/>
	</g>
	<path class="st3" d="M241.1,174.1c0.8-2,1-4.2,0.5-6.5c-0.9-4.2-4.4-7.5-8.6-8.3c-2.5-0.5-4.8-0.1-6.8,0.9c-2.4-3.1-6.1-5-10.2-5
		c-7.2,0-12.9,5.8-12.9,12.9c0,0.6,0.1,1.1,0.1,1.7c-4.5,1.7-7.6,6.3-7,11.6c0.7,5.6,5.6,9.6,11.2,9.6h29.3c4.5,0,8.5-3.2,9.1-7.7
		C246.3,179.3,244.3,175.8,241.1,174.1z"/>
	<path class="st4" d="M241.1,174.1c0.8-2,1-4.2,0.5-6.5c-0.9-4.2-4.4-7.5-8.6-8.3c-2.5-0.5-4.8-0.1-6.8,0.9c-2.4-3.1-6.1-5-10.2-5
		c-7.2,0-12.9,5.8-12.9,12.9c0,0.6,0.1,1.1,0.1,1.7c-4.5,1.7-7.6,6.3-7,11.6c0.7,5.6,5.6,9.6,11.2,9.6h29.3c4.5,0,8.5-3.2,9.1-7.7
		C246.3,179.3,244.3,175.8,241.1,174.1z"/>
	<path class="st3" d="M341.1,174.1c0.8-2,1-4.2,0.5-6.5c-0.9-4.2-4.4-7.5-8.6-8.3c-2.5-0.5-4.8-0.1-6.8,0.9c-2.4-3.1-6.1-5-10.2-5
		c-7.2,0-12.9,5.8-12.9,12.9c0,0.6,0.1,1.1,0.1,1.7c-4.5,1.7-7.6,6.3-7,11.6c0.7,5.6,5.6,9.6,11.2,9.6h29.3c4.5,0,8.5-3.2,9.1-7.7
		C346.3,179.3,344.3,175.8,341.1,174.1z"/>
	<path class="st17" d="M214.1,184.7c0.9-0.8,3.1-1.9,5.4-3c0.7-0.3,1.4-0.7,2.2-1c2.3,0.7,4.2,1.3,5,2.4c0.7,1,1.1,4.6,0.1,6.8
		c1.5-0.5,4.8-3.7,4.4-7.4c-0.2-2.4-1.9-3.8-4-4.8c2.7-1.8,4.7-3.9,4.8-6.5c0.3-5.9-5.1-7.9-10.2-9.5c1.2-0.8,2.4-1.7,3.4-2.8
		c-1.4-1.4-3.1-2.4-5-3.1c-1.2,0.9-2.8,1.6-4.4,2.4c-0.5,0.2-0.9,0.4-1.4,0.7c-1.1-0.7-1.9-1.6-2.1-2.7c0-0.1,0-0.3,0-0.4
		c-1.9,0.6-3.7,1.7-5.1,3c0.3,1.5,1,2.7,1.9,3.6c-1.4,1.5-2.3,3.4-2.3,6c0,5.2,3.1,7.9,6.8,9.6c-3.7,2.3-7,5.2-6.2,10.1
		c0.2,1,0.7,2.1,1.2,2.9h3.2C211.3,188.6,212.2,186.4,214.1,184.7z M216.1,166.4c3.8,1.4,6.1,2.6,6.1,5.4c0,0.9-1,1.8-2.6,2.8
		c-2-1.1-3.6-2.5-4.1-4.9C215.3,168.3,215.5,167.3,216.1,166.4z"/>
	<path class="st17" d="M314.1,184.7c0.9-0.8,3.1-1.9,5.4-3c0.7-0.3,1.4-0.7,2.2-1c2.3,0.7,4.2,1.3,5,2.4c0.7,1,1.1,4.6,0.1,6.8
		c1.5-0.5,4.8-3.7,4.4-7.4c-0.2-2.4-1.9-3.8-4-4.8c2.7-1.8,4.7-3.9,4.8-6.5c0.3-5.9-5.1-7.9-10.2-9.5c1.2-0.8,2.4-1.7,3.4-2.8
		c-1.4-1.4-3.1-2.4-5-3.1c-1.2,0.9-2.8,1.6-4.4,2.4c-0.5,0.2-0.9,0.4-1.4,0.7c-1.1-0.7-1.9-1.6-2.1-2.7c0-0.1,0-0.3,0-0.4
		c-1.9,0.6-3.7,1.7-5.1,3c0.3,1.5,1,2.7,1.9,3.6c-1.4,1.5-2.3,3.4-2.3,6c0,5.2,3.1,7.9,6.8,9.6c-3.7,2.3-7,5.2-6.2,10.1
		c0.2,1,0.7,2.1,1.2,2.9h3.2C311.3,188.6,312.2,186.4,314.1,184.7z M316.1,166.4c3.8,1.4,6.1,2.6,6.1,5.4c0,0.9-1,1.8-2.6,2.8
		c-2-1.1-3.6-2.5-4.1-4.9C315.3,168.3,315.5,167.3,316.1,166.4z"/>
	<path class="st6" d="M214.6,149.7c0,0-4.3,1.9-3.5,6.7c1.1,7.4,20.2,4.7,19.7,14.8c-0.3,6.1-14.2,9.9-17.4,12.8
		c-2.9,2.6-3.8,6-1.5,10.9c0,0-2.8-1.7-3.7-6.9c-1.5-9.6,15.1-11.2,15-16.2c-0.2-7.6-13.7-5.3-15.3-13.2
		C207,153.7,212.8,149.7,214.6,149.7z"/>
	<path class="st7" d="M217.8,176.8c-1,0.6-2.1,1.1-3.2,1.7c1.8,0.7,3.7,1.3,5.5,1.7c0,0,0.1,0,0.1,0c1-0.5,2-1,3-1.5L217.8,176.8z"
		/>
	<path class="st8" d="M218.6,145.1c2.2,1,5.4,2.7,5.4,5.6c0,9.7-16.3,7.3-16.3,17.8c0,11.4,16.5,9.8,19.8,14c1,1.4,0.9,3.7,0.2,6.3
		c0,0,2.8-2.9,2.5-6.2c-0.6-6.2-13.8-4.3-15.6-12.6c-1.6-7.5,10.3-8,12.1-15.9C228.2,147.3,220.4,145.3,218.6,145.1z"/>
	<path class="st9" d="M218.6,145.1c2.2,1,5.4,2.7,5.4,5.6c0,9.7-16.3,7.3-16.3,17.8c0,11.4,16.5,9.8,19.8,14c1,1.4,0.9,3.7,0.2,6.3
		c0,0,2.8-2.9,2.5-6.2c-0.6-6.2-13.8-4.3-15.6-12.6c-1.6-7.5,10.3-8,12.1-15.9C228.2,147.3,220.4,145.3,218.6,145.1z"/>
	<g class="st10">
		<path class="st11" d="M209.6,163.1L209.6,163.1c1.6,1.3,3.4,2.1,5.5,2.8c0.5-0.8,1.1-1.5,1.9-2.2l-5-2.6
			C211.1,161.8,210.3,162.4,209.6,163.1z"/>
		<path class="st12" d="M215.7,165.1c0.8-1,2.3-2.1,3.7-3.1c-1.9-0.6-3.8-1.2-5.3-2c-1.4,0.7-2.7,1.4-3.8,2.4
			C211.8,163.6,213.8,164.4,215.7,165.1z"/>
	</g>
	<path class="st13" d="M314.6,149.7c0,0-4.3,1.9-3.5,6.7c1.1,7.4,20.2,4.7,19.7,14.8c-0.3,6.1-14.2,9.9-17.4,12.8
		c-2.9,2.6-3.8,6-1.5,10.9c0,0-2.8-1.7-3.7-6.9c-1.5-9.6,15.1-11.2,15-16.2c-0.2-7.6-13.7-5.3-15.3-13.2
		C307,153.7,312.8,149.7,314.6,149.7z"/>
	<path class="st9" d="M314.6,149.7c0,0-4.3,1.9-3.5,6.7c1.1,7.4,20.2,4.7,19.7,14.8c-0.3,6.1-14.2,9.9-17.4,12.8
		c-2.9,2.6-3.8,6-1.5,10.9c0,0-2.8-1.7-3.7-6.9c-1.5-9.6,15.1-11.2,15-16.2c-0.2-7.6-13.7-5.3-15.3-13.2
		C307,153.7,312.8,149.7,314.6,149.7z"/>
	<path class="st7" d="M317.8,176.8c-1,0.6-2.1,1.1-3.2,1.7c1.8,0.7,3.7,1.3,5.5,1.7c0,0,0.1,0,0.1,0c1-0.5,2-1,3-1.5L317.8,176.8z"
		/>
	<path class="st6" d="M318.6,145.1c2.2,1,5.4,2.7,5.4,5.6c0,9.7-16.3,7.3-16.3,17.8c0,11.4,16.5,9.8,19.8,14c1,1.4,0.9,3.7,0.2,6.3
		c0,0,2.8-2.9,2.5-6.2c-0.6-6.2-13.8-4.3-15.6-12.6c-1.6-7.5,10.3-8,12.1-15.9C328.2,147.3,320.4,145.3,318.6,145.1z"/>
	<path class="st14" d="M318.6,145.1c2.2,1,5.4,2.7,5.4,5.6c0,9.7-16.3,7.3-16.3,17.8c0,11.4,16.5,9.8,19.8,14c1,1.4,0.9,3.7,0.2,6.3
		c0,0,2.8-2.9,2.5-6.2c-0.6-6.2-13.8-4.3-15.6-12.6c-1.6-7.5,10.3-8,12.1-15.9C328.2,147.3,320.4,145.3,318.6,145.1z"/>
	<g class="st10">
		<path class="st11" d="M309.6,163.1L309.6,163.1c1.6,1.3,3.4,2.1,5.5,2.8c0.5-0.8,1.1-1.5,1.9-2.2l-5-2.6
			C311.1,161.8,310.3,162.4,309.6,163.1z"/>
		<path class="st15" d="M315.7,165.1c0.8-1,2.3-2.1,3.7-3.1c-1.9-0.6-3.8-1.2-5.3-2c-1.4,0.7-2.7,1.4-3.8,2.4
			C311.8,163.6,313.8,164.4,315.7,165.1z"/>
		<path class="st16" d="M315.7,165.1c0.8-1,2.3-2.1,3.7-3.1c-1.9-0.6-3.8-1.2-5.3-2c-1.4,0.7-2.7,1.4-3.8,2.4
			C311.8,163.6,313.8,164.4,315.7,165.1z"/>
	</g>
	<path class="st13" d="M413.6,48.7c0,0-5.3,1.9-4.5,6.7c1.1,6.9,22.4,3.8,23.7,13.8c0.9,7.2-17.9,12.1-21,15.1
		c-3.2,3.1-2.6,7.8,0,10.7c-1.5-0.7-6.7-5.4-4.2-10.9c3-6.6,17.1-9.2,17-14.2c-0.2-7.6-17.3-4.5-18.7-13.2
		C405.2,51.6,411.8,48.7,413.6,48.7z"/>
	<path class="st6" d="M418.6,45.1c2.2,1,7.5,3.4,4.6,8.6c-3.6,6.4-18.6,6.5-18.6,15.7c0,11.4,20.4,10.9,23.8,15
		c1.5,1.8,0.9,3.7,0.2,6.3c0,0,2.8-2.9,2.5-6.2c-0.6-6.2-16.8-6.3-18.6-14.6c-1.6-7.5,12.3-8,14.1-15.9
		C428.2,47.3,420.7,45.3,418.6,45.1z"/>
	<path class="st13" d="M614.1,48.7c0,0-5.3,1.9-4.5,6.7c1.1,6.9,22.5,3.8,23.7,13.8c1,7.7-16.1,10.5-21,15.1
		c-3.3,3.1-2.6,7.8,0,10.7c-1.5-0.7-6.7-5.4-4.2-10.9c3-6.6,17.1-9.2,17-14.2c-0.2-7.6-17.3-4.5-18.7-13.2
		C605.7,51.6,612.3,48.7,614.1,48.7z"/>
	<path class="st6" d="M619.1,45.1c2.2,1,7.5,3.4,4.6,8.6c-3.6,6.4-18.6,6.5-18.6,15.7c0,11.4,20.4,10.9,23.8,15
		c1.5,1.8,0.9,3.7,0.2,6.3c0,0,2.8-2.9,2.5-6.2c-0.6-6.2-16.8-6.3-18.6-14.6c-1.6-7.5,12.3-8,14.1-15.9
		C628.7,47.3,621.2,45.3,619.1,45.1z"/>
	<path class="st13" d="M424.7,69.8c-0.2-7.6-17.3-4.5-18.7-13.2c-0.8-4.9,5.9-7.9,7.7-7.9c0,0-5.3,1.9-4.5,6.7
		c1.1,6.9,22.4,3.8,23.7,13.8"/>
	<path class="st13" d="M424.7,69.8c-0.2-7.6-17.3-4.5-18.7-13.2c-0.8-4.9,5.9-7.9,7.7-7.9c0,0-5.3,1.9-4.5,6.7
		c1.1,6.9,22.4,3.8,23.7,13.8"/>
	<path class="st13" d="M625.2,69.8c-0.2-7.6-17.3-4.5-18.7-13.2c-0.8-4.9,5.9-7.9,7.7-7.9c0,0-5.3,1.9-4.5,6.7
		c1.1,6.9,22.5,3.8,23.7,13.8"/>
	<path class="st18" d="M424.1,304.1c0.8-2,1-4.2,0.5-6.5c-0.9-4.2-4.4-7.5-8.6-8.3c-2.5-0.5-4.8-0.1-6.8,0.9c-2.4-3.1-6.1-5-10.2-5
		c-7.2,0-12.9,5.8-12.9,12.9c0,0.6,0.1,1.1,0.1,1.7c-4.5,1.7-7.6,6.3-7,11.6c0.7,5.6,5.6,9.6,11.2,9.6h29.3c4.5,0,8.5-3.2,9.1-7.7
		C429.3,309.3,427.3,305.8,424.1,304.1z"/>
	<path class="st19" d="M391.1,321.5l-0.1-0.2c-0.5-0.7-1.1-2-1.2-3.1c-0.8-5,2.5-8,5.7-10.1c-4.2-2.2-6.3-5.4-6.3-9.7
		c0-2.3,0.7-4.3,2.1-6c-0.9-1-1.4-2.2-1.7-3.5l-0.1-0.3l0.2-0.2c1.5-1.4,3.3-2.5,5.3-3.2l0.6-0.2l0,0.6c0,0.2,0,0.3,0,0.4
		c0.1,0.8,0.7,1.5,1.6,2.2c0.4-0.2,0.8-0.4,1.2-0.6c1.4-0.7,3.1-1.5,4.3-2.3l0.2-0.1l0.2,0.1c2,0.6,3.8,1.7,5.2,3.2l0.4,0.3
		l-0.3,0.4c-0.7,0.8-1.6,1.5-2.7,2.3c5.1,1.7,9.8,3.9,9.6,9.7c-0.1,2.2-1.5,4.3-4.3,6.4c1.6,0.9,3.3,2.3,3.6,4.8
		c0.4,4.2-3.2,7.5-4.8,8l-1.1,0.3l0.5-1c1-2,0.6-5.5,0-6.3c-0.7-0.9-2.6-1.6-4.6-2.1c-0.7,0.3-1.4,0.7-2,1c-2.3,1.1-4.4,2.1-5.3,2.9
		c-1.8,1.6-2.6,3.6-2.3,5.9l0.1,0.6H391.1z M399.3,297c-0.4,0.8-0.5,1.6-0.3,2.6c0.4,1.8,1.5,3.3,3.6,4.4c0.7-0.5,2.1-1.4,2.1-2.2
		C404.7,299.5,403,298.4,399.3,297z"/>
	<path class="st18" d="M397.6,279.7c0,0-4.3,1.9-3.5,6.7c1.1,7.4,20.2,4.7,19.7,14.8c-0.3,6.1-14.2,9.9-17.4,12.8
		c-2.9,2.6-3.8,6-1.5,10.9c0,0-2.8-1.7-3.7-6.9c-1.5-9.6,15.1-11.2,15-16.2c-0.2-7.6-13.7-5.3-15.3-13.2
		C390,283.7,395.8,279.7,397.6,279.7z"/>
	<path class="st18" d="M401.6,275.1c2.2,1,5.4,2.7,5.4,5.6c0,9.7-16.3,7.3-16.3,17.8c0,11.4,16.5,9.8,19.8,14c1,1.4,0.9,3.7,0.2,6.3
		c0,0,2.8-2.9,2.5-6.2c-0.6-6.2-13.8-4.3-15.6-12.6c-1.6-7.5,10.3-8,12.1-15.9C411.2,277.3,403.4,275.3,401.6,275.1z"/>
	<g class="st10">
		<g>
			<path class="st11" d="M393.7,292.2c0,0,0.1-0.1,0.1-0.1C393.8,292.1,393.7,292.1,393.7,292.2z"/>
		</g>
	</g>
	<path class="st18" d="M1026.9,302.4c0.5-1.2,0.6-2.6,0.3-4.1c-0.6-2.6-2.7-4.7-5.4-5.2c-1.5-0.3-3-0.1-4.3,0.5
		c-1.5-1.9-3.8-3.2-6.4-3.2c-4.5,0-8.1,3.6-8.1,8.1c0,0.4,0,0.7,0.1,1.1c-2.8,1.1-4.8,4-4.4,7.2c0.4,3.5,3.5,6,7,6h18.4
		c2.8,0,5.4-2,5.7-4.8C1030.2,305.7,1028.9,303.5,1026.9,302.4z"/>
	<path class="st19" d="M999.7,306.9c-0.3-0.1-0.6-0.3-1-0.4c0,0.1,0,0.3,0,0.4c0.4,3.5,3.5,6,7,6h2.6
		C1007.2,310.1,1003.5,308.6,999.7,306.9z"/>
	<path class="st19" d="M987.3,326.3c-1.9-0.9-7.9-6.3-4.9-12.9c1.7-3.7,6.2-6.2,10.3-8.4c3.1-1.7,6.6-3.6,6.6-5.2
		c-0.1-2.4-2.9-3.4-7.5-4.7c-4.8-1.4-10.3-2.9-11.2-8.3c-0.3-2,0.3-3.9,1.7-5.6c2.1-2.5,5.8-4,7.5-4l0.5,2.9c-0.2,0.1-4.1,1.5-3.5,5
		c0.3,2.1,4.8,3.1,9.1,4.1c6.5,1.5,13.8,3.2,14.7,9.7c0.8,6.1-8.2,10-15.4,13.2c-2.6,1.2-5.3,2.3-6.1,3.1c-2.7,2.6-1.9,6.4,0.1,8.6
		L987.3,326.3z"/>
	<path class="st18" d="M1008.9,299.1c-1.3-10-22.7-6.9-23.7-13.8c-0.8-4.8,4.5-6.7,4.5-6.7c-1.8,0-8.5,3-7.7,7.9
		c1.4,8.8,18.5,5.6,18.7,13.2c0.1,5-14,7.6-17,14.2c-2.5,5.5,2.7,10.2,4.2,10.9c-2.6-2.9-3.3-7.6,0-10.7
		C991,311.2,1009.8,306.4,1008.9,299.1z"/>
	<g class="st10">
		<path class="st20" d="M991.9,307.1c-1.7,0.9-3.4,1.9-4.8,3c1.6,0.7,3.3,1.2,5,1.7c1.5-0.7,3.2-1.4,5-2.2
			C995.3,308.8,993.5,308,991.9,307.1z"/>
	</g>
	<path class="st18" d="M994.6,275.1c2.2,1,7.5,3.4,4.6,8.6c-3.6,6.4-18.6,6.5-18.6,15.7c0,11.4,20.4,10.9,23.8,15
		c1.5,1.8,0.9,3.7,0.2,6.3c0,0,2.8-2.9,2.5-6.2c-0.6-6.2-16.8-6.3-18.6-14.6c-1.6-7.5,12.3-8,14.1-15.9
		C1004.2,277.3,996.7,275.3,994.6,275.1z"/>
	<path class="st19" d="M994,292.3c-2.1-0.5-4.2-1-5.9-1.6c-1.4,0.7-2.7,1.4-3.9,2.2c1.7,0.9,3.8,1.5,5.8,2.1
		C991.2,294,992.6,293.1,994,292.3z"/>
	<path class="st18" d="M1000.7,299.8c-0.2-7.6-17.3-4.5-18.7-13.2c-0.8-4.9,5.9-7.9,7.7-7.9c0,0-5.3,1.9-4.5,6.7
		c1.1,6.9,22.4,3.8,23.7,13.8"/>
</g>
<g id="archive2" class="st1">
	<rect x="238" y="137" class="st2" width="90" height="90"/>
	<rect x="238" y="337" class="st2" width="90" height="90"/>
	<path class="st18" d="M308.9,188.5c0-2.3-1.4-4.3-3.5-5.1c0.4-0.9,0.7-1.9,0.7-2.9c0-3.6-2.9-6.5-6.5-6.5c-1.6,0-3.1,0.6-4.3,1.6
		c-1.2-2.4-3.7-4.1-6.7-4.1c-4.1,0-7.5,3.3-7.5,7.5c0,0.6,0.1,1.2,0.2,1.7c-2.7,0.9-4.6,3.5-4.6,6.5c0,3.8,3.1,6.8,6.8,6.9v0h19.9
		c0,0,0,0,0,0C306.5,194,308.9,191.5,308.9,188.5z"/>
	<path class="st19" d="M287.9,180c-0.4-2.9-2.2-4.8-4.6-6.1c-1.3,1.3-2,3.1-2,5.1c0,0.6,0.1,1.2,0.2,1.7c-2.7,0.9-4.6,3.5-4.6,6.5
		c0,1.2,0.3,2.3,0.9,3.3C283.3,187.7,288.4,184.4,287.9,180z"/>
	<path class="st19" d="M277.5,188.4c-0.2-0.1-0.4-0.2-0.6-0.2c0.5,3.3,3.3,5.8,6.7,5.8v0h2.1C284.6,191.4,281.1,189.9,277.5,188.4z"
		/>
	<path class="st18" d="M267.6,159.7c0,0-5.3,1.9-4.5,6.7c1.1,6.9,22.4,3.8,23.7,13.8c0.9,7.2-17.9,12.1-21,15.1
		c-3.2,3.1-2.6,7.8,0,10.7c-1.5-0.7-6.7-5.4-4.2-10.9c3-6.6,17.1-9.2,17-14.2c-0.2-7.6-17.3-4.5-18.7-13.2
		C259.2,162.6,265.8,159.7,267.6,159.7z"/>
	<g class="st10">
		<path class="st21" d="M263.3,172.1c2.2,1.3,5.2,2.1,7.9,2.9c0.7-0.4,1.4-0.9,2.3-1.4c0.7-0.4,1.5-0.9,2.2-1.3
			c-3-0.7-6-1.3-8.4-2.2C265.9,170.7,264.5,171.4,263.3,172.1z"/>
		<path class="st20" d="M269,188.6c-1,0.6-2.1,1.2-3,1.9c1.7,0.7,3.5,1.3,5.3,1.8c0.9-0.4,1.9-0.8,2.9-1.3
			C275.6,190.3,270.3,187.8,269,188.6z"/>
	</g>
	<path class="st18" d="M272.6,156.1c2.2,1,7.5,3.4,4.6,8.6c-3.6,6.4-18.6,6.5-18.6,15.7c0,11.4,20.4,10.9,23.8,15
		c1.5,1.8,0.9,3.7,0.2,6.3c0,0,2.8-2.9,2.5-6.2c-0.6-6.2-16.8-6.3-18.6-14.6c-1.6-7.5,12.3-8,14.1-15.9
		C282.2,158.3,274.7,156.3,272.6,156.1z"/>
	<path class="st13" d="M278.7,180.8c-0.2-7.6-17.3-4.5-18.7-13.2c-0.8-4.9,5.9-7.9,7.7-7.9c0,0-5.3,1.9-4.5,6.7
		c1.1,6.9,22.4,3.8,23.7,13.8"/>
	<path class="st19" d="M271,173.9c-0.2-0.1-0.4-0.1-0.6-0.2c-1.7-0.5-3.5-1-5-1.6c-0.7,0.4-1.5,0.8-2.1,1.2c1.7,0.9,3.7,1.5,5.6,2.1
		C269.5,174.9,270.2,174.4,271,173.9z"/>
	<path class="st18" d="M279,181l4,1l3.9-1.9c-1.3-10-22.7-6.9-23.7-13.8c-0.8-4.8,4.5-6.7,4.5-6.7c-1.8,0-8.5,3-7.7,7.9
		c1.4,8.8,18.5,5.6,18.7,13.2"/>
	<path class="st3" d="M133.7,377.7c0-2.3-1.4-4.2-3.4-5c0.4-0.9,0.7-1.8,0.7-2.9c0-3.5-2.9-6.4-6.4-6.4c-1.6,0-3.1,0.6-4.2,1.6
		c-1.2-2.4-3.7-4-6.5-4c-4,0-7.3,3.3-7.3,7.3c0,0.6,0.1,1.1,0.2,1.7c-2.6,0.9-4.5,3.4-4.5,6.3c0,3.7,3,6.7,6.7,6.7v0h19.5
		c0,0,0,0,0,0C131.4,383,133.7,380.6,133.7,377.7z"/>
	<path class="st3" d="M474.7,380.7c0-2.3-1.4-4.2-3.4-5c0.4-0.9,0.7-1.8,0.7-2.9c0-3.5-2.9-6.4-6.4-6.4c-1.6,0-3.1,0.6-4.2,1.6
		c-1.2-2.4-3.7-4-6.5-4c-4,0-7.3,3.3-7.3,7.3c0,0.6,0.1,1.1,0.2,1.7c-2.6,0.9-4.5,3.4-4.5,6.3c0,3.7,3,6.7,6.7,6.7v0h19.5
		c0,0,0,0,0,0C472.4,386,474.7,383.6,474.7,380.7z"/>
	<path class="st3" d="M154.9,177.7c0-2.3-1.4-4.2-3.5-4.9c0.4-0.9,0.7-1.8,0.7-2.9c0-3.5-2.9-6.3-6.5-6.3c-1.6,0-3.1,0.6-4.3,1.6
		c-1.2-2.4-3.7-4-6.6-4c-4.1,0-7.4,3.3-7.4,7.3c0,0.6,0.1,1.1,0.2,1.7c-2.7,0.9-4.6,3.4-4.6,6.3c0,3.7,3,6.7,6.8,6.7v0h19.8
		c0,0,0,0,0,0C152.5,183,154.9,180.6,154.9,177.7z"/>
	<path class="st17" d="M125.8,178.4c4.7-2.5,8.6-5.5,8.1-9.4c-0.4-2.8-2-4.6-4.3-5.9c-1.5,1.3-2.4,3.2-2.4,5.3
		c0,0.6,0.1,1.1,0.2,1.7c-2.7,0.9-4.6,3.4-4.6,6.3c0,3.7,3,6.7,6.8,6.7v0h2.1C130.9,181,128.5,179.6,125.8,178.4z"/>
	<path class="st13" d="M113.6,148.7c0,0-5.3,1.9-4.5,6.7c1.1,6.9,22.4,3.8,23.7,13.8c0.9,7.2-17.9,12.1-21,15.1
		c-3.2,3.1-2.6,7.8,0,10.7c-1.5-0.7-6.7-5.4-4.2-10.9c3-6.6,17.1-9.2,17-14.2c-0.2-7.6-17.3-4.5-18.7-13.2
		C105.2,151.6,111.8,148.7,113.6,148.7z"/>
	<g class="st10">
		<path class="st21" d="M109.3,161.1c2.2,1.3,5.2,2.1,7.9,2.9c0.7-0.4,1.4-0.9,2.3-1.4c0.7-0.4,1.5-0.9,2.2-1.3
			c-3-0.7-6-1.3-8.4-2.2C111.9,159.7,110.5,160.4,109.3,161.1z"/>
		<path class="st21" d="M115,177.6c-1,0.6-2.1,1.2-3,1.9c1.7,0.7,3.5,1.3,5.3,1.8c0.9-0.4,1.9-0.8,2.9-1.3
			C121.6,179.3,116.3,176.8,115,177.6z"/>
	</g>
	<path class="st6" d="M118.6,145.1c2.2,1,7.5,3.4,4.6,8.6c-3.6,6.4-18.6,6.5-18.6,15.7c0,11.4,20.4,10.9,23.8,15
		c1.5,1.8,0.9,3.7,0.2,6.3c0,0,2.8-2.9,2.5-6.2c-0.6-6.2-16.8-6.3-18.6-14.6c-1.6-7.5,12.3-8,14.1-15.9
		C128.2,147.3,120.7,145.3,118.6,145.1z"/>
	<path class="st13" d="M124.7,169.8c-0.2-7.6-17.3-4.5-18.7-13.2c-0.8-4.9,5.9-7.9,7.7-7.9c0,0-5.3,1.9-4.5,6.7
		c1.1,6.9,22.4,3.8,23.7,13.8"/>
	<path class="st18" d="M308.9,188.5c0-2.3-1.4-4.3-3.5-5.1c0.4-0.9,0.7-1.9,0.7-2.9c0-3.6-2.9-6.5-6.5-6.5c-1.6,0-3.1,0.6-4.3,1.6
		c-1.2-2.4-3.7-4.1-6.7-4.1c-4.1,0-7.5,3.3-7.5,7.5c0,0.6,0.1,1.2,0.2,1.7c-2.7,0.9-4.6,3.5-4.6,6.5c0,3.8,3.1,6.8,6.8,6.9v0h19.9
		c0,0,0,0,0,0C306.5,194,308.9,191.5,308.9,188.5z"/>
	<g class="st10">
		<path class="st21" d="M117,162.9c-0.2-0.1-0.4-0.1-0.6-0.2c-1.7-0.5-3.5-1-5-1.6c-0.7,0.4-1.5,0.8-2.1,1.2
			c1.7,0.9,3.7,1.5,5.6,2.1C115.5,163.9,116.2,163.4,117,162.9z"/>
	</g>
	<path class="st13" d="M124.7,169.8c-0.2-7.6-17.3-4.5-18.7-13.2c-0.8-4.9,5.9-7.9,7.7-7.9c0,0-5.3,1.9-4.5,6.7
		c1.1,6.9,22.4,3.8,23.7,13.8"/>
	<path class="st3" d="M504,179.5c0-2.3-1.4-4.2-3.5-4.9c0.4-0.9,0.7-1.8,0.7-2.9c0-3.5-2.9-6.3-6.5-6.3c-1.6,0-3.1,0.6-4.3,1.6
		c-1.2-2.4-3.7-4-6.6-4c-4.1,0-7.4,3.3-7.4,7.3c0,0.6,0.1,1.1,0.2,1.7c-2.7,0.9-6.4,8-6.4,8c0,6.7,4.9,5,8.7,5v0h19.8c0,0,0,0,0,0
		C501.6,184.8,504,182.4,504,179.5z"/>
	<path class="st19" d="M265.5,206.8c-1.7-0.8-7.5-6.1-4.7-12.2c1.6-3.6,6.1-6,10-8.2c3.4-1.8,6.9-3.7,6.8-5.6
		c-0.1-2.8-3-3.8-7.8-5.2c-4.7-1.3-10-2.8-10.9-7.9c-0.3-1.8,0.3-3.6,1.6-5.2c2-2.4,5.5-3.8,7.1-3.8l0.3,1.9
		c-0.2,0.1-4.5,1.7-3.9,5.6c0.4,2.5,4.8,3.5,9.4,4.5c6.3,1.5,13.5,3.1,14.3,9.3c0.7,5.7-8,9.6-15.1,12.7c-2.8,1.2-5.4,2.4-6.2,3.2
		c-2.9,2.8-2.1,6.9,0.1,9.3L265.5,206.8z"/>
	<path class="st18" d="M267.6,159.7c0,0-5.3,1.9-4.5,6.7c1.1,6.9,22.4,3.8,23.7,13.8c0.9,7.2-17.9,12.1-21,15.1
		c-3.2,3.1-2.6,7.8,0,10.7c-1.5-0.7-6.7-5.4-4.2-10.9c3-6.6,17.1-9.2,17-14.2c-0.2-7.6-17.3-4.5-18.7-13.2
		C259.2,162.6,265.8,159.7,267.6,159.7z"/>
	<g class="st10">
		<path class="st21" d="M263.3,172.1c2.2,1.3,5.2,2.1,7.9,2.9c0.7-0.4,1.4-0.9,2.3-1.4c0.7-0.4,1.5-0.9,2.2-1.3
			c-3-0.7-6-1.3-8.4-2.2C265.9,170.7,264.5,171.4,263.3,172.1z"/>
	</g>
	<path class="st19" d="M281.7,201.4c0.7-2.6,1.1-4,0-5.4c-1-1.2-4.2-2.1-7.7-3c-7.3-2-16.4-4.5-16.4-12.6c0-6,5.6-8.5,10.6-10.8
		c3.5-1.6,6.7-3,8.1-5.4c0.7-1.2,0.9-2.3,0.6-3.3c-0.7-2-3.4-3.3-4.7-3.9l0.5-1.9c1.9,0.2,5.9,1.3,8,4.2c1.2,1.7,1.5,3.7,1,5.9
		c-0.9,4.1-4.8,6.4-8.2,8.4c-4.1,2.4-6.5,4-5.9,7.1c0.8,3.9,5.5,5.9,9.9,7.8c4.3,1.8,8.3,3.5,8.7,7c0.4,3.8-2.6,6.9-2.8,7
		L281.7,201.4z"/>
	<path class="st18" d="M272.6,156.1c2.2,1,7.5,3.4,4.6,8.6c-3.6,6.4-18.6,6.5-18.6,15.7c0,11.4,20.4,10.9,23.8,15
		c1.5,1.8,0.9,3.7,0.2,6.3c0,0,2.8-2.9,2.5-6.2c-0.6-6.2-16.8-6.3-18.6-14.6c-1.6-7.5,12.3-8,14.1-15.9
		C282.2,158.3,274.7,156.3,272.6,156.1z"/>
	<path class="st13" d="M278.7,180.8c-0.2-7.6-17.3-4.5-18.7-13.2c-0.8-4.9,5.9-7.9,7.7-7.9c0,0-5.3,1.9-4.5,6.7
		c1.1,6.9,22.4,3.8,23.7,13.8"/>
	<path class="st22" d="M469,186c0,0-0.1,8-1,8s-1-8-1-8v-36h2V186z"/>
	<path class="st17" d="M473.6,181.6c3.5-2.3,6.3-5.4,6.3-10.1c0-2.4-0.7-4.3-1.8-6c-1.1,1.3-1.7,2.9-1.7,4.7c0,0.6,0.1,1.1,0.2,1.7
		c-2.7,0.9-6.4,8-6.4,8c0,6.2,4.3,5.2,7.9,5C476.8,183.7,475.2,182.7,473.6,181.6z"/>
	<path class="st13" d="M478.9,171.5c0-12.3-18.9-11.8-18.9-19.6c0-3.9,3-4.9,3-4.9s-5,1-5,5.9c0,6.9,16,10.7,16,18.6
		c0,7.8-18,11.8-18,18.6c0,3.9,3,4.9,3,4.9s-1-1-1-3.9C458,184.2,478.9,183.8,478.9,171.5z"/>
	<path class="st23" d="M463.9,160.3c1.6,1.2,3.3,2.3,4.9,3.5c0.7-0.5,1.4-1,2.2-1.6c0.4-0.3,0.8-0.5,1.1-0.8c-1.7-1-3.5-1.9-5.2-2.7
		C465.9,159.3,464.9,159.8,463.9,160.3z"/>
	<path class="st6" d="M457.1,171.5c0-12.3,18.9-11.8,18.9-19.6c0-3.9-3-4.9-3-4.9s5,1,5,5.9c0,6.9-16,10.7-16,18.6
		c0,7.8,18,11.8,18,18.6c0,3.9-3,4.9-3,4.9s1-1,1-3.9C478,185.2,457.1,183.8,457.1,171.5z"/>
	<path class="st23" d="M466.5,184.2c0.4-0.2,0.8-0.4,1.1-0.5c-1.2-0.6-2.4-1.3-3.5-2c-0.3,0.2-0.6,0.4-0.9,0.6
		C464.2,183,465.3,183.6,466.5,184.2C466.5,184.2,466.5,184.2,466.5,184.2z"/>
	<circle class="st22" cx="468" cy="150" r="3"/>
	<path class="st13" d="M478.9,171.5c0-12.3-18.9-11.8-18.9-19.6c0-3.9,3-4.9,3-4.9s-5,1-5,5.9c0,6.9,16,10.7,16,18.6"/>
	<g class="st24">
		<path class="st25" d="M464.8,161c-0.3,0.2-0.6,0.4-0.9,0.5c0.4,0.3,0.8,0.5,1.1,0.8c0.7,0.5,1.5,1,2.2,1.6
			c0.3-0.2,0.5-0.4,0.8-0.6C467,162.5,465.9,161.7,464.8,161z"/>
	</g>
	<path class="st17" d="M133.7,377.7c0-2.3-1.4-4.2-3.4-5c0.4-0.9,0.7-1.8,0.7-2.9c0-3-2.1-5.6-5-6.2c-1.4,1.5-2.4,3.4-2.4,5.8
		c0,4.8,3.2,7.7,7.3,9.6c-1.6,1.2-3,2.5-3.8,4h1.3c0,0,0,0,0,0C131.4,383,133.7,380.6,133.7,377.7z"/>
	<path class="st13" d="M133.6,348.7c0,0-5.3,1.9-4.5,6.7c1.1,6.9,21.8,3.8,23.1,13.8c0.9,7.2-17.3,12.1-20.4,15.1
		c-3.2,3.1-2.6,7.8,0,10.7c-1.5-0.7-6.7-5.4-4.2-10.9c3-6.6,17.1-9.2,17-14.2c-0.2-7.6-17.3-4.5-18.7-13.2
		C125.2,351.6,131.8,348.7,133.6,348.7z"/>
	<g class="st10">
		<path class="st21" d="M129.3,361.1c2.2,1.3,5.2,2.1,7.9,2.9c0.7-0.4,1.4-0.9,2.3-1.4c0.7-0.4,1.5-0.9,2.2-1.3
			c-3-0.7-6-1.3-8.4-2.2C131.9,359.7,130.5,360.4,129.3,361.1z"/>
		<path class="st21" d="M135,377.6c-1,0.6-2.1,1.2-3,1.9c1.7,0.7,3.5,1.3,5.3,1.8c0.9-0.4,1.9-0.8,2.9-1.3
			C141.6,379.3,136.3,376.8,135,377.6z"/>
	</g>
	<path class="st6" d="M138.6,345.1c2.2,1,7.5,3.4,4.6,8.6c-3.6,6.4-18.6,6.5-18.6,15.7c0,11.4,20.4,10.9,23.8,15
		c1.5,1.8,0.9,3.7,0.2,6.3c0,0,2.8-2.9,2.5-6.2c-0.6-6.2-16.8-6.3-18.6-14.6c-1.6-7.5,12.3-8,14.1-15.9
		C148.2,347.3,140.7,345.3,138.6,345.1z"/>
	<path class="st13" d="M144.7,369.8c-0.2-7.6-17.3-4.5-18.7-13.2c-0.8-4.9,5.9-7.9,7.7-7.9c0,0-5.3,1.9-4.5,6.7
		c1.1,6.9,21.8,3.8,23.1,13.8"/>
	<g class="st10">
		<path class="st21" d="M137,362.9c-0.2-0.1-0.4-0.1-0.6-0.2c-1.7-0.5-3.5-1-5-1.6c-0.7,0.4-1.5,0.8-2.1,1.2
			c1.7,0.9,3.7,1.5,5.6,2.1C135.5,363.9,136.2,363.4,137,362.9z"/>
	</g>
	<path class="st13" d="M144.7,369.8c-0.2-7.6-17.3-4.5-18.7-13.2c-0.8-4.9,5.9-7.9,7.7-7.9c0,0-5.3,1.9-4.5,6.7
		c1.1,6.9,21.8,3.8,23.1,13.8"/>
	<path class="st22" d="M479,386c0,0-0.1,8-1,8s-1-8-1-8v-36h2V386z"/>
	<path class="st17" d="M483.6,381.6c3.5-2.3,6.3-5.4,6.3-10.1c0-2.4-0.7-4.3-1.8-6c-1.1,1.3-1.7,2.9-1.7,4.7c0,0.6,0.1,1.1,0.2,1.7
		c-2.7,0.9-6.4,8-6.4,8c0,6.2,4.3,5.2,7.9,5C486.8,383.7,485.2,382.7,483.6,381.6z"/>
	<path class="st17" d="M466.8,386h2.6c0,0,0,0,0,0c2.9,0,5.3-2.4,5.3-5.3c0-2.3-1.4-4.2-3.4-5c0.4-0.9,0.7-1.8,0.7-2.9
		c0-3-2-5.4-4.8-6.2c-0.7,1.4-1.1,3-1.1,4.8c0,4.6,2.7,7.8,6.1,10.2C470.1,383.1,468.1,384.5,466.8,386z"/>
	<path class="st13" d="M488.9,371.5c0-12.3-18.9-11.8-18.9-19.6c0-3.9,3-4.9,3-4.9s-5,1-5,5.9c0,6.9,16,10.7,16,18.6
		c0,7.8-18,11.8-18,18.6c0,3.9,3,4.9,3,4.9s-1-1-1-3.9C468,384.2,488.9,383.8,488.9,371.5z"/>
	<path class="st23" d="M473.9,360.3c1.6,1.2,3.3,2.3,4.9,3.5c0.7-0.5,1.4-1,2.2-1.6c0.4-0.3,0.8-0.5,1.1-0.8c-1.7-1-3.5-1.9-5.2-2.7
		C475.9,359.3,474.9,359.8,473.9,360.3z"/>
	<path class="st6" d="M467.1,371.5c0-12.3,18.9-11.8,18.9-19.6c0-3.9-3-4.9-3-4.9s5,1,5,5.9c0,6.9-16,10.7-16,18.6
		c0,7.8,18,11.8,18,18.6c0,3.9-3,4.9-3,4.9s1-1,1-3.9C488,385.2,467.1,383.8,467.1,371.5z"/>
	<path class="st23" d="M476.5,384.2c0.4-0.2,0.8-0.4,1.1-0.5c-1.2-0.6-2.4-1.3-3.5-2c-0.3,0.2-0.6,0.4-0.9,0.6
		C474.2,383,475.3,383.6,476.5,384.2C476.5,384.2,476.5,384.2,476.5,384.2z"/>
	<circle class="st22" cx="478" cy="350" r="3"/>
	<path class="st13" d="M488.9,371.5c0-12.3-18.9-11.8-18.9-19.6c0-3.9,3-4.9,3-4.9s-5,1-5,5.9c0,6.9,16,10.7,16,18.6"/>
	<g class="st24">
		<path class="st25" d="M474.8,361c-0.3,0.2-0.6,0.4-0.9,0.5c0.4,0.3,0.8,0.5,1.1,0.8c0.7,0.5,1.5,1,2.2,1.6
			c0.3-0.2,0.5-0.4,0.8-0.6C477,362.5,475.9,361.7,474.8,361z"/>
	</g>
	<path class="st18" d="M287.7,387.7c0-2.3-1.4-4.2-3.4-5c0.4-0.9,0.7-1.8,0.7-2.9c0-3.5-2.9-6.4-6.4-6.4c-1.6,0-3.1,0.6-4.2,1.6
		c-1.2-2.4-3.7-4-6.5-4c-4,0-7.3,3.3-7.3,7.3c0,0.6,0.1,1.1,0.2,1.7c-2.6,0.9-4.5,3.4-4.5,6.3c0,3.7,3,6.7,6.7,6.7v0h19.5
		c0,0,0,0,0,0C285.4,393,287.7,390.6,287.7,387.7z"/>
	<path class="st19" d="M287.7,387.7c0-2.3-1.4-4.2-3.4-5c0.4-0.9,0.7-1.8,0.7-2.9c0-3-2.1-5.6-5-6.2c-1.4,1.5-2.4,3.4-2.4,5.8
		c0,4.8,3.2,7.7,7.3,9.6c-1.6,1.2-3,2.5-3.8,4h1.3c0,0,0,0,0,0C285.4,393,287.7,390.6,287.7,387.7z"/>
	<path class="st18" d="M287.6,358.7c0,0-5.3,1.9-4.5,6.7c1.1,6.9,21.8,3.8,23.1,13.8c0.9,7.2-17.3,12.1-20.4,15.1
		c-3.2,3.1-2.6,7.8,0,10.7c-1.5-0.7-6.7-5.4-4.2-10.9c3-6.6,17.1-9.2,17-14.2c-0.2-7.6-17.3-4.5-18.7-13.2
		C279.2,361.6,285.8,358.7,287.6,358.7z"/>
	<g class="st10">
		<path class="st21" d="M283.3,371.1c2.2,1.3,5.2,2.1,7.9,2.9c0.7-0.4,1.4-0.9,2.3-1.4c0.7-0.4,1.5-0.9,2.2-1.3
			c-3-0.7-6-1.3-8.4-2.2C285.9,369.7,284.5,370.4,283.3,371.1z"/>
	</g>
	<path class="st19" d="M301.7,400.4c0.7-2.6,1.1-4,0-5.4c-1-1.2-4.2-2.1-7.7-3c-7.3-2-16.4-4.5-16.4-12.6c0-6,5.6-8.5,10.6-10.8
		c3.5-1.6,6.7-3,8.1-5.4c0.7-1.2,0.9-2.3,0.6-3.3c-0.7-2-3.4-3.3-4.7-3.9l0.5-1.9c1.9,0.2,5.9,1.3,8,4.2c1.2,1.7,1.5,3.7,1,5.9
		c-0.9,4.1-4.8,6.4-8.2,8.4c-4.1,2.4-6.5,4-5.9,7.1c0.8,3.9,5.5,5.9,9.9,7.8c4.3,1.8,8.3,3.5,8.7,7c0.4,3.8-2.6,6.9-2.8,7
		L301.7,400.4z"/>
	<path class="st18" d="M292.6,355.1c2.2,1,7.5,3.4,4.6,8.6c-3.6,6.4-18.6,6.5-18.6,15.7c0,11.4,20.4,10.9,23.8,15
		c1.5,1.8,0.9,3.7,0.2,6.3c0,0,2.8-2.9,2.5-6.2c-0.6-6.2-16.8-6.3-18.6-14.6c-1.6-7.5,12.3-8,14.1-15.9
		C302.2,357.3,294.7,355.3,292.6,355.1z"/>
	<path class="st13" d="M298.7,379.8c-0.2-7.6-17.3-4.5-18.7-13.2c-0.8-4.9,5.9-7.9,7.7-7.9c0,0-5.3,1.9-4.5,6.7
		c1.1,6.9,21.8,3.8,23.1,13.8"/>
	<path class="st19" d="M297.7,379.8c-0.1-2.8-3-3.8-7.8-5.2c-4.7-1.3-10-2.8-10.9-7.9c-0.3-1.8,0.3-3.6,1.6-5.2
		c2-2.4,5.5-3.8,7.1-3.8l0.3,1.9c-0.2,0.1-4.5,1.7-3.9,5.6c0.4,2.5,4.7,3.5,9.2,4.5c6.2,1.5,13.2,3.1,14,9.3l-2,0.3
		c-0.6-4.8-6.6-6.2-12.4-7.6c-5.2-1.2-10.1-2.4-10.7-6.2c-0.2-1.1-0.1-2.1,0.2-3c-0.1,0.1-0.2,0.2-0.3,0.3c-1,1.1-1.3,2.3-1.1,3.6
		c0.6,3.9,5.1,5.1,9.4,6.3c4.5,1.3,9.2,2.6,9.3,7L297.7,379.8z"/>
	<path class="st18" d="M306.3,379.1c-1.3-10-22.1-6.9-23.1-13.8c-0.8-4.8,4.5-6.7,4.5-6.7c-1.8,0-8.5,3-7.7,7.9
		c1.4,8.8,18.5,5.6,18.7,13.2l4.2,1.6L306.3,379.1z"/>
	<path class="st18" d="M299,380"/>
	<path class="st19" d="M279.1,180.8l0.6-0.6c-0.5-4-5-5.2-9.3-6.4c-4.3-1.2-8.8-2.5-9.4-6.3c-0.2-1.2,0.2-2.5,1.1-3.6
		c0.1-0.1,0.2-0.2,0.3-0.3c-0.3,0.9-0.4,1.9-0.2,3c0.6,3.8,5.6,5,11,6.2c3.2,0.7,6.5,1.5,9,2.8c0.3-0.6,0.7-1.1,1.2-1.6
		c-2.8-1.5-6.3-2.4-9.7-3.1c-4.7-1.1-9.1-2.1-9.4-4.5c-0.6-3.9,3.7-5.5,3.9-5.6l-0.3-1.9c-1.6,0-5.1,1.5-7.1,3.8
		c-1.3,1.6-1.9,3.4-1.6,5.2c0.8,5.1,6.2,6.6,10.9,7.9c4.8,1.4,7.8,2.4,7.8,5.2L279.1,180.8z"/>
	<path class="st18" d="M279,181l4,1l3.9-1.9c-1.3-10-22.7-6.9-23.7-13.8c-0.8-4.8,4.5-6.7,4.5-6.7c-1.8,0-8.5,3-7.7,7.9
		c1.4,8.8,18.5,5.6,18.7,13.2"/>
	<g class="st10">
		<path class="st26" d="M252,544c2,6,0.5,8.1-9,8.1l-1,2.9h11.8h8.8H274l-1-2.9c-9.5,0-10-2.1-8-8.1"/>
		<path class="st27" d="M279,510h-42.2c-1.5,0-2.7,1.3-2.7,2.8v28.4c0,1.5,1.2,2.8,2.7,2.8H279c1.5,0,3-1.3,3-2.8v-28.4
			C282,511.3,280.5,510,279,510"/>
		<path class="st28" d="M278.9,510C278.8,510,278.8,510,278.9,510l-42.1,0c-1.5,0-2.7,1.3-2.7,2.8v28.4c0,1.5,1.2,2.8,2.7,2.8h1.1
			L278.9,510z"/>
		<polygon class="st29" points="278,514 278,540 238,540 238,514 		"/>
		<polygon class="st27" points="242,552 274,552 274,555 242,555 		"/>
		<path class="st30" d="M258.9,512c0,0.5-0.4,1-1,1c-0.5,0-0.9-0.4-0.9-1c0-0.5,0.4-1,0.9-1C258.5,511,258.9,511.5,258.9,512"/>
	</g>
	<path class="st3" d="M171.8,536.5c0-3.6-2.2-6.7-5.4-7.9c0.7-1.4,1.1-2.9,1.1-4.6c0-5.6-4.5-10.1-10.1-10.1c-2.6,0-4.9,1-6.7,2.5
		c-1.9-3.8-5.8-6.4-10.3-6.4c-6.4,0-11.6,5.2-11.6,11.6c0,0.9,0.1,1.8,0.3,2.7c-4.1,1.5-7.1,5.4-7.1,10c0,5.9,4.7,10.6,10.6,10.6v0
		h30.9c0,0,0,0,0,0C168.1,544.9,171.8,541.2,171.8,536.5z"/>
	<path class="st31" d="M171,533h-11l-2-5l-3,7l-3-10l-2,8h-7l-2-4l-3,6l-2.3-11l-2.7,9h-10.9c-0.1,0.4-0.1,0.9-0.1,1.4
		c0,0.2,0,0.5,0,0.7h12.5l0.7-2.6l2.1,10l4.1-9.4l0.7,1.8h8.8l1.1-3.3l2.3,10.9l4.1-9.4l0.7,1.8h12.5
		C171.5,534.3,171.3,533.6,171,533z"/>
	<path class="st18" d="M170.5,532h-9.3l-2.6-6.6l-3.2,7.3l-2.6-12.6l-3.9,11.8h-4.6l-2.6-6.6l-3.2,7.3l-2.7-13l-3.4,12.3h-10
		c-0.1,0.6-0.2,1.3-0.2,2h11.7l1.6-5.8l2.3,11l3.8-8.7l1.4,3.4h4.2h2.2h1l2-6.2l2.4,11.4l3.8-8.7l1.4,3.4h11.6
		C171.2,533.3,170.9,532.6,170.5,532z"/>
	<g class="st10">
		<path class="st29" d="M122.3,632h10l3.4-12.3l2.7,13l3.2-7.3l2.6,6.6h4.6l3.9-11.8l2.6,12.6l3.2-7.3l2.6,6.6h9.3
			c-1-1.5-2.4-2.7-4.1-3.3c0.7-1.4,1.1-2.9,1.1-4.6c0-5.6-4.5-10.1-10.1-10.1c-2.6,0-4.9,1-6.7,2.5c-1.9-3.8-5.8-6.4-10.3-6.4
			c-6.4,0-11.6,5.2-11.6,11.6c0,0.9,0.1,1.8,0.3,2.7C125.7,625.4,123.1,628.3,122.3,632z"/>
		<path class="st32" d="M159.8,634.1l-1.4-3.4l-3.8,8.7l-2.4-11.4l-2,6.2h-1H147h-4.2l-1.4-3.4l-3.8,8.7l-2.3-11l-1.6,5.8H122
			c0,0.1,0,0.2,0,0.3c0,5.9,4.7,10.6,10.6,10.6v0h30.9c0,0,0,0,0,0c4.6-0.1,8.3-3.8,8.3-8.5c0-0.9-0.1-1.7-0.4-2.5H159.8z"/>
		<path class="st33" d="M159.8,634.1l-1.4-3.4l-3.8,8.7l-2.4-11.4l-2,6.2h-1H147h-4.2l-1.4-3.4l-3.8,8.7l-2.3-11l-1.6,5.8H122
			c0,0.1,0,0.2,0,0.3c0,5.9,4.7,10.6,10.6,10.6v0h30.9c0,0,0,0,0,0c4.6-0.1,8.3-3.8,8.3-8.5c0-0.9-0.1-1.7-0.4-2.5H159.8z"/>
	</g>
	<polygon class="st31" points="246.2,529.5 245.5,532.1 234,532.1 234,530 244,530 246.7,521 249,532 252,526 254,530 261,530 
		263,522 266,532 269,525 271,530 282,530 282,532 270.1,532 269.4,530.2 265.3,539.5 263.1,528.7 262,532 253.1,532 252.4,530.2 
		248.3,539.5 	"/>
	<polygon class="st18" points="272.2,529 269.5,522.4 266.3,529.7 263.7,517.2 259.8,529 255.2,529 252.5,522.4 249.3,529.7 
		247.6,516.8 243.2,529.1 234,529.1 234,531.1 244.8,531.1 246.4,525.3 248.7,536.3 252.5,527.6 253.8,531 258,531 260.2,531 
		261.2,531 263.3,524.8 265.7,536.3 269.5,527.6 270.8,531 282,531 282,529 	"/>
	<g class="st10">
		<path class="st26" d="M252,644c2,6,0.5,8.1-9,8.1l-1,2.9h11.8h8.8H274l-1-2.9c-9.5,0-10-2.1-8-8.1"/>
		<path class="st27" d="M279,610h-42.2c-1.5,0-2.7,1.3-2.7,2.8v28.4c0,1.5,1.2,2.8,2.7,2.8H279c1.5,0,3-1.3,3-2.8v-28.4
			C282,611.3,280.5,610,279,610"/>
		<path class="st28" d="M278.9,610C278.8,610,278.8,610,278.9,610l-42.1,0c-1.5,0-2.7,1.3-2.7,2.8v28.4c0,1.5,1.2,2.8,2.7,2.8h1.1
			L278.9,610z"/>
		<polygon class="st29" points="278,614 278,640 238,640 238,614 		"/>
		<polygon class="st27" points="242,652 274,652 274,655 242,655 		"/>
		<path class="st30" d="M258.9,612c0,0.5-0.4,1-1,1c-0.5,0-0.9-0.4-0.9-1c0-0.5,0.4-1,0.9-1C258.5,611,258.9,611.5,258.9,612"/>
	</g>
	<polygon class="st18" points="272.2,629 269.5,622.4 266.3,629.7 263.7,617.2 259.8,629 255.2,629 252.5,622.4 249.3,629.7 
		247.6,616.8 243.2,629 233.9,629 233.9,631 244.8,631 246.4,625.3 248.7,636.3 252.5,627.6 253.8,631 258,631 260.2,631 261.2,631 
		263.3,624.8 265.7,636.3 269.5,627.6 270.8,631 282.1,631 282.1,629 	"/>
	<polygon class="st34" points="271.2,631.2 269.9,627.7 266.1,636.4 263.7,625 261.6,631.2 260.6,631.2 258.4,631.2 254.2,631.2 
		252.9,627.7 249.1,636.4 246.8,625.4 245.2,631.2 239,631.2 239,639.6 277.8,639.6 277.8,631.2 	"/>
	<rect x="234" y="631" class="st35" width="4" height="1"/>
	<rect x="278" y="631" class="st35" width="4" height="1"/>
	
		<text transform="matrix(1 0 0 1 139 697)" style="display:inline;fill:#808080; font-family:'MyriadPro-Regular'; font-size:12px;">a                                           b                                      c                                    d</text>
	<text transform="matrix(1 0 0 1 86 533)" class="st10"><tspan x="0" y="0" style="fill:#808080; font-family:'MyriadPro-Regular'; font-size:12px;">1</tspan><tspan x="0" y="100" style="fill:#808080; font-family:'MyriadPro-Regular'; font-size:12px;">2</tspan></text>
	<g class="st10">
		<path class="st26" d="M352,544c2,6,0.5,8.1-9,8.1l-1,2.9h11.8h8.8H374l-1-2.9c-9.5,0-10-2.1-8-8.1"/>
		<path class="st27" d="M379,510h-42.2c-1.5,0-2.7,1.3-2.7,2.8v28.4c0,1.5,1.2,2.8,2.7,2.8H379c1.5,0,3-1.3,3-2.8v-28.4
			C382,511.3,380.5,510,379,510"/>
		<path class="st28" d="M378.9,510C378.8,510,378.8,510,378.9,510l-42.1,0c-1.5,0-2.7,1.3-2.7,2.8v28.4c0,1.5,1.2,2.8,2.7,2.8h1.1
			L378.9,510z"/>
		<polygon class="st12" points="378,514 378,540 338,540 338,514 		"/>
		<polygon class="st27" points="342,552 374,552 374,555 342,555 		"/>
		<path class="st30" d="M358.9,512c0,0.5-0.4,1-1,1c-0.5,0-0.9-0.4-0.9-1c0-0.5,0.4-1,0.9-1C358.5,511,358.9,511.5,358.9,512"/>
	</g>
	<polygon class="st36" points="364.8,529.1 364,532 353.1,532 352.7,530.9 349.3,539.9 346.8,529.1 346,532 334,532 334,530 
		344,530 347,521 350,532 353,526 354,530 362,530 365,522 368,531 371,525 373,530 382,530 382,532 371.1,532 370.7,530.9 
		367.3,539.9 	"/>
	<polyline class="st37" points="334,530 344.5,530 347,521 349.8,533 352.8,525 354.5,530 361,530 	"/>
	<polyline class="st37" points="356,530 362.5,530 365,521 367.8,533 370.8,525 372.5,530 382,530 	"/>
	<g class="st10">
		<path class="st26" d="M352,644c2,6,0.5,8.1-9,8.1l-1,2.9h11.8h8.8H374l-1-2.9c-9.5,0-10-2.1-8-8.1"/>
		<path class="st27" d="M379,610h-42.2c-1.5,0-2.7,1.3-2.7,2.8v28.4c0,1.5,1.2,2.8,2.7,2.8H379c1.5,0,3-1.3,3-2.8v-28.4
			C382,611.3,380.5,610,379,610"/>
		<path class="st28" d="M378.9,610C378.8,610,378.8,610,378.9,610l-42.1,0c-1.5,0-2.7,1.3-2.7,2.8v28.4c0,1.5,1.2,2.8,2.7,2.8h1.1
			L378.9,610z"/>
		<polygon class="st12" points="378,614 378,640 338,640 338,614 		"/>
		<polygon class="st27" points="342,652 374,652 374,655 342,655 		"/>
		<path class="st30" d="M358.9,612c0,0.5-0.4,1-1,1c-0.5,0-0.9-0.4-0.9-1c0-0.5,0.4-1,0.9-1C358.5,611,358.9,611.5,358.9,612"/>
	</g>
	<polygon class="st18" points="373.2,629 370.8,622.1 368,629.5 365.1,616.9 361.7,629 355.2,629 352.8,622.1 350,629.5 
		347.1,616.9 343.7,629 334,629 334,631 345.3,631 346.9,625.1 349.5,636.5 352.7,627.9 353.8,631 363.3,631 364.9,625.1 
		367.5,636.5 370.7,627.9 371.8,631 382,631 382,629 	"/>
	<polygon class="st38" points="371.8,631 370.7,627.9 367.5,636.5 364.9,625.1 363.3,631 353.8,631 352.7,627.9 349.5,636.5 
		346.9,625.1 345.3,631 338.6,631 338.6,639.4 377.4,639.4 377.4,631 	"/>
	<g class="st10">
		<path class="st32" d="M452,544c2,6,0.5,8.1-9,8.1l-1,2.9h11.8h8.8H474l-1-2.9c-9.5,0-10-2.1-8-8.1"/>
		<path class="st39" d="M452,544c2,6,0.5,8.1-9,8.1l-1,2.9h11.8h8.8H474l-1-2.9c-9.5,0-10-2.1-8-8.1"/>
		<path class="st32" d="M479,510h-42.2c-1.5,0-2.7,1.3-2.7,2.8v28.4c0,1.5,1.2,2.8,2.7,2.8H479c1.5,0,3-1.3,3-2.8v-28.4
			C482,511.3,480.5,510,479,510"/>
		<path class="st28" d="M478.9,510C478.8,510,478.8,510,478.9,510l-42.1,0c-1.5,0-2.7,1.3-2.7,2.8v28.4c0,1.5,1.2,2.8,2.7,2.8h1.1
			L478.9,510z"/>
		<polygon class="st12" points="478,514 478,540 438,540 438,514 		"/>
		<polygon class="st32" points="442,552 474,552 474,555 442,555 		"/>
		<path class="st30" d="M458.9,512c0,0.5-0.4,1-1,1c-0.5,0-0.9-0.4-0.9-1c0-0.5,0.4-1,0.9-1C458.5,511,458.9,511.5,458.9,512"/>
	</g>
	<polygon class="st36" points="464.8,529.1 464,532 453.1,532 452.7,530.9 449.3,539.9 446.8,529.1 446,532 434,532 434,530 
		444,530 447,521 450,532 453,526 454,530 462,530 465,522 468,531 471,525 473,530 482,530 482,532 471.1,532 470.7,530.9 
		467.3,539.9 	"/>
	<polyline class="st37" points="434,530 444.5,530 447,521 449.8,533 452.8,525 454.5,530 461,530 	"/>
	<polyline class="st37" points="456,530 462.5,530 465,521 467.8,533 470.8,525 472.5,530 482,530 	"/>
	<g class="st10">
		<path class="st32" d="M452,644c2,6,0.5,8.1-9,8.1l-1,2.9h11.8h8.8H474l-1-2.9c-9.5,0-10-2.1-8-8.1"/>
		<path class="st39" d="M452,644c2,6,0.5,8.1-9,8.1l-1,2.9h11.8h8.8H474l-1-2.9c-9.5,0-10-2.1-8-8.1"/>
		<path class="st32" d="M479,610h-42.2c-1.5,0-2.7,1.3-2.7,2.8v28.4c0,1.5,1.2,2.8,2.7,2.8H479c1.5,0,3-1.3,3-2.8v-28.4
			C482,611.3,480.5,610,479,610"/>
		<path class="st28" d="M478.9,610C478.8,610,478.8,610,478.9,610l-42.1,0c-1.5,0-2.7,1.3-2.7,2.8v28.4c0,1.5,1.2,2.8,2.7,2.8h1.1
			L478.9,610z"/>
		<polygon class="st12" points="478,614 478,640 438,640 438,614 		"/>
		<polygon class="st32" points="442,652 474,652 474,655 442,655 		"/>
		<path class="st30" d="M458.9,612c0,0.5-0.4,1-1,1c-0.5,0-0.9-0.4-0.9-1c0-0.5,0.4-1,0.9-1C458.5,611,458.9,611.5,458.9,612"/>
	</g>
	<polygon class="st18" points="473.2,629 470.8,622.1 468,629.5 465.1,616.9 461.7,629 455.2,629 452.8,622.1 450,629.5 
		447.1,616.9 443.7,629 434,629 434,631 445.3,631 446.9,625.1 449.5,636.5 452.7,627.9 453.8,631 463.3,631 464.9,625.1 
		467.5,636.5 470.7,627.9 471.8,631 482,631 482,629 	"/>
	<polygon class="st38" points="471.8,631 470.7,627.9 467.5,636.5 464.9,625.1 463.3,631 453.8,631 452.7,627.9 449.5,636.5 
		446.9,625.1 445.3,631 438.6,631 438.6,639.4 477.4,639.4 477.4,631 	"/>
	<rect x="434" y="631" class="st40" width="4" height="1"/>
	<rect x="478" y="631" class="st40" width="4" height="1"/>
	<rect x="588" y="137" class="st2" width="90" height="90"/>
	<rect x="588" y="337" class="st2" width="90" height="90"/>
	<rect x="538" y="487" class="st2" width="90" height="90"/>
	<rect x="688" y="487" class="st2" width="90" height="90"/>
	<path class="st18" d="M658.9,190.7c0-2.3-1.4-4.2-3.5-4.9c0.4-0.9,0.7-1.8,0.7-2.9c0-3.5-2.9-6.3-6.5-6.3c-1.6,0-3.1,0.6-4.3,1.6
		c-1.2-2.4-3.7-4-6.6-4c-4.1,0-7.4,3.3-7.4,7.3c0,0.6,0.1,1.1,0.2,1.7c-2.7,0.9-4.6,3.4-4.6,6.3c0,6.7,3,6.7,6.8,6.7v0h19.8
		c0,0,0,0,0,0C656.5,196,658.9,193.6,658.9,190.7z"/>
	<path class="st18" d="M624,197c0,0-0.1,8-1,8s-1-8-1-8v-36h2V197z"/>
	<path class="st17" d="M634.3,196c-1.3-1.5-3.2-2.7-5.3-4c3.3-2.3,5.8-5.4,5.8-10c0-2.3-0.6-4.1-1.5-5.7c-1.3,1.3-2.1,3.1-2.1,5.1
		c0,0.6,0.1,1.1,0.2,1.7c-2.7,0.9-4.6,3.4-4.6,6.3c0,6.7,3,6.7,6.8,6.7v0H634.3z"/>
	<path class="st19" d="M634.9,182c0-2.3-0.6-4.1-1.5-5.7c-1.3,1.3-2.1,3.1-2.1,5.1c0,0.6,0.1,1.1,0.2,1.7c-2.7,0.9-4.6,3.4-4.6,6.3
		c0,1.6,0.2,2.8,0.5,3.8C631.4,190.6,634.9,187.3,634.9,182z"/>
	<path class="st19" d="M631.4,205.4L631.4,205.4c-0.1-0.1,0.6-1,0.6-3.4c0-1.8-3.4-3.5-7.1-5.3c-6.2-3-13.8-6.7-13.8-14.7
		c0-7.6,6.4-10.8,11.6-13.4c3.9-2,7.3-3.7,7.3-6.6c0-3.2-2.3-4-2.3-4.1l0.5-1.9c2,0.4,5.8,2.4,5.8,7c0,3.9-3.9,6.7-8,9.6
		c-3.9,2.8-8,5.7-8,9.4c0,3.5,4.5,6.2,8.9,8.7c4.7,2.7,9.1,5.3,9.1,9.3c0,5.7-3.5,6.9-3.7,6.9L631.4,205.4z"/>
	<path class="st18" d="M612.1,182c0-12.5,18.9-12,18.9-20c0-4-3-5-3-5s5,1,5,6c0,7-16,11-16,19c0,8,18,11,18,18c0,5-3,6-3,6s1-1,1-4
		C633,196,612.1,194.5,612.1,182z"/>
	<path class="st4" d="M618.9,170.6c1.6,1.2,3.3,2.4,4.9,3.6c0.7-0.5,1.4-1.1,2.2-1.6c0.4-0.3,0.8-0.5,1.1-0.8
		c-1.7-1-3.5-1.9-5.2-2.8C620.9,169.5,619.9,170,618.9,170.6z"/>
	<path class="st19" d="M618.9,170.6c1.6,1.2,3.3,2.4,4.9,3.6c0.7-0.5,1.4-1.1,2.2-1.6c0.4-0.3,0.8-0.5,1.1-0.8
		c-1.7-1-3.5-1.9-5.2-2.8C620.9,169.5,619.9,170,618.9,170.6z"/>
	<circle class="st18" cx="623" cy="161" r="3"/>
	<path class="st19" d="M634.9,182h-2c0-6.3-5.3-9-10.5-11.6c-4.1-2.1-8.1-4.1-8.4-7.9c0,0.2,0,0.3,0,0.5c0,2.9,3.5,5.4,7.2,8
		c4.3,3.1,8.8,6.3,8.8,11h-2c0-3.6-4.1-6.6-8-9.4c-4.1-2.9-8-5.7-8-9.6c0-4.6,3.8-6.6,5.8-7l0.5,1.9c-0.1,0-2.3,0.9-2.3,4.1
		c0,2.9,3.4,4.6,7.3,6.6C628.5,171.2,634.9,174.4,634.9,182z"/>
	<path class="st18" d="M633.9,182c0-12.5-18.9-12-18.9-20c0-4,3-5,3-5s-5,1-5,6c0,7,16,11,16,19"/>
	<path class="st18" d="M658.9,190.7c0-2.3-1.4-4.2-3.5-4.9c0.4-0.9,0.7-1.8,0.7-2.9c0-3.5-2.9-6.3-6.5-6.3c-1.6,0-3.1,0.6-4.3,1.6
		c-1.2-2.4-3.7-4-6.6-4c-4.1,0-7.4,3.3-7.4,7.3c0,0.6,0.1,1.1,0.2,1.7c-2.7,0.9-4.6,3.4-4.6,6.3c0,6.7,3,6.7,6.8,6.7v0h19.8
		c0,0,0,0,0,0C656.5,196,658.9,193.6,658.9,190.7z"/>
	<path class="st18" d="M624,197c0,0-0.1,8-1,8s-1-8-1-8v-36h2V197z"/>
	<path class="st17" d="M634.3,196c-1.3-1.5-3.2-2.7-5.3-4c3.3-2.3,5.8-5.4,5.8-10c0-2.3-0.6-4.1-1.5-5.7c-1.3,1.3-2.1,3.1-2.1,5.1
		c0,0.6,0.1,1.1,0.2,1.7c-2.7,0.9-4.6,3.4-4.6,6.3c0,6.7,3,6.7,6.8,6.7v0H634.3z"/>
	<path class="st19" d="M634.9,182c0-2.3-0.6-4.1-1.5-5.7c-1.3,1.3-2.1,3.1-2.1,5.1c0,0.6,0.1,1.1,0.2,1.7c-2.7,0.9-4.6,3.4-4.6,6.3
		c0,1.6,0.2,2.8,0.5,3.8C631.4,190.6,634.9,187.3,634.9,182z"/>
	<path class="st18" d="M633.9,182c0-12.5-18.9-12-18.9-20c0-4,3-5,3-5s-5,1-5,6c0,7,16,11,16,19c0,8-18,12-18,19c0,4,3,5,3,5
		s-1-1-1-4C613,195,633.9,194.5,633.9,182z"/>
	<path class="st19" d="M631.4,205.4L631.4,205.4c-0.1-0.1,0.6-1,0.6-3.4c0-1.8-3.4-3.5-7.1-5.3c-6.2-3-13.8-6.7-13.8-14.7
		c0-7.6,6.4-10.8,11.6-13.4c3.9-2,7.3-3.7,7.3-6.6c0-3.2-2.3-4-2.3-4.1l0.5-1.9c2,0.4,5.8,2.4,5.8,7c0,3.9-3.9,6.7-8,9.6
		c-3.9,2.8-8,5.7-8,9.4c0,3.5,4.5,6.2,8.9,8.7c4.7,2.7,9.1,6.3,9.1,10.3c0,5.7-3.5,5.9-3.7,5.9L631.4,205.4z"/>
	<path class="st18" d="M612.1,182c0-12.5,18.9-12,18.9-20c0-4-3-5-3-5s5,1,5,6c0,7-16,11-16,19c0,8,18,12,18,19c0,4-3,5-3,5s1-1,1-4
		C633,196,612.1,194.5,612.1,182z"/>
	<path class="st4" d="M618.9,170.6c1.6,1.2,3.3,2.4,4.9,3.6c0.7-0.5,1.4-1.1,2.2-1.6c0.4-0.3,0.8-0.5,1.1-0.8
		c-1.7-1-3.5-1.9-5.2-2.8C620.9,169.5,619.9,170,618.9,170.6z"/>
	<path class="st19" d="M618.9,170.6c1.6,1.2,3.3,2.4,4.9,3.6c0.7-0.5,1.4-1.1,2.2-1.6c0.4-0.3,0.8-0.5,1.1-0.8
		c-1.7-1-3.5-1.9-5.2-2.8C620.9,169.5,619.9,170,618.9,170.6z"/>
	<circle class="st18" cx="623" cy="161" r="3"/>
	<path class="st19" d="M634.9,182h-2c0-6.3-5.3-9-10.5-11.6c-4.1-2.1-8.1-4.1-8.4-7.9c0,0.2,0,0.3,0,0.5c0,2.9,3.5,5.4,7.2,8
		c4.3,3.1,8.8,6.3,8.8,11h-2c0-3.6-4.1-6.6-8-9.4c-4.1-2.9-8-5.7-8-9.6c0-4.6,3.8-6.6,5.8-7l0.5,1.9c-0.1,0-2.3,0.9-2.3,4.1
		c0,2.9,3.4,4.6,7.3,6.6C628.5,171.2,634.9,174.4,634.9,182z"/>
	<path class="st18" d="M633.9,182c0-12.5-18.9-12-18.9-20c0-4,3-5,3-5s-5,1-5,6c0,7,16,11,16,19"/>
	<path class="st18" d="M639.7,389.7c0-2.3-1.4-4.2-3.4-5c0.4-0.9,0.7-1.8,0.7-2.9c0-3.5-2.9-6.4-6.4-6.4c-1.6,0-3.1,0.6-4.2,1.6
		c-1.2-2.4-3.7-4-6.5-4c-4,0-7.3,3.3-7.3,7.3c0,0.6,0.1,1.1,0.2,1.7c-2.6,0.9-4.5,3.4-4.5,6.3c0,3.7,3,6.7,6.7,6.7v0h19.5
		c0,0,0,0,0,0C637.4,395,639.7,392.6,639.7,389.7z"/>
	<path class="st18" d="M644,395c0,0-0.1,8-1,8s-1-8-1-8v-36h2V395z"/>
	<path class="st17" d="M631.8,395h2.6c0,0,0,0,0,0c2.9,0,5.3-2.4,5.3-5.3c0-2.3-1.4-4.2-3.4-5c0.4-0.9,0.7-1.8,0.7-2.9
		c0-3-2-5.4-4.8-6.2c-0.7,1.4-1.1,3-1.1,4.8c0,4.6,2.7,7.8,6.1,10.2C635.1,392.1,633.1,393.5,631.8,395z"/>
	<path class="st19" d="M648,380.4c0,0,0,0.1,0,0.1c0,3.5-4.6,6.3-9,9.1c-4.6,2.9-9,5.7-9,9.5c0,4.5,3.5,5.8,3.7,5.8l3.5,1.1
		l-2.5-2.8c0,0-0.7-0.9-0.7-3.2c0-2.3,3.7-4,7.6-5.8c5.9-2.7,13.3-6.1,13.3-13.8c0,0,0-0.1,0-0.1H648z"/>
	<path class="st18" d="M653.9,380.5c0-12.3-18.9-11.8-18.9-19.6c0-3.9,3-4.9,3-4.9s-5,1-5,5.9c0,6.9,16,10.7,16,18.6
		c0,7.8-18,11.8-18,18.6c0,3.9,3,4.9,3,4.9s-1-1-1-3.9C633,393.2,653.9,392.8,653.9,380.5z"/>
	<path class="st4" d="M638.9,369.3c1.6,1.2,3.3,2.3,4.9,3.5c0.7-0.5,1.4-1,2.2-1.6c0.4-0.3,0.8-0.5,1.1-0.8c-1.7-1-3.5-1.9-5.2-2.7
		C640.9,368.3,639.9,368.8,638.9,369.3z"/>
	<path class="st19" d="M651.4,403.4L651.4,403.4c-0.1-0.1,0.6-0.9,0.6-3.3c0-1.8-3.4-3.4-7-5.1c-6.2-2.9-13.8-6.6-13.8-14.5
		c0-7.4,6.4-10.6,11.6-13.1c3.9-1.9,7.3-3.6,7.3-6.5c0-3.2-2.3-3.9-2.3-3.9l0.5-1.9c2,0.4,5.8,2.3,5.8,6.9c0,3.8-3.9,6.6-8,9.4
		c-3.9,2.8-8,5.6-8,9.2c0,3.5,4.6,6.3,9,9.1c4.6,2.9,9,5.7,9,9.5c0,4.5-3.5,5.8-3.7,5.8L651.4,403.4z"/>
	<path class="st18" d="M632.1,380.5c0-12.3,18.9-11.8,18.9-19.6c0-3.9-3-4.9-3-4.9s5,1,5,5.9c0,6.9-16,10.7-16,18.6
		c0,7.8,18,11.8,18,18.6c0,3.9-3,4.9-3,4.9s1-1,1-3.9C653,394.2,632.1,392.8,632.1,380.5z"/>
	<circle class="st18" cx="643" cy="359" r="3"/>
	<path class="st19" d="M654.9,380.5h-2c0-6.2-5.3-8.8-10.4-11.3c-4.2-2-8.1-4-8.4-7.8c0,0.2,0,0.3,0,0.5c0,2.8,3.5,5.2,7.2,7.8
		c4.3,3,8.8,6.2,8.8,10.8h-2c0-3.6-4.1-6.4-8-9.2c-4.1-2.9-8-5.6-8-9.4c0-4.5,3.8-6.5,5.8-6.9l0.5,1.9c-0.1,0-2.3,0.8-2.3,3.9
		c0,2.9,3.4,4.5,7.3,6.5C648.5,369.9,654.9,373.1,654.9,380.5z"/>
	<path class="st18" d="M653.9,380.5c0-12.3-18.9-11.8-18.9-19.6c0-3.9,3-4.9,3-4.9s-5,1-5,5.9c0,6.9,16,10.7,16,18.6"/>
	<g class="st10">
		<path class="st41" d="M754,507h-42.2c-1.5,0-2.7,1.3-2.7,2.8v28.4c0,1.5,1.2,2.8,2.7,2.8H754c1.5,0,3-1.3,3-2.8v-28.4
			C757,508.3,755.5,507,754,507z M753,537h-40v-26h40V537z"/>
		<path class="st41" d="M744.8,549c-6.3-0.5-6.5-2.8-4.8-8h-13c1.7,5.2,0.8,7.5-5.7,8l-4.3,0v3h11.8h8.8H749v-3L744.8,549z"/>
		<path class="st20" d="M733.9,509c0,0.5-0.4,1-1,1c-0.5,0-0.9-0.4-0.9-1c0-0.5,0.4-1,0.9-1C733.5,508,733.9,508.5,733.9,509"/>
	</g>
	<rect x="708" y="526" class="st19" width="6" height="4"/>
	<rect x="752" y="526" class="st19" width="6" height="4"/>
	<polygon class="st18" points="747.2,525.9 744.5,519.4 741.3,526.7 738.7,514.1 734.8,525.9 730.2,525.9 727.5,519.4 724.3,526.7 
		722.6,513.7 718.2,526 709,526 709,528 719.8,528 721.4,522.2 723.7,533.2 727.5,524.5 728.8,527.9 733,527.9 735.2,527.9 
		736.2,527.9 738.3,521.8 740.7,533.2 744.5,524.5 745.8,527.9 757,527.9 757,525.9 	"/>
	<path class="st18" d="M607.8,538.5c0-3.6-2.2-6.7-5.4-7.9c0.7-1.4,1.1-2.9,1.1-4.6c0-5.6-4.5-10.1-10.1-10.1c-2.6,0-4.9,1-6.7,2.5
		c-1.9-3.8-5.8-6.4-10.3-6.4c-6.4,0-11.6,5.2-11.6,11.6c0,0.9,0.1,1.8,0.3,2.7c-4.1,1.5-7.1,5.4-7.1,10c0,5.9,4.7,10.6,10.6,10.6v0
		h30.9c0,0,0,0,0,0C604.1,546.9,607.8,543.2,607.8,538.5z"/>
	<path class="st19" d="M588.3,530.2l-1.9,5.9h-7.6l-1.3-3.3l-3.8,8.8l-2.3-10.9l-1.5,5.5h-12l0-0.1c0-0.7,0.1-1.4,0.2-2l0-0.1h10.1
		l3.4-12.2l0.2,0l2.6,12.7l3.2-7.2l2.7,6.7h4.5l4-12.1l2.6,12.6l3.2-7.2l2.7,6.7h9.3c0.5,0.7,0.8,1.4,1,2.1l0,0.1h-11.9l-1.3-3.3
		l-3.8,8.8L588.3,530.2z"/>
	<rect x="756" y="526" class="st18" width="3" height="2"/>
	<rect x="707" y="526" class="st18" width="3" height="2"/>
	<path class="st42" d="M569.5,606c-5.2,0-9.6,3.1-11.5,7.6c-1.9-4.5-6.3-7.6-11.5-7.6c-8.5,0-12.5,8.1-12.5,15c0,21,24,33,24,33
		s24-12,24-33C582,614.1,578,606,569.5,606z"/>
	<g class="st43">
		<path class="st20" d="M572,632.8l-1.4-3.9l-2.1,6.6c-0.3,1-1.7,0.9-1.9-0.1l-2.2-10.7l-2.1,8.1H555l-1.4-3.9l-2.1,6.6
			c-0.3,1-1.7,0.9-1.9-0.1l-2.2-10.7l-2.1,8.1h-8.7C542.9,646.4,558,654,558,654s15.1-7.6,21.4-21.2H572z"/>
	</g>
	<path class="st3" d="M669.5,606c-5.2,0-9.6,3.1-11.5,7.6c-1.9-4.5-6.3-7.6-11.5-7.6c-8.5,0-12.5,8.1-12.5,15c0,21,24,33,24,33
		s24-12,24-33C682,614.1,678,606,669.5,606z"/>
	<path class="st42" d="M658,632c-12,0-20-5.4-24-11.6c0,0.2,0,0.4,0,0.6c0,21,24,33,24,33s24-12,24-33c0-0.2,0-0.4,0-0.6
		C678,626.6,670,632,658,632z"/>
	<circle class="st18" cx="661" cy="642" r="3.9"/>
	<path class="st44" d="M661,642c19.9-6.9,25-20,20-31.8c-4.8-11.2-34-11.2-39-6.2c-8.1,8.1,0,14.7,0,14.7"/>
	<path class="st18" d="M650.9,639.8c-0.3,0-0.7-0.1-0.9-0.4c-7.4-7.6-14.1-15.5-8.4-21.3c1.4-1.4,3.1-2.2,4.9-2.2
		c5,0,10.8,5.2,16.3,10.5c0.2,0.2,0.4,0.5,0.4,0.9c0,0.3-0.1,0.7-0.4,0.9l-1.3,1.3c-0.2,0.2-0.6,0.4-0.9,0.4c-0.3,0-0.6-0.1-0.9-0.4
		l-0.7-0.7c-0.5-0.5-0.5-1.3,0-1.8l0.6-0.6c-6-5.7-10.1-8.3-13.1-8.3c-1.3,0-2.4,0.5-3.4,1.5c-3.2,3.2-1.3,8,6.8,16.5l0.6-0.6
		c0.2-0.2,0.5-0.4,0.9-0.4c0.3,0,0.6,0.1,0.9,0.4l0.7,0.7c0.2,0.2,0.4,0.5,0.4,0.9s-0.1,0.6-0.4,0.9l-0.7,0.7l0,0l0,0.1l-0.5,0.5
		C651.5,639.7,651.2,639.8,650.9,639.8z"/>
	<path class="st42" d="M737.3,636c-1.9,0-3.6,1.2-4.3,2.8c-0.7-1.7-2.4-2.8-4.3-2.8c-3.2,0-4.7,3-4.7,5.6c0,7.9,9,12.4,9,12.4
		s9-4.5,9-12.4C742,639,740.5,636,737.3,636z"/>
	<polyline class="st45" points="741.6,645.7 738.5,645.7 737.7,643.3 736.6,646.9 735.5,641.3 734.3,645.7 732.2,645.7 731.4,643.3 
		730.2,646.9 729.1,641.3 728,645.7 724.4,645.7 	"/>
	<g class="st43">
		<path class="st20" d="M738.3,646l-0.5-1.5l-1.2,3.9l-1.1-5.4l-0.8,3h-2.8l-0.5-1.5l-1.2,3.9L729,643l-0.8,3H725c2.3,5.1,8,8,8,8
			s5.7-2.8,8-8H738.3z"/>
	</g>
	<path class="st46" d="M574.2,630l-2.2-6.4c-0.2-0.6-0.8-1-1.4-1c-0.6,0-1.2,0.4-1.4,1l-1.1,3.8l-2-9.9c-0.1-0.7-0.7-1.2-1.4-1.2
		c-0.7,0-1.2,0.4-1.4,1.1L560,630h-2.8l-2.2-6.4c-0.2-0.6-0.8-1-1.4-1c-0.6,0-1.2,0.4-1.4,1l-1.1,3.8l-2-9.9
		c-0.1-0.7-0.7-1.2-1.4-1.2c-0.7,0-1.2,0.4-1.4,1.1L543,630h-7.5c0.5,1.4,1.1,2.7,1.7,4h7.8c0.7,0,1.2-0.5,1.4-1.1l0.9-3.8l1.8,8.6
		c0.1,0.7,0.7,1.2,1.4,1.2c0.6,0,1.2-0.4,1.4-1l1.8-5.8l0.3,1c0.2,0.6,0.8,1,1.4,1h6.6c0.7,0,1.2-0.5,1.4-1.1l0.9-3.8l1.8,8.6
		c0.1,0.7,0.7,1.2,1.4,1.2c0.6,0,1.2-0.4,1.4-1l1.8-5.8l0.3,1c0.2,0.6,0.8,1,1.4,1h6.4c0.6-1.3,1.2-2.6,1.7-4H574.2z"/>
	<path class="st18" d="M567.5,638c-0.2,0-0.5-0.1-0.5-0.4l-2.6-12.6l-1.9,7.7c-0.1,0.2-0.3,0.4-0.5,0.4h-6.6c-0.2,0-0.4-0.1-0.5-0.4
		l-1.2-3.6l-2.6,8.4c-0.1,0.2-0.3,0.4-0.5,0.4c-0.2,0-0.5-0.1-0.5-0.4l-2.6-12.6l-1.9,7.7c-0.1,0.2-0.3,0.4-0.5,0.4h-10v-2.2l8.4,0
		c0.2,0,0.4-0.1,0.4-0.3l3.3-12.9c0.1-0.3,0.3-0.4,0.5-0.4c0.2,0,0.5,0.1,0.5,0.4l2.7,13.4l2.2-7.2c0.1-0.2,0.3-0.4,0.5-0.4
		c0.2,0,0.4,0.1,0.5,0.4l2.3,6.7c0.1,0.2,0.2,0.3,0.4,0.3h3.5c0.2,0,0.4-0.1,0.4-0.3l3.3-12.9c0.1-0.3,0.3-0.4,0.5-0.4
		c0.2,0,0.5,0.1,0.5,0.4l2.7,13.4l2.2-7.2c0.1-0.2,0.3-0.4,0.5-0.4c0.2,0,0.4,0.1,0.5,0.4l2.3,6.7c0.1,0.2,0.2,0.3,0.4,0.3h7.1v2.2
		l-8.6,0c-0.2,0-0.4-0.1-0.5-0.4l-1.2-3.6l-2.6,8.4C568,637.8,567.8,638,567.5,638z"/>
	<g class="st10">
		<path class="st29" d="M820.6,646c0.4-0.3,0.8-0.6,1.2-0.9c9.2-7.1,15.5-17.3,14.7-23.6c-0.5-3.7-4.8-6.5-9.1-6.5
			c-2.6,0-4.9,1-6.7,2.5c-1.9-3.8-5.8-6.4-10.3-6.4c-2.4,0-4.3,0.4-6.2,1.7c-0.8,0.5-1.1,1.7-0.8,2.6c1.2,2.8,3.3,5.5,3.3,5.5
			l-1.8,2c-0.1-0.1-2.9-3.1-4.3-6.6c-1.3,1.9-1.9,4-1.9,6.4c0,0.9,0.1,1.8,0.3,2.7c-4.1,1.5-7.1,5.4-7.1,10
			c0,5.9,4.7,10.6,10.6,10.6v0H820.6z"/>
		<path class="st32" d="M820.6,646c0.4-0.3,0.8-0.6,1.2-0.9c9.2-7.1,15.5-17.3,14.7-23.6c-0.5-3.7-4.8-6.5-9.1-6.5
			c-2.6,0-4.9,1-6.7,2.5c-1.9-3.8-5.8-6.4-10.3-6.4c-2.4,0-4.3,0.4-6.2,1.7c-0.8,0.5-1.1,1.7-0.8,2.6c1.2,2.8,3.3,5.5,3.3,5.5
			l-1.8,2c-0.1-0.1-2.9-3.1-4.3-6.6c-1.3,1.9-1.9,4-1.9,6.4c0,0.9,0.1,1.8,0.3,2.7c-4.1,1.5-7.1,5.4-7.1,10
			c0,5.9,4.7,10.6,10.6,10.6v0H820.6z"/>
		<path class="st29" d="M837.5,630.2c-2.6,6.7-13.9,19.3-24.7,23.7l0.8,2.4c5.5-1.9,11.6-6.9,15.7-10.3h4.2c0,0,0,0,0,0
			c4.6-0.1,8.3-3.8,8.3-8.5C841.8,634.4,840.1,631.7,837.5,630.2z"/>
	</g>
	<g class="st10">
		<path class="st32" d="M837.5,630.2c-2.3,6-11.7,16.8-21.5,22.2c-0.7-0.7-1.7-1.2-2.8-1.2c-2.2,0-3.9,1.7-3.9,3.9s1.7,3.9,3.9,3.9
			c2.2,0,3.9-1.7,3.9-3.9c0-0.1,0-0.2,0-0.4c4.5-2.4,9-6,12.2-8.7h4.2c0,0,0,0,0,0c4.6-0.1,8.3-3.8,8.3-8.5
			C841.8,634.4,840.1,631.7,837.5,630.2z"/>
	</g>
	<path class="st37" d="M816.8,638.4l-4.5,0.7c-0.3,0-0.6-0.1-0.8-0.4c0,0-3.1-4.8-5.3-8.2c-2.2-3.3-2.1-6.4,0-8.5
		c2.1-2.1,5.1-2.3,8.5,0c3.4,2.3,8.1,5.3,8.1,5.3c0.2,0.2,0.4,0.5,0.4,0.8l-0.7,4.5"/>
	<circle class="st18" cx="816.8" cy="638.4" r="1.5"/>
	<circle class="st18" cx="822.5" cy="632.7" r="1.5"/>
	<g class="st10">
		<path class="st29" d="M902.3,654.3c0.2-0.1,0.3-0.2,0.4-0.3c3.3-2.6,5.6-6.2,5.3-8.5c-0.2-1.3-1.7-2.3-3.3-2.3
			c-0.9,0-1.8,0.3-2.4,0.9c-0.7-1.4-2.1-2.3-3.7-2.3c-0.9,0-1.6,0.2-2.2,0.6c-0.3,0.2-0.4,0.6-0.3,0.9c0.4,1,1.2,2,1.2,2l-0.6,0.7
			c0,0-1-1.1-1.5-2.4c-0.5,0.7-0.7,1.4-0.7,2.3c0,0.3,0,0.6,0.1,1c-1.5,0.5-2.6,1.9-2.6,3.6c0,2.1,1.7,3.8,3.8,3.8v0H902.3z"/>
		<path class="st32" d="M902.3,654.3c0.2-0.1,0.3-0.2,0.4-0.3c3.3-2.6,5.6-6.2,5.3-8.5c-0.2-1.3-1.7-2.3-3.3-2.3
			c-0.9,0-1.8,0.3-2.4,0.9c-0.7-1.4-2.1-2.3-3.7-2.3c-0.9,0-1.6,0.2-2.2,0.6c-0.3,0.2-0.4,0.6-0.3,0.9c0.4,1,1.2,2,1.2,2l-0.6,0.7
			c0,0-1-1.1-1.5-2.4c-0.5,0.7-0.7,1.4-0.7,2.3c0,0.3,0,0.6,0.1,1c-1.5,0.5-2.6,1.9-2.6,3.6c0,2.1,1.7,3.8,3.8,3.8v0H902.3z"/>
		<path class="st29" d="M908.4,648.6c-0.9,2.4-5,7-8.9,8.6l0.3,0.9c2-0.7,4.2-2.5,5.7-3.7h1.5c0,0,0,0,0,0c1.7,0,3-1.4,3-3.1
			C910,650.1,909.4,649.1,908.4,648.6z"/>
	</g>
	<g class="st10">
		<path class="st32" d="M908.4,648.6c-0.8,2.2-4.2,6.1-7.8,8c-0.3-0.3-0.6-0.4-1-0.4c-0.8,0-1.4,0.6-1.4,1.4c0,0.8,0.6,1.4,1.4,1.4
			c0.8,0,1.4-0.6,1.4-1.4c0,0,0-0.1,0-0.1c1.6-0.9,3.3-2.2,4.4-3.2h1.5c0,0,0,0,0,0c1.7,0,3-1.4,3-3.1
			C910,650.1,909.4,649.1,908.4,648.6z"/>
	</g>
	<path class="st47" d="M901,651.6l-1.6,0.3c-0.1,0-0.2,0-0.3-0.1c0,0-1.1-1.7-1.9-2.9c-0.8-1.2-0.8-2.3,0-3.1c0.8-0.8,1.8-0.8,3.1,0
		s2.9,1.9,2.9,1.9c0.1,0.1,0.1,0.2,0.1,0.3l-0.3,1.6"/>
	<circle class="st18" cx="901" cy="651.6" r="0.5"/>
	<circle class="st18" cx="903" cy="649.5" r="0.5"/>
	<g class="st10">
		<path class="st15" d="M1126.6,609.2c-4.4,0-8.2,2.8-10.1,6.8c-1.9-4-5.7-6.8-10.1-6.8c-6.3,0-11.3,5.5-11.3,12.3
			c0,1.5,0.2,3.1,0.6,4.6h-5.7l1.5,3h11.7l6.5-10.1l7.6,15.6l7.2-10l5.3,6.5h6.2c1.2-3,2-6.2,2-9.6
			C1137.9,614.7,1132.8,609.2,1126.6,609.2z"/>
		<path class="st48" d="M1140,634.1h-11.7l-3.7-4.5l-7.8,11l-7.4-15.4l-4.5,6.9h-6.7c5.9,11.3,18.4,20.9,18.4,20.9
			s9.8-6.3,16.2-15.9h5.8L1140,634.1z"/>
	</g>
	<circle class="st3" cx="1113.2" cy="755.1" r="3.9"/>
	<g class="st10">
		<path class="st29" d="M1120.6,746c0.4-0.3,0.8-0.6,1.2-0.9c9.2-7.1,15.5-17.3,14.7-23.6c-0.5-3.7-4.8-6.5-9.1-6.5
			c-2.6,0-4.9,1-6.7,2.5c-1.9-3.8-5.8-6.4-10.3-6.4c-2.4,0-4.5,0.5-6.4,1.8c-0.8,0.5-1.1,1.7-0.8,2.6c1.2,2.8,3.4,5.4,3.4,5.4
			l-1.6,1.9c-0.1-0.1-2.9-3.1-4.3-6.6c-1.3,1.9-2,4.1-2,6.5c0,0.9,0.1,1.8,0.3,2.7c-4.1,1.5-7.1,5.4-7.1,10
			c0,5.9,4.7,10.6,10.6,10.6v0H1120.6z"/>
		<path class="st29" d="M1137.5,730.2c-2.6,6.7-13.9,19.3-24.7,23.7l0.8,2.4c5.5-1.9,11.6-6.9,15.7-10.3h4.2c0,0,0,0,0,0
			c4.6-0.1,8.3-3.8,8.3-8.5C1141.8,734.4,1140.1,731.7,1137.5,730.2z"/>
	</g>
	<path class="st18" d="M1114.6,742.8c-0.3,0-0.7-0.1-0.9-0.4c-7.4-7.6-14.1-15.5-8.4-21.3c1.4-1.4,3.1-2.2,4.9-2.2
		c5,0,10.8,5.2,16.3,10.5c0.2,0.2,0.4,0.5,0.4,0.9c0,0.3-0.1,0.7-0.4,0.9l-1.3,1.3c-0.2,0.2-0.6,0.4-0.9,0.4c-0.3,0-0.6-0.1-0.9-0.4
		l-0.7-0.7c-0.5-0.5-0.5-1.3,0-1.8l0.6-0.6c-6-5.7-10.1-8.3-13.1-8.3c-1.3,0-2.4,0.5-3.4,1.5c-3.2,3.2-1.3,8,6.8,16.5l0.6-0.6
		c0.2-0.2,0.5-0.4,0.9-0.4c0.3,0,0.6,0.1,0.9,0.4l0.7,0.7c0.2,0.2,0.4,0.5,0.4,0.9s-0.1,0.6-0.4,0.9l-0.7,0.7l0,0l0,0.1l-0.5,0.5
		C1115.3,742.7,1115,742.8,1114.6,742.8z"/>
	<circle class="st6" cx="913.2" cy="755.1" r="3.9"/>
	<g class="st10">
		<path class="st12" d="M919.6,746c0.4-0.3,0.8-0.6,1.2-0.9c9.2-7.1,15.5-17.3,14.7-23.6c-0.5-3.7-3.8-6.5-8.1-6.5
			c-2.6,0-4.9,1-6.7,2.5c-1.9-3.8-5.8-6.4-10.3-6.4c-2.4,0-4.3,0.4-6.2,1.7c-0.8,0.5-1.1,1.7-0.8,2.6c1.2,2.8,3.3,5.5,3.3,5.5
			l-1.8,2c-0.1-0.1-2.9-3.1-4.3-6.6c-1.3,1.9-1.9,4-1.9,6.4c0,0.9,0.1,1.8,0.3,2.7c-4.1,1.5-7.1,5.4-7.1,10
			c0,5.9,4.7,10.6,10.6,10.6v0H919.6z"/>
		<path class="st15" d="M919.6,746c0.4-0.3,0.8-0.6,1.2-0.9c9.2-7.1,15.5-17.3,14.7-23.6c-0.5-3.7-3.8-6.5-8.1-6.5
			c-2.6,0-4.9,1-6.7,2.5c-1.9-3.8-5.8-6.4-10.3-6.4c-2.4,0-4.3,0.4-6.2,1.7c-0.8,0.5-1.1,1.7-0.8,2.6c1.2,2.8,3.3,5.5,3.3,5.5
			l-1.8,2c-0.1-0.1-2.9-3.1-4.3-6.6c-1.3,1.9-1.9,4-1.9,6.4c0,0.9,0.1,1.8,0.3,2.7c-4.1,1.5-7.1,5.4-7.1,10
			c0,5.9,4.7,10.6,10.6,10.6v0H919.6z"/>
		<path class="st12" d="M937.5,730.2c-2.6,6.7-13.9,19.3-24.7,23.7l0.8,2.4c5.5-1.9,11.6-6.9,15.7-10.3h4.2c0,0,0,0,0,0
			c4.6-0.1,8.3-3.8,8.3-8.5C941.8,734.4,940.1,731.7,937.5,730.2z"/>
	</g>
	<g class="st10">
		<path class="st15" d="M937.5,730.2c-2.3,6-11.7,16.8-21.5,22.2c-0.7-0.7-1.7-1.2-2.8-1.2c-2.2,0-3.9,1.7-3.9,3.9s1.7,3.9,3.9,3.9
			c2.2,0,3.9-1.7,3.9-3.9c0-0.1,0-0.2,0-0.4c4.5-2.4,9-6,12.2-8.7h4.2c0,0,0,0,0,0c4.6-0.1,8.3-3.8,8.3-8.5
			C941.8,734.4,940.1,731.7,937.5,730.2z"/>
	</g>
	
		<image style="display:inline;overflow:visible;" width="225" height="225" xlink:href="16046A76.jpg"  transform="matrix(0.2311 0 0 0.2311 1187.1666 603)">
	</image>
	<path class="st6" d="M569.5,706c-5.2,0-9.6,3.1-11.5,7.6c-1.9-4.5-6.3-7.6-11.5-7.6c-8.5,0-12.5,8.1-12.5,15c0,21,24,33,24,33
		s24-12,24-33C582,714.1,578,706,569.5,706z"/>
	<g class="st49">
		<path class="st48" d="M572,732.8l-1.4-3.9l-2.1,6.6c-0.3,1-1.7,0.9-1.9-0.1l-2.2-10.7l-2.1,8.1H555l-1.4-3.9l-2.1,6.6
			c-0.3,1-1.7,0.9-1.9-0.1l-2.2-10.7l-2.1,8.1h-8.7C542.9,746.4,558,754,558,754s15.1-7.6,21.4-21.2H572z"/>
	</g>
	<path class="st50" d="M574.2,730l-2.2-6.4c-0.2-0.6-0.8-1-1.4-1c-0.6,0-1.2,0.4-1.4,1l-1.1,3.8l-2-9.9c-0.1-0.7-0.7-1.2-1.4-1.2
		c-0.7,0-1.2,0.4-1.4,1.1L560,730h-2.8l-2.2-6.4c-0.2-0.6-0.8-1-1.4-1c-0.6,0-1.2,0.4-1.4,1l-1.1,3.8l-2-9.9
		c-0.1-0.7-0.7-1.2-1.4-1.2c-0.7,0-1.2,0.4-1.4,1.1L543,730h-7.5c0.5,1.4,1.1,2.7,1.7,4h7.8c0.7,0,1.2-0.5,1.4-1.1l0.9-3.8l1.8,8.6
		c0.1,0.7,0.7,1.2,1.4,1.2c0.6,0,1.2-0.4,1.4-1l1.8-5.8l0.3,1c0.2,0.6,0.8,1,1.4,1h6.6c0.7,0,1.2-0.5,1.4-1.1l0.9-3.8l1.8,8.6
		c0.1,0.7,0.7,1.2,1.4,1.2c0.6,0,1.2-0.4,1.4-1l1.8-5.8l0.3,1c0.2,0.6,0.8,1,1.4,1h6.4c0.6-1.3,1.2-2.6,1.7-4H574.2z"/>
	<path class="st18" d="M567.5,738c-0.2,0-0.5-0.1-0.5-0.4l-2.6-12.6l-1.9,7.7c-0.1,0.2-0.3,0.4-0.5,0.4h-6.6c-0.2,0-0.4-0.1-0.5-0.4
		l-1.2-3.6l-2.6,8.4c-0.1,0.2-0.3,0.4-0.5,0.4c-0.2,0-0.5-0.1-0.5-0.4l-2.6-12.6l-1.9,7.7c-0.1,0.2-0.3,0.4-0.5,0.4h-10v-2.2l8.4,0
		c0.2,0,0.4-0.1,0.4-0.3l3.3-12.9c0.1-0.3,0.3-0.4,0.5-0.4c0.2,0,0.5,0.1,0.5,0.4l2.7,13.4l2.2-7.2c0.1-0.2,0.3-0.4,0.5-0.4
		c0.2,0,0.4,0.1,0.5,0.4l2.3,6.7c0.1,0.2,0.2,0.3,0.4,0.3h3.5c0.2,0,0.4-0.1,0.4-0.3l3.3-12.9c0.1-0.3,0.3-0.4,0.5-0.4
		c0.2,0,0.5,0.1,0.5,0.4l2.7,13.4l2.2-7.2c0.1-0.2,0.3-0.4,0.5-0.4c0.2,0,0.4,0.1,0.5,0.4l2.3,6.7c0.1,0.2,0.2,0.3,0.4,0.3h7.1v2.2
		l-8.6,0c-0.2,0-0.4-0.1-0.5-0.4l-1.2-3.6l-2.6,8.4C568,737.8,567.8,738,567.5,738z"/>
	<path class="st37" d="M916.8,738.4l-4.5,0.7c-0.3,0-0.6-0.1-0.8-0.4c0,0-3.1-4.8-5.3-8.2c-2.2-3.3-2.1-6.4,0-8.5
		c2.1-2.1,5.1-2.3,8.5,0c3.4,2.3,8.1,5.3,8.1,5.3c0.2,0.2,0.4,0.5,0.4,0.8l-0.7,4.5"/>
	<circle class="st18" cx="916.8" cy="738.4" r="1.5"/>
	<circle class="st18" cx="922.5" cy="732.7" r="1.5"/>
	<circle class="st6" cx="999.7" cy="757.6" r="1.4"/>
	<g class="st10">
		<path class="st12" d="M1002,754.3c0.2-0.1,0.3-0.2,0.4-0.3c3.3-2.6,5.6-6.2,5.3-8.5c-0.2-1.3-1.4-2.3-2.9-2.3
			c-0.9,0-1.8,0.3-2.4,0.9c-0.7-1.4-2.1-2.3-3.7-2.3c-0.9,0-1.6,0.2-2.2,0.6c-0.3,0.2-0.4,0.6-0.3,0.9c0.4,1,1.2,2,1.2,2l-0.6,0.7
			c0,0-1-1.1-1.5-2.4c-0.5,0.7-0.7,1.4-0.7,2.3c0,0.3,0,0.6,0.1,1c-1.5,0.5-2.6,1.9-2.6,3.6c0,2.1,1.7,3.8,3.8,3.8v0H1002z"/>
		<path class="st15" d="M1002,754.3c0.2-0.1,0.3-0.2,0.4-0.3c3.3-2.6,5.6-6.2,5.3-8.5c-0.2-1.3-1.4-2.3-2.9-2.3
			c-0.9,0-1.8,0.3-2.4,0.9c-0.7-1.4-2.1-2.3-3.7-2.3c-0.9,0-1.6,0.2-2.2,0.6c-0.3,0.2-0.4,0.6-0.3,0.9c0.4,1,1.2,2,1.2,2l-0.6,0.7
			c0,0-1-1.1-1.5-2.4c-0.5,0.7-0.7,1.4-0.7,2.3c0,0.3,0,0.6,0.1,1c-1.5,0.5-2.6,1.9-2.6,3.6c0,2.1,1.7,3.8,3.8,3.8v0H1002z"/>
		<path class="st12" d="M1008.4,748.6c-0.9,2.4-5,7-8.9,8.6l0.3,0.9c2-0.7,4.2-2.5,5.7-3.7h1.5c0,0,0,0,0,0c1.7,0,3-1.4,3-3.1
			C1010,750.1,1009.4,749.1,1008.4,748.6z"/>
	</g>
	<g class="st10">
		<path class="st15" d="M1008.4,748.6c-0.8,2.2-4.2,6.1-7.8,8c-0.3-0.3-0.6-0.4-1-0.4c-0.8,0-1.4,0.6-1.4,1.4c0,0.8,0.6,1.4,1.4,1.4
			c0.8,0,1.4-0.6,1.4-1.4c0,0,0-0.1,0-0.1c1.6-0.9,3.3-2.2,4.4-3.2h1.5c0,0,0,0,0,0c1.7,0,3-1.4,3-3.1
			C1010,750.1,1009.4,749.1,1008.4,748.6z"/>
	</g>
	<path class="st47" d="M1001,751.6l-1.6,0.3c-0.1,0-0.2,0-0.3-0.1c0,0-1.1-1.7-1.9-2.9c-0.8-1.2-0.8-2.3,0-3.1
		c0.8-0.8,1.8-0.8,3.1,0s2.9,1.9,2.9,1.9c0.1,0.1,0.1,0.2,0.1,0.3l-0.3,1.6"/>
	<circle class="st18" cx="1001" cy="751.6" r="0.5"/>
	<circle class="st18" cx="1003" cy="749.5" r="0.5"/>
	<path class="st6" d="M819.5,706c-5.2,0-9.6,3.1-11.5,7.6c-1.9-4.5-6.3-7.6-11.5-7.6c-8.5,0-12.5,8.1-12.5,15c0,21,24,33,24,33
		s24-12,24-33C832,714.1,828,706,819.5,706z"/>
	<path class="st51" d="M808,733c-10.7,0-19.9-4-23.9-9.7C785.8,742.9,808,754,808,754s22.2-11.1,23.9-30.7
		C827.9,729,818.7,733,808,733z"/>
	<circle class="st18" cx="811" cy="742" r="3.9"/>
	<path class="st44" d="M792,704c-8.1,8.1,0,14.7,0,14.7"/>
	<path class="st44" d="M811,742c19.9-6.9,25-20,20-31.8"/>
	<path class="st18" d="M811.8,724.9c0-0.7-0.3-1.3-0.8-1.7l-0.1-0.1c-0.1,0-5.3-3.4-8.9-5.8c-4-2.7-7.9-2.7-10.7,0.1
		c-2.8,2.8-2.8,6.7-0.1,10.7c2.4,3.7,5.9,9,5.9,9l0.1,0.1c0.4,0.5,1,0.8,1.7,0.8l0.1,0l3.9-0.6c0.6,0.5,1.5,0.4,2.1-0.1
		c0.6-0.6,0.6-1.7,0-2.3c-0.6-0.6-1.7-0.6-2.3,0c-0.1,0.1-0.1,0.2-0.2,0.3l-3.6,0.6c-0.5-0.8-3.6-5.5-5.8-8.9
		c-1.5-2.2-2.7-5.4-0.1-7.9c2.6-2.6,5.7-1.3,7.9,0.1c3.4,2.3,8.1,5.3,8.9,5.8l-0.6,3.6c-0.1,0.1-0.2,0.1-0.3,0.2
		c-0.6,0.6-0.6,1.7,0,2.3c0.6,0.6,1.7,0.6,2.3,0c0.6-0.6,0.6-1.5,0.1-2.2l0.6-3.8L811.8,724.9z"/>
</g>
<g id="white_icons" class="st1">
	<path class="st18" d="M422.1,302.9c0.8-2,1-4.2,0.5-6.5c-0.9-4.2-4.4-7.5-8.6-8.3c-2.5-0.5-4.8-0.1-6.8,0.9c-2.4-3.1-6.1-5-10.2-5
		c-7.2,0-12.9,5.8-12.9,12.9c0,0.6,0.1,1.1,0.1,1.7c-4.5,1.7-7.6,6.3-7,11.6c0.7,5.6,5.6,9.6,11.2,9.6h29.3c4.5,0,8.5-3.2,9.1-7.7
		C427.3,308.1,425.3,304.6,422.1,302.9z"/>
	<path class="st18" d="M395.6,278.7c0,0-5.3,1.9-4.5,6.7c1.1,7.4,20.2,4.7,19.7,14.8c-0.3,6.1-14.2,9.9-17.4,12.8
		c-2.9,2.6-2.8,6-0.5,10.9c0,0-4.5-2.1-5.2-6.4c-1.5-9.6,15.6-8.7,15.5-13.7c-0.2-7.6-14.5-7.7-15.9-16.5
		C386.6,282.3,393.3,278.7,395.6,278.7z"/>
	<path class="st18" d="M399.1,274.1c2.2,1,4.5,2.7,4.4,5.6c-0.3,8.7-15.8,5-15.8,16.8c0,11.4,16.5,10.8,19.8,15
		c1,1.4,0.9,3.7,0.2,6.3c0,0,2.8-2.9,2.5-6.2c-0.6-6.2-13.8-4.3-15.6-12.6c-1.6-7.5,10.3-8,12.1-15.9
		C408.2,276.3,400.9,274.3,399.1,274.1z"/>
	<path class="st19" d="M395.6,278.7c0,0-4.3,1.9-3.5,6.7c1.1,7.4,20.2,4.7,19.7,14.8c-0.3,6.1-14.2,9.9-17.4,12.8
		c-2.9,2.6-3.8,6-1.5,10.9c0,0-3-2.6-3.7-6.9c-1.5-9.6,15.1-11.2,15-16.2c-0.2-7.6-13.7-5.3-15.3-13.2
		C388,282.7,393.8,278.7,395.6,278.7z"/>
	<path class="st19" d="M399.6,274.1c2.2,1,5.4,2.7,5.4,5.6c0,9.7-16.3,7.3-16.3,17.8c0,11.4,16.5,9.8,19.8,14c1,1.4,0.9,3.7,0.2,6.3
		c0,0,2.8-2.9,2.5-6.2c-0.6-6.2-13.8-4.3-15.6-12.6c-1.6-7.5,10.3-8,12.1-15.9C409.2,276.3,401.4,274.3,399.6,274.1z"/>
</g>
<g id="white_icons_B">
</g>
<g id="icons">
	<g id="Layer_1_2_">
		<g id="Azure_2_">
		</g>
		<g id="BizTalk_Services_2_" transform="translate(37.3575,-2500.2)">
		</g>
	</g>
	<g>
		<g>
			<defs>
				<rect id="SVGID_1_" x="1394.3" y="2.8" width="336" height="500"/>
			</defs>
			<clipPath id="SVGID_2_">
				<use xlink:href="#SVGID_1_"  style="overflow:visible;"/>
			</clipPath>
			<rect x="1397.8" y="59.9" class="st52" width="11" height="10"/>
			<rect x="1397.3" y="38.9" class="st53" width="12" height="12"/>
			<rect x="1398.3" y="39.9" class="st54" width="10" height="10"/>
			<rect x="1397.8" y="79.9" class="st53" width="11" height="10"/>
			<rect x="1397.8" y="99.9" class="st55" width="11" height="10"/>
			<rect x="1397.8" y="119.9" class="st56" width="11" height="10"/>
			<rect x="1647.3" y="119.8" class="st57" width="11" height="10"/>
			<rect x="1628.3" y="157.8" class="st53" width="13" height="12"/>
			<rect x="1629.3" y="158.8" class="st58" width="11" height="10"/>
			<rect x="1397.8" y="139.9" class="st59" width="11" height="10"/>
			<rect x="1397.8" y="159.9" class="st59" width="11" height="10"/>
			<rect x="1397.8" y="179.9" class="st60" width="11" height="10"/>
			<rect x="1397.8" y="199.9" class="st61" width="11" height="10"/>
			<rect x="1397.8" y="219.9" class="st62" width="11" height="10"/>
			<rect x="1397.8" y="239.9" class="st63" width="11" height="10"/>
			<rect x="1397.8" y="259.9" class="st64" width="11" height="10"/>
			<rect x="1397.8" y="279.9" class="st65" width="11" height="10"/>
			<rect x="1397.8" y="299.9" class="st66" width="11" height="10"/>
			<rect x="1397.8" y="319.9" class="st67" width="11" height="10"/>
			<rect x="1397.8" y="339.9" class="st68" width="11" height="10"/>
			<rect x="1397.8" y="359.9" class="st69" width="11" height="10"/>
			<rect x="1397.8" y="379.9" class="st70" width="11" height="10"/>
			<rect x="1397.8" y="399.9" class="st71" width="11" height="10"/>
			<rect x="1397.8" y="419.9" class="st72" width="11" height="10"/>
			<rect x="1397.8" y="439.9" class="st73" width="11" height="10"/>
			<path class="st74" d="M1426.8,48.9v-5h-2.4v5h-1v-5h-0.8v-0.8h0.8v-0.2c0-0.8,0.2-1.5,0.6-2c0.3-0.3,0.8-0.5,1.5-0.5
				c0.3,0,0.6,0.1,0.8,0.2l-0.2,0.8c-0.2-0.1-0.4-0.1-0.6-0.1c-0.8,0-1.1,0.7-1.1,1.6v0.3h2.4v-0.3c0-0.8,0.2-1.6,0.7-2
				c0.4-0.4,0.9-0.5,1.4-0.5c0.4,0,0.7,0.1,0.9,0.2l-0.1,0.8c-0.2-0.1-0.4-0.1-0.7-0.1c-0.9,0-1.1,0.8-1.1,1.7v0.3h1.4v0.8h-1.4v5
				H1426.8z M1433.8,48.9v-5h-2.4v5h-1v-5h-0.8v-0.8h0.8v-0.2c0-0.8,0.2-1.5,0.6-2c0.3-0.3,0.8-0.5,1.5-0.5c0.3,0,0.6,0.1,0.8,0.2
				l-0.2,0.8c-0.2-0.1-0.4-0.1-0.6-0.1c-0.8,0-1.1,0.7-1.1,1.6v0.3h2.4v-0.3c0-0.8,0.2-1.6,0.7-2c0.4-0.4,0.9-0.5,1.4-0.5
				c0.4,0,0.7,0.1,0.9,0.2l-0.1,0.8c-0.2-0.1-0.4-0.1-0.7-0.1c-0.9,0-1.1,0.8-1.1,1.7v0.3h1.4v0.8h-1.4v5H1433.8z M1440.8,48.9v-5
				h-2.4v5h-1v-5h-0.8v-0.8h0.8v-0.2c0-0.8,0.2-1.5,0.6-2c0.3-0.3,0.8-0.5,1.5-0.5c0.3,0,0.6,0.1,0.8,0.2l-0.2,0.8
				c-0.2-0.1-0.4-0.1-0.6-0.1c-0.8,0-1.1,0.7-1.1,1.6v0.3h2.4v-0.3c0-0.8,0.2-1.6,0.7-2c0.4-0.4,0.9-0.5,1.4-0.5
				c0.4,0,0.7,0.1,0.9,0.2l-0.1,0.8c-0.2-0.1-0.4-0.1-0.7-0.1c-0.9,0-1.1,0.8-1.1,1.7v0.3h1.4v0.8h-1.4v5H1440.8z"/>
			<g style="clip-path:url(#SVGID_2_);">
				<text transform="matrix(1 0 0 1 1422.327 68.89)" style="fill:#929497; font-family:'MyriadPro-Regular'; font-size:12px;">e5e5e5</text>
			</g>
			<g style="clip-path:url(#SVGID_2_);">
				<text transform="matrix(1 0 0 1 1422.327 88.8939)" style="fill:#929497; font-family:'MyriadPro-Regular'; font-size:12px;">a0a1a2</text>
			</g>
			<g style="clip-path:url(#SVGID_2_);">
				<text transform="matrix(1 0 0 1 1422.327 108.8978)" style="fill:#929497; font-family:'MyriadPro-Regular'; font-size:12px;">7a7a7a</text>
			</g>
			<g style="clip-path:url(#SVGID_2_);">
				<text transform="matrix(1 0 0 1 1422.327 128.9022)"><tspan x="0" y="0" style="fill:#929497; font-family:'MyriadPro-Regular'; font-size:12px;">3e3e3e - Upd</tspan><tspan x="66.6" y="0" style="fill:#929497; font-family:'MyriadPro-Regular'; font-size:12px;">a</tspan><tspan x="72.4" y="0" style="fill:#929497; font-family:'MyriadPro-Regular'; font-size:12px;">t</tspan><tspan x="76.3" y="0" style="fill:#929497; font-family:'MyriadPro-Regular'; font-size:12px;">es </tspan><tspan x="89.6" y="0" style="fill:#929497; font-family:'MyriadPro-Regular'; font-size:12px;">t</tspan><tspan x="93.5" y="0" style="fill:#929497; font-family:'MyriadPro-Regular'; font-size:12px;">o 777777 in da</tspan><tspan x="166.7" y="0" style="fill:#929497; font-family:'MyriadPro-Regular'; font-size:12px;">r</tspan><tspan x="170.6" y="0" style="fill:#929497; font-family:'MyriadPro-Regular'; font-size:12px;">k them</tspan><tspan x="205.5" y="0" style="fill:#929497; font-family:'MyriadPro-Regular'; font-size:12px;">e</tspan><tspan x="211.3" y="0" style="fill:#929497; font-family:'MyriadPro-Regular'; font-size:12px;">.</tspan></text>
			</g>
			<g style="clip-path:url(#SVGID_2_);">
				<text transform="matrix(1 0 0 1 1422.327 148.9061)" style="fill:#929497; font-family:'MyriadPro-Regular'; font-size:12px;">1e1e1e</text>
			</g>
			<g style="clip-path:url(#SVGID_2_);">
				<text transform="matrix(1 0 0 1 1422.327 168.91)"><tspan x="0" y="0" style="fill:#929497; font-family:'MyriadPro-Regular'; font-size:12px;">0f0f0f - Upd</tspan><tspan x="59.1" y="0" style="fill:#929497; font-family:'MyriadPro-Regular'; font-size:12px;">a</tspan><tspan x="64.8" y="0" style="fill:#929497; font-family:'MyriadPro-Regular'; font-size:12px;">t</tspan><tspan x="68.7" y="0" style="fill:#929497; font-family:'MyriadPro-Regular'; font-size:12px;">es </tspan><tspan x="82.1" y="0" style="fill:#929497; font-family:'MyriadPro-Regular'; font-size:12px;">t</tspan><tspan x="86" y="0" style="fill:#929497; font-family:'MyriadPro-Regular'; font-size:12px;">o f2f2f2 in da</tspan><tspan x="151.2" y="0" style="fill:#929497; font-family:'MyriadPro-Regular'; font-size:12px;">r</tspan><tspan x="155.1" y="0" style="fill:#929497; font-family:'MyriadPro-Regular'; font-size:12px;">k them</tspan><tspan x="190" y="0" style="fill:#929497; font-family:'MyriadPro-Regular'; font-size:12px;">e</tspan><tspan x="195.8" y="0" style="fill:#929497; font-family:'MyriadPro-Regular'; font-size:12px;">.</tspan></text>
			</g>
			<g style="clip-path:url(#SVGID_2_);">
				<text transform="matrix(1 0 0 1 1422.327 188.9139)" style="fill:#929497; font-family:'MyriadPro-Regular'; font-size:12px;">ba141a</text>
			</g>
			<g style="clip-path:url(#SVGID_2_);">
				<text transform="matrix(1 0 0 1 1422.327 208.9178)" style="fill:#929497; font-family:'MyriadPro-Regular'; font-size:12px;">dd5900</text>
			</g>
			<path class="st74" d="M1426.8,228.9v-5h-2.4v5h-1v-5h-0.8v-0.8h0.8v-0.2c0-0.8,0.2-1.5,0.6-2c0.3-0.3,0.8-0.5,1.5-0.5
				c0.3,0,0.6,0.1,0.8,0.2l-0.2,0.8c-0.2-0.1-0.4-0.1-0.6-0.1c-0.8,0-1.1,0.7-1.1,1.6v0.3h2.4v-0.3c0-0.8,0.2-1.6,0.7-2
				c0.4-0.4,0.9-0.5,1.4-0.5c0.4,0,0.7,0.1,0.9,0.2l-0.1,0.8c-0.2-0.1-0.4-0.1-0.7-0.1c-0.9,0-1.1,0.8-1.1,1.7v0.3h1.4v0.8h-1.4v5
				H1426.8z M1429.8,226.9c0-1,0.6-1.7,1.5-2.1l0,0c-0.9-0.4-1.2-1.1-1.2-1.8c0-1.2,1-2.1,2.4-2.1c1.5,0,2.3,0.9,2.3,1.9
				c0,0.7-0.3,1.4-1.3,1.8v0c1,0.4,1.6,1.1,1.6,2c0,1.4-1.2,2.3-2.7,2.3C1430.8,229.1,1429.8,228.1,1429.8,226.9z M1434,226.9
				c0-0.9-0.7-1.4-1.7-1.7c-0.9,0.3-1.4,0.9-1.4,1.6c0,0.8,0.6,1.5,1.6,1.5C1433.4,228.3,1434,227.7,1434,226.9z M1431.1,223
				c0,0.8,0.6,1.2,1.5,1.4c0.7-0.2,1.2-0.7,1.2-1.4c0-0.6-0.4-1.3-1.3-1.3C1431.5,221.7,1431.1,222.3,1431.1,223z M1440.5,228.7
				c-0.3,0.1-0.9,0.3-1.7,0.3c-1.8,0-2.9-1.2-2.9-3c0-1.8,1.2-3.1,3.1-3.1c0.6,0,1.2,0.2,1.5,0.3l-0.2,0.8c-0.3-0.1-0.6-0.3-1.2-0.3
				c-1.3,0-2.1,1-2.1,2.2c0,1.3,0.9,2.2,2,2.2c0.6,0,1-0.2,1.3-0.3L1440.5,228.7z M1446.6,224.9c0,2.7-1,4.1-2.7,4.1
				c-1.5,0-2.6-1.4-2.6-4c0-2.6,1.1-4.1,2.7-4.1C1445.6,221,1446.6,222.5,1446.6,224.9z M1442.3,225.1c0,2,0.6,3.2,1.6,3.2
				c1.1,0,1.6-1.3,1.6-3.3c0-1.9-0.5-3.2-1.6-3.2C1443,221.8,1442.3,222.9,1442.3,225.1z M1452.7,224.9c0,2.7-1,4.1-2.7,4.1
				c-1.5,0-2.6-1.4-2.6-4c0-2.6,1.1-4.1,2.7-4.1C1451.8,221,1452.7,222.5,1452.7,224.9z M1448.5,225.1c0,2,0.6,3.2,1.6,3.2
				c1.1,0,1.6-1.3,1.6-3.3c0-1.9-0.5-3.2-1.6-3.2C1449.2,221.8,1448.5,222.9,1448.5,225.1z"/>
			<g style="clip-path:url(#SVGID_2_);">
				<text transform="matrix(1 0 0 1 1422.327 248.9261)"><tspan x="0" y="0" style="fill:#929497; font-family:'MyriadPro-Regular'; font-size:12px;">f</tspan><tspan x="3.4" y="0" style="fill:#929497; font-family:'MyriadPro-Regular'; font-size:12px;">c</tspan><tspan x="8.7" y="0" style="fill:#929497; font-family:'MyriadPro-Regular'; font-size:12px;">d116</tspan></text>
			</g>
			<g style="clip-path:url(#SVGID_2_);">
				<text transform="matrix(1 0 0 1 1422.327 268.9301)"><tspan x="0" y="0" style="fill:#929497; font-family:'MyriadPro-Regular'; font-size:12px;">f</tspan><tspan x="3.4" y="0" style="fill:#929497; font-family:'MyriadPro-Regular'; font-size:12px;">ee087</tspan></text>
			</g>
			<g style="clip-path:url(#SVGID_2_);">
				<text transform="matrix(1 0 0 1 1422.327 288.934)" style="fill:#929497; font-family:'MyriadPro-Regular'; font-size:12px;">b8d432</text>
			</g>
			<g style="clip-path:url(#SVGID_2_);">
				<text transform="matrix(1 0 0 1 1422.327 308.9379)" style="fill:#929497; font-family:'MyriadPro-Regular'; font-size:12px;">7fba00</text>
			</g>
			<g style="clip-path:url(#SVGID_2_);">
				<text transform="matrix(1 0 0 1 1422.327 328.9423)" style="fill:#929497; font-family:'MyriadPro-Regular'; font-size:12px;">59b4d9</text>
			</g>
			<g style="clip-path:url(#SVGID_2_);">
				<text transform="matrix(1 0 0 1 1422.327 348.9462)" style="fill:#929497; font-family:'MyriadPro-Regular'; font-size:12px;">3999c6</text>
			</g>
			<g style="clip-path:url(#SVGID_2_);">
				<text transform="matrix(1 0 0 1 1422.327 368.9501)" style="fill:#929497; font-family:'MyriadPro-Regular'; font-size:12px;">804998</text>
			</g>
			<g style="clip-path:url(#SVGID_2_);">
				<text transform="matrix(1 0 0 1 1422.327 388.954)" style="fill:#929497; font-family:'MyriadPro-Regular'; font-size:12px;">ec008c</text>
			</g>
			<g style="clip-path:url(#SVGID_2_);">
				<text transform="matrix(1 0 0 1 1422.327 408.9579)" style="fill:#929497; font-family:'MyriadPro-Regular'; font-size:12px;">0072c6</text>
			</g>
			<g style="clip-path:url(#SVGID_2_);">
				<text transform="matrix(1 0 0 1 1422.327 428.9623)" style="fill:#929497; font-family:'MyriadPro-Regular'; font-size:12px;">68217a</text>
			</g>
			<g style="clip-path:url(#SVGID_2_);">
				<text transform="matrix(1 0 0 1 1422.327 448.9662)" style="fill:#929497; font-family:'MyriadPro-Regular'; font-size:12px;">00188f</text>
			</g>
		</g>
	</g>
	<rect x="411" y="700" class="st75" width="73" height="47"/>
	<g id="Layer_9">
		<g>
			<path class="st76" d="M19,11.1L19,11.1h12v25.5C31,39,25.7,41,19.2,41v0H19c0,0,0,0,0,0v0l0,0c-6.6,0-12-2-12-4.4V11.1H19z"/>
			<path class="st28" d="M19.3,41C12.6,41,7,39,7,36.6V10.7L19.3,11L19.3,41z"/>
			<path class="st41" d="M31,11.5c0,2.4-5.4,4.7-12,4.7s-12-2.3-12-4.7c0-2.4,5.4-4.4,12-4.4S31,9.1,31,11.5"/>
			<path class="st30" d="M28.6,11.4c0,1.5-4.3,2.7-9.5,2.7s-9.5-1.2-9.5-2.7c0-1.5,4.3-2.7,9.5-2.7S28.6,9.9,28.6,11.4"/>
			<path class="st77" d="M11.4,13c1.7,0.7,4.5,1.1,7.6,1.1c3.1,0,5.9-0.4,7.6-1.1c-1.7-0.7-4.5-1.1-7.6-1.1
				C15.9,11.9,13.2,12.4,11.4,13z"/>
		</g>
		<g>
			<path class="st76" d="M45,11.1L45,11.1h12v25.5C57,39,51.7,41,45.2,41v0H45c0,0,0,0,0,0v0l0,0c-6.6,0-12-2-12-4.4V11.1H45z"/>
			<path class="st28" d="M45.3,41C38.6,41,33,39,33,36.6V10.7L45.3,11L45.3,41z"/>
			<path class="st41" d="M56.9,11.5c0,2.4-5.4,4.7-12,4.7s-12-2.3-12-4.7c0-2.4,5.4-4.4,12-4.4S56.9,9.1,56.9,11.5"/>
			<path class="st30" d="M54.5,11.4c0,1.5-4.3,2.7-9.5,2.7s-9.5-1.2-9.5-2.7c0-1.5,4.3-2.7,9.5-2.7S54.5,9.9,54.5,11.4"/>
			<path class="st77" d="M37.3,13c1.7,0.7,4.5,1.1,7.6,1.1c3.1,0,5.9-0.4,7.6-1.1c-1.7-0.7-4.5-1.1-7.6-1.1
				C41.8,11.9,39.1,12.4,37.3,13z"/>
		</g>
		<path class="st78" d="M45,41V29.4c0-1.4-1.2-3.3-2-3.3H21c-0.8,0-2,1.9-2,3.3V41H45z"/>
		<path class="st76" d="M32,27.1L32,27.1h12v25.5C44,55,38.7,57,32.2,57v0H32c0,0,0,0,0,0v0l0,0c-6.6,0-12-2-12-4.4V27.1H32z"/>
		<path class="st28" d="M32.3,57C25.6,57,20,55,20,52.6V26.7L32.3,27L32.3,57z"/>
		<g>
			<path class="st41" d="M44,27.4c0,2.4-5.4,4.7-12,4.7s-12-2.3-12-4.7C20,25,25.4,23,32,23S44,25,44,27.4"/>
		</g>
		<path class="st30" d="M41.6,27.3c0,1.5-4.3,2.7-9.6,2.7s-9.6-1.2-9.6-2.7s4.3-2.7,9.6-2.7S41.6,25.8,41.6,27.3"/>
		<path class="st77" d="M24.3,28.9c1.7,0.7,4.5,1.1,7.7,1.1c3.1,0,5.9-0.4,7.7-1.1c-1.7-0.7-4.5-1.1-7.7-1.1
			C28.9,27.8,26.1,28.3,24.3,28.9z"/>
	</g>
</g>
</svg>
