<?xml version="1.0" encoding="UTF-8"?>
<svg width="40px" height="40px" viewBox="0 0 40 40" version="1.1" xmlns="http://www.w3.org/2000/svg" xmlns:xlink="http://www.w3.org/1999/xlink">
    <title>Icon-Architecture/32/Arch_Amazon-DataZone_32</title>
    <defs>
        <linearGradient x1="0%" y1="100%" x2="100%" y2="0%" id="linearGradient-1">
            <stop stop-color="#4D27A8" offset="0%"></stop>
            <stop stop-color="#A166FF" offset="100%"></stop>
        </linearGradient>
    </defs>
    <g id="Icon-Architecture/32/Arch_Amazon-DataZone_32" stroke="none" stroke-width="1" fill="none" fill-rule="evenodd">
        <g id="Icon-Architecture-BG/32/Analytics" fill="url(#linearGradient-1)">
            <rect id="Rectangle" x="0" y="0" width="40" height="40"></rect>
        </g>
        <g id="Icon-Service/32/Amazon-DataZone_32" transform="translate(6.500000, 6.500000)" fill="#FFFFFF">
            <path d="M9.85325,4.865 L9.14625,4.158 L13.16325,0.141 C13.35025,-0.047 13.68225,-0.047 13.87025,0.141 L17.88725,4.158 L17.18025,4.865 L13.51625,1.201 L9.85325,4.865 Z M26.88725,13.865 L22.88725,17.865 L22.18025,17.158 L25.82725,13.511 L22.18025,9.865 L22.88725,9.158 L26.88725,13.158 C27.08225,13.353 27.08225,13.67 26.88725,13.865 L26.88725,13.865 Z M17.14625,22.192 L17.85325,22.899 L13.87025,26.882 C13.77625,26.976 13.64925,27.029 13.51625,27.029 C13.38325,27.029 13.25625,26.976 13.16325,26.882 L9.14625,22.865 L9.85325,22.158 L13.51625,25.822 L17.14625,22.192 Z M4.85325,17.158 L4.14625,17.865 L0.14625,13.865 C-0.04875,13.67 -0.04875,13.353 0.14625,13.158 L4.14625,9.158 L4.85325,9.865 L1.20725,13.511 L4.85325,17.158 Z M19.99925,21.511 C19.17225,21.511 18.49925,20.839 18.49925,20.011 C18.49925,19.184 19.17225,18.511 19.99925,18.511 C20.82725,18.511 21.49925,19.184 21.49925,20.011 C21.49925,20.839 20.82725,21.511 19.99925,21.511 L19.99925,21.511 Z M8.97625,18.511 C8.83825,18.333 8.67925,18.174 8.49925,18.039 L8.49925,8.989 C8.68125,8.852 8.84125,8.692 8.97925,8.511 L18.02725,8.511 C18.16225,8.691 18.32125,8.85 18.49925,8.988 L18.49925,18.024 C18.31525,18.164 18.15225,18.327 18.01225,18.511 L8.97625,18.511 Z M7.00925,21.511 C6.18825,21.511 5.51925,20.843 5.51925,20.021 C5.51925,19.2 6.18825,18.532 7.00925,18.532 C7.83125,18.532 8.49925,19.2 8.49925,20.021 C8.49925,20.843 7.83125,21.511 7.00925,21.511 L7.00925,21.511 Z M5.51325,7.005 C5.51325,6.181 6.18325,5.511 7.00625,5.511 C7.83025,5.511 8.49925,6.181 8.49925,7.005 C8.49925,7.828 7.83025,8.498 7.00625,8.498 C6.18325,8.498 5.51325,7.828 5.51325,7.005 L5.51325,7.005 Z M20.00925,5.532 C20.83125,5.532 21.49925,6.2 21.49925,7.021 C21.49925,7.843 20.83125,8.511 20.00925,8.511 C19.18825,8.511 18.51925,7.843 18.51925,7.021 C18.51925,6.2 19.18825,5.532 20.00925,5.532 L20.00925,5.532 Z M19.99925,17.511 C19.82825,17.511 19.66125,17.529 19.49925,17.562 L19.49925,9.458 C19.66425,9.493 19.83525,9.511 20.00925,9.511 C21.38225,9.511 22.49925,8.394 22.49925,7.021 C22.49925,5.648 21.38225,4.532 20.00925,4.532 C18.63625,4.532 17.51925,5.648 17.51925,7.021 C17.51925,7.189 17.53725,7.353 17.56925,7.511 L9.44725,7.511 C9.48125,7.348 9.49925,7.178 9.49925,7.005 C9.49925,5.63 8.38125,4.511 7.00625,4.511 C5.63125,4.511 4.51325,5.63 4.51325,7.005 C4.51325,8.379 5.63125,9.498 7.00625,9.498 C7.17525,9.498 7.34025,9.48 7.49925,9.448 L7.49925,17.581 C7.34125,17.549 7.17725,17.532 7.00925,17.532 C5.63625,17.532 4.51925,18.648 4.51925,20.021 C4.51925,21.394 5.63625,22.511 7.00925,22.511 C8.38225,22.511 9.49925,21.394 9.49925,20.021 C9.49925,19.847 9.48125,19.676 9.44625,19.511 L17.55025,19.511 C17.51725,19.673 17.49925,19.84 17.49925,20.011 C17.49925,21.39 18.62125,22.511 19.99925,22.511 C21.37825,22.511 22.49925,21.39 22.49925,20.011 C22.49925,18.633 21.37825,17.511 19.99925,17.511 L19.99925,17.511 Z" id="Fill-1"></path>
        </g>
    </g>
</svg>