<?xml version="1.0" encoding="UTF-8"?>
<svg width="40px" height="40px" viewBox="0 0 40 40" version="1.1" xmlns="http://www.w3.org/2000/svg" xmlns:xlink="http://www.w3.org/1999/xlink">
    <title>Icon-Architecture/32/Arch_AWS-Clean-Rooms_32</title>
    <defs>
        <linearGradient x1="0%" y1="100%" x2="100%" y2="0%" id="linearGradient-1">
            <stop stop-color="#4D27A8" offset="0%"></stop>
            <stop stop-color="#A166FF" offset="100%"></stop>
        </linearGradient>
    </defs>
    <g id="Icon-Architecture/32/Arch_AWS-Clean-Rooms_32" stroke="none" stroke-width="1" fill="none" fill-rule="evenodd">
        <g id="Icon-Architecture-BG/32/Analytics" fill="url(#linearGradient-1)">
            <rect id="Rectangle" x="0" y="0" width="40" height="40"></rect>
        </g>
        <g id="Icon-Service/32/AWS-Clean-Rooms_32" transform="translate(6.000000, 6.000000)" fill="#FFFFFF">
            <path d="M25.5,24 C24.673,24 24,23.327 24,22.5 C24,21.673 24.673,21 25.5,21 C26.327,21 27,21.673 27,22.5 C27,23.327 26.327,24 25.5,24 L25.5,24 Z M25.5,20 C24.981,20 24.499,20.159 24.099,20.431 L21.834,18.166 L21.127,18.873 L23.403,21.148 C23.15,21.539 23,22.001 23,22.5 C23,23.878 24.121,25 25.5,25 C26.879,25 28,23.878 28,22.5 C28,21.122 26.879,20 25.5,20 L25.5,20 Z M25.5,4 C26.327,4 27,4.673 27,5.5 C27,6.327 26.327,7 25.5,7 C24.673,7 24,6.327 24,5.5 C24,4.673 24.673,4 25.5,4 L25.5,4 Z M21.834,9.834 L24.099,7.569 C24.499,7.841 24.981,8 25.5,8 C26.879,8 28,6.878 28,5.5 C28,4.122 26.879,3 25.5,3 C24.121,3 23,4.122 23,5.5 C23,5.999 23.15,6.461 23.403,6.852 L21.127,9.127 L21.834,9.834 Z M2.5,24 C1.673,24 1,23.327 1,22.5 C1,21.673 1.673,21 2.5,21 C3.327,21 4,21.673 4,22.5 C4,23.327 3.327,24 2.5,24 L2.5,24 Z M6.166,18.166 L3.901,20.431 C3.501,20.159 3.019,20 2.5,20 C1.121,20 -1.77635684e-15,21.122 -1.77635684e-15,22.5 C-1.77635684e-15,23.878 1.121,25 2.5,25 C3.879,25 5,23.878 5,22.5 C5,22.001 4.85,21.539 4.597,21.148 L6.873,18.873 L6.166,18.166 Z M1,5.5 C1,4.673 1.673,4 2.5,4 C3.327,4 4,4.673 4,5.5 C4,6.327 3.327,7 2.5,7 C1.673,7 1,6.327 1,5.5 L1,5.5 Z M5,5.5 C5,4.122 3.879,3 2.5,3 C1.121,3 -1.77635684e-15,4.122 -1.77635684e-15,5.5 C-1.77635684e-15,6.878 1.121,8 2.5,8 C3.019,8 3.501,7.841 3.901,7.569 L6.166,9.834 L6.873,9.127 L4.597,6.852 C4.85,6.461 5,5.999 5,5.5 L5,5.5 Z M14,15 C14.275,15 14.5,15.224 14.5,15.5 C14.5,15.776 14.275,16 14,16 C13.725,16 13.5,15.776 13.5,15.5 C13.5,15.224 13.725,15 14,15 L14,15 Z M13.5,16.908 L13.5,18 L14.5,18 L14.5,16.908 C15.081,16.701 15.5,16.151 15.5,15.5 C15.5,14.673 14.827,14 14,14 C13.173,14 12.5,14.673 12.5,15.5 C12.5,16.151 12.919,16.701 13.5,16.908 L13.5,16.908 Z M9,20 L19,20 L19,13 L9,13 L9,20 Z M11,9.401 C11,8.628 11.628,8 12.4,8 L15.584,8 C16.365,8 17,8.635 17,9.416 L17,12 L11,12 L11,9.401 Z M15.5,25.501 C15.5,26.328 14.827,27.001 14,27.001 C13.173,27.001 12.5,26.328 12.5,25.501 C12.5,24.674 13.173,24.001 14,24.001 C14.827,24.001 15.5,24.674 15.5,25.501 L15.5,25.501 Z M12.5,2.5 C12.5,1.673 13.173,1 14,1 C14.827,1 15.5,1.673 15.5,2.5 C15.5,3.327 14.827,4 14,4 C13.173,4 12.5,3.327 12.5,2.5 L12.5,2.5 Z M19.145,12 L18,12 L18,9.416 C18,8.083 16.916,7 15.584,7 L14.5,7 L14.5,4.949 C15.64,4.717 16.5,3.707 16.5,2.5 C16.5,1.122 15.379,1.77635684e-15 14,1.77635684e-15 C12.621,1.77635684e-15 11.5,1.122 11.5,2.5 C11.5,3.707 12.36,4.717 13.5,4.949 L13.5,7 L12.4,7 C11.077,7 10,8.077 10,9.401 L10,12 L8.855,12 C8.384,12 8,12.375 8,12.837 L8,20.163 C8,20.625 8.384,21 8.855,21 L13.5,21 L13.5,23.052 C12.36,23.284 11.5,24.294 11.5,25.501 C11.5,26.879 12.621,28.001 14,28.001 C15.379,28.001 16.5,26.879 16.5,25.501 C16.5,24.294 15.64,23.284 14.5,23.052 L14.5,21 L19.5,21 C19.776,21 20,20.776 20,20.5 L20,12.837 C20,12.375 19.616,12 19.145,12 L19.145,12 Z" id="Fill-3"></path>
        </g>
    </g>
</svg>