<?xml version="1.0" encoding="utf-8"?>
<!-- Generator: Adobe Illustrator 22.1.0, SVG Export Plug-In . SVG Version: 6.00 Build 0)  -->
<svg version="1.1" id="Layer_1" xmlns="http://www.w3.org/2000/svg" xmlns:xlink="http://www.w3.org/1999/xlink" x="0px" y="0px"
	 width="50px" height="50px" viewBox="0 0 50 50" enable-background="new 0 0 50 50" xml:space="preserve">
<circle fill="#0072C6" cx="21" cy="21" r="21"/>
<path opacity="0.2" fill="#FFFFFF" enable-background="new    " d="M6.15,35.85c-8.201-8.201-8.201-21.497,0-29.698
	s21.497-8.201,29.698,0L6.15,35.85z"/>
<path opacity="0.8" fill="#FFFFFF" enable-background="new    " d="M40.32,20.997c0-4.328-1.468-8.501-4.173-11.901l0,0
	l-0.155-0.155c-0.077-0.077-0.077-0.155-0.155-0.232l-1.236-1.314l0,0C30.969,3.686,26.178,1.677,21,1.677c0,0,0,0-0.077,0l0,0
	h-0.077c-5.1,0.077-9.815,2.009-13.447,5.641l0,0L6.085,8.709C6.008,8.786,6.008,8.864,5.93,8.941L5.776,9.018l0,0
	c-2.628,3.4-4.096,7.651-4.096,11.978c0,4.328,1.468,8.501,4.173,11.901l0,0l0.155,0.155c0.077,0.077,0.077,0.155,0.155,0.232
	l1.236,1.314l0,0c3.632,3.632,8.346,5.641,13.447,5.641h0.077l0,0c0,0,0,0,0.077,0c5.1,0,9.969-2.009,13.601-5.641l0,0l1.236-1.391
	c0.077-0.077,0.077-0.155,0.155-0.232l0.155-0.155l0,0C38.852,29.575,40.32,25.324,40.32,20.997z M32.515,8.4
	c-0.077,0-0.155,0.077-0.232,0.077c-0.155,0.077-0.309,0.155-0.386,0.155c-0.309,0.155-0.696,0.232-1.082,0.386
	c-0.077,0-0.155,0.077-0.232,0.077c-0.464,0.155-0.85,0.232-1.314,0.386l0,0c-0.077,0-0.232,0.077-0.309,0.077
	c-0.696-1.855-1.546-3.478-2.55-4.714C28.651,5.541,30.737,6.777,32.515,8.4z M20.845,3.918h0.077c2.087,0,4.25,2.241,5.796,6.105
	c-1.777,0.309-3.709,0.464-5.719,0.464s-4.019-0.155-5.873-0.464C16.595,6.236,18.759,3.995,20.845,3.918z M15.359,4.922
	c-0.927,1.236-1.777,2.782-2.473,4.637c-0.077,0-0.077,0-0.155,0l0,0c-0.464-0.155-0.927-0.232-1.314-0.386
	c-0.077,0-0.155-0.077-0.232-0.077c-0.309-0.155-0.696-0.309-1.005-0.464c-0.155-0.077-0.232-0.077-0.386-0.155
	C9.717,8.4,9.64,8.4,9.485,8.323C11.263,6.854,13.195,5.618,15.359,4.922z M9.485,33.593c0.077,0,0.155-0.077,0.232-0.077
	c0.155-0.077,0.232-0.077,0.386-0.155c0.309-0.155,0.696-0.232,1.082-0.386c0.077,0,0.155-0.077,0.232-0.077
	c0.464-0.155,0.85-0.232,1.314-0.386l0,0c0.077,0,0.077,0,0.155,0c0.696,1.777,1.546,3.4,2.473,4.637
	C13.195,36.375,11.185,35.139,9.485,33.593z M20.923,38.076h-0.077c-2.087-0.077-4.25-2.241-5.719-6.028
	c1.855-0.309,3.864-0.464,5.873-0.464s3.864,0.155,5.719,0.464C25.25,35.834,23.009,38.076,20.923,38.076z M26.41,37.148
	c1.005-1.236,1.855-2.859,2.55-4.714c0.077,0,0.232,0.077,0.309,0.077l0,0c0.464,0.155,0.927,0.232,1.314,0.386
	c0.077,0,0.155,0.077,0.232,0.077c0.386,0.155,0.696,0.232,1.082,0.386c0.155,0.077,0.232,0.077,0.386,0.155
	c0.077,0,0.155,0.077,0.309,0.155C30.737,35.216,28.651,36.453,26.41,37.148z M34.215,31.816L34.215,31.816
	c-0.232,0-0.386-0.077-0.618-0.155c-0.232-0.077-0.541-0.232-0.773-0.309c-0.077,0-0.155-0.077-0.232-0.077
	c-0.927-0.386-1.932-0.618-2.937-0.927c0.232-0.927,0.464-1.855,0.618-2.782h-2.318c-0.155,0.85-0.309,1.623-0.541,2.318
	c-2.009-0.386-4.173-0.541-6.414-0.541c-2.318,0-4.482,0.232-6.569,0.618c-0.232-0.773-0.386-1.546-0.541-2.396h-2.318
	c0.155,1.005,0.386,1.932,0.618,2.859c-0.927,0.232-1.855,0.541-2.705,0.85c-0.077,0.077-0.232,0.077-0.309,0.155
	c-0.232,0.077-0.541,0.232-0.773,0.309c-0.155,0-0.386,0.077-0.541,0.155l0,0c-2.318-2.782-3.632-6.26-3.864-9.815H5.93v-2.241
	H3.998c0.232-3.555,1.546-6.955,3.787-9.66L7.862,10.1c0.155,0.077,0.386,0.155,0.541,0.232c0.309,0.155,0.541,0.232,0.85,0.386
	c0.077,0,0.155,0.077,0.232,0.077c0.85,0.309,1.777,0.618,2.782,0.85c-0.232,0.85-0.386,1.7-0.541,2.55h2.318
	c0.155-0.696,0.309-1.468,0.464-2.087c2.087,0.386,4.328,0.618,6.569,0.618s4.405-0.232,6.414-0.541
	c0.155,0.618,0.309,1.314,0.464,2.087h2.318c-0.155-0.85-0.309-1.7-0.541-2.55c1.005-0.232,1.932-0.541,2.859-0.927
	c0.077,0,0.232-0.077,0.309-0.077c0.309-0.077,0.541-0.232,0.85-0.309c0.155-0.077,0.386-0.155,0.541-0.232l0,0
	c2.241,2.782,3.632,6.182,3.864,9.737h-2.318v2.241h2.318C37.77,25.633,36.456,29.111,34.215,31.816z"/>
<path fill="#FFFFFF" d="M16.146,20.878c0,0.916-0.12,1.699-0.359,2.349c-0.239,0.651-0.583,1.182-1.03,1.593
	c-0.448,0.412-0.991,0.714-1.632,0.906c-0.64,0.192-1.403,0.289-2.287,0.289H8.455c-0.169,0-0.313-0.05-0.428-0.15
	c-0.116-0.101-0.173-0.264-0.173-0.49v-8.702c0-0.227,0.058-0.39,0.173-0.49c0.116-0.101,0.259-0.15,0.428-0.15h2.561
	c0.89,0,1.645,0.104,2.265,0.313c0.62,0.208,1.142,0.517,1.567,0.926c0.424,0.409,0.747,0.914,0.969,1.515
	C16.036,19.389,16.146,20.087,16.146,20.878z M14.048,20.948c0-0.474-0.055-0.913-0.166-1.32c-0.111-0.406-0.288-0.759-0.533-1.057
	c-0.244-0.298-0.558-0.531-0.942-0.698c-0.383-0.168-0.885-0.251-1.509-0.251H9.873v6.789h1.058c0.555,0,1.023-0.071,1.404-0.216
	c0.381-0.144,0.698-0.361,0.953-0.652s0.445-0.652,0.571-1.084C13.984,22.028,14.048,21.524,14.048,20.948z"/>
<path fill="#FFFFFF" d="M26.044,25.308c0,0.118-0.02,0.224-0.061,0.316c-0.043,0.092-0.097,0.169-0.167,0.232
	c-0.068,0.062-0.151,0.106-0.246,0.134c-0.096,0.029-0.192,0.043-0.29,0.043h-0.864c-0.181,0-0.335-0.018-0.468-0.054
	c-0.13-0.035-0.252-0.102-0.362-0.197c-0.111-0.095-0.218-0.224-0.32-0.386c-0.103-0.162-0.218-0.372-0.346-0.629l-2.485-4.668
	c-0.144-0.277-0.291-0.577-0.439-0.899c-0.15-0.322-0.283-0.633-0.402-0.937H19.58c0.021,0.37,0.036,0.739,0.046,1.106
	c0.01,0.367,0.015,0.748,0.015,1.137v5.223c0,0.052-0.014,0.098-0.043,0.139c-0.029,0.041-0.077,0.076-0.147,0.104
	c-0.07,0.029-0.164,0.05-0.281,0.065c-0.118,0.016-0.27,0.024-0.455,0.024c-0.18,0-0.329-0.008-0.448-0.024
	c-0.118-0.016-0.211-0.037-0.277-0.065c-0.067-0.028-0.113-0.063-0.139-0.104c-0.025-0.041-0.039-0.087-0.039-0.139v-8.972
	c0-0.242,0.071-0.423,0.212-0.544c0.141-0.12,0.315-0.181,0.521-0.181h1.087c0.196,0,0.36,0.017,0.494,0.05
	c0.134,0.034,0.253,0.088,0.359,0.166c0.105,0.077,0.206,0.184,0.297,0.32c0.092,0.137,0.187,0.305,0.285,0.506l1.945,3.649
	c0.112,0.221,0.225,0.439,0.335,0.652c0.11,0.213,0.218,0.428,0.32,0.641c0.102,0.213,0.202,0.423,0.301,0.628
	c0.097,0.206,0.192,0.412,0.285,0.617h0.008c-0.015-0.36-0.027-0.737-0.034-1.126c-0.008-0.391-0.011-0.764-0.011-1.118v-4.683
	c0-0.051,0.015-0.097,0.045-0.139c0.03-0.041,0.082-0.077,0.155-0.108c0.071-0.031,0.167-0.053,0.285-0.066
	c0.118-0.013,0.27-0.019,0.455-0.019c0.175,0,0.32,0.006,0.439,0.019c0.118,0.013,0.209,0.034,0.275,0.066
	c0.063,0.031,0.109,0.066,0.135,0.108c0.025,0.042,0.038,0.087,0.038,0.139v8.973L26.044,25.308L26.044,25.308z"/>
<path fill="#FFFFFF" d="M34.138,23.023c0,0.526-0.098,0.985-0.293,1.381c-0.196,0.396-0.46,0.727-0.795,0.991
	c-0.334,0.265-0.726,0.464-1.173,0.598c-0.447,0.134-0.926,0.2-1.435,0.2c-0.344,0-0.664-0.029-0.96-0.085
	c-0.296-0.057-0.557-0.124-0.783-0.204c-0.227-0.08-0.416-0.163-0.567-0.251c-0.151-0.087-0.262-0.165-0.328-0.232
	c-0.066-0.066-0.113-0.163-0.143-0.289c-0.028-0.126-0.043-0.307-0.043-0.544c0-0.16,0.005-0.293,0.016-0.401
	c0.01-0.108,0.026-0.196,0.05-0.263c0.023-0.066,0.054-0.114,0.092-0.143c0.039-0.028,0.083-0.043,0.135-0.043
	c0.072,0,0.174,0.043,0.304,0.128c0.131,0.084,0.3,0.179,0.506,0.281c0.206,0.102,0.451,0.197,0.737,0.281
	c0.285,0.085,0.616,0.128,0.991,0.128c0.246,0,0.468-0.029,0.663-0.089c0.195-0.06,0.361-0.143,0.497-0.251
	c0.136-0.108,0.239-0.241,0.312-0.401c0.072-0.16,0.108-0.337,0.108-0.533c0-0.227-0.062-0.42-0.186-0.582
	c-0.123-0.162-0.285-0.307-0.483-0.433c-0.198-0.126-0.423-0.244-0.675-0.354c-0.252-0.111-0.512-0.228-0.779-0.352
	c-0.268-0.123-0.527-0.264-0.779-0.42c-0.252-0.157-0.478-0.344-0.675-0.564c-0.198-0.218-0.359-0.478-0.483-0.776
	c-0.124-0.298-0.186-0.655-0.186-1.073c0-0.478,0.089-0.899,0.266-1.262c0.178-0.363,0.417-0.663,0.717-0.903
	c0.302-0.239,0.656-0.418,1.065-0.536c0.409-0.118,0.843-0.177,1.299-0.177c0.237,0,0.474,0.018,0.71,0.054s0.458,0.085,0.663,0.147
	c0.205,0.062,0.389,0.131,0.548,0.208c0.16,0.077,0.265,0.141,0.316,0.193c0.051,0.051,0.086,0.095,0.104,0.131
	s0.034,0.084,0.046,0.143c0.013,0.06,0.022,0.134,0.026,0.224c0.005,0.09,0.008,0.202,0.008,0.336c0,0.15-0.004,0.276-0.013,0.378
	c-0.008,0.102-0.021,0.188-0.038,0.255c-0.018,0.066-0.044,0.116-0.077,0.147c-0.034,0.031-0.079,0.046-0.135,0.046
	c-0.057,0-0.147-0.035-0.27-0.108c-0.123-0.072-0.276-0.15-0.455-0.236c-0.18-0.084-0.388-0.162-0.624-0.232
	c-0.237-0.07-0.496-0.104-0.779-0.104c-0.221,0-0.414,0.027-0.578,0.081c-0.165,0.054-0.303,0.129-0.412,0.224
	c-0.111,0.095-0.193,0.21-0.247,0.343c-0.054,0.134-0.081,0.276-0.081,0.424c0,0.221,0.06,0.412,0.181,0.575
	c0.121,0.162,0.283,0.306,0.486,0.432c0.203,0.126,0.433,0.244,0.691,0.354c0.257,0.111,0.519,0.228,0.787,0.352
	c0.267,0.123,0.529,0.264,0.787,0.42c0.257,0.157,0.486,0.344,0.687,0.564c0.2,0.218,0.362,0.476,0.486,0.772
	C34.075,22.274,34.138,22.622,34.138,23.023z"/>
<g>
	<circle fill="#1E1E1E" cx="37" cy="37" r="12"/>
	<path fill="#E5E5E5" d="M37,26c6.065,0,11,4.935,11,11s-4.935,11-11,11s-11-4.935-11-11S30.935,26,37,26 M37,24
		c-7.18,0-13,5.82-13,13s5.82,13,13,13s13-5.82,13-13S44.18,24,37,24L37,24z"/>
</g>
<path fill="#E5E5E5" d="M40.193,42.412c-0.321,0-0.626-0.154-0.814-0.414L37,38.744l-2.379,3.254
	c-0.188,0.26-0.493,0.414-0.814,0.414c-0.215,0-0.421-0.067-0.595-0.195c-0.218-0.158-0.36-0.393-0.401-0.659
	c-0.042-0.267,0.023-0.532,0.183-0.749l2.451-3.354l-3.688-1.076c-0.534-0.156-0.841-0.718-0.685-1.251
	c0.124-0.428,0.521-0.727,0.967-0.727c0.096,0,0.19,0.014,0.283,0.041l3.67,1.07V31.44c0-0.556,0.452-1.008,1.009-1.008
	s1.009,0.452,1.009,1.008v4.071l3.67-1.07c0.093-0.027,0.188-0.041,0.283-0.041c0.445,0,0.843,0.299,0.968,0.727
	c0.155,0.533-0.151,1.095-0.686,1.251l-3.688,1.076l2.451,3.354c0.159,0.217,0.225,0.482,0.183,0.749
	c-0.041,0.267-0.184,0.501-0.401,0.659C40.614,42.345,40.408,42.412,40.193,42.412L40.193,42.412z"/>
<path fill="#FFFFFF" d="M37,37l-3.788,5.217c-0.218-0.158-0.36-0.393-0.401-0.659c-0.042-0.267,0.023-0.532,0.183-0.749l2.451-3.354
	l-3.688-1.076c-0.534-0.156-0.841-0.718-0.685-1.251c0.124-0.428,0.521-0.727,0.967-0.727c0.096,0,0.19,0.014,0.283,0.041l3.67,1.07
	V31.44c0-0.556,0.452-1.008,1.009-1.008L37,37z"/>
</svg>
