<svg xmlns="http://www.w3.org/2000/svg" xmlns:xlink="http://www.w3.org/1999/xlink" viewBox="0 0 409.6 73.6"><defs><style>.cls-1{fill:#fff;}.cls-2{fill:url(#linear-gradient);}.cls-3{fill:url(#linear-gradient-2);}</style><linearGradient id="linear-gradient" x1="16.06" y1="10.66" x2="16.06" y2="53.99" gradientUnits="userSpaceOnUse"><stop offset="0" stop-color="#fff" stop-opacity="0.4"/><stop offset="1" stop-color="#fff"/></linearGradient><linearGradient id="linear-gradient-2" x1="15.91" y1="10.66" x2="15.91" y2="53.99" xlink:href="#linear-gradient"/></defs><title>Bamboo_1-white</title><g id="Layer_2" data-name="Layer 2"><g id="White"><path class="cls-1" d="M61.6,41.86H46.14a1.92,1.92,0,0,0-1.88,1.7A12.57,12.57,0,0,1,31.81,54.39L35.95,73.3A31.81,31.81,0,0,0,63.56,43.95,2,2,0,0,0,61.6,41.86Z"/><path class="cls-1" d="M35,41.43l22.13-19a2,2,0,0,0,0-3L35,.47A2,2,0,0,0,31.81,2v38A2,2,0,0,0,35,41.43Z"/><path class="cls-2" d="M.3,46A31.81,31.81,0,0,0,31.81,73.6V54.39A12.56,12.56,0,0,1,19.25,41.86Z"/><path class="cls-3" d="M0,41.55v.3H19.25A12.56,12.56,0,0,1,31.81,29.33L27.68,10.42A31.79,31.79,0,0,0,0,41.55"/><path class="cls-1" d="M117.53,7.9C129.32,7.9,135,13.71,135,23c0,7-3.17,11.26-9.68,12.85,8.54,1.41,12.76,6.07,12.76,14.25,0,9.24-6.25,15.58-19.18,15.58H95.09V7.9ZM103,15.47V32.72h13.46c7.48,0,10.56-3.43,10.56-9s-3.34-8.27-10.56-8.27Zm0,24.29v18H119.2c7.57,0,11-2.73,11-8.54,0-6.16-3.26-9.5-11.17-9.5Z"/><path class="cls-1" d="M177,57.8c-2.82,5.81-8.1,8.8-14.87,8.8-11.7,0-17.6-9.94-17.6-22.88,0-12.41,6.16-22.88,18.48-22.88,6.42,0,11.35,2.9,14,8.62V21.72h7.57v44H177Zm-12.85,1.76c6.78,0,12.85-4.31,12.85-14.08V42c0-9.77-5.54-14.08-12-14.08-8.54,0-12.94,5.63-12.94,15.84C152.11,54.28,156.34,59.56,164.17,59.56Z"/><path class="cls-1" d="M233.43,65.72h-7.57V39.14c0-7.92-3.17-11.44-10.38-11.44-7,0-11.88,4.66-11.88,13.55V65.72H196v-44h7.57v7.22a15.42,15.42,0,0,1,13.9-8.1c7.48,0,12.58,3.78,14.78,10.74,2.46-6.78,8.36-10.74,15.66-10.74,9.86,0,15.31,6.69,15.31,19.1V65.72h-7.57V41.25c0-9.06-3.17-13.55-10.38-13.55-7,0-11.88,4.66-11.88,13.55Z"/><path class="cls-1" d="M295.38,66.6c-6.42,0-11.35-2.9-14-8.62v7.74h-7.57V3.33h7.57V29.64c2.82-5.81,8.1-8.8,14.87-8.8,11.7,0,17.6,9.94,17.6,22.88C313.86,56.13,307.7,66.6,295.38,66.6Zm-1.14-38.72c-6.78,0-12.85,4.31-12.85,14.08v3.52c0,9.77,5.54,14.08,12,14.08,8.54,0,12.94-5.63,12.94-15.84C306.29,33.16,302.06,27.88,294.23,27.88Z"/><path class="cls-1" d="M320,43.63c0-13.2,7.74-22.79,20.94-22.79s20.77,9.59,20.77,22.79-7.66,23-20.77,23S320,56.83,320,43.63Zm7.39,0c0,8.36,4.14,15.93,13.55,15.93S354.34,52,354.34,43.63s-4-15.75-13.37-15.75S327.41,35.27,327.41,43.63Z"/><path class="cls-1" d="M367.89,43.63c0-13.2,7.74-22.79,20.94-22.79s20.77,9.59,20.77,22.79-7.66,23-20.77,23S367.89,56.83,367.89,43.63Zm7.39,0c0,8.36,4.14,15.93,13.55,15.93S402.21,52,402.21,43.63s-4-15.75-13.37-15.75S375.28,35.27,375.28,43.63Z"/></g></g></svg>