<?xml version="1.0" encoding="UTF-8"?>
<svg width="64px" height="64px" viewBox="0 0 64 64" version="1.1" xmlns="http://www.w3.org/2000/svg" xmlns:xlink="http://www.w3.org/1999/xlink">
    <title>Icon-Architecture/48/Arch_Amazon-CodeCatalyst_48</title>
    <defs>
        <linearGradient x1="0%" y1="100%" x2="100%" y2="0%" id="linearGradient-1">
            <stop stop-color="#2E27AD" offset="0%"></stop>
            <stop stop-color="#527FFF" offset="100%"></stop>
        </linearGradient>
    </defs>
    <g id="Icon-Architecture/48/Arch_Amazon-CodeCatalyst_48" stroke="none" stroke-width="1" fill="none" fill-rule="evenodd">
        <g id="Icon-Architecture-BG/48/Developer-Tools" fill="url(#linearGradient-1)">
            <rect id="Rectangle" x="0" y="0" width="64" height="64"></rect>
        </g>
        <g id="Icon-Service/48/Amazon-CodeCatalyst_48" transform="translate(10.000000, 10.000000)" fill="#FFFFFF">
            <path d="M40.427,29.131 L37.936,27.418 C38.61,25.669 38.95,23.83 38.95,21.938 C38.95,19.758 38.481,17.589 37.584,15.611 L40.017,13.865 C41.252,16.368 41.901,19.136 41.901,21.938 C41.901,24.445 41.406,26.86 40.427,29.131 L40.427,29.131 Z M41.23,11.889 C41.089,11.644 40.851,11.469 40.573,11.409 C40.299,11.348 40.009,11.409 39.779,11.574 L35.733,14.479 C35.327,14.77 35.198,15.315 35.43,15.756 C36.425,17.651 36.95,19.788 36.95,21.938 C36.95,23.827 36.56,25.655 35.789,27.374 C35.591,27.814 35.737,28.333 36.135,28.607 L40.266,31.447 C40.434,31.563 40.632,31.623 40.832,31.623 C40.915,31.623 40.998,31.613 41.079,31.592 C41.359,31.521 41.594,31.332 41.725,31.075 C43.168,28.223 43.901,25.149 43.901,21.938 C43.901,18.416 42.977,14.942 41.23,11.889 L41.23,11.889 Z M22.964,41.871 L22.964,38.461 C27.564,38.175 31.874,35.989 34.795,32.41 L37.587,34.331 C34.023,38.824 28.677,41.578 22.964,41.871 L22.964,41.871 Z M2,21.95 C2,11.282 10.423,2.569 20.964,2.05 L20.964,5.431 C12.287,5.946 5.381,13.147 5.381,21.95 C5.381,30.753 12.287,37.954 20.964,38.469 L20.964,41.85 C10.423,41.331 2,32.617 2,21.95 L2,21.95 Z M36.911,8.759 L34.151,10.74 C31.243,7.572 27.25,5.694 22.964,5.434 L22.964,2.027 C28.35,2.296 33.34,4.704 36.911,8.759 L36.911,8.759 Z M29.615,13.997 C27.563,12.02 24.818,10.902 21.95,10.902 C16.201,10.902 11.468,15.319 10.954,20.936 L7.432,20.936 C7.957,13.376 14.259,7.381 21.95,7.381 C25.972,7.381 29.75,9.036 32.496,11.928 L29.615,13.997 Z M21.95,32.997 C25.114,32.997 28.14,31.618 30.226,29.267 L33.12,31.258 C30.362,34.558 26.27,36.519 21.95,36.519 C14.25,36.519 7.942,30.509 7.431,22.936 L10.953,22.936 C11.454,28.566 16.192,32.997 21.95,32.997 L21.95,32.997 Z M35.147,30.225 L30.598,27.096 C30.154,26.789 29.547,26.892 29.228,27.325 C27.501,29.659 24.849,30.997 21.95,30.997 C16.961,30.997 12.903,26.939 12.903,21.95 C12.903,16.961 16.961,12.902 21.95,12.902 C24.547,12.902 27.023,14.023 28.742,15.976 C29.082,16.361 29.657,16.428 30.076,16.128 L34.576,12.897 L38.951,9.756 C39.174,9.597 39.321,9.353 39.359,9.082 C39.397,8.811 39.322,8.537 39.152,8.322 C34.956,3.033 28.686,0 21.95,0 C9.847,0 0,9.846 0,21.95 C0,34.053 9.847,43.9 21.95,43.9 C29.026,43.9 35.708,40.453 39.827,34.679 C39.983,34.461 40.044,34.189 39.997,33.925 C39.951,33.661 39.801,33.426 39.579,33.275 L35.147,30.225 Z" id="Fill-3"></path>
        </g>
    </g>
</svg>