<?xml version="1.0" encoding="UTF-8"?>
<svg width="64px" height="64px" viewBox="0 0 64 64" version="1.1" xmlns="http://www.w3.org/2000/svg" xmlns:xlink="http://www.w3.org/1999/xlink">
    <title>Icon-Architecture/48/Arch_AWS-Application-Composer_48</title>
    <defs>
        <linearGradient x1="0%" y1="100%" x2="100%" y2="0%" id="linearGradient-1">
            <stop stop-color="#2E27AD" offset="0%"></stop>
            <stop stop-color="#527FFF" offset="100%"></stop>
        </linearGradient>
    </defs>
    <g id="Icon-Architecture/48/Arch_AWS-Application-Composer_48" stroke="none" stroke-width="1" fill="none" fill-rule="evenodd">
        <g id="Icon-Architecture-BG/48/Developer-Tools" fill="url(#linearGradient-1)">
            <rect id="Rectangle" x="0" y="0" width="64" height="64"></rect>
        </g>
        <g id="Icon-Service/48/AWS-Application-Composer_48" transform="translate(10.000000, 10.000000)" fill="#FFFFFF">
            <path d="M38.99675,42 C37.34275,42 35.99675,40.654 35.99675,39 C35.99675,37.346 37.34275,36 38.99675,36 C40.65075,36 41.99675,37.346 41.99675,39 C41.99675,40.654 40.65075,42 38.99675,42 M24.11775,41.122 C22.98475,42.254 21.00875,42.254 19.87575,41.122 C18.70575,39.952 18.70575,38.048 19.87575,36.878 C20.44175,36.312 21.19475,36 21.99675,36 C22.79875,36 23.55175,36.312 24.11775,36.878 C25.28775,38.048 25.28775,39.952 24.11775,41.122 M2.87575,23.122 C1.70575,21.952 1.70575,20.048 2.87575,18.878 C3.44175,18.312 4.19475,18 4.99675,18 C5.79875,18 6.55175,18.312 7.11775,18.878 C8.28775,20.048 8.28775,21.952 7.11775,23.122 C5.98475,24.254 4.00875,24.254 2.87575,23.122 M19.87575,2.878 C20.44175,2.312 21.19475,2 21.99675,2 C22.79875,2 23.55175,2.312 24.11775,2.878 C25.28775,4.048 25.28775,5.952 24.11775,7.122 C22.98475,8.254 21.00875,8.254 19.87575,7.122 C18.70575,5.952 18.70575,4.048 19.87575,2.878 M38.99675,2 C40.65075,2 41.99675,3.346 41.99675,5 C41.99675,6.654 40.65075,8 38.99675,8 C37.34275,8 35.99675,6.654 35.99675,5 C35.99675,3.346 37.34275,2 38.99675,2 M38.99675,34 C36.58275,34 34.56275,35.721 34.09775,38 L26.88975,38 C26.70075,37.07 26.25075,36.184 25.53175,35.464 C24.58775,34.52 23.33275,34 21.99675,34 C21.05075,34 20.15075,34.273 19.36775,34.76 L9.07875,23.866 C10.22675,22.23 10.28075,20.065 9.24075,18.379 L19.12275,9.079 C19.95875,9.671 20.94975,10 21.99675,10 C23.33275,10 24.58775,9.48 25.53175,8.536 C26.25075,7.816 26.70075,6.929 26.88975,6 L34.09775,6 C34.56275,8.279 36.58275,10 38.99675,10 C41.75375,10 43.99675,7.757 43.99675,5 C43.99675,2.243 41.75375,0 38.99675,0 C36.58275,0 34.56275,1.721 34.09775,4 L26.88975,4 C26.70075,3.07 26.25075,2.184 25.53175,1.464 C24.58775,0.52 23.33275,0 21.99675,0 C20.66075,0 19.40575,0.52 18.46175,1.464 C16.79275,3.134 16.56475,5.694 17.75275,7.621 L7.87075,16.921 C7.03475,16.329 6.04375,16 4.99675,16 C3.66075,16 2.40575,16.52 1.46175,17.464 C-0.48725,19.414 -0.48725,22.586 1.46175,24.536 C2.40575,25.48 3.66075,26 4.99675,26 C5.94275,26 6.84275,25.727 7.62575,25.239 L17.91475,36.134 C16.54575,38.084 16.72075,40.794 18.46175,42.536 C19.40575,43.48 20.66075,44 21.99675,44 C23.33275,44 24.58775,43.48 25.53175,42.536 C26.25075,41.816 26.70075,40.929 26.88975,40 L34.09775,40 C34.56275,42.279 36.58275,44 38.99675,44 C41.75375,44 43.99675,41.757 43.99675,39 C43.99675,36.243 41.75375,34 38.99675,34 M4.99675,41 C3.89375,41 2.99675,40.103 2.99675,39 C2.99675,37.897 3.89375,37 4.99675,37 C6.09975,37 6.99675,37.897 6.99675,39 C6.99675,40.103 6.09975,41 4.99675,41 M4.99675,35 C2.79075,35 0.99675,36.794 0.99675,39 C0.99675,41.206 2.79075,43 4.99675,43 C7.20275,43 8.99675,41.206 8.99675,39 C8.99675,36.794 7.20275,35 4.99675,35 M38.99675,24 C37.89375,24 36.99675,23.103 36.99675,22 C36.99675,20.897 37.89375,20 38.99675,20 C40.09975,20 40.99675,20.897 40.99675,22 C40.99675,23.103 40.09975,24 38.99675,24 M38.99675,18 C36.79075,18 34.99675,19.794 34.99675,22 C34.99675,24.206 36.79075,26 38.99675,26 C41.20275,26 42.99675,24.206 42.99675,22 C42.99675,19.794 41.20275,18 38.99675,18 M21.99675,24 C20.89375,24 19.99675,23.103 19.99675,22 C19.99675,20.897 20.89375,20 21.99675,20 C23.09975,20 23.99675,20.897 23.99675,22 C23.99675,23.103 23.09975,24 21.99675,24 M21.99675,18 C19.79075,18 17.99675,19.794 17.99675,22 C17.99675,24.206 19.79075,26 21.99675,26 C24.20275,26 25.99675,24.206 25.99675,22 C25.99675,19.794 24.20275,18 21.99675,18 M4.99675,3 C6.09975,3 6.99675,3.897 6.99675,5 C6.99675,6.103 6.09975,7 4.99675,7 C3.89375,7 2.99675,6.103 2.99675,5 C2.99675,3.897 3.89375,3 4.99675,3 M4.99675,9 C7.20275,9 8.99675,7.206 8.99675,5 C8.99675,2.794 7.20275,1 4.99675,1 C2.79075,1 0.99675,2.794 0.99675,5 C0.99675,7.206 2.79075,9 4.99675,9" id="Fill-3"></path>
        </g>
    </g>
</svg>