<?xml version="1.0" encoding="UTF-8"?>
<svg width="40px" height="40px" viewBox="0 0 40 40" version="1.1" xmlns="http://www.w3.org/2000/svg" xmlns:xlink="http://www.w3.org/1999/xlink">
    <title>Icon-Architecture/32/Arch_AWS-Resource-Explorer_32</title>
    <defs>
        <linearGradient x1="0%" y1="100%" x2="100%" y2="0%" id="linearGradient-1">
            <stop stop-color="#B0084D" offset="0%"></stop>
            <stop stop-color="#FF4F8B" offset="100%"></stop>
        </linearGradient>
    </defs>
    <g id="Icon-Architecture/32/Arch_AWS-Resource-Explorer_32" stroke="none" stroke-width="1" fill="none" fill-rule="evenodd">
        <g id="Icon-Architecture-BG/32/Management-Governance" fill="url(#linearGradient-1)">
            <rect id="Rectangle" x="0" y="0" width="40" height="40"></rect>
        </g>
        <g id="Icon-Service/32/AWS-Resource-Explorer_32" transform="translate(6.000000, 6.000000)" fill="#FFFFFF">
            <path d="M26.746,24.4265 L21.315,18.9475 C20.745,19.8545 19.991,20.6335 19.098,21.2245 L24.444,26.7395 C24.658,26.9515 24.937,27.0395 25.277,26.9855 C25.647,26.9285 26.037,26.7125 26.374,26.3755 C26.95,25.7985 27.263,24.9445 26.746,24.4265 L26.746,24.4265 Z M20.396,24.0005 L18.195,21.7295 C17.22,22.1955 16.134,22.4645 14.983,22.4645 C14.649,22.4645 14.323,22.4345 14,22.3925 L14,26.7415 L20.396,24.0005 Z M1,21.1805 L13,26.7185 L13,22.1895 C9.837,21.3165 7.504,18.4215 7.504,14.9855 C7.504,13.4605 7.965,12.0425 8.751,10.8595 L1,7.2825 L1,21.1805 Z M1.693,6.5005 L9.38,10.0475 C10.752,8.4935 12.752,7.5055 14.983,7.5055 C16.734,7.5055 18.342,8.1145 19.618,9.1255 L25.306,6.5005 L13.5,1.0515 L1.693,6.5005 Z M21.463,14.9855 C21.463,11.4125 18.557,8.5055 14.983,8.5055 C11.41,8.5055 8.504,11.4125 8.504,14.9855 C8.504,18.5575 11.41,21.4645 14.983,21.4645 C18.557,21.4645 21.463,18.5575 21.463,14.9855 L21.463,14.9855 Z M25.296,21.5425 L26,21.1915 L26,7.2815 L20.415,9.8595 C21.681,11.1995 22.463,13.0005 22.463,14.9855 C22.463,16.0685 22.226,17.0955 21.81,18.0255 L25.296,21.5425 Z M27.455,23.7205 C28.319,24.5865 28.162,26.0005 27.081,27.0825 C26.595,27.5685 26.008,27.8855 25.43,27.9745 C25.315,27.9915 25.203,28.0005 25.094,28.0005 C24.572,28.0005 24.098,27.8075 23.731,27.4405 L21.141,24.7695 L13.697,27.9595 C13.634,27.9865 13.567,28.0005 13.5,28.0005 C13.429,28.0005 13.356,27.9855 13.29,27.9545 L0.29,21.9545 C0.113,21.8725 1.77635684e-15,21.6955 1.77635684e-15,21.5005 L1.77635684e-15,6.5005 C1.77635684e-15,6.3055 0.113,6.1285 0.29,6.0465 L13.29,0.0465 C13.425,-0.0155 13.575,-0.0155 13.71,0.0465 L26.71,6.0465 C26.887,6.1285 27,6.3055 27,6.5005 L27,21.5005 C27,21.6895 26.892,21.8625 26.724,21.9475 L26.037,22.2905 L27.455,23.7205 Z M13,16.9995 L14,16.9995 L14,14.9995 L13,14.9995 L13,16.9995 Z M13,19.9995 L14,19.9995 L14,17.9995 L13,17.9995 L13,19.9995 Z M16.415,10.6045 L16.835,11.5125 L18.102,10.9265 L17.683,10.0185 L16.415,10.6045 Z M15.062,11.2275 L15.482,12.1355 L14,12.8205 L14,13.9995 L13,13.9995 L13,12.8205 L11.033,11.9125 L11.453,11.0045 L13.5,11.9495 L15.062,11.2275 Z" id="Fill-1"></path>
        </g>
    </g>
</svg>