<?xml version="1.0" encoding="UTF-8"?><svg version="1.1" width="40px" height="40px" viewBox="0 0 40.0 40.0" xmlns="http://www.w3.org/2000/svg" xmlns:xlink="http://www.w3.org/1999/xlink"><defs><clipPath id="i0"><path d="M40,0 L40,40 L0,40 L0,0 L40,0 Z"></path></clipPath><linearGradient id="i1" x1="0px" y1="40px" x2="40px" y2="0px" gradientUnits="userSpaceOnUse"><stop stop-color="#B0084D" offset="0%"></stop><stop stop-color="#FF4F8B" offset="100%"></stop></linearGradient><clipPath id="i2"><path d="M13.5,0 C13.776,0 14,0.224 14,0.5 L14,9.535 C15.958,9.707 17,10.888 17,13 L17,15 C17,15.276 16.776,15.5 16.5,15.5 L16,15.5 L16,18.5 L15,18.5 L15,15.5 L12,15.5 L12,18.5 L11,18.5 L11,15.5 L10.5,15.5 C10.224,15.5 10,15.276 10,15 L10,13 C10,10.888 11.042,9.707 13,9.535 L13,1.01 C6.338,1.273 1,6.775 1,13.5 C1,17.05 2.518,20.445 5.164,22.815 C7.847,25.218 11.318,26.318 14.926,25.921 C20.486,25.307 25.089,20.852 25.87,15.329 C26.677,9.625 23.548,4.119 18.262,1.939 L18.643,1.014 C24.352,3.368 27.731,9.312 26.86,15.468 C26.017,21.437 21.043,26.251 15.035,26.915 C14.513,26.973 13.993,27.001 13.479,27.001 C10.148,27.001 7.006,25.807 4.497,23.56 C1.639,21 0,17.334 0,13.5 C0,6.056 6.056,0 13.5,0 Z M13.5,10.5 C11.771,10.5 11,11.271 11,13 L11,14.5 L16,14.5 L16,13 C16,11.271 15.229,10.5 13.5,10.5 Z"></path></clipPath></defs><g clip-path="url(#i0)"><polygon points="0,0 40,0 40,40 0,40 0,0" stroke="none" fill="url(#i1)"></polygon></g><g transform="translate(4.0 4.0)"><g transform="translate(1.9999999999999627 2.5000000000001013)"><g clip-path="url(#i2)"><polygon points="0,0 26.9960189,0 26.9960189,27.001 0,27.001 0,0" stroke="none" fill="#FFFFFF"></polygon></g></g></g></svg>