<?xml version="1.0" encoding="utf-8"?>
<!-- Generator: Adobe Illustrator 24.0.2, SVG Export Plug-In . SVG Version: 6.00 Build 0)  -->
<svg version="1.1" xmlns="http://www.w3.org/2000/svg" xmlns:xlink="http://www.w3.org/1999/xlink" x="0px" y="0px"
	 viewBox="0 0 578.5 322.3" style="enable-background:new 0 0 578.5 322.3;" xml:space="preserve">
<style type="text/css">
	.st0{fill:#F2F2F2;}
	.st1{fill:none;stroke:#808080;stroke-width:0.5;stroke-miterlimit:10;}
	.st2{fill:#EE3D2C;}
	.st3{fill:none;stroke:#EE3D2C;stroke-miterlimit:10;}
	.st4{fill:none;stroke:#221F1F;stroke-miterlimit:10;}
	.st5{fill:#FFFFFF;}
	.st6{fill:none;stroke:#000000;stroke-miterlimit:10;}
</style>
<g id="Alternative_Print_Lock-up">
	<g>
		<g>
			<g>
				<path d="M66.6,320.8v-90.1H52.7v33.7c0,0.5-0.3,0.9-0.8,1.1c-0.5,0.2-1,0-1.3-0.3c-4.7-5.5-12-8.7-20.1-8.7
					C13.4,256.5,0,270.9,0,289.4c0,9,3.1,17.4,8.8,23.5c5.7,6.1,13.4,9.4,21.8,9.4c7.9,0,15.2-3.3,20.1-9c0.3-0.4,0.9-0.5,1.3-0.4
					c0.5,0.2,0.8,0.6,0.8,1.1v6.7H66.6z M33.7,309.7c-11,0-19.7-8.9-19.7-20.3c0-11.4,8.7-20.3,19.7-20.3s19.7,8.9,19.7,20.3
					C53.4,300.8,44.7,309.7,33.7,309.7z M140.7,320.8V258h-13.7v6.3c0,0.5-0.3,0.9-0.8,1.1c-0.5,0.2-1,0-1.3-0.4
					c-4.7-5.6-11.8-8.6-20.1-8.6c-17.1,0-30.6,14.5-30.6,32.9s13.4,32.9,30.6,32.9c7.9,0,15.3-3.3,20.1-9.1c0.3-0.4,0.9-0.5,1.3-0.4
					c0.5,0.2,0.8,0.6,0.8,1.1v6.8H140.7z M107.9,309.7c-11,0-19.7-8.9-19.7-20.3c0-11.4,8.7-20.3,19.7-20.3s19.7,8.9,19.7,20.3
					C127.6,300.8,118.9,309.7,107.9,309.7z M258.2,320.8V258h-13.7v6.3c0,0.5-0.3,0.9-0.8,1.1c-0.5,0.2-1,0-1.3-0.4
					c-4.7-5.6-11.8-8.6-20.1-8.6c-17.1,0-30.6,14.5-30.6,32.9s13.4,32.9,30.6,32.9c7.9,0,15.3-3.3,20.1-9.1c0.3-0.4,0.9-0.5,1.3-0.4
					c0.5,0.2,0.8,0.6,0.8,1.1v6.8H258.2z M225.4,309.7c-11,0-19.7-8.9-19.7-20.3c0-11.4,8.7-20.3,19.7-20.3s19.7,8.9,19.7,20.3
					C245.1,300.8,236.4,309.7,225.4,309.7z M283.4,313.3c0.1,0,0.3-0.1,0.4-0.1c0.3,0,0.7,0.2,0.9,0.4c4.7,5.5,12,8.7,20.1,8.7
					c17.1,0,30.6-14.5,30.6-32.9c0-9-3.1-17.4-8.8-23.5c-5.7-6.1-13.4-9.4-21.8-9.4c-7.9,0-15.2,3.3-20.1,9
					c-0.3,0.4-0.8,0.5-1.3,0.4c-0.5-0.2-0.8-0.6-0.8-1.1l0-34h-13.9l0,90.1h13.9v-6.3C282.6,313.9,282.9,313.5,283.4,313.3z
					 M282,289.4c0-11.4,8.7-20.3,19.7-20.3c11,0,19.7,8.9,19.7,20.3c0,11.4-8.7,20.3-19.7,20.3C290.6,309.7,282,300.8,282,289.4z
					 M356.9,293.2v27.6H343V258h13.7v7.7c0,0.5,0.4,1,0.9,1.1c0.5,0.1,1.1-0.1,1.3-0.5c3.5-5.9,10.2-9.6,17.3-9.6
					c0.9,0,1.9,0.1,2.3,0.2v14.2c-0.8-0.2-2.1-0.3-3.4-0.3C363.9,270.9,356.9,279.4,356.9,293.2z M401.3,258v62.7h-14V258H401.3z
					 M402.6,239.3c0,4.7-3.8,8.5-8.5,8.5s-8.5-3.8-8.5-8.5c0-4.7,3.8-8.5,8.5-8.5S402.6,234.6,402.6,239.3z M468.2,266.4l-8.8,8.3
					c-5-3.7-10.2-5.5-15.7-5.5c-11.6,0-20.3,8.7-20.3,20.2s8.7,20.2,20.3,20.2c5.1,0,10.3-1.8,16-5.5l7.9,8.3
					c-11.4,8.4-17.5,9.9-25.3,9.9c-9.4,0-17.9-3.3-23.8-9.3c-5.9-6-9.2-14.3-9.2-23.6c0-19.1,14-32.9,33.2-32.9
					C448.6,256.5,458,257.5,468.2,266.4z M492.8,293.1L492.8,293.1L492.8,293.1L492.8,293.1z M489.4,295.4c-0.2,0.2-0.4,0.5-0.4,0.9
					v24.4h-13.9l0-90.1h13.9l0,49.3c0,0.5,0.3,0.9,0.7,1.1c0.5,0.2,1,0.1,1.3-0.3l22.7-22.8h16.9l-26.4,26.4
					c-0.4,0.4-0.5,1.1-0.1,1.6l28.7,34.7l-17.1,0l-22.2-27.5c-0.2-0.3-0.5-0.4-0.9-0.4l-0.1,0c-0.3,0-0.6,0.1-0.8,0.3L489.4,295.4z
					 M531.5,306.8l11.2-5.9c2.4,5.9,7.4,9.5,13,9.5c4.2,0,9.1-1.9,9.1-7.2c0-3.6-2.2-5.7-7.7-7.4l-7.7-2.5
					c-10.7-3.4-15.9-9.3-15.9-18c0-11,9-19,21.5-19c9.8,0,18.4,5.2,22.5,13.7l-11.1,6c-2.6-5.3-6.7-8.3-11.3-8.3
					c-4.8,0-8.2,2.6-8.2,6.4c0,3.3,2.5,5.7,7.5,7.4l7.6,2.5c11,3.6,16.4,9.5,16.4,18.1c0,13.1-11.5,20-22.9,20
					C544.4,322.3,535.3,316.4,531.5,306.8z M562.2,283.6L562.2,283.6L562.2,283.6L562.2,283.6z M159,299.7v-29.2
					c0-0.7-0.5-1.2-1.2-1.2l-9.7,0l0-11.3h9.7c0.7,0,1.2-0.5,1.2-1.2l0-18.2l13.8,0v18.2c0,0.7,0.5,1.2,1.2,1.2l13.5,0l0,11.3h-13.5
					c-0.7,0-1.2,0.5-1.2,1.2v25.8c0,12.1,4.3,13.1,9.9,13.1c2,0,5.1-0.2,7-0.5l0,12c-2.2,0.3-6.2,0.7-10.5,0.7
					C173.6,321.7,159,321.7,159,299.7z"/>
			</g>
			<polygon class="st2" points="359.4,75.3 284,117.7 203.3,72.3 199.5,74.5 199.5,107.5 284,155 359.4,112.5 359.4,130.1 
				284,172.5 203.3,127.2 199.5,129.3 199.5,134.9 284,182.4 368.5,134.9 368.5,101.9 364.6,99.8 284,145.1 208.5,102.7 208.5,85.2 
				284,127.6 368.5,80.1 368.5,47.6 364.2,45.2 284,90.3 212.5,50.1 284,9.9 342.8,43 348.1,40.1 348.1,36.1 284,0 199.5,47.6 
				199.5,52.7 284,100.2 359.4,57.7 			"/>
		</g>
	</g>
</g>
<g id="Small_Scale_Lock-up">
</g>
<g id="Primary_Logo_Lock-up">
</g>
<g id="Guide">
</g>
</svg>
