<?xml version="1.0" encoding="UTF-8"?>
<svg width="24px" height="24px" viewBox="0 0 24 24" version="1.1" xmlns="http://www.w3.org/2000/svg" xmlns:xlink="http://www.w3.org/1999/xlink">
    <title>Icon-Architecture/16/Arch_AWS-Verified-Access_16</title>
    <defs>
        <linearGradient x1="0%" y1="100%" x2="100%" y2="0%" id="linearGradient-1">
            <stop stop-color="#4D27A8" offset="0%"></stop>
            <stop stop-color="#A166FF" offset="100%"></stop>
        </linearGradient>
    </defs>
    <g id="Icon-Architecture/16/Arch_AWS-Verified-Access_16" stroke="none" stroke-width="1" fill="none" fill-rule="evenodd">
        <g id="Icon-Architecture-BG/16/Networking-Content-Delivery" fill="url(#linearGradient-1)">
            <rect id="Rectangle" x="0" y="0" width="24" height="24"></rect>
        </g>
        <g id="Icon-Service/16/AWS-Verified-Access_16" transform="translate(4.000000, 4.000000)" fill="#FFFFFF">
            <path d="M10.405,1.959 L10.776,1.03 C12.713,1.802 14.253,3.361 15.002,5.306 L14.068,5.666 C13.419,3.979 12.084,2.628 10.405,1.959 L10.405,1.959 Z M14.073,10.321 L15.007,10.678 C14.246,12.668 12.669,14.246 10.678,15.007 L10.321,14.073 C12.046,13.414 13.414,12.046 14.073,10.321 L14.073,10.321 Z M5.594,14.04 L5.223,14.969 C3.318,14.209 1.79,12.681 1.03,10.775 L1.96,10.405 C2.617,12.057 3.942,13.381 5.594,14.04 L5.594,14.04 Z M1.96,5.593 L1.03,5.223 C1.791,3.317 3.319,1.79 5.223,1.03 L5.594,1.959 C3.943,2.617 2.618,3.942 1.96,5.593 L1.96,5.593 Z M8,15 C7.726,15 7.503,14.777 7.503,14.503 C7.503,14.229 7.726,14.006 8,14.006 C8.274,14.006 8.496,14.229 8.496,14.503 C8.496,14.777 8.274,15 8,15 L8,15 Z M8,13.006 C7.173,13.006 6.503,13.676 6.503,14.503 C6.503,15.329 7.173,16 8,16 C8.826,16 9.496,15.329 9.496,14.503 C9.496,13.676 8.826,13.006 8,13.006 L8,13.006 Z M14.499,8.5 C14.223,8.5 13.998,8.276 13.998,8 C13.998,7.723 14.223,7.499 14.499,7.499 C14.775,7.499 15,7.723 15,8 C15,8.276 14.775,8.5 14.499,8.5 L14.499,8.5 Z M14.499,6.499 C13.67,6.499 12.998,7.171 12.998,8 C12.998,8.828 13.67,9.5 14.499,9.5 C15.328,9.5 16,8.828 16,8 C16,7.171 15.328,6.499 14.499,6.499 L14.499,6.499 Z M1,8 C1,7.726 1.222,7.504 1.495,7.504 C1.769,7.504 1.991,7.726 1.991,8 C1.991,8.273 1.769,8.495 1.495,8.495 C1.222,8.495 1,8.273 1,8 L1,8 Z M2.991,8 C2.991,7.174 2.321,6.504 1.495,6.504 C0.669,6.504 -8.8817842e-16,7.174 -8.8817842e-16,8 C-8.8817842e-16,8.826 0.669,9.495 1.495,9.495 C2.321,9.495 2.991,8.826 2.991,8 L2.991,8 Z M8,1 C8.273,1 8.495,1.222 8.495,1.495 C8.495,1.768 8.273,1.991 8,1.991 C7.726,1.991 7.504,1.768 7.504,1.495 C7.504,1.222 7.726,1 8,1 L8,1 Z M8,2.991 C8.826,2.991 9.495,2.321 9.495,1.495 C9.495,0.669 8.826,0 8,0 C7.174,0 6.504,0.669 6.504,1.495 C6.504,2.321 7.174,2.991 8,2.991 L8,2.991 Z M7,6 L9,6 L9,5 L7,5 L7,6 Z M6,10 L10,10 L10,7 L6,7 L6,10 Z M5.5,6 C5.223,6 5,6.223 5,6.5 L5,10.5 C5,10.776 5.223,11 5.5,11 L10.5,11 C10.776,11 11,10.776 11,10.5 L11,6.5 C11,6.223 10.776,6 10.5,6 L10,6 L10,5 C10,4.448 9.551,4 9,4 L7,4 C6.448,4 6,4.448 6,5 L6,6 L5.5,6 Z" id="Fill-1"></path>
        </g>
    </g>
</svg>