<?xml version="1.0" encoding="utf-8"?>
<!-- Generator: Adobe Illustrator 21.0.0, SVG Export Plug-In . SVG Version: 6.00 Build 0)  -->
<svg version="1.1" id="Layer_1" xmlns="http://www.w3.org/2000/svg" xmlns:xlink="http://www.w3.org/1999/xlink" x="0px" y="0px"
	 width="50px" height="50px" viewBox="0 0 50 50" enable-background="new 0 0 50 50" xml:space="preserve">
<path fill="#7FBA00" d="M9.5,18h-4C5.224,18,5,17.776,5,17.5v-3C5,14.224,5.224,14,5.5,14h4c0.276,0,0.5,0.224,0.5,0.5v3
	C10,17.776,9.776,18,9.5,18z"/>
<path fill="#7FBA00" d="M9.5,25h-4C5.224,25,5,24.776,5,24.5v-3C5,21.224,5.224,21,5.5,21h4c0.276,0,0.5,0.224,0.5,0.5v3
	C10,24.776,9.776,25,9.5,25z"/>
<path fill="#7FBA00" d="M9.5,11h-4C5.224,11,5,10.776,5,10.5v-3C5,7.224,5.224,7,5.5,7h4C9.776,7,10,7.224,10,7.5v3
	C10,10.776,9.776,11,9.5,11z"/>
<path fill="#7A7A7A" d="M0,1.5v6C0,7.776,0.224,8,0.5,8h2C2.776,8,3,7.776,3,7.5v-3C3,4.224,3.224,4,3.5,4h21
	C24.776,4,25,4.224,25,4.5v3C25,7.776,25.224,8,25.5,8h2C27.776,8,28,7.776,28,7.5v-6C28,1.224,27.776,1,27.5,1h-27
	C0.224,1,0,1.224,0,1.5z"/>
<path fill="#7FBA00" d="M20.5,27h-4c-0.276,0-0.5-0.224-0.5-0.5v-3c0-0.276,0.224-0.5,0.5-0.5h4c0.276,0,0.5,0.224,0.5,0.5v3
	C21,26.776,20.776,27,20.5,27z"/>
<path fill="#7FBA00" d="M20.5,34h-4c-0.276,0-0.5-0.224-0.5-0.5v-3c0-0.276,0.224-0.5,0.5-0.5h4c0.276,0,0.5,0.224,0.5,0.5v3
	C21,33.776,20.776,34,20.5,34z"/>
<path fill="#7FBA00" d="M20.5,20h-4c-0.276,0-0.5-0.224-0.5-0.5v-3c0-0.276,0.224-0.5,0.5-0.5h4c0.276,0,0.5,0.224,0.5,0.5v3
	C21,19.776,20.776,20,20.5,20z"/>
<path fill="#7A7A7A" d="M11,10.5v6c0,0.276,0.224,0.5,0.5,0.5h2c0.276,0,0.5-0.224,0.5-0.5v-3c0-0.276,0.224-0.5,0.5-0.5h21
	c0.276,0,0.5,0.224,0.5,0.5v3c0,0.276,0.224,0.5,0.5,0.5h2c0.276,0,0.5-0.224,0.5-0.5v-6c0-0.276-0.224-0.5-0.5-0.5h-27
	C11.224,10,11,10.224,11,10.5z"/>
<path fill="#7FBA00" d="M31.5,36h-4c-0.276,0-0.5-0.224-0.5-0.5v-3c0-0.276,0.224-0.5,0.5-0.5h4c0.276,0,0.5,0.224,0.5,0.5v3
	C32,35.776,31.776,36,31.5,36z"/>
<path fill="#7FBA00" d="M38.5,32h-4c-0.276,0-0.5-0.224-0.5-0.5v-3c0-0.276,0.224-0.5,0.5-0.5h4c0.276,0,0.5,0.224,0.5,0.5v3
	C39,31.776,38.776,32,38.5,32z"/>
<path fill="#7FBA00" d="M38.5,39h-4c-0.276,0-0.5-0.224-0.5-0.5v-3c0-0.276,0.224-0.5,0.5-0.5h4c0.276,0,0.5,0.224,0.5,0.5v3
	C39,38.776,38.776,39,38.5,39z"/>
<path fill="#7FBA00" d="M45.5,36h-4c-0.276,0-0.5-0.224-0.5-0.5v-3c0-0.276,0.224-0.5,0.5-0.5h4c0.276,0,0.5,0.224,0.5,0.5v3
	C46,35.776,45.776,36,45.5,36z"/>
<path fill="#7FBA00" d="M31.5,43h-4c-0.276,0-0.5-0.224-0.5-0.5v-3c0-0.276,0.224-0.5,0.5-0.5h4c0.276,0,0.5,0.224,0.5,0.5v3
	C32,42.776,31.776,43,31.5,43z"/>
<path fill="#7FBA00" d="M31.5,29h-4c-0.276,0-0.5-0.224-0.5-0.5v-3c0-0.276,0.224-0.5,0.5-0.5h4c0.276,0,0.5,0.224,0.5,0.5v3
	C32,28.776,31.776,29,31.5,29z"/>
<path fill="#3999C6" d="M22,19.5v6c0,0.276,0.224,0.5,0.5,0.5h2c0.276,0,0.5-0.224,0.5-0.5v-3c0-0.276,0.224-0.5,0.5-0.5h21
	c0.276,0,0.5,0.224,0.5,0.5v3c0,0.276,0.224,0.5,0.5,0.5h2c0.276,0,0.5-0.224,0.5-0.5v-6c0-0.276-0.224-0.5-0.5-0.5h-27
	C22.224,19,22,19.224,22,19.5z"/>
<path fill="#3999C6" d="M50,48.5v-6c0-0.276-0.224-0.5-0.5-0.5h-2c-0.276,0-0.5,0.224-0.5,0.5v3c0,0.276-0.224,0.5-0.5,0.5h-21
	c-0.276,0-0.5-0.224-0.5-0.5v-3c0-0.276-0.224-0.5-0.5-0.5h-2c-0.276,0-0.5,0.224-0.5,0.5v6c0,0.276,0.224,0.5,0.5,0.5h27
	C49.776,49,50,48.776,50,48.5z"/>
<path fill="#7A7A7A" d="M11,28H3.5C3.224,28,3,27.776,3,27.5v-3C3,24.224,2.776,24,2.5,24h-2C0.224,24,0,24.224,0,24.5v6
	C0,30.776,0.224,31,0.5,31H11V28z"/>
<path fill="#7A7A7A" d="M22,37h-7.5c-0.276,0-0.5-0.224-0.5-0.5v-3c0-0.276-0.224-0.5-0.5-0.5h-2c-0.276,0-0.5,0.224-0.5,0.5v6
	c0,0.276,0.224,0.5,0.5,0.5H22V37z"/>
</svg>
