<?xml version="1.0" encoding="utf-8"?>
<!-- Generator: Adobe Illustrator 20.0.0, SVG Export Plug-In . SVG Version: 6.00 Build 0)  -->
<svg version="1.1" id="Layer_1" xmlns="http://www.w3.org/2000/svg" xmlns:xlink="http://www.w3.org/1999/xlink" x="0px" y="0px"
	 width="50px" height="50px" viewBox="0 0 50 50" enable-background="new 0 0 50 50" xml:space="preserve">
<path fill="#3E3E3E" d="M32,41c0,1.657-1.323,3-2.956,3H6.956C5.323,44,4,42.657,4,41V3c0-1.657,1.323-3,2.956-3h22.088
	C30.677,0,32,1.343,32,3V41z"/>
<rect x="6" y="5" fill="#59B4D9" width="24" height="33"/>
<path fill="#FFFFFF" d="M23,2.817c0,0.408-0.53,0.738-1.186,0.738h-7.625C13.532,3.555,13,3.225,13,2.817s0.532-0.739,1.189-0.739
	h7.625C22.47,2.078,23,2.409,23,2.817"/>
<path opacity="0.15" fill="#FFFFFF" enable-background="new    " d="M26.021,0H7C5.343,0,4,1.343,4,3v38c0,1.658,1.343,3,3,3h2.6
	L26.021,0z"/>
<rect x="21.042" y="26.042" fill="#FFFFFF" stroke="#3999C6" stroke-width="2" stroke-linecap="round" stroke-linejoin="round" stroke-miterlimit="10" width="22.917" height="22.917"/>
<path fill="#3999C6" d="M24.26,37.613c-0.109-0.118-0.167-0.276-0.16-0.433c0.01-0.159,0.079-0.303,0.196-0.409l1.568-1.451
	c0.115-0.104,0.253-0.159,0.402-0.159c0.168,0,0.317,0.067,0.432,0.193l4.158,4.458l7.287-9.334
	c0.108-0.143,0.279-0.228,0.466-0.228c0.134,0,0.258,0.044,0.362,0.127l1.698,1.311c0.126,0.09,0.208,0.227,0.228,0.391
	c0.012,0.13-0.003,0.306-0.14,0.449l-9.373,12.003c-0.162,0.207-0.47,0.221-0.649,0.028L24.26,37.613z"/>
</svg>
