<?xml version="1.0" encoding="UTF-8"?>
<svg width="40px" height="40px" viewBox="0 0 40 40" version="1.1" xmlns="http://www.w3.org/2000/svg" xmlns:xlink="http://www.w3.org/1999/xlink">
    <title>Icon-Architecture/32/Arch_Amazon-Security-Lake_32</title>
    <defs>
        <linearGradient x1="0%" y1="100%" x2="100%" y2="0%" id="linearGradient-1">
            <stop stop-color="#BD0816" offset="0%"></stop>
            <stop stop-color="#FF5252" offset="100%"></stop>
        </linearGradient>
    </defs>
    <g id="Icon-Architecture/32/Arch_Amazon-Security-Lake_32" stroke="none" stroke-width="1" fill="none" fill-rule="evenodd">
        <g id="Icon-Architecture-BG/32/Security-Identity-Compliance" fill="url(#linearGradient-1)">
            <rect id="Rectangle" x="0" y="0" width="40" height="40"></rect>
        </g>
        <g id="Icon-Service/32/Amazon-Security-Lake_32" transform="translate(6.000000, 6.000000)" fill="#FFFFFF">
            <path d="M10,16.079 L10,4.21 L15,5.996 L15,14.079 L16,14.079 L16,5.643 C16,5.432 15.867,5.243 15.668,5.172 L9.668,3.03 C9.561,2.991 9.439,2.991 9.332,3.03 L3.332,5.172 C3.133,5.243 3,5.432 3,5.643 L3,15.072 C3,16.579 4.54,20.715 9.5,20.715 L9.5,19.715 C4.956,19.715 4,15.835 4,15.072 L4,5.996 L9,4.21 L9,16.079 L10,16.079 Z M25.605,24.671 L24.605,24.671 C24.605,25.995 23.528,27.072 22.204,27.072 C20.88,27.072 19.803,25.995 19.803,24.671 L18.803,24.671 C18.803,25.995 17.726,27.072 16.401,27.072 C15.077,27.072 14,25.995 14,24.671 L13,24.671 C13,25.995 11.923,27.072 10.599,27.072 L10.599,28.072 C11.825,28.072 12.901,27.42 13.5,26.444 C14.099,27.42 15.175,28.072 16.401,28.072 C17.628,28.072 18.704,27.42 19.303,26.444 C19.901,27.42 20.978,28.072 22.204,28.072 C23.431,28.072 24.507,27.42 25.105,26.444 C25.704,27.42 26.78,28.072 28.007,28.072 L28.007,27.072 C26.683,27.072 25.605,25.995 25.605,24.671 L25.605,24.671 Z M25.605,20.306 L24.605,20.306 C24.605,21.63 23.528,22.707 22.204,22.707 C20.88,22.707 19.803,21.63 19.803,20.306 L18.803,20.306 C18.803,21.63 17.726,22.707 16.401,22.707 C15.077,22.707 14,21.63 14,20.306 L13,20.306 C13,21.63 11.923,22.707 10.599,22.707 L10.599,23.707 C11.825,23.707 12.901,23.055 13.5,22.079 C14.099,23.055 15.175,23.707 16.401,23.707 C17.628,23.707 18.704,23.055 19.303,22.079 C19.901,23.055 20.978,23.707 22.204,23.707 C23.431,23.707 24.507,23.055 25.105,22.079 C25.704,23.055 26.78,23.707 28.007,23.707 L28.007,22.707 C26.683,22.707 25.605,21.63 25.605,20.306 L25.605,20.306 Z M25.605,15.855 L24.605,15.855 C24.605,17.18 23.528,18.257 22.204,18.257 C20.88,18.257 19.803,17.18 19.803,15.855 L18.803,15.855 C18.803,17.18 17.726,18.257 16.401,18.257 C15.077,18.257 14,17.18 14,15.855 L13,15.855 C13,17.18 11.923,18.257 10.599,18.257 L10.599,19.257 C11.825,19.257 12.901,18.605 13.5,17.629 C14.099,18.605 15.175,19.257 16.401,19.257 C17.628,19.257 18.704,18.605 19.303,17.629 C19.901,18.605 20.978,19.257 22.204,19.257 C23.431,19.257 24.507,18.605 25.105,17.629 C25.704,18.605 26.78,19.257 28.007,19.257 L28.007,18.257 C26.683,18.257 25.605,17.18 25.605,15.855 L25.605,15.855 Z M9.5,22.715 L9.5,23.715 C1.985,23.715 -1.77635684e-15,17.5 -1.77635684e-15,14.215 L-1.77635684e-15,3.929 C-1.77635684e-15,3.721 0.128,3.535 0.322,3.461 L9.322,0.033 C9.436,-0.011 9.564,-0.011 9.678,0.033 L18.678,3.461 C18.872,3.535 19,3.721 19,3.929 L19,14.079 L18,14.079 L18,4.273 L9.5,1.036 L1,4.273 L1,14.215 C1,14.562 1.097,22.715 9.5,22.715 L9.5,22.715 Z" id="Fill-4"></path>
        </g>
    </g>
</svg>