<?xml version="1.0" encoding="UTF-8"?><svg version="1.1" width="40px" height="40px" viewBox="0 0 40.0 40.0" xmlns="http://www.w3.org/2000/svg" xmlns:xlink="http://www.w3.org/1999/xlink"><defs><clipPath id="i0"><path d="M40,0 L40,40 L0,40 L0,0 L40,0 Z"></path></clipPath><linearGradient id="i1" x1="0px" y1="40px" x2="40px" y2="0px" gradientUnits="userSpaceOnUse"><stop stop-color="#BD0816" offset="0%"></stop><stop stop-color="#FF5252" offset="100%"></stop></linearGradient><clipPath id="i2"><path d="M27.5,3 C27.776,3 28,3.224 28,3.5 L28,27.5 C28,27.776 27.776,28 27.5,28 L24,28 L24,27 L27,27 L27,3 Z M20,27 L20,28 L3.5,28 C3.224,28 3,27.776 3,27.5 L3,27 L20,27 Z M24.5,0 C24.776,0 25,0.224 25,0.5 L25,24.5 C25,24.776 24.776,25 24.5,25 L21,25 L21,24 L24,24 L24,4 L1,4 L1,24 L17,24 L17,25 L0.5,25 C0.224,25 0,24.776 0,24.5 L0,0.5 C0,0.224 0.224,0 0.5,0 L24.5,0 Z M8,18 L8,21.762 L12.314,20.036 C12.434,19.988 12.566,19.988 12.686,20.036 L17,21.762 L17,18 L18,18 L18,22.5 C18,22.666 17.918,22.821 17.78,22.914 C17.696,22.971 17.599,23 17.5,23 C17.437,23 17.374,22.988 17.314,22.964 L12.5,21.039 L7.686,22.964 C7.532,23.025 7.356,23.006 7.22,22.914 C7.082,22.821 7,22.666 7,22.5 L7,18 L8,18 Z M12.5,5 C16.084,5 19,7.916 19,11.5 C19,15.084 16.084,18 12.5,18 C8.916,18 6,15.084 6,11.5 C6,7.916 8.916,5 12.5,5 Z M12.5,6 C9.468,6 7,8.467 7,11.5 C7,14.533 9.468,17 12.5,17 C15.532,17 18,14.533 18,11.5 C18,8.467 15.532,6 12.5,6 Z M15.146,9.146 L15.854,9.854 L11.854,13.854 C11.756,13.951 11.628,14 11.5,14 C11.372,14 11.244,13.951 11.146,13.854 L9.146,11.854 L9.854,11.146 L11.5,12.793 L15.146,9.146 Z M24,1 L1,1 L1,3 L24,3 L24,1 Z"></path></clipPath></defs><g clip-path="url(#i0)"><polygon points="0,0 40,0 40,40 0,40 0,0" stroke="none" fill="url(#i1)"></polygon></g><g transform="translate(4.0 4.0)"><g transform="translate(2.0 2.0)"><g clip-path="url(#i2)"><polygon points="0,0 28,0 28,28 0,28 0,0" stroke="none" fill="#FFFFFF"></polygon></g></g></g></svg>