<?xml version="1.0" encoding="UTF-8"?>
<svg width="40px" height="40px" viewBox="0 0 40 40" version="1.1" xmlns="http://www.w3.org/2000/svg" xmlns:xlink="http://www.w3.org/1999/xlink">
    <title>Icon-Architecture/32/Arch_Amazon-Verified-Permissions_32</title>
    <defs>
        <linearGradient x1="0%" y1="100%" x2="100%" y2="0%" id="linearGradient-1">
            <stop stop-color="#BD0816" offset="0%"></stop>
            <stop stop-color="#FF5252" offset="100%"></stop>
        </linearGradient>
    </defs>
    <g id="Icon-Architecture/32/Arch_Amazon-Verified-Permissions_32" stroke="none" stroke-width="1" fill="none" fill-rule="evenodd">
        <g id="Icon-Architecture-BG/32/Security-Identity-Compliance" fill="url(#linearGradient-1)">
            <rect id="Rectangle" x="0" y="0" width="40" height="40"></rect>
        </g>
        <g id="Icon-Service/32/Amazon-Verified-Permissions_32" transform="translate(6.000000, 6.000000)" fill="#FFFFFF">
            <path d="M19,18 L23,18 L23,19 L19,19 L19,21 L23,21 L23,22 L19,22 L19,24 L18,24 L18,22 L18,21 L18,19 L18,18 L18,16 L19,16 L19,18 Z M27,20.961 L26.284,20.92 C26.048,20.914 25.821,21.071 25.769,21.31 C25.621,21.962 25.364,22.582 25.005,23.153 C24.875,23.36 24.913,23.63 25.095,23.793 L25.63,24.27 L24.27,25.629 L23.795,25.097 C23.632,24.914 23.362,24.876 23.154,25.007 C22.587,25.366 21.966,25.623 21.31,25.771 C21.071,25.825 20.907,26.043 20.921,26.288 L20.961,27 L19.039,27 L19.079,26.287 C19.093,26.043 18.929,25.825 18.69,25.771 C18.036,25.623 17.415,25.365 16.847,25.005 C16.64,24.876 16.368,24.913 16.206,25.096 L15.73,25.629 L14.37,24.27 L14.904,23.794 C15.087,23.631 15.125,23.361 14.994,23.154 C14.636,22.586 14.379,21.965 14.23,21.309 C14.177,21.07 13.963,20.914 13.715,20.92 L13,20.961 L13,19.039 L13.718,19.08 C13.963,19.097 14.18,18.93 14.233,18.691 C14.382,18.037 14.64,17.417 14.998,16.85 C15.129,16.643 15.091,16.372 14.908,16.209 L14.37,15.73 L15.73,14.371 L16.209,14.907 C16.371,15.09 16.642,15.128 16.849,14.998 C17.418,14.639 18.037,14.383 18.69,14.235 C18.929,14.182 19.093,13.963 19.079,13.719 L19.039,13 L20.961,13 L20.921,13.72 C20.907,13.964 21.071,14.182 21.31,14.236 C21.963,14.384 22.582,14.641 23.149,14.999 C23.356,15.129 23.627,15.091 23.789,14.909 L24.27,14.37 L25.63,15.73 L25.093,16.208 C24.91,16.371 24.872,16.642 25.003,16.849 C25.361,17.416 25.619,18.035 25.768,18.691 C25.821,18.93 26.048,19.097 26.283,19.08 L27,19.039 L27,20.961 Z M27.844,18.146 C27.743,18.051 27.615,18.005 27.472,18.01 L26.636,18.058 C26.496,17.579 26.305,17.118 26.065,16.681 L26.69,16.124 C26.793,16.032 26.854,15.902 26.857,15.765 C26.861,15.627 26.809,15.494 26.711,15.397 L24.603,13.289 C24.506,13.192 24.381,13.139 24.234,13.143 C24.098,13.146 23.968,13.207 23.876,13.31 L23.316,13.937 C22.88,13.698 22.42,13.507 21.942,13.368 L21.989,12.528 C21.997,12.391 21.948,12.256 21.854,12.157 C21.759,12.057 21.628,12 21.49,12 L18.51,12 C18.372,12 18.241,12.057 18.146,12.157 C18.052,12.256 18.003,12.391 18.011,12.528 L18.058,13.366 C17.58,13.506 17.12,13.696 16.683,13.936 L16.124,13.31 C16.032,13.207 15.902,13.147 15.766,13.143 C15.641,13.143 15.495,13.192 15.397,13.289 L13.289,15.397 C13.191,15.494 13.139,15.627 13.143,15.765 C13.146,15.902 13.207,16.032 13.31,16.124 L13.937,16.683 C13.696,17.12 13.505,17.58 13.365,18.058 L12.528,18.01 C12.398,18.005 12.257,18.051 12.156,18.146 C12.057,18.24 12,18.372 12,18.509 L12,21.491 C12,21.628 12.057,21.76 12.156,21.854 C12.257,21.949 12.412,21.998 12.528,21.99 L13.362,21.942 C13.502,22.422 13.692,22.883 13.933,23.321 L13.31,23.876 C13.207,23.968 13.146,24.098 13.143,24.235 C13.139,24.373 13.191,24.506 13.289,24.603 L15.397,26.711 C15.494,26.808 15.637,26.868 15.766,26.857 C15.903,26.853 16.032,26.793 16.124,26.69 L16.679,26.067 C17.117,26.308 17.578,26.5 18.058,26.64 L18.011,27.472 C18.003,27.609 18.052,27.744 18.146,27.843 C18.241,27.943 18.372,28 18.51,28 L21.49,28 C21.628,28 21.759,27.943 21.854,27.843 C21.948,27.744 21.997,27.609 21.989,27.472 L21.942,26.641 C22.423,26.5 22.884,26.309 23.322,26.069 L23.876,26.69 C23.968,26.793 24.098,26.853 24.234,26.857 C24.384,26.871 24.506,26.809 24.603,26.711 L26.711,24.603 C26.809,24.506 26.861,24.373 26.857,24.235 C26.854,24.098 26.793,23.968 26.69,23.876 L26.066,23.32 C26.307,22.881 26.498,22.42 26.637,21.942 L27.472,21.99 C27.615,21.998 27.743,21.949 27.844,21.854 C27.943,21.76 28,21.628 28,21.491 L28,18.509 C28,18.372 27.943,18.24 27.844,18.146 L27.844,18.146 Z M9.52,11.767 L5.732,15.554 C5.639,15.647 5.512,15.7 5.379,15.7 C5.246,15.7 5.119,15.647 5.025,15.554 L3.133,13.661 L3.84,12.954 L5.379,14.493 L8.812,11.06 L9.52,11.767 Z M9.52,4.544 L5.732,8.331 C5.639,8.424 5.512,8.477 5.379,8.477 C5.246,8.477 5.119,8.424 5.025,8.331 L3.133,6.437 L3.84,5.73 L5.379,7.27 L8.812,3.837 L9.52,4.544 Z M8.572,19.866 L6.796,21.643 L8.572,23.419 L7.865,24.126 L6.089,22.35 L4.312,24.126 L3.605,23.419 L5.382,21.643 L3.605,19.866 L4.312,19.159 L6.089,20.936 L7.865,19.159 L8.572,19.866 Z M18.927,4 L16,4 L16,1.383 L18.927,4 Z M1,1 L15,1 L15,4.5 C15,4.776 15.224,5 15.5,5 L20,5 L20,11 L21,11 L21,4.735 C21,4.593 20.939,4.458 20.833,4.363 L16.096,0.127 C16.067,0.102 16.033,0.087 16,0.069 L16,0 L15.763,0 L15,0 L0.5,0 C0.224,0 0,0.224 0,0.5 L0,27.5 C0,27.776 0.224,28 0.5,28 L14,28 L14,27 L1,27 L1,1 Z" id="Fill-5"></path>
        </g>
    </g>
</svg>