<?xml version="1.0" encoding="UTF-8"?><svg version="1.1" width="24px" height="24px" viewBox="0 0 24.0 24.0" xmlns="http://www.w3.org/2000/svg" xmlns:xlink="http://www.w3.org/1999/xlink"><defs><clipPath id="i0"><path d="M24,0 L24,24 L0,24 L0,0 L24,0 Z"></path></clipPath><linearGradient id="i1" x1="0px" y1="24px" x2="24px" y2="0px" gradientUnits="userSpaceOnUse"><stop stop-color="#B0084D" offset="0%"></stop><stop stop-color="#FF4F8B" offset="100%"></stop></linearGradient><clipPath id="i2"><path d="M7.5,0 C7.776,0 8,0.224 8,0.5 L8,4.55 C8.877,4.698 10,5.245 10,6.667 L10,8 C10,8.277 9.776,8.5 9.5,8.5 L9,8.5 L9,10.5 L8,10.5 L8,8.5 L7,8.5 L7,10.5 L6,10.5 L6,8.5 L5.5,8.5 C5.224,8.5 5,8.277 5,8 L5,6.667 C5,5.245 6.123,4.698 7,4.55 L7,1.02 C3.648,1.276 1,4.084 1,7.5 C1,9.254 1.687,10.898 2.937,12.129 C4.187,13.36 5.839,14.024 7.596,14 C11.006,13.951 13.938,11.029 13.999,7.62 C14.047,4.922 12.468,2.516 9.977,1.489 L10.357,0.564 C13.232,1.75 15.054,4.526 14.999,7.637 C14.927,11.64 11.612,14.942 7.609,15 L7.499,15 C5.515,15 3.649,14.236 2.235,12.842 C0.794,11.421 0,9.524 0,7.5 C0,3.365 3.364,0 7.5,0 Z M7.52771839,5.50054065 L7.46882626,5.50054065 C7.22358277,5.50754422 6,5.59747619 6,6.667 L6,7.5 L9,7.5 L9,6.667 C9,5.544 7.651,5.501 7.498,5.5 Z"></path></clipPath></defs><g clip-path="url(#i0)"><polygon points="0,0 24,0 24,24 0,24 0,0" stroke="none" fill="url(#i1)"></polygon></g><g transform="translate(4.0 4.0)"><g transform="translate(-2.842170943040401e-14 0.5)"><g clip-path="url(#i2)"><polygon points="0,0 15.0002113,0 15.0002113,15 0,15 0,0" stroke="none" fill="#FFFFFF"></polygon></g></g></g></svg>