<svg xmlns="http://www.w3.org/2000/svg" xmlns:xlink="http://www.w3.org/1999/xlink" viewBox="0 0 537 152.34"><defs><style>.cls-1{fill:url(#linear-gradient);}.cls-2{fill:url(#linear-gradient-2);}</style><linearGradient id="linear-gradient" x1="748.75" y1="-1002.02" x2="748.75" y2="-1002.67" gradientTransform="matrix(600.34, 0, 0, -236.97, -449158.35, -237445.67)" gradientUnits="userSpaceOnUse"><stop offset="0" stop-color="#368dcc"/><stop offset="1" stop-color="#0b7abf"/></linearGradient><linearGradient id="linear-gradient-2" x1="64.29" y1="151.07" x2="64.29" y2="22.5" gradientUnits="userSpaceOnUse"><stop offset="0" stop-color="#0b7abf"/><stop offset="1" stop-color="#368dcc"/></linearGradient></defs><title>trello-blue-Blue</title><g id="Layer_2" data-name="Layer 2"><g id="Layer_1-2" data-name="Layer 1"><g id="Page-1"><g id="Original-Assets"><g id="Group"><g id="Trello-Logo"><g id="Trello-Logo---Blue"><g id="Logo"><path id="Type" class="cls-1" d="M432.83,114.16c-8.21,3.35-14.69,14.9-24.54,21.47a3.25,3.25,0,0,1-1.63.61c-.81,0-1.83-.81-1.83-4.48,0-12.63,4.07-18.74,7.54-27.7,12-31.16,32.59-57.84,50.91-87a13.49,13.49,0,0,0,2.24-7.33c0-2.24-.81-4.07-1.83-6.31C462.87,1.63,459.2,0,455.13,0c-2.24,0-4.28.2-6.92.2-9.57,0-11.61,14.05-13.85,17.72-15.27,25.86-32.79,57.84-41.75,80.44-2,5.07-4.09,10.14-5.7,15.34-8.86,2.56-15.49,15-25.87,21.93a3.25,3.25,0,0,1-1.63.61c-.81,0-1.83-.81-1.83-4.48,0-12.63,4.07-18.74,7.54-27.7,12-31.16,32.59-57.84,50.91-87a13.49,13.49,0,0,0,2.24-7.33c0-2.24-.81-4.07-1.83-6.31C415.62,1.63,412,0,407.88,0c-2.24,0-4.28.2-6.92.2-9.57,0-11.61,14.05-13.85,17.72-15.27,25.86-32.79,57.84-41.75,80.44-.71,1.84-1.45,3.67-2.17,5.52l-.68.39c-10.39,6.11-19.14,16.9-31.77,24.24-2.44,1.43-10,6.72-16.09,6.72a8.42,8.42,0,0,1-3.87-1c-1.83-.81-3.67-4.68-3.67-5.91,0-1,.2-1.22,2.24-2.44,17.92-10.79,32.59-26.27,45.21-41.75,4.68-5.7,10.79-16.9,10.79-25,0-5.3-1.83-11.4-8.15-13.64A42,42,0,0,0,323.57,43a32,32,0,0,0-23.22,9.57c-4.56,4.87-9,9.87-13.07,15-4.28-3.7-10.32-5.27-16.05-5.27-6.72,0-19.35,8.35-25.86,13.24-1,.81-1.63,1.22-2,1.22-.2,0-.41-.2-.41-.61a32.76,32.76,0,0,0,.41-5.3,21.05,21.05,0,0,0-3.26-11c-.61-1-4.28-3.26-8.76-3.26-5.5,0-10.59,2.65-10.59,5.5,0,2,1.83,2.85,1.83,4.68a64.57,64.57,0,0,1-2,10.18c-3.46,13-7.74,25.86-12.22,38.69-2.44,7.13-10.59,13.44-10.59,21.18,0,2.44,1.63,5.7,3.87,8.15,3.67,4.07,5.91,5.5,9.16,5.5a6.79,6.79,0,0,0,4.48-1.63,15.54,15.54,0,0,0,5.5-9c5.3-24,20.57-40.32,37.47-51.12,5.7-3.67,13.44-7.54,14.46-7.54a19.62,19.62,0,0,1,4.32,1,99.4,99.4,0,0,0-11,24.51,29.6,29.6,0,0,0-1.22,8.35,44,44,0,0,0,2.65,14.26c2.24,6.52,5.91,12.22,11,14.87,9.37,4.89,16.09,7.54,22.2,7.54a16.77,16.77,0,0,0,9-2.24c13.39-7.57,21.59-13.32,27.52-18.42.16,5.17,1.18,8,4.86,11.91a32.62,32.62,0,0,0,16.9,9,22.44,22.44,0,0,0,3.67.41c8.62,0,16.92-7,23.32-14a18.41,18.41,0,0,0,3.36,4.59,32.62,32.62,0,0,0,16.9,9,22.44,22.44,0,0,0,3.67.41c10.1,0,19.75-9.62,26.43-17.49,2.23,4.6,8.44,9.15,15.93,12.8a15.56,15.56,0,0,0,6.72,1.63c8.76,0,15.07-7.13,20-12.42,12.63-13.85,19.55-31,24.85-52.54.41-1.63,1-2.24,1.83-2.24a52,52,0,0,0,7.54-.41c5.5-.81,9.78-2.65,14.87-3.46,3.05-.61,2.65-1.63,5.5-2.65,2-.81,3.67-1.63,3.67-3.67,0-3.46-6.31-7.13-15.89-7.13-7.54,0-12,.61-15.07.61-4.68,0-5.91-1.43-9-9.37h0A8.92,8.92,0,0,0,494,51.93,21.37,21.37,0,0,0,480.18,47c-10.18,0-18.94,10.39-25,19.14-1.43,2-3.46,3.67-4.89,5.91C441.85,84.68,433.82,98.87,432.83,114.16ZM172.45,44.8c5.09,0,7.94-.41,8.55-.41s1,.2,1,.81c0,.41-.2,1-1.63,4.07C168,76,159.42,103.05,151.89,133a33.06,33.06,0,0,0-.81,6.92c0,2.85.81,5.91,3.67,7.54,5.5,3.26,10,4.68,13,4.68,4.48,0,6.72-2.85,6.72-7.54a67.69,67.69,0,0,1,.81-11.61c5.7-29.94,14.26-53.36,27.49-77.8C209.11,43.58,209.93,43,209.93,42a3.25,3.25,0,0,0-.61-1.63,127.86,127.86,0,0,1,26.88-3.05,17.28,17.28,0,0,1,5.7,2c1.43,1.43,2.85,2.85,5.3,2.85a16.38,16.38,0,0,0,6.72-2.24c2.85-2,4.28-4.28,4.28-7.94,0-3.46-12.83-12-21.79-12a155.7,155.7,0,0,0-30.34,3.26c-4.07.81-18.74,3.05-29.33,3.05-10.18,0-9.57-1.43-13.85-1.43a6.07,6.07,0,0,0-4.68,2.24c-1,1-1.63,5.09-1.63,8.76,0,1.83,0,3.26,1,4.48,3.05,3.67,9,4.48,14.87,4.48ZM323.36,61.3c0,1.83-.61,3.05-3.05,6.92s-1.43,3.87-4.48,7.94A175.45,175.45,0,0,1,293,100.81c-2.65,2.44-3.05,2.44-3.46,2.44a.65.65,0,0,1-.61-.61c0-.61.2-1.43,2.24-5.7,6.31-13.24,14.05-22,22.61-30.55,4.68-4.68,7.54-6.31,8.55-6.31.61,0,1,.2,1,1.22ZM480,66.6q.31,0,.61.61a4.39,4.39,0,0,0,1.63,2c.81.61.81,3.46.81,5.7,0,19.75-11.2,36-22.2,52.54-2.44,3.67-3.87,4.28-5.09,4.28-1,0-2.65-2.65-3.26-4.28a19.67,19.67,0,0,1-1-5.91c0-15.89,15.07-39.51,25-52.54,1.63-2.24,2.85-2.44,3.46-2.44Z"/><path class="cls-2" d="M112.5,22.5H16.07A16.07,16.07,0,0,0,0,38.57V135a16.07,16.07,0,0,0,16.07,16.07H112.5A16.07,16.07,0,0,0,128.57,135V38.57A16.07,16.07,0,0,0,112.5,22.5ZM55.93,119.89a7.71,7.71,0,0,1-7.71,7.71H24.43a7.71,7.71,0,0,1-7.71-7.71v-73a7.71,7.71,0,0,1,7.71-7.71H48.21a7.71,7.71,0,0,1,7.71,7.71Zm55.93-32.14a7.71,7.71,0,0,1-7.71,7.71H80.36a7.71,7.71,0,0,1-7.71-7.71V46.93a7.71,7.71,0,0,1,7.71-7.71h23.79a7.71,7.71,0,0,1,7.71,7.71Z"/></g></g></g></g></g></g></g></g></svg>