<svg xmlns="http://www.w3.org/2000/svg" viewBox="0 0 77.37 114.57"><defs><style>.cls-1{fill:#fff;}</style></defs><title>Asset 3</title><g id="Layer_2" data-name="Layer 2"><g id="Logo"><path class="cls-1" d="M10.39,89.22V87.11H8.45v2.11h-1V84.14h1v2.13h1.94V84.14h1v5.08Zm4.6,0h-.78L14.14,89a2.14,2.14,0,0,1-1.14.32c-.69,0-1-.46-1-1.09s.33-1,1.11-1H14v-.38c0-.41-.12-.55-.73-.55a6.25,6.25,0,0,0-1.06.11l-.12-.7a5.46,5.46,0,0,1,1.31-.17c1.2,0,1.55.41,1.55,1.32Zm-1-1.39h-.71c-.31,0-.4.09-.4.37s.09.36.39.36a1.66,1.66,0,0,0,.72-.18ZM17,89.29a4.66,4.66,0,0,1-1.31-.21l.13-.7a4.48,4.48,0,0,0,1.14.16c.42,0,.48-.09.48-.37s0-.34-.66-.48c-.94-.22-1-.44-1-1.15s.33-1.06,1.42-1.06a5.31,5.31,0,0,1,1.14.13l-.09.73a7.33,7.33,0,0,0-1.05-.11c-.41,0-.48.09-.48.32s0,.31.54.44c1.06.27,1.16.41,1.16,1.16S18.15,89.29,17,89.29Zm4.38-.07V86.66c0-.19-.09-.29-.31-.29a2.58,2.58,0,0,0-1,.31v2.54h-1V84.07l1,.14v1.62a3.48,3.48,0,0,1,1.39-.35c.64,0,.86.43.86,1.08v2.66ZM23.13,85v-.9h.95V85Zm0,4.18V85.56h.95v3.66Zm1.72-3.63c0-.92.55-1.46,1.85-1.46a5.88,5.88,0,0,1,1.42.17l-.11.82A7.51,7.51,0,0,0,26.73,85c-.68,0-.9.23-.9.76v1.93c0,.53.22.76.9.76A8.68,8.68,0,0,0,28,88.31l.11.82a6.43,6.43,0,0,1-1.42.16c-1.3,0-1.85-.53-1.85-1.45Zm5.38,3.7c-1.31,0-1.66-.69-1.66-1.44v-.93c0-.75.35-1.44,1.66-1.44s1.66.69,1.66,1.44v.93C31.89,88.6,31.54,89.29,30.23,89.29Zm0-3c-.51,0-.7.22-.7.63v1c0,.41.19.63.7.63s.71-.22.71-.63v-1C30.94,86.48,30.74,86.26,30.23,86.26Zm4.35.06a9,9,0,0,0-1,.54v2.36h-1V85.56h.8l.07.4a4.44,4.44,0,0,1,1-.48ZM38.4,88a1.13,1.13,0,0,1-1.26,1.29,5.6,5.6,0,0,1-1-.1v1.5l-.95.14V85.56h.76l.09.3a2.1,2.1,0,0,1,1.21-.38c.77,0,1.17.44,1.17,1.27Zm-2.28.41a4,4,0,0,0,.85.1c.35,0,.48-.16.48-.49V86.73c0-.3-.12-.47-.47-.47a1.4,1.4,0,0,0-.86.33Z"/><path class="cls-1" d="M21.71,93.31h4.13l-6.26,21H13.72l-6.26-21h4.13l5.06,17.46Z"/><path class="cls-1" d="M37.29,114.26H34.14l-.28-1a8.41,8.41,0,0,1-4.56,1.35c-2.8,0-4-1.92-4-4.56,0-3.11,1.35-4.31,4.47-4.31h3.68v-1.6c0-1.7-.47-2.3-2.93-2.3a21.59,21.59,0,0,0-4.24.47l-.48-2.92a20.07,20.07,0,0,1,5.26-.73c4.81,0,6.23,1.7,6.23,5.54Zm-3.84-5.79H30.62c-1.26,0-1.61.35-1.61,1.51s.35,1.54,1.54,1.54a6,6,0,0,0,2.9-.79Z"/><path class="cls-1" d="M43.33,98.94v10.69c0,.82.34,1.23,1.22,1.23a10.67,10.67,0,0,0,4-1.29V98.94h3.83v15.32H49.46L49.08,113a15.4,15.4,0,0,1-6.13,1.6c-2.55,0-3.46-1.79-3.46-4.53V98.94Z"/><path class="cls-1" d="M54.43,114.26V92.68l3.84-.54v22.12Z"/><path class="cls-1" d="M69.72,114a10.55,10.55,0,0,1-3.37.6c-2.8,0-4.21-1.32-4.21-4.06V102h-2.3v-3h2.3V95.13L66,94.6v4.34h3.94l-.26,3H66v8a1.21,1.21,0,0,0,1.39,1.35,7.36,7.36,0,0,0,1.92-.31Z"/><path class="cls-1" d="M0,0,38.54,77.37,77.37,0ZM43.13,15.53h4.49V20H43.13ZM34.2,33.47H29.71V29H34.2Zm0-6.73H29.71V22.26H34.2Zm0-6.73H29.71V15.53H34.2ZM40.93,40.2H36.44V35.71h4.49Zm0-6.73H36.44V29h4.49Zm0-6.73H36.44V22.26h4.49Zm0-6.73H36.44V15.53h4.49Zm2.2,2.25h4.49v4.48H43.13Zm0,11.21V29h4.49v4.49Z"/></g></g></svg>