<svg xmlns="http://www.w3.org/2000/svg" viewBox="0 0 175.65 60.1"><defs><style>.cls-1{fill:#fff;}</style></defs><title>Asset 4</title><g id="Layer_2" data-name="Layer 2"><g id="Logo"><path class="cls-1" d="M84.68,7.87V4.64h-3V7.87H80.21V.11h1.51V3.36h3V.11h1.51V7.87Zm7,0h-1.2l-.11-.38a3.3,3.3,0,0,1-1.73.5c-1.07,0-1.52-.71-1.52-1.67,0-1.14.51-1.58,1.7-1.58h1.4V4.16c0-.62-.18-.84-1.12-.84a8.71,8.71,0,0,0-1.61.17l-.18-1.07a7.93,7.93,0,0,1,2-.26c1.83,0,2.37.62,2.37,2ZM90.26,5.75H89.18c-.48,0-.61.13-.61.56s.13.56.59.56a2.38,2.38,0,0,0,1.1-.29ZM94.78,8a6.82,6.82,0,0,1-2-.32L93,6.59a6.7,6.7,0,0,0,1.74.25c.64,0,.74-.14.74-.57s-.07-.52-1-.73C93,5.2,92.84,4.86,92.84,3.78S93.35,2.16,95,2.16a8.45,8.45,0,0,1,1.75.19l-.15,1.12A10.71,10.71,0,0,0,95,3.31c-.64,0-.75.13-.75.48s0,.48.83.68c1.63.41,1.78.62,1.78,1.77S96.54,8,94.78,8Zm6.68-.11V4c0-.3-.13-.45-.46-.45A4.18,4.18,0,0,0,99.48,4V7.87H98V0l1.46.22V2.7a5.16,5.16,0,0,1,2.13-.54c1,0,1.32.65,1.32,1.65V7.87Zm2.69-6.39V.11h1.46V1.48Zm0,6.39V2.27h1.46v5.6Zm2.63-5.55c0-1.41.85-2.22,2.84-2.22a9.34,9.34,0,0,1,2.16.25l-.16,1.25a12.82,12.82,0,0,0-2-.19c-1,0-1.38.34-1.38,1.16V5.51c0,.82.33,1.16,1.38,1.16a12.82,12.82,0,0,0,2-.19l.16,1.25a9.34,9.34,0,0,1-2.16.25c-2,0-2.84-.81-2.84-2.21ZM115,8c-2,0-2.54-1.05-2.54-2.2V4.36c0-1.15.54-2.2,2.54-2.2s2.54,1,2.54,2.2V5.78C117.55,6.93,117,8,115,8Zm0-4.63c-.78,0-1.08.34-1.08,1v1.5c0,.64.3,1,1.08,1s1.08-.33,1.08-1V4.32C116.09,3.69,115.79,3.35,115,3.35Zm6.65.09a13.38,13.38,0,0,0-1.54.82V7.87h-1.46V2.27h1.23l.1.62a6.42,6.42,0,0,1,1.53-.73ZM127.5,6a1.72,1.72,0,0,1-1.93,2A7.68,7.68,0,0,1,124,7.82v2.29l-1.46.22V2.27h1.16l.14.47a3.23,3.23,0,0,1,1.85-.58c1.17,0,1.79.66,1.79,1.94ZM124,6.64a6.7,6.7,0,0,0,1.29.15c.53,0,.73-.24.73-.75v-2c0-.46-.18-.71-.72-.71a2.07,2.07,0,0,0-1.3.51Z"/><path class="cls-1" d="M0,0,29.94,60.1,60.09,0ZM33.5,12.07H37v3.49H33.5ZM26.56,26H23.08V22.52h3.48Zm0-5.23H23.08V17.3h3.48Zm0-5.22H23.08V12.07h3.48Zm5.23,15.67H28.3V27.75h3.49Zm0-5.22H28.3V22.52h3.49Zm0-5.23H28.3V17.3h3.49Zm0-5.22H28.3V12.07h3.49ZM33.5,17.3H37v3.48H33.5Zm0,8.71V22.52H37V26Z"/><path class="cls-1" d="M102,14.12h6.3l-9.57,32H89.78l-9.57-32h6.3l7.74,26.69Z"/><path class="cls-1" d="M125.79,46.14H121l-.43-1.58a12.8,12.8,0,0,1-7,2.06c-4.28,0-6.11-2.93-6.11-7,0-4.76,2.07-6.59,6.83-6.59h5.63V30.61c0-2.59-.72-3.51-4.47-3.51a33,33,0,0,0-6.5.72l-.72-4.47a30.72,30.72,0,0,1,8-1.1c7.36,0,9.52,2.59,9.52,8.46Zm-5.86-8.84H115.6c-1.92,0-2.45.52-2.45,2.3S113.68,42,115.5,42a9.33,9.33,0,0,0,4.43-1.2Z"/><path class="cls-1" d="M135,22.73V39.08c0,1.25.53,1.87,1.88,1.87A16.33,16.33,0,0,0,143,39V22.73h5.86V46.14H144.4l-.58-2a23.46,23.46,0,0,1-9.37,2.45c-3.9,0-5.29-2.74-5.29-6.92v-17Z"/><path class="cls-1" d="M152,46.14v-33l5.86-.82v33.8Z"/><path class="cls-1" d="M175.36,45.71a16.21,16.21,0,0,1-5.14.91c-4.28,0-6.44-2-6.44-6.2v-13h-3.51V22.73h3.51V16.91l5.86-.82v6.64h6l-.38,4.66h-5.63V39.65a1.85,1.85,0,0,0,2.12,2.07,11.24,11.24,0,0,0,2.93-.48Z"/></g></g></svg>