<?xml version="1.0" encoding="UTF-8"?>
<svg width="40px" height="40px" viewBox="0 0 40 40" version="1.1" xmlns="http://www.w3.org/2000/svg" xmlns:xlink="http://www.w3.org/1999/xlink">
    <title>Icon-Architecture/32/Arch_AWS-SimSpace-Weaver_32</title>
    <defs>
        <linearGradient x1="0%" y1="100%" x2="100%" y2="0%" id="linearGradient-1">
            <stop stop-color="#C8511B" offset="0%"></stop>
            <stop stop-color="#FF9900" offset="100%"></stop>
        </linearGradient>
    </defs>
    <g id="Icon-Architecture/32/Arch_AWS-SimSpace-Weaver_32" stroke="none" stroke-width="1" fill="none" fill-rule="evenodd">
        <g id="Icon-Architecture-BG/32/Compute" fill="url(#linearGradient-1)">
            <rect id="Rectangle" x="0" y="0" width="40" height="40"></rect>
        </g>
        <g id="Icon-Service/32/AWS-SimSpace-Weaver_32" transform="translate(6.000000, 6.000000)" fill="#FFFFFF">
            <path d="M24,23.96025 L24,19.77625 L27,18.04225 L27,22.34825 L24,23.96025 Z M26.511,27.02425 L19.299,27.02425 L18.325,23.02325 L19.197,23.02325 C19.221,23.04325 19.235,23.07225 19.264,23.08725 L23.264,25.23625 C23.337,25.27625 23.419,25.29625 23.5,25.29625 C23.581,25.29625 23.663,25.27625 23.736,25.23625 L25.149,24.47725 L26.511,27.02425 Z M2.856,24.48025 L4.264,25.23625 C4.337,25.27625 4.419,25.29625 4.5,25.29625 C4.581,25.29625 4.663,25.27625 4.736,25.23625 L8.736,23.08725 C8.765,23.07225 8.779,23.04325 8.803,23.02325 L9.888,23.02325 L8.615,27.02425 L1.438,27.02425 L2.856,24.48025 Z M1,18.29025 L4,19.97625 L4,23.96025 L1,22.34825 L1,18.29025 Z M4.5,15.73125 L7.349,17.26225 L4.325,19.01125 L1.427,17.38225 L4.5,15.73125 Z M9.479,12.81825 L12.602,14.49625 L11.479,18.02325 L9,18.02325 L9,17.31325 C9,17.12925 8.898,16.96025 8.736,16.87325 L7.343,16.12425 L9.479,12.81825 Z M9.068,3.98625 L9,4.10525 L9,4.02325 L9.068,3.98625 Z M14.5,1.06825 L19.258,3.62425 L14.653,6.28625 L9.9,3.54025 L14.5,1.06825 Z M15,14.11225 L15,7.24125 L20,4.35125 L20,11.42525 L15,14.11225 Z M20.711,16.06925 L20.721,16.08925 L19.264,16.87325 C19.102,16.96025 19,17.12925 19,17.31325 L19,18.02325 L17.109,18.02325 L16.268,14.56625 L19.056,13.06825 L20.711,16.06925 Z M20,22.02325 L20,19.02325 L20,18.30025 L23,19.98625 L23,23.96025 L20,22.34825 L20,22.02325 Z M14.264,15.38925 C14.337,15.42925 14.419,15.44925 14.5,15.44925 C14.581,15.44925 14.663,15.42925 14.736,15.38925 L15.359,15.05525 L16.081,18.02325 L12.529,18.02325 L13.498,14.97825 L14.264,15.38925 Z M9,11.42525 L9,4.17525 L14,7.06425 L14,14.11225 L9,11.42525 Z M9,19.02325 L11.161,19.02325 L10.207,22.02325 L9,22.02325 L9,19.02325 Z M8,22.34825 L5,23.96025 L5,19.77625 L8,18.04225 L8,19.02325 L8,22.02325 L8,22.34825 Z M17.297,23.02325 L18.27,27.02425 L9.665,27.02425 L10.938,23.02325 L17.297,23.02325 Z M11.256,22.02325 L12.211,19.02325 L16.324,19.02325 L17.054,22.02325 L11.256,22.02325 Z M18.082,22.02325 L17.353,19.02325 L19,19.02325 L19,22.02325 L18.082,22.02325 Z M23.5,15.73125 L26.349,17.26225 L23.316,19.01625 L20.418,17.38725 L23.5,15.73125 Z M27.736,16.87325 L23.736,14.72325 C23.59,14.64425 23.41,14.64425 23.264,14.72325 L21.594,15.62125 L19.936,12.59525 L20.736,12.16525 C20.898,12.07825 21,11.90825 21,11.72425 L21,3.72425 C21,3.54025 20.898,3.37125 20.736,3.28425 L14.736,0.05925 C14.59,-0.01975 14.41,-0.01975 14.264,0.05925 L8.264,3.28425 C8.102,3.37125 8,3.54025 8,3.72425 L8,11.72425 C8,11.90825 8.102,12.07825 8.264,12.16525 L8.595,12.34325 L6.459,15.64925 L4.736,14.72325 C4.59,14.64425 4.41,14.64425 4.264,14.72325 L0.264,16.87325 C0.102,16.96025 0,17.12925 0,17.31325 L0,22.64725 C0,22.83125 0.102,23.00025 0.264,23.08725 L1.976,24.00725 L0.152,27.27425 C0.066,27.42725 0.067,27.61425 0.155,27.76625 C0.242,27.91925 0.402,28.01425 0.578,28.01825 L27.159,28.02425 L27.346,28.02325 C27.521,28.02325 27.684,27.93025 27.774,27.77925 C27.864,27.62925 27.868,27.44225 27.785,27.28725 L26.029,24.00425 L27.736,23.08725 C27.898,23.00025 28,22.83125 28,22.64725 L28,17.31325 C28,17.12925 27.898,16.96025 27.736,16.87325 L27.736,16.87325 Z" id="Fill-5"></path>
        </g>
    </g>
</svg>