<?xml version="1.0" encoding="UTF-8"?>
<svg width="48px" height="48px" viewBox="0 0 48 48" version="1.1" xmlns="http://www.w3.org/2000/svg" xmlns:xlink="http://www.w3.org/1999/xlink">
    <title>Icon-Resource/Compute/Res_Amazon-EC2_C7gn-Instance_48_Light</title>
    <g id="Icon-Resource/Compute/Res_Amazon-EC2_C7gn-Instance_48" stroke="none" stroke-width="1" fill="none" fill-rule="evenodd">
        <path d="M32.07,27.729 L30.772,27.729 L30.772,22.13 L31.85,22.13 L31.982,22.746 C32.672,22.226 33.39,21.965 34.138,21.965 C34.674,21.965 35.08,22.106 35.359,22.389 C35.638,22.671 35.777,23.08 35.777,23.615 L35.777,27.729 L34.479,27.729 L34.479,24.022 C34.479,23.663 34.406,23.4 34.259,23.235 C34.112,23.07 33.878,22.988 33.555,22.988 C33.071,22.988 32.576,23.149 32.07,23.472 L32.07,27.729 Z M25.916,23.417 C26.132,23.124 26.464,22.977 26.911,22.977 C27.344,22.977 27.751,23.109 28.132,23.373 L28.132,26.189 C27.743,26.475 27.333,26.618 26.9,26.618 C26.028,26.618 25.591,26.002 25.591,24.77 C25.591,24.162 25.699,23.71 25.916,23.417 L25.916,23.417 Z M26.515,27.619 C27.116,27.619 27.655,27.414 28.132,27.003 L28.132,27.476 C28.132,28.048 28.008,28.46 27.758,28.713 C27.509,28.966 27.11,29.093 26.559,29.093 C26.016,29.093 25.404,28.979 24.722,28.752 L24.722,29.676 C25.326,29.977 25.967,30.127 26.645,30.127 C27.537,30.127 28.224,29.885 28.706,29.401 C29.189,28.917 29.43,28.231 29.43,27.344 L29.43,22.13 L28.33,22.13 L28.22,22.636 C27.751,22.189 27.197,21.965 26.559,21.965 C26.09,21.965 25.683,22.086 25.339,22.328 C24.993,22.57 24.73,22.905 24.546,23.334 C24.363,23.764 24.271,24.257 24.271,24.814 C24.271,25.665 24.475,26.345 24.882,26.854 C25.289,27.364 25.833,27.619 26.515,27.619 L26.515,27.619 Z M22.027,21.151 L18.056,21.151 L18.056,20.106 L23.336,20.106 L23.336,21.107 L20.443,27.729 L19.079,27.729 L22.027,21.151 Z M12.661,26.893 C12.041,26.248 11.731,25.294 11.731,24.033 C11.731,22.735 12.052,21.736 12.694,21.036 C13.336,20.335 14.258,19.985 15.46,19.985 C16.12,19.985 16.729,20.084 17.286,20.282 L17.286,21.382 C16.554,21.228 15.982,21.151 15.568,21.151 C14.733,21.151 14.112,21.367 13.705,21.8 C13.299,22.233 13.095,22.9 13.095,23.802 L13.095,24.066 C13.095,24.961 13.297,25.623 13.699,26.051 C14.102,26.48 14.717,26.695 15.545,26.695 C16.011,26.695 16.628,26.604 17.396,26.42 L17.396,27.52 C16.817,27.747 16.157,27.861 15.416,27.861 C14.199,27.861 13.28,27.539 12.661,26.893 L12.661,26.893 Z M9,39 L39,39 L39,9 L9,9 L9,39 Z M46,13 L46,11 L41,11 L41,8 C41,7.448 40.552,7 40,7 L37,7 L37,2 L35,2 L35,7 L31,7 L31,2 L29,2 L29,7 L25,7 L25,2 L23,2 L23,7 L19,7 L19,2 L17,2 L17,7 L13,7 L13,2 L11,2 L11,7 L8,7 C7.447,7 7,7.448 7,8 L7,11 L2,11 L2,13 L7,13 L7,17 L2,17 L2,19 L7,19 L7,23 L2,23 L2,25 L7,25 L7,29 L2,29 L2,31 L7,31 L7,35 L2,35 L2,37 L7,37 L7,40 C7,40.552 7.447,41 8,41 L11,41 L11,46 L13,46 L13,41 L17,41 L17,46 L19,46 L19,41 L23,41 L23,46 L25,46 L25,41 L29,41 L29,46 L31,46 L31,41 L35,41 L35,46 L37,46 L37,41 L40,41 C40.552,41 41,40.552 41,40 L41,37 L46,37 L46,35 L41,35 L41,31 L46,31 L46,29 L41,29 L41,25 L46,25 L46,23 L41,23 L41,19 L46,19 L46,17 L41,17 L41,13 L46,13 Z" id="Fill-1" fill="#D45B07"></path>
    </g>
</svg>