<?xml version="1.0" encoding="UTF-8"?>
<svg width="48px" height="48px" viewBox="0 0 48 48" version="1.1" xmlns="http://www.w3.org/2000/svg" xmlns:xlink="http://www.w3.org/1999/xlink">
    <title>Icon-Resource/Compute/Res_Amazon-EC2_R6a-Instance_48_Light</title>
    <g id="Icon-Resource/Compute/Res_Amazon-EC2_R6a-Instance_48" stroke="none" stroke-width="1" fill="none" fill-rule="evenodd">
        <path d="M9,39 L39,39 L39,9 L9,9 L9,39 Z M46,13 L46,11 L41,11 L41,8 C41,7.448 40.552,7 40,7 L37,7 L37,2 L35,2 L35,7 L31,7 L31,2 L29,2 L29,7 L25,7 L25,2 L23,2 L23,7 L19,7 L19,2 L17,2 L17,7 L13,7 L13,2 L11,2 L11,7 L8,7 C7.448,7 7,7.448 7,8 L7,11 L2,11 L2,13 L7,13 L7,17 L2,17 L2,19 L7,19 L7,23 L2,23 L2,25 L7,25 L7,29 L2,29 L2,31 L7,31 L7,35 L2,35 L2,37 L7,37 L7,40 C7,40.552 7.448,41 8,41 L11,41 L11,46 L13,46 L13,41 L17,41 L17,46 L19,46 L19,41 L23,41 L23,46 L25,46 L25,41 L29,41 L29,46 L31,46 L31,41 L35,41 L35,46 L37,46 L37,41 L40,41 C40.552,41 41,40.552 41,40 L41,37 L46,37 L46,35 L41,35 L41,31 L46,31 L46,29 L41,29 L41,25 L46,25 L46,23 L41,23 L41,19 L46,19 L46,17 L41,17 L41,13 L46,13 Z M33.315,27.091 C33.042,27.306 32.76,27.471 32.469,27.588 C32.178,27.705 31.901,27.763 31.637,27.763 C31.318,27.763 31.068,27.672 30.886,27.49 C30.704,27.308 30.614,27.054 30.614,26.727 C30.614,25.971 31.086,25.593 32.033,25.593 C32.406,25.593 32.833,25.645 33.315,25.747 L33.315,27.091 Z M31.691,24.557 C30.852,24.557 30.182,24.762 29.683,25.173 C29.183,25.584 28.934,26.134 28.934,26.825 C28.934,27.45 29.137,27.959 29.542,28.351 C29.949,28.743 30.478,28.939 31.131,28.939 C31.523,28.939 31.917,28.859 32.314,28.701 C32.711,28.542 33.073,28.323 33.399,28.043 L33.525,28.729 L34.968,28.729 L34.968,23.703 C34.968,22.91 34.747,22.326 34.305,21.953 C33.863,21.58 33.176,21.393 32.246,21.393 C31.732,21.393 31.222,21.444 30.713,21.547 C30.205,21.65 29.775,21.79 29.423,21.967 L29.423,23.129 C30.366,22.821 31.202,22.667 31.93,22.667 C32.443,22.667 32.802,22.76 33.007,22.947 C33.213,23.134 33.315,23.465 33.315,23.941 L33.315,24.767 C32.728,24.627 32.186,24.557 31.691,24.557 L31.691,24.557 Z M24.647,24.137 C25.204,24.137 25.628,24.284 25.919,24.578 C26.211,24.872 26.357,25.299 26.357,25.859 C26.357,26.41 26.216,26.839 25.933,27.147 C25.651,27.455 25.258,27.609 24.757,27.609 C23.526,27.609 22.879,26.615 22.815,24.627 C23.435,24.3 24.046,24.137 24.647,24.137 L24.647,24.137 Z M24.635,28.939 C25.326,28.939 25.93,28.801 26.448,28.526 C26.966,28.251 27.363,27.873 27.638,27.392 C27.914,26.912 28.051,26.363 28.051,25.747 C28.051,24.87 27.788,24.167 27.262,23.64 C26.735,23.113 26.038,22.849 25.17,22.849 C24.339,22.849 23.554,23.087 22.815,23.563 C22.861,22.396 23.092,21.533 23.507,20.973 C23.922,20.413 24.549,20.133 25.388,20.133 C25.701,20.133 26.044,20.168 26.418,20.238 C26.792,20.308 27.121,20.399 27.407,20.511 L27.407,19.293 C27.118,19.144 26.77,19.025 26.364,18.936 C25.958,18.847 25.554,18.803 25.153,18.803 C23.875,18.803 22.883,19.279 22.178,20.231 C21.474,21.183 21.121,22.518 21.121,24.235 C21.121,25.784 21.417,26.956 22.01,27.749 C22.603,28.542 23.478,28.939 24.635,28.939 L24.635,28.939 Z M14.877,20.343 L16.618,20.343 C17.679,20.343 18.209,20.88 18.209,21.953 C18.209,23.026 17.666,23.563 16.577,23.563 L14.877,23.563 L14.877,20.343 Z M14.877,24.879 L16.585,24.879 L18.854,28.729 L20.562,28.729 L18.056,24.585 C18.671,24.342 19.141,23.992 19.462,23.535 C19.785,23.078 19.945,22.532 19.945,21.897 C19.945,21.02 19.659,20.322 19.084,19.804 C18.51,19.286 17.748,19.027 16.795,19.027 L13.169,19.027 L13.169,28.729 L14.877,28.729 L14.877,24.879 Z" id="Fill-1" fill="#D45B07"></path>
    </g>
</svg>