<?xml version="1.0" encoding="UTF-8"?><svg version="1.1" width="48px" height="48px" viewBox="0 0 48.0 48.0" xmlns="http://www.w3.org/2000/svg" xmlns:xlink="http://www.w3.org/1999/xlink"><defs><clipPath id="i0"><path d="M11,0 L11,5 L15,5 L15,0 L17,0 L17,5 L21,5 L21,0 L23,0 L23,5 L27,5 L27,0 L29,0 L29,5 L33,5 L33,0 L35,0 L35,5 L38,5 C38.552,5 39,5.448 39,6 L39,9 L44,9 L44,11 L39,11 L39,15 L44,15 L44,17 L39,17 L39,21 L44,21 L44,23 L39,23 L39,27 L44,27 L44,29 L39,29 L39,33 L44,33 L44,35 L39,35 L39,38 C39,38.552 38.552,39 38,39 L35,39 L35,44 L33,44 L33,39 L29,39 L29,44 L27,44 L27,39 L23,39 L23,44 L21,44 L21,39 L17,39 L17,44 L15,44 L15,39 L11,39 L11,44 L9,44 L9,39 L6,39 C5.448,39 5,38.552 5,38 L5,35 L0,35 L0,33 L5,33 L5,29 L0,29 L0,27 L5,27 L5,23 L0,23 L0,21 L5,21 L5,17 L0,17 L0,15 L5,15 L5,11 L0,11 L0,9 L5,9 L5,6 C5,5.448 5.448,5 6,5 L9,5 L9,0 L11,0 Z M37,7 L7,7 L7,37 L37,37 L37,7 Z M21.169,17.93 C21.485,17.93 21.802,17.965 22.121,18.035 C22.44,18.104 22.713,18.198 22.94,18.315 L22.94,19.272 C22.716,19.184 22.457,19.112 22.164,19.058 C21.87,19.002 21.6,18.975 21.354,18.975 C20.695,18.975 20.202,19.195 19.876,19.635 C19.55,20.075 19.369,20.753 19.332,21.67 C19.913,21.296 20.53,21.109 21.183,21.109 C21.865,21.109 22.413,21.316 22.826,21.73 C23.24,22.145 23.447,22.697 23.447,23.386 C23.447,23.87 23.338,24.301 23.122,24.679 C22.906,25.056 22.594,25.354 22.187,25.569 C21.78,25.786 21.305,25.894 20.763,25.894 C19.853,25.894 19.165,25.583 18.7,24.959 C18.234,24.336 18.001,23.416 18.001,22.198 C18.001,20.849 18.278,19.8 18.832,19.052 C19.386,18.304 20.165,17.93 21.169,17.93 Z M30.607,19.965 C31.143,19.965 31.549,20.106 31.828,20.389 C32.107,20.671 32.246,21.08 32.246,21.615 L32.246,25.729 L30.948,25.729 L30.948,22.022 C30.948,21.663 30.875,21.4 30.728,21.235 C30.581,21.07 30.347,20.988 30.024,20.988 C29.54,20.988 29.045,21.149 28.539,21.472 L28.539,25.729 L27.241,25.729 L27.241,20.13 L28.319,20.13 L28.451,20.746 C29.141,20.226 29.859,19.965 30.607,19.965 Z M25.834,20.13 L25.834,25.729 L24.536,25.729 L24.536,20.13 L25.834,20.13 Z M14.602,18.106 C15.351,18.106 15.95,18.31 16.401,18.716 C16.852,19.124 17.078,19.672 17.078,20.361 C17.078,20.86 16.951,21.289 16.698,21.648 C16.445,22.007 16.077,22.282 15.593,22.473 L17.561,25.729 L16.22,25.729 L14.437,22.704 L13.096,22.704 L13.096,25.729 L11.753,25.729 L11.753,18.106 Z M20.772,22.121 C20.3,22.121 19.82,22.25 19.332,22.506 C19.383,24.068 19.892,24.849 20.858,24.849 C21.252,24.849 21.56,24.728 21.783,24.486 C22.004,24.244 22.116,23.907 22.116,23.474 C22.116,23.034 22.001,22.699 21.771,22.467 C21.542,22.236 21.209,22.121 20.772,22.121 Z M14.463,19.14 L13.096,19.14 L13.096,21.67 L14.431,21.67 C15.286,21.67 15.713,21.249 15.713,20.405 C15.713,19.562 15.297,19.14 14.463,19.14 Z M25.185,17.71 C25.427,17.71 25.617,17.776 25.757,17.908 C25.896,18.04 25.966,18.224 25.966,18.458 C25.966,18.693 25.896,18.876 25.757,19.008 C25.617,19.14 25.427,19.206 25.185,19.206 C24.943,19.206 24.752,19.14 24.613,19.008 C24.473,18.876 24.404,18.693 24.404,18.458 C24.404,18.224 24.473,18.04 24.613,17.908 C24.752,17.776 24.943,17.71 25.185,17.71 Z"></path></clipPath></defs><g transform="translate(2.0 2.0)"><g clip-path="url(#i0)"><polygon points="0,0 44,0 44,44 0,44 0,0" stroke="none" fill="#D35B06"></polygon></g></g></svg>