<?xml version="1.0" encoding="UTF-8"?><svg version="1.1" width="48px" height="48px" viewBox="0 0 48.0 48.0" xmlns="http://www.w3.org/2000/svg" xmlns:xlink="http://www.w3.org/1999/xlink"><defs><clipPath id="i0"><path d="M11,0 L11,5 L15,5 L15,0 L17,0 L17,5 L21,5 L21,0 L23,0 L23,5 L27,5 L27,0 L29,0 L29,5 L33,5 L33,0 L35,0 L35,5 L38,5 C38.552,5 39,5.448 39,6 L39,9 L44,9 L44,11 L39,11 L39,15 L44,15 L44,17 L39,17 L39,21 L44,21 L44,23 L39,23 L39,27 L44,27 L44,29 L39,29 L39,33 L44,33 L44,35 L39,35 L39,38 C39,38.552 38.552,39 38,39 L35,39 L35,44 L33,44 L33,39 L29,39 L29,44 L27,44 L27,39 L23,39 L23,44 L21,44 L21,39 L17,39 L17,44 L15,44 L15,39 L11,39 L11,44 L9,44 L9,39 L6,39 C5.448,39 5,38.552 5,38 L5,35 L0,35 L0,33 L5,33 L5,29 L0,29 L0,27 L5,27 L5,23 L0,23 L0,21 L5,21 L5,17 L0,17 L0,15 L5,15 L5,11 L0,11 L0,9 L5,9 L5,6 C5,5.448 5.448,5 6,5 L9,5 L9,0 L11,0 Z M37,7 L7,7 L7,37 L37,37 L37,7 Z M18.343,18.639 C18.63,18.639 18.918,18.671 19.208,18.734 C19.499,18.797 19.747,18.882 19.954,18.989 L19.954,19.859 C19.749,19.779 19.514,19.714 19.247,19.664 C18.98,19.614 18.735,19.589 18.511,19.589 C17.912,19.589 17.464,19.789 17.167,20.189 C16.871,20.589 16.706,21.206 16.673,22.039 C17.201,21.699 17.762,21.529 18.355,21.529 C18.976,21.529 19.474,21.717 19.849,22.094 C20.225,22.471 20.414,22.973 20.414,23.599 C20.414,24.039 20.315,24.431 20.118,24.774 C19.922,25.118 19.638,25.387 19.269,25.584 C18.898,25.781 18.467,25.879 17.974,25.879 C17.146,25.879 16.521,25.596 16.099,25.029 C15.675,24.462 15.463,23.625 15.463,22.519 C15.463,21.292 15.715,20.339 16.218,19.659 C16.722,18.979 17.43,18.639 18.343,18.639 Z M28.413,18.329 L28.413,25.729 L27.403,25.729 L27.283,25.239 C26.83,25.639 26.306,25.839 25.713,25.839 C25.073,25.839 24.562,25.601 24.178,25.124 C23.794,24.647 23.603,24.006 23.603,23.199 C23.603,22.666 23.689,22.196 23.863,21.789 C24.036,21.382 24.286,21.064 24.613,20.834 C24.939,20.604 25.326,20.489 25.773,20.489 C26.306,20.489 26.793,20.663 27.233,21.009 L27.233,18.329 L28.413,18.329 Z M32.713,20.489 C33.2,20.489 33.57,20.618 33.823,20.874 C34.076,21.131 34.203,21.502 34.203,21.989 L34.203,25.729 L33.023,25.729 L33.023,22.359 C33.023,22.032 32.957,21.794 32.823,21.644 C32.689,21.494 32.477,21.419 32.183,21.419 C31.743,21.419 31.293,21.566 30.833,21.859 L30.833,25.729 L29.653,25.729 L29.653,20.639 L30.633,20.639 L30.753,21.199 C31.38,20.726 32.033,20.489 32.713,20.489 Z M12.374,18.799 C13.053,18.799 13.598,18.984 14.008,19.354 C14.418,19.724 14.624,20.223 14.624,20.849 C14.624,21.302 14.508,21.692 14.278,22.019 C14.048,22.346 13.713,22.596 13.273,22.769 L15.063,25.729 L13.843,25.729 L12.223,22.979 L11.003,22.979 L11.003,25.729 L9.783,25.729 L9.783,18.799 Z M22.583,20.639 L22.583,25.729 L21.403,25.729 L21.403,20.639 L22.583,20.639 Z M17.982,22.449 C17.552,22.449 17.116,22.566 16.673,22.799 C16.719,24.219 17.181,24.929 18.061,24.929 C18.418,24.929 18.699,24.819 18.9,24.599 C19.103,24.379 19.204,24.072 19.204,23.679 C19.204,23.279 19.099,22.974 18.891,22.764 C18.682,22.554 18.379,22.449 17.982,22.449 Z M26.103,21.419 C25.656,21.419 25.328,21.561 25.118,21.844 C24.908,22.127 24.803,22.562 24.803,23.149 C24.803,24.322 25.229,24.909 26.083,24.909 C26.477,24.909 26.86,24.782 27.233,24.529 L27.233,21.779 C26.893,21.539 26.516,21.419 26.103,21.419 Z M12.247,19.739 L11.003,19.739 L11.003,22.039 L12.218,22.039 C12.995,22.039 13.383,21.656 13.383,20.889 C13.383,20.123 13.004,19.739 12.247,19.739 Z M21.993,18.439 C22.213,18.439 22.386,18.499 22.513,18.619 C22.64,18.739 22.703,18.906 22.703,19.119 C22.703,19.333 22.64,19.499 22.513,19.619 C22.386,19.739 22.213,19.799 21.993,19.799 C21.773,19.799 21.6,19.739 21.473,19.619 C21.346,19.499 21.283,19.333 21.283,19.119 C21.283,18.906 21.346,18.739 21.473,18.619 C21.6,18.499 21.773,18.439 21.993,18.439 Z"></path></clipPath></defs><g transform="translate(2.0 2.0)"><g clip-path="url(#i0)"><polygon points="0,0 44,0 44,44 0,44 0,0" stroke="none" fill="#D35B06"></polygon></g></g></svg>