<?xml version="1.0" encoding="UTF-8"?><svg version="1.1" width="48px" height="48px" viewBox="0 0 48.0 48.0" xmlns="http://www.w3.org/2000/svg" xmlns:xlink="http://www.w3.org/1999/xlink"><defs><clipPath id="i0"><path d="M11,0 L11,5 L15,5 L15,0 L17,0 L17,5 L21,5 L21,0 L23,0 L23,5 L27,5 L27,0 L29,0 L29,5 L33,5 L33,0 L35,0 L35,5 L38,5 C38.552,5 39,5.448 39,6 L39,9 L44,9 L44,11 L39,11 L39,15 L44,15 L44,17 L39,17 L39,21 L44,21 L44,23 L39,23 L39,27 L44,27 L44,29 L39,29 L39,33 L44,33 L44,35 L39,35 L39,38 C39,38.552 38.552,39 38,39 L35,39 L35,44 L33,44 L33,39 L29,39 L29,44 L27,44 L27,39 L23,39 L23,44 L21,44 L21,39 L17,39 L17,44 L15,44 L15,39 L11,39 L11,44 L9,44 L9,39 L6,39 C5.448,39 5,38.552 5,38 L5,35 L0,35 L0,33 L5,33 L5,29 L0,29 L0,27 L5,27 L5,23 L0,23 L0,21 L5,21 L5,17 L0,17 L0,15 L5,15 L5,11 L0,11 L0,9 L5,9 L5,6 C5,5.448 5.448,5 6,5 L9,5 L9,0 L11,0 Z M37,7 L7,7 L7,37 L37,37 L37,7 Z M22.423,17.93 C22.738,17.93 23.056,17.965 23.375,18.035 C23.693,18.104 23.967,18.198 24.194,18.315 L24.194,19.272 C23.969,19.184 23.71,19.112 23.417,19.058 C23.124,19.002 22.854,18.975 22.607,18.975 C21.948,18.975 21.456,19.195 21.129,19.635 C20.803,20.075 20.622,20.753 20.586,21.67 C21.167,21.296 21.783,21.109 22.437,21.109 C23.118,21.109 23.666,21.316 24.08,21.73 C24.493,22.145 24.7,22.697 24.7,23.386 C24.7,23.87 24.592,24.301 24.376,24.679 C24.159,25.056 23.848,25.354 23.44,25.569 C23.034,25.786 22.559,25.894 22.016,25.894 C21.106,25.894 20.419,25.583 19.954,24.959 C19.488,24.336 19.255,23.416 19.255,22.198 C19.255,20.849 19.532,19.8 20.085,19.052 C20.639,18.304 21.418,17.93 22.423,17.93 Z M31.861,19.965 C32.397,19.965 32.803,20.106 33.082,20.389 C33.361,20.671 33.5,21.08 33.5,21.615 L33.5,25.729 L32.202,25.729 L32.202,22.022 C32.202,21.663 32.129,21.4 31.982,21.235 C31.835,21.07 31.601,20.988 31.278,20.988 C30.794,20.988 30.299,21.149 29.793,21.472 L29.793,25.729 L28.495,25.729 L28.495,20.13 L29.573,20.13 L29.705,20.746 C30.395,20.226 31.113,19.965 31.861,19.965 Z M27.087,20.13 L27.087,25.729 L25.789,25.729 L25.789,20.13 L27.087,20.13 Z M11.995,18.106 L14.283,22.649 L16.615,18.106 L18.067,18.106 L18.067,25.729 L16.835,25.729 L16.835,20.02 L14.855,23.815 L13.645,23.815 L11.731,20.042 L11.731,25.729 L10.499,25.729 L10.499,18.106 L11.995,18.106 Z M22.026,22.121 C21.553,22.121 21.073,22.25 20.586,22.506 C20.636,24.068 21.145,24.849 22.112,24.849 C22.506,24.849 22.814,24.728 23.036,24.486 C23.258,24.244 23.369,23.907 23.369,23.474 C23.369,23.034 23.254,22.699 23.025,22.467 C22.796,22.236 22.463,22.121 22.026,22.121 Z M26.438,17.71 C26.68,17.71 26.871,17.776 27.01,17.908 C27.149,18.04 27.219,18.224 27.219,18.458 C27.219,18.693 27.149,18.876 27.01,19.008 C26.871,19.14 26.68,19.206 26.438,19.206 C26.196,19.206 26.005,19.14 25.866,19.008 C25.727,18.876 25.657,18.693 25.657,18.458 C25.657,18.224 25.727,18.04 25.866,17.908 C26.005,17.776 26.196,17.71 26.438,17.71 Z"></path></clipPath></defs><g transform="translate(2.0 2.0)"><g clip-path="url(#i0)"><polygon points="0,0 44,0 44,44 0,44 0,0" stroke="none" fill="#D35B06"></polygon></g></g></svg>