<?xml version="1.0" encoding="UTF-8"?><svg version="1.1" width="48px" height="48px" viewBox="0 0 48.0 48.0" xmlns="http://www.w3.org/2000/svg" xmlns:xlink="http://www.w3.org/1999/xlink"><defs><clipPath id="i0"><path d="M11,0 L11,5 L15,5 L15,0 L17,0 L17,5 L21,5 L21,0 L23,0 L23,5 L27,5 L27,0 L29,0 L29,5 L33,5 L33,0 L35,0 L35,5 L38,5 C38.552,5 39,5.448 39,6 L39,9 L44,9 L44,11 L39,11 L39,15 L44,15 L44,17 L39,17 L39,21 L44,21 L44,23 L39,23 L39,27 L44,27 L44,29 L39,29 L39,33 L44,33 L44,35 L39,35 L39,38 C39,38.552 38.552,39 38,39 L35,39 L35,44 L33,44 L33,39 L29,39 L29,44 L27,44 L27,39 L23,39 L23,44 L21,44 L21,39 L17,39 L17,44 L15,44 L15,39 L11,39 L11,44 L9,44 L9,39 L6,39 C5.448,39 5,38.552 5,38 L5,35 L0,35 L0,33 L5,33 L5,29 L0,29 L0,27 L5,27 L5,23 L0,23 L0,21 L5,21 L5,17 L0,17 L0,15 L5,15 L5,11 L0,11 L0,9 L5,9 L5,6 C5,5.448 5.448,5 6,5 L9,5 L9,0 L11,0 Z M37,7 L7,7 L7,37 L37,37 L37,7 Z M21.048,17.93 C21.363,17.93 21.681,17.965 22,18.035 C22.318,18.104 22.592,18.198 22.819,18.315 L22.819,19.272 C22.594,19.184 22.335,19.112 22.042,19.058 C21.749,19.002 21.479,18.975 21.232,18.975 C20.573,18.975 20.081,19.195 19.754,19.635 C19.428,20.075 19.247,20.753 19.211,21.67 C19.792,21.296 20.408,21.109 21.062,21.109 C21.743,21.109 22.291,21.316 22.705,21.73 C23.118,22.145 23.325,22.697 23.325,23.386 C23.325,23.87 23.217,24.301 23.001,24.679 C22.784,25.056 22.473,25.354 22.065,25.569 C21.659,25.786 21.184,25.894 20.641,25.894 C19.731,25.894 19.044,25.583 18.579,24.959 C18.113,24.336 17.88,23.416 17.88,22.198 C17.88,20.849 18.157,19.8 18.71,19.052 C19.264,18.304 20.043,17.93 21.048,17.93 Z M15.273,17.985 C15.933,17.985 16.542,18.084 17.099,18.282 L17.099,19.382 C16.367,19.228 15.794,19.151 15.38,19.151 C14.545,19.151 13.924,19.367 13.518,19.8 C13.111,20.233 12.908,20.9 12.908,21.802 L12.908,22.066 C12.908,22.961 13.109,23.623 13.512,24.051 C13.915,24.48 14.53,24.695 15.358,24.695 C15.824,24.695 16.44,24.604 17.209,24.42 L17.209,25.52 C16.63,25.747 15.97,25.861 15.229,25.861 C14.012,25.861 13.093,25.539 12.474,24.893 C11.854,24.248 11.544,23.294 11.544,22.033 C11.544,20.735 11.865,19.736 12.507,19.036 C13.148,18.335 14.07,17.985 15.273,17.985 Z M30.486,19.965 C31.022,19.965 31.428,20.106 31.707,20.389 C31.986,20.671 32.125,21.08 32.125,21.615 L32.125,25.729 L30.827,25.729 L30.827,22.022 C30.827,21.663 30.754,21.4 30.607,21.235 C30.46,21.07 30.226,20.988 29.903,20.988 C29.419,20.988 28.924,21.149 28.418,21.472 L28.418,25.729 L27.12,25.729 L27.12,20.13 L28.198,20.13 L28.33,20.746 C29.02,20.226 29.738,19.965 30.486,19.965 Z M25.712,20.13 L25.712,25.729 L24.414,25.729 L24.414,20.13 L25.712,20.13 Z M20.651,22.121 C20.178,22.121 19.698,22.25 19.211,22.506 C19.261,24.068 19.77,24.849 20.737,24.849 C21.131,24.849 21.439,24.728 21.661,24.486 C21.883,24.244 21.994,23.907 21.994,23.474 C21.994,23.034 21.879,22.699 21.65,22.467 C21.421,22.236 21.088,22.121 20.651,22.121 Z M25.063,17.71 C25.305,17.71 25.496,17.776 25.635,17.908 C25.774,18.04 25.844,18.224 25.844,18.458 C25.844,18.693 25.774,18.876 25.635,19.008 C25.496,19.14 25.305,19.206 25.063,19.206 C24.821,19.206 24.63,19.14 24.491,19.008 C24.352,18.876 24.282,18.693 24.282,18.458 C24.282,18.224 24.352,18.04 24.491,17.908 C24.63,17.776 24.821,17.71 25.063,17.71 Z"></path></clipPath></defs><g transform="translate(2.0 2.0)"><g clip-path="url(#i0)"><polygon points="0,0 44,0 44,44 0,44 0,0" stroke="none" fill="#D35B06"></polygon></g></g></svg>