<?xml version="1.0" encoding="UTF-8"?>
<svg width="48px" height="48px" viewBox="0 0 48 48" version="1.1" xmlns="http://www.w3.org/2000/svg" xmlns:xlink="http://www.w3.org/1999/xlink">
    <title>Icon-Resource/Compute/Res_Amazon-EC2_R7iz-Instance_48_Light</title>
    <g id="Icon-Resource/Compute/Res_Amazon-EC2_R7iz-Instance_48" stroke="none" stroke-width="1" fill="none" fill-rule="evenodd">
        <path d="M34.254,27.729 L29.7,27.729 L29.7,26.772 L32.824,23.12 L29.81,23.12 L29.81,22.13 L34.221,22.13 L34.221,23.087 L31.097,26.739 L34.254,26.739 L34.254,27.729 Z M27.192,27.729 L28.49,27.729 L28.49,22.13 L27.192,22.13 L27.192,27.729 Z M27.269,21.008 C27.129,20.876 27.06,20.693 27.06,20.458 C27.06,20.224 27.129,20.04 27.269,19.908 C27.408,19.776 27.599,19.71 27.841,19.71 C28.083,19.71 28.274,19.776 28.413,19.908 C28.552,20.04 28.622,20.224 28.622,20.458 C28.622,20.693 28.552,20.876 28.413,21.008 C28.274,21.14 28.083,21.206 27.841,21.206 C27.599,21.206 27.408,21.14 27.269,21.008 L27.269,21.008 Z M24.398,21.151 L20.427,21.151 L20.427,20.106 L25.707,20.106 L25.707,21.107 L22.814,27.729 L21.45,27.729 L24.398,21.151 Z M15.312,21.14 L16.68,21.14 C17.513,21.14 17.93,21.562 17.93,22.405 C17.93,23.249 17.503,23.67 16.648,23.67 L15.312,23.67 L15.312,21.14 Z M15.312,24.704 L16.654,24.704 L18.436,27.729 L19.778,27.729 L17.809,24.473 C18.293,24.282 18.661,24.007 18.915,23.648 C19.168,23.289 19.294,22.86 19.294,22.361 C19.294,21.672 19.068,21.124 18.617,20.716 C18.167,20.31 17.567,20.106 16.819,20.106 L13.97,20.106 L13.97,27.729 L15.312,27.729 L15.312,24.704 Z M9,39 L39,39 L39,9 L9,9 L9,39 Z M46,13 L46,11 L41,11 L41,8 C41,7.448 40.552,7 40,7 L37,7 L37,2 L35,2 L35,7 L31,7 L31,2 L29,2 L29,7 L25,7 L25,2 L23,2 L23,7 L19,7 L19,2 L17,2 L17,7 L13,7 L13,2 L11,2 L11,7 L8,7 C7.447,7 7,7.448 7,8 L7,11 L2,11 L2,13 L7,13 L7,17 L2,17 L2,19 L7,19 L7,23 L2,23 L2,25 L7,25 L7,29 L2,29 L2,31 L7,31 L7,35 L2,35 L2,37 L7,37 L7,40 C7,40.552 7.447,41 8,41 L11,41 L11,46 L13,46 L13,41 L17,41 L17,46 L19,46 L19,41 L23,41 L23,46 L25,46 L25,41 L29,41 L29,46 L31,46 L31,41 L35,41 L35,46 L37,46 L37,41 L40,41 C40.552,41 41,40.552 41,40 L41,37 L46,37 L46,35 L41,35 L41,31 L46,31 L46,29 L41,29 L41,25 L46,25 L46,23 L41,23 L41,19 L46,19 L46,17 L41,17 L41,13 L46,13 Z" id="Fill-1" fill="#D45B07"></path>
    </g>
</svg>