<?xml version="1.0" encoding="utf-8"?>
<!-- Generator: Adobe Illustrator 21.1.0, SVG Export Plug-In . SVG Version: 6.00 Build 0)  -->
<svg version="1.1" id="Layer_1" xmlns="http://www.w3.org/2000/svg" xmlns:xlink="http://www.w3.org/1999/xlink" x="0px" y="0px"
	 viewBox="0 0 443.6 63.3" style="enable-background:new 0 0 443.6 63.3;" xml:space="preserve">
<style type="text/css">
	.st0{fill:url(#SVGID_1_);}
	.st1{fill:#FFFFFF;}
</style>
<title>Bitbucket_1-white</title>
<g id="Layer_2">
	<g id="White">
		
			<linearGradient id="SVGID_1_" gradientUnits="userSpaceOnUse" x1="62.1639" y1="32.7042" x2="32.8139" y2="12.8342" gradientTransform="matrix(1 0 0 -1 0 66)">
			<stop  offset="7.000000e-02" style="stop-color:#FFFFFF;stop-opacity:0.4"/>
			<stop  offset="1" style="stop-color:#FFFFFF"/>
		</linearGradient>
		<path class="st0" d="M59.7,25.1H40.9l-3.2,18.4h-13L9.4,61.7c0.5,0.4,1.1,0.7,1.8,0.7h40.7c1,0,1.8-0.7,2-1.7L59.7,25.1z"/>
		<path class="st1" d="M2,6.3c-1.1,0-2,0.9-2,2c0,0.1,0,0.2,0,0.3l8.5,51.5c0.1,0.6,0.4,1.2,0.9,1.6l0,0c0.5,0.4,1.1,0.7,1.8,0.7
			l15.8-18.9h-2.2l-3.5-18.4h38.4l2.7-16.5c0.2-1.1-0.6-2.1-1.7-2.3c-0.1,0-0.2,0-0.3,0L2,6.3z"/>
		<path class="st1" d="M117,4.6c11.8,0,17.5,5.8,17.5,15.1c0,7-3.2,11.3-9.7,12.8c8.5,1.4,12.8,6.1,12.8,14.2
			c0,9.2-6.2,15.6-19.2,15.6H94.6V4.6H117z M102.5,12.1v17.2H116c7.5,0,10.6-3.4,10.6-9s-3.3-8.3-10.6-8.3L102.5,12.1z M102.5,36.4
			v18h16.2c7.6,0,11-2.7,11-8.5c0-6.2-3.3-9.5-11.2-9.5L102.5,36.4z"/>
		<path class="st1" d="M150.6,1.5c2.7-0.2,5.1,1.9,5.3,4.6c0,0.2,0,0.5,0,0.7c0,2.9-2.4,5.3-5.3,5.3c-2.9,0-5.3-2.4-5.3-5.3
			c-0.2-2.7,1.9-5.1,4.6-5.3C150.1,1.5,150.3,1.5,150.6,1.5z M146.7,18.4h7.6v44h-7.6V18.4z"/>
		<path class="st1" d="M183.1,55c1.6,0,3.2-0.3,4.8-0.6v7.3c-1.7,0.5-3.4,0.7-5.1,0.7c-9.4,0-14-5.5-14-13.7V25.4h-7.1v-7h7.1V9.1
			h7.4v9.3h11.7v7h-11.7v23.1C176.2,52.4,178.4,55,183.1,55z"/>
		<path class="st1" d="M219.1,63.3c-6.4,0-11.4-2.9-14-8.6v7.7h-7.6V0h7.6v26.3c2.8-5.8,8.1-8.8,14.9-8.8c11.7,0,17.6,9.9,17.6,22.9
			C237.6,52.8,231.4,63.3,219.1,63.3z M218,24.5c-6.8,0-12.9,4.3-12.9,14.1v3.5c0,9.8,5.5,14.1,12,14.1c8.5,0,12.9-5.6,12.9-15.8
			C230,29.8,225.8,24.5,218,24.5z"/>
		<path class="st1" d="M245.5,18.4h7.6V45c0,7.9,3.2,11.4,10.4,11.4c7,0,11.9-4.7,11.9-13.5V18.4h7.6v44h-7.6v-7.2
			c-2.7,5.1-8.1,8.2-13.9,8.1c-10.1,0-15.9-7-15.9-19.1L245.5,18.4z"/>
		<path class="st1" d="M325.4,61.2c-2.6,1.4-6.7,2-10.7,2c-15.7,0-23-9.5-23-23c0-13.3,7.3-22.8,23-22.8c3.6-0.1,7.2,0.6,10.5,2.1v7
			c-3.1-1.5-6.5-2.2-9.9-2.1c-11.4,0-16.1,7.2-16.1,15.8S303.9,56,315.4,56c3.4,0.1,6.8-0.4,10-1.6L325.4,61.2z"/>
		<path class="st1" d="M334,62.4V0h7.6v39l18.9-20.6h9.9L349.7,40l21.6,22.3H361l-19.4-20.5v20.6H334z"/>
		<path class="st1" d="M396.3,63.3c-16.5,0-23.7-9.5-23.7-23c0-13.3,7.4-22.8,20.8-22.8c13.5,0,19,9.4,19,22.8v3.4h-32.1
			c1.1,7.5,5.9,12.3,16.3,12.3c4.6,0,9.1-0.8,13.4-2.3v7C406.4,62.6,400.8,63.3,396.3,63.3z M380.2,37.3h24.5
			c-0.4-8.2-4.1-12.9-11.7-12.9C385.1,24.4,381,29.6,380.2,37.3L380.2,37.3z"/>
		<path class="st1" d="M438.8,55c1.6,0,3.2-0.3,4.8-0.6v7.3c-1.7,0.5-3.4,0.7-5.1,0.7c-9.4,0-14-5.5-14-13.7V25.4h-7.1v-7h7.1V9.1
			h7.4v9.3h11.7v7h-11.7v23.1C431.9,52.4,434.2,55,438.8,55z"/>
	</g>
</g>
</svg>
