<?xml version="1.0" encoding="UTF-8"?><svg version="1.1" width="48px" height="48px" viewBox="0 0 48.0 48.0" xmlns="http://www.w3.org/2000/svg" xmlns:xlink="http://www.w3.org/1999/xlink"><defs><clipPath id="i0"><path d="M11,0 L11,5 L15,5 L15,0 L17,0 L17,5 L21,5 L21,0 L23,0 L23,5 L27,5 L27,0 L29,0 L29,5 L33,5 L33,0 L35,0 L35,5 L38,5 C38.552,5 39,5.448 39,6 L39,9 L44,9 L44,11 L39,11 L39,15 L44,15 L44,17 L39,17 L39,21 L44,21 L44,23 L39,23 L39,27 L44,27 L44,29 L39,29 L39,33 L44,33 L44,35 L39,35 L39,38 C39,38.552 38.552,39 38,39 L35,39 L35,44 L33,44 L33,39 L29,39 L29,44 L27,44 L27,39 L23,39 L23,44 L21,44 L21,39 L17,39 L17,44 L15,44 L15,39 L11,39 L11,44 L9,44 L9,39 L6,39 C5.448,39 5,38.552 5,38 L5,35 L0,35 L0,33 L5,33 L5,29 L0,29 L0,27 L5,27 L5,23 L0,23 L0,21 L5,21 L5,17 L0,17 L0,15 L5,15 L5,11 L0,11 L0,9 L5,9 L5,6 C5,5.448 5.448,5 6,5 L9,5 L9,0 L11,0 Z M37,7 L7,7 L7,37 L37,37 L37,7 Z M19.483,18.639 C19.769,18.639 20.058,18.671 20.348,18.734 C20.638,18.797 20.886,18.882 21.093,18.989 L21.093,19.859 C20.889,19.779 20.653,19.714 20.387,19.664 C20.119,19.614 19.874,19.589 19.651,19.589 C19.051,19.589 18.603,19.789 18.307,20.189 C18.011,20.589 17.846,21.206 17.813,22.039 C18.341,21.699 18.901,21.529 19.495,21.529 C20.115,21.529 20.613,21.717 20.989,22.094 C21.365,22.471 21.553,22.973 21.553,23.599 C21.553,24.039 21.454,24.431 21.258,24.774 C21.061,25.118 20.778,25.387 20.408,25.584 C20.038,25.781 19.606,25.879 19.113,25.879 C18.286,25.879 17.661,25.596 17.238,25.029 C16.814,24.462 16.603,23.625 16.603,22.519 C16.603,21.292 16.854,20.339 17.358,19.659 C17.861,18.979 18.57,18.639 19.483,18.639 Z M29.553,18.329 L29.553,25.729 L28.543,25.729 L28.423,25.239 C27.97,25.639 27.446,25.839 26.853,25.839 C26.213,25.839 25.702,25.601 25.318,25.124 C24.934,24.647 24.743,24.006 24.743,23.199 C24.743,22.666 24.829,22.196 25.003,21.789 C25.176,21.382 25.426,21.064 25.753,20.834 C26.079,20.604 26.466,20.489 26.913,20.489 C27.446,20.489 27.933,20.663 28.373,21.009 L28.373,18.329 L29.553,18.329 Z M33.853,20.489 C34.34,20.489 34.71,20.618 34.963,20.874 C35.216,21.131 35.343,21.502 35.343,21.989 L35.343,25.729 L34.163,25.729 L34.163,22.359 C34.163,22.032 34.097,21.794 33.963,21.644 C33.829,21.494 33.617,21.419 33.323,21.419 C32.883,21.419 32.433,21.566 31.973,21.859 L31.973,25.729 L30.793,25.729 L30.793,20.639 L31.773,20.639 L31.893,21.199 C32.52,20.726 33.173,20.489 33.853,20.489 Z M10.003,18.799 L12.083,22.929 L14.203,18.799 L15.523,18.799 L15.523,25.729 L14.403,25.729 L14.403,20.539 L12.603,23.989 L11.503,23.989 L9.763,20.559 L9.763,25.729 L8.643,25.729 L8.643,18.799 L10.003,18.799 Z M23.723,20.639 L23.723,25.729 L22.543,25.729 L22.543,20.639 L23.723,20.639 Z M19.122,22.449 C18.692,22.449 18.256,22.566 17.813,22.799 C17.859,24.219 18.321,24.929 19.2,24.929 C19.558,24.929 19.838,24.819 20.04,24.599 C20.242,24.379 20.343,24.072 20.343,23.679 C20.343,23.279 20.239,22.974 20.03,22.764 C19.822,22.554 19.519,22.449 19.122,22.449 Z M27.243,21.419 C26.796,21.419 26.468,21.561 26.258,21.844 C26.048,22.127 25.943,22.562 25.943,23.149 C25.943,24.322 26.369,24.909 27.223,24.909 C27.617,24.909 28,24.782 28.373,24.529 L28.373,21.779 C28.033,21.539 27.656,21.419 27.243,21.419 Z M23.133,18.439 C23.353,18.439 23.526,18.499 23.653,18.619 C23.78,18.739 23.843,18.906 23.843,19.119 C23.843,19.333 23.78,19.499 23.653,19.619 C23.526,19.739 23.353,19.799 23.133,19.799 C22.913,19.799 22.74,19.739 22.613,19.619 C22.486,19.499 22.423,19.333 22.423,19.119 C22.423,18.906 22.486,18.739 22.613,18.619 C22.74,18.499 22.913,18.439 23.133,18.439 Z"></path></clipPath></defs><g transform="translate(2.0 2.0)"><g clip-path="url(#i0)"><polygon points="0,0 44,0 44,44 0,44 0,0" stroke="none" fill="#FF9900"></polygon></g></g></svg>