<?xml version="1.0" encoding="UTF-8"?>
<svg width="48px" height="48px" viewBox="0 0 48 48" version="1.1" xmlns="http://www.w3.org/2000/svg" xmlns:xlink="http://www.w3.org/1999/xlink">
    <title>Icon-Resource/Compute/Res_Amazon-EC2_Inf2-Instance_48_Dark</title>
    <g id="Icon-Resource/Compute/Res_Amazon-EC2_Inf2-Instance_48" stroke="none" stroke-width="1" fill="none" fill-rule="evenodd">
        <path d="M33.4619,27.729 L28.2919,27.729 L28.2919,26.739 C29.3039,25.712 30.0479,24.924 30.5249,24.374 C31.0019,23.824 31.3319,23.38 31.5149,23.043 C31.6979,22.706 31.7899,22.394 31.7899,22.108 C31.7899,21.771 31.6909,21.508 31.4929,21.321 C31.2949,21.134 31.0159,21.041 30.6569,21.041 C30.3409,21.041 29.9989,21.112 29.6289,21.255 C29.2579,21.398 28.8819,21.602 28.5009,21.866 L28.5009,20.788 C29.2019,20.216 29.9749,19.93 30.8219,19.93 C31.2819,19.93 31.6829,20.013 32.0259,20.178 C32.3689,20.342 32.6369,20.579 32.8309,20.887 C33.0239,21.195 33.1209,21.562 33.1209,21.987 C33.1209,22.398 33.0079,22.814 32.7819,23.235 C32.5569,23.657 32.1939,24.138 31.6929,24.676 C31.1919,25.215 30.5019,25.885 29.6229,26.684 L33.4619,26.684 L33.4619,27.729 Z M24.5959,23.12 L23.6169,23.12 L23.6169,22.306 L24.5959,22.163 L24.5959,21.415 C24.5959,20.095 25.2159,19.435 26.4549,19.435 C26.9019,19.435 27.2879,19.505 27.6099,19.644 L27.6099,20.535 C27.1919,20.484 26.9139,20.458 26.7749,20.458 C26.4589,20.458 26.2329,20.519 26.0979,20.64 C25.9619,20.761 25.8939,20.964 25.8939,21.25 L25.8939,22.13 L27.5439,22.13 L27.5439,23.12 L25.8939,23.12 L25.8939,27.729 L24.5959,27.729 L24.5959,23.12 Z M18.9639,27.729 L17.6659,27.729 L17.6659,22.13 L18.7439,22.13 L18.8759,22.746 C19.5659,22.226 20.2839,21.965 21.0319,21.965 C21.5669,21.965 21.9739,22.106 22.2529,22.389 C22.5319,22.671 22.6709,23.08 22.6709,23.615 L22.6709,27.729 L21.3729,27.729 L21.3729,24.022 C21.3729,23.663 21.2999,23.4 21.1529,23.235 C21.0059,23.07 20.7719,22.988 20.4489,22.988 C19.9649,22.988 19.4699,23.149 18.9639,23.472 L18.9639,27.729 Z M14.5859,27.729 L15.9279,27.729 L15.9279,20.106 L14.5859,20.106 L14.5859,27.729 Z M8.9999,39 L38.9999,39 L38.9999,9 L8.9999,9 L8.9999,39 Z M45.9999,13 L45.9999,11 L40.9999,11 L40.9999,8 C40.9999,7.448 40.5519,7 39.9999,7 L36.9999,7 L36.9999,2 L34.9999,2 L34.9999,7 L30.9999,7 L30.9999,2 L28.9999,2 L28.9999,7 L24.9999,7 L24.9999,2 L22.9999,2 L22.9999,7 L18.9999,7 L18.9999,2 L16.9999,2 L16.9999,7 L12.9999,7 L12.9999,2 L10.9999,2 L10.9999,7 L7.9999,7 C7.4479,7 6.9999,7.448 6.9999,8 L6.9999,11 L1.9999,11 L1.9999,13 L6.9999,13 L6.9999,17 L1.9999,17 L1.9999,19 L6.9999,19 L6.9999,23 L1.9999,23 L1.9999,25 L6.9999,25 L6.9999,29 L1.9999,29 L1.9999,31 L6.9999,31 L6.9999,35 L1.9999,35 L1.9999,37 L6.9999,37 L6.9999,40 C6.9999,40.552 7.4479,41 7.9999,41 L10.9999,41 L10.9999,46 L12.9999,46 L12.9999,41 L16.9999,41 L16.9999,46 L18.9999,46 L18.9999,41 L22.9999,41 L22.9999,46 L24.9999,46 L24.9999,41 L28.9999,41 L28.9999,46 L30.9999,46 L30.9999,41 L34.9999,41 L34.9999,46 L36.9999,46 L36.9999,41 L39.9999,41 C40.5519,41 40.9999,40.552 40.9999,40 L40.9999,37 L45.9999,37 L45.9999,35 L40.9999,35 L40.9999,31 L45.9999,31 L45.9999,29 L40.9999,29 L40.9999,25 L45.9999,25 L45.9999,23 L40.9999,23 L40.9999,19 L45.9999,19 L45.9999,17 L40.9999,17 L40.9999,13 L45.9999,13 Z" id="Fill-1" fill="#FF9900"></path>
    </g>
</svg>