<?xml version="1.0" encoding="UTF-8"?>
<svg width="48px" height="48px" viewBox="0 0 48 48" version="1.1" xmlns="http://www.w3.org/2000/svg" xmlns:xlink="http://www.w3.org/1999/xlink">
    <title>Icon-Resource/Compute/Res_Amazon-EC2_Hpc6id-Instance_48_Dark</title>
    <g id="Icon-Resource/Compute/Res_Amazon-EC2_Hpc6id-Instance_48" stroke="none" stroke-width="1" fill="none" fill-rule="evenodd">
        <path d="M33.796,23.231 C33.985,22.976 34.28,22.849 34.683,22.849 C35.055,22.849 35.394,22.957 35.7,23.172 L35.7,25.648 C35.363,25.876 35.019,25.99 34.665,25.99 C33.897,25.99 33.513,25.461 33.513,24.406 C33.513,23.877 33.607,23.486 33.796,23.231 L33.796,23.231 Z M34.332,26.827 C34.866,26.827 35.337,26.647 35.745,26.287 L35.853,26.728 L36.762,26.728 L36.762,20.067 L35.7,20.067 L35.7,22.48 C35.304,22.168 34.866,22.012 34.386,22.012 C33.983,22.012 33.635,22.115 33.342,22.322 C33.047,22.529 32.822,22.815 32.667,23.182 C32.51,23.547 32.433,23.971 32.433,24.451 C32.433,25.177 32.605,25.754 32.95,26.183 C33.295,26.612 33.755,26.827 34.332,26.827 L34.332,26.827 Z M30.786,21.229 C30.671,21.121 30.615,20.971 30.615,20.778 C30.615,20.586 30.671,20.437 30.786,20.329 C30.9,20.221 31.056,20.167 31.254,20.167 C31.452,20.167 31.608,20.221 31.722,20.329 C31.836,20.437 31.893,20.586 31.893,20.778 C31.893,20.971 31.836,21.121 31.722,21.229 C31.608,21.336 31.452,21.391 31.254,21.391 C31.056,21.391 30.9,21.336 30.786,21.229 L30.786,21.229 Z M30.723,26.728 L31.785,26.728 L31.785,22.147 L30.723,22.147 L30.723,26.728 Z M27.914,23.775 C28.272,23.775 28.544,23.87 28.732,24.059 C28.919,24.248 29.013,24.523 29.013,24.882 C29.013,25.237 28.922,25.513 28.74,25.71 C28.559,25.909 28.307,26.007 27.984,26.007 C27.193,26.007 26.777,25.369 26.736,24.09 C27.134,23.88 27.527,23.775 27.914,23.775 L27.914,23.775 Z M27.906,26.862 C28.35,26.862 28.738,26.774 29.071,26.597 C29.404,26.42 29.659,26.177 29.837,25.868 C30.013,25.559 30.102,25.207 30.102,24.811 C30.102,24.247 29.933,23.795 29.594,23.456 C29.256,23.117 28.808,22.948 28.25,22.948 C27.715,22.948 27.211,23.101 26.736,23.407 C26.765,22.657 26.914,22.102 27.18,21.742 C27.447,21.381 27.85,21.202 28.39,21.202 C28.591,21.202 28.812,21.224 29.052,21.269 C29.292,21.314 29.504,21.373 29.688,21.444 L29.688,20.662 C29.502,20.565 29.278,20.489 29.018,20.432 C28.756,20.375 28.497,20.347 28.239,20.347 C27.417,20.347 26.779,20.652 26.326,21.265 C25.873,21.877 25.647,22.735 25.647,23.838 C25.647,24.835 25.838,25.587 26.218,26.098 C26.599,26.607 27.162,26.862 27.906,26.862 L27.906,26.862 Z M22.47,26.214 C22.092,25.807 21.903,25.228 21.903,24.478 C21.903,23.71 22.098,23.113 22.488,22.687 C22.878,22.261 23.424,22.047 24.126,22.047 C24.564,22.047 24.963,22.138 25.323,22.317 L25.323,23.064 C24.921,22.951 24.579,22.894 24.297,22.894 C23.847,22.894 23.515,23.015 23.302,23.258 C23.089,23.501 22.983,23.877 22.983,24.388 L22.983,24.504 C22.983,25.008 23.089,25.381 23.302,25.621 C23.515,25.86 23.847,25.981 24.297,25.981 C24.621,25.981 24.975,25.92 25.359,25.801 L25.359,26.547 C25.005,26.733 24.582,26.827 24.09,26.827 C23.388,26.827 22.848,26.623 22.47,26.214 L22.47,26.214 Z M18.24,23.19 C18.57,22.962 18.93,22.849 19.32,22.849 C19.704,22.849 19.987,22.976 20.171,23.231 C20.353,23.486 20.445,23.877 20.445,24.406 C20.445,24.939 20.352,25.337 20.166,25.598 C19.98,25.859 19.695,25.99 19.311,25.99 C18.933,25.99 18.576,25.873 18.24,25.639 L18.24,23.19 Z M18.24,26.332 C18.414,26.488 18.618,26.609 18.852,26.696 C19.086,26.783 19.329,26.827 19.581,26.827 C19.977,26.827 20.322,26.722 20.616,26.512 C20.91,26.302 21.135,26.012 21.291,25.643 C21.447,25.274 21.525,24.85 21.525,24.37 C21.525,23.649 21.355,23.077 21.016,22.65 C20.677,22.225 20.223,22.012 19.653,22.012 C19.377,22.012 19.111,22.063 18.857,22.165 C18.601,22.267 18.369,22.414 18.159,22.606 L18.06,22.147 L17.178,22.147 L17.178,28.582 L18.24,28.582 L18.24,26.332 Z M12.282,26.728 L11.184,26.728 L11.184,20.491 L12.282,20.491 L12.282,23.109 L15.144,23.109 L15.144,20.491 L16.242,20.491 L16.242,26.728 L15.144,26.728 L15.144,23.992 L12.282,23.992 L12.282,26.728 Z M9,39 L39,39 L39,9 L9,9 L9,39 Z M46,13 L46,11 L41,11 L41,8 C41,7.447 40.552,7 40,7 L37,7 L37,2 L35,2 L35,7 L31,7 L31,2 L29,2 L29,7 L25,7 L25,2 L23,2 L23,7 L19,7 L19,2 L17,2 L17,7 L13,7 L13,2 L11,2 L11,7 L8,7 C7.447,7 7,7.447 7,8 L7,11 L2,11 L2,13 L7,13 L7,17 L2,17 L2,19 L7,19 L7,23 L2,23 L2,25 L7,25 L7,29 L2,29 L2,31 L7,31 L7,35 L2,35 L2,37 L7,37 L7,40 C7,40.552 7.447,41 8,41 L11,41 L11,46 L13,46 L13,41 L17,41 L17,46 L19,46 L19,41 L23,41 L23,46 L25,46 L25,41 L29,41 L29,46 L31,46 L31,41 L35,41 L35,46 L37,46 L37,41 L40,41 C40.552,41 41,40.552 41,40 L41,37 L46,37 L46,35 L41,35 L41,31 L46,31 L46,29 L41,29 L41,25 L46,25 L46,23 L41,23 L41,19 L46,19 L46,17 L41,17 L41,13 L46,13 Z" id="Fill-1" fill="#FF9900"></path>
    </g>
</svg>