<svg xmlns="http://www.w3.org/2000/svg" xmlns:xlink="http://www.w3.org/1999/xlink" viewBox="0 0 375.77 80.08"><defs><style>.cls-1{fill:#fff;}.cls-2{fill:url(#linear-gradient);}</style><linearGradient id="linear-gradient" x1="1.19" y1="34.25" x2="45.08" y2="47.22" gradientUnits="userSpaceOnUse"><stop offset="0" stop-color="#fff" stop-opacity="0.4"/><stop offset="1" stop-color="#fff"/></linearGradient></defs><title>Fisheye_1-white</title><g id="Layer_2" data-name="Layer 2"><g id="White"><path class="cls-1" d="M70.35,32.92a2,2,0,0,0,0-1.77C67.89,26.2,54.2,2.71,33.12,2.71c-11.19,0-20,7-20,17,0,7.64,5.24,13.2,11.44,13.2A10.76,10.76,0,0,0,35.64,22.15a7.24,7.24,0,0,0-.29-2.06c5,2.65,10,7.71,13.15,12.22q-.33.59-.69,1.18H70.07Z"/><path class="cls-2" d="M48.48,32.34C45,38.49,39.63,45,31.62,45h0A12.68,12.68,0,0,1,19.24,34.17a2,2,0,0,0-2-1.72H2a2,2,0,0,0-2,2.13A31.39,31.39,0,0,0,31.5,64.22h0c19,0,30.26-13.66,38.85-31.31a2,2,0,0,0,.17-.58Z"/><path class="cls-1" d="M134.92,4.58v7.57H105.71V33.26h26.22v7.57H105.71V62.39H97.79V4.58Z"/><path class="cls-1" d="M146.1,1.5a4.94,4.94,0,0,1,5.28,5.28,5.28,5.28,0,0,1-10.56,0A4.94,4.94,0,0,1,146.1,1.5Zm-3.87,16.9h7.57v44h-7.57Z"/><path class="cls-1" d="M175.05,63.27A33.9,33.9,0,0,1,159.74,60V52a34.4,34.4,0,0,0,15.66,4.31c5.81,0,8.8-2.38,8.8-5.81s-2.55-5.28-10.91-7.3c-9.77-2.37-13.9-6.16-13.9-13.38,0-7.66,5.9-12.32,15.93-12.32a31.24,31.24,0,0,1,14.17,3.17v7.83c-5.28-2.64-9.59-4-14.25-4-5.54,0-8.54,1.94-8.54,5.37,0,3.08,2.11,5,10.21,7,9.77,2.38,14.7,6,14.7,13.64C191.6,57.73,186.84,63.27,175.05,63.27Z"/><path class="cls-1" d="M237.71,62.39h-7.57V37.93c0-9.06-3.17-13.55-10.38-13.55-7,0-11.88,4.66-11.88,13.55V62.39h-7.57V0h7.57V25.7a16.07,16.07,0,0,1,14.52-8.18c9.86,0,15.31,6.69,15.31,19.1Z"/><path class="cls-1" d="M269.39,63.27c-16.46,0-23.67-9.5-23.67-23,0-13.29,7.39-22.79,20.77-22.79,13.55,0,19,9.42,19,22.79v3.43H253.37c1.06,7.48,5.9,12.32,16.28,12.32A39,39,0,0,0,283,53.68v7C279.42,62.57,273.87,63.27,269.39,63.27Zm-16.1-26h24.55c-.44-8.18-4.14-12.85-11.7-12.85C258.12,24.38,254.07,29.57,253.28,37.22Z"/><path class="cls-1" d="M289.54,18.39h8.1l14.08,37.66,14.08-37.66h8.1L317.26,61c-4.93,12.58-7.74,19.09-18.92,19.09a20,20,0,0,1-8.1-1.23V72.33a27.12,27.12,0,0,0,7.66,1.06c6.16,0,8.89-4.22,12.5-13.82h-4.93Z"/><path class="cls-1" d="M359.67,63.27c-16.46,0-23.67-9.5-23.67-23,0-13.29,7.39-22.79,20.77-22.79,13.55,0,19,9.42,19,22.79v3.43H343.66c1.06,7.48,5.9,12.32,16.28,12.32a39,39,0,0,0,13.38-2.37v7C369.7,62.57,364.16,63.27,359.67,63.27Zm-16.1-26h24.55c-.44-8.18-4.14-12.85-11.7-12.85C348.41,24.38,344.36,29.57,343.57,37.22Z"/></g></g></svg>