<svg id="Logo" xmlns="http://www.w3.org/2000/svg" viewBox="0 0 529.7 150">
  <title>logo_Hub</title>
  <g>
    <g>
      <g>
        <rect y="6.12" width="141.87" height="141.87"/>
        <rect x="13.3" y="121.39" width="53.2" height="8.87" fill="#fff"/>
      </g>
      <g>
        <path d="M198.53,148.88h7.8v14h14.38v-14h7.8v35.44h-7.8V170.1H206.33v14.23h-7.8V148.88Z" transform="translate(-185.15 -125)" fill="#fff"/>
        <path d="M234.23,148.88h16.45c4.05,0,7.24,1.11,9.27,3.14a8.13,8.13,0,0,1,2.43,6v0.1a8.24,8.24,0,0,1-4.66,7.65c4.1,1.57,6.63,3.95,6.63,8.71v0.1c0,6.48-5.27,9.72-13.27,9.72H234.23V148.88Zm20.4,10.48c0-2.33-1.82-3.65-5.11-3.65h-7.7v7.49H249c3.44,0,5.62-1.11,5.62-3.75v-0.1Zm-3.8,10.33h-9v7.8h9.27c3.44,0,5.52-1.21,5.52-3.85v-0.1C256.61,171.16,254.84,169.69,250.84,169.69Z" transform="translate(-185.15 -125)" fill="#fff"/>
      </g>
    </g>
    <g>
      <path d="M362.37,131.08h31.22v56.15h57.57V131.08h31.22V273H451.15V216H393.58v57H362.37V131.08Z" transform="translate(-185.15 -125)"/>
      <path d="M490.87,234.66V164.32h30.81v60.61c0,14.6,6.89,22.09,18.65,22.09s19.26-7.5,19.26-22.09V164.32H590.4V273H559.59V257.57c-7.09,9.12-16.22,17.43-31.82,17.43C504.45,275,490.87,259.59,490.87,234.66Z" transform="translate(-185.15 -125)"/>
      <path d="M631.54,258.78V273H600.73V125h30.81v54.93c7.5-10.14,17.84-17.64,33.85-17.64,25.34,0,49.46,19.86,49.46,56.15v0.41c0,36.28-23.72,56.15-49.46,56.15C649,275,638.83,267.5,631.54,258.78ZM684,218.85v-0.41c0-18-12.16-30-26.56-30s-26.35,12-26.35,30v0.41c0,18,12,30,26.35,30S684,237.1,684,218.85Z" transform="translate(-185.15 -125)"/>
    </g>
  </g>
</svg>
