<svg viewBox="0 0 636.59 179.43" xmlns="http://www.w3.org/2000/svg"><path d="m149.72 97.08l-6.25-19.21-12.38-38.11a2.14 2.14 0 0 0-4.06 0l-12.36 38.09h-41.11l-12.37-38.09a2.14 2.14 0 0 0-4.06 0l-12.34 38.09-6.26 19.23a4.26 4.26 0 0 0 1.54 4.76l54 39.27 54-39.27a4.27 4.27 0 0 0 1.56-4.76" fill="#fc6d26"/><path d="m94.13 141.09h0l20.55-63.24h-41.1z" fill="#e24329"/><path d="m94.12 141.09l-20.56-63.25h-28.77l49.33 63.24z" fill="#fc6d26"/><path d="m44.78 77.87h0l-6.26 19.21a4.26 4.26 0 0 0 1.54 4.76l54 39.27z" fill="#fca326"/><path d="m44.78 77.87h28.8l-12.39-38.09a2.14 2.14 0 0 0-4.06 0z" fill="#e24329"/><path d="m94.13 141.09l20.55-63.24h28.8z" fill="#fc6d26"/><path d="m143.46 77.87h0l6.25 19.21a4.26 4.26 0 0 1-1.54 4.76l-54 39.25 49.33-63.22z" fill="#fca326"/><path d="m143.48 77.87h-28.8l12.32-38.09a2.14 2.14 0 0 1 4.06 0l12.37 38.09z" fill="#e24329"/><path d="m0 0h636.59v179.43h-636.59z" fill="none"/><path d="m273.34 64.49h-6.76v50.42h27.42v-6.24h-20.63v-44.18z" fill="#8c929d"/><path d="m320.07 106.06a11.54 11.54 0 0 1-8.38 3.54c-5.15 0-7.23-2.54-7.23-5.86 0-5 3.47-7.38 10.86-7.38a32.47 32.47 0 0 1 4.78.37v9.34zm-7-30.56a22.4 22.4 0 0 0-14.4 5.18l2.39 4.16a20.7 20.7 0 0 1 11-3.23c5.55 0 8 2.85 8 7.63v2.45a30.85 30.85 0 0 0-4.68-.37c-11.85 0-17.87 4.16-17.87 12.84 0 7.79 4.78 11.7 12 11.7 4.87 0 9.56-2.23 11.17-5.86l1.24 4.93h4.78v-25.81c0-8.16-3.57-13.62-13.65-13.62z" fill="#8c929d"/><path d="m348.54 109.82a15.77 15.77 0 0 1-6.45-1.09v-23.29a13.33 13.33 0 0 1 8.78-3.32c6.55 0 9.06 4.62 9.06 12.1 0 10.61-4.06 15.61-11.39 15.61m2.85-34.31a12.39 12.39 0 0 0-9.31 4.13v-6.53-8.63h-6.61v49.18a34.17 34.17 0 0 0 12.78 2.14c12.63 0 18.71-8.07 18.71-22 0-11-5.65-18.31-15.57-18.31" fill="#8c929d"/><path d="m199.7 70a19 19 0 0 1 12.38 4l2.92-5.1a22.53 22.53 0 0 0-15-5.34c-14.4 0-24.48 8.78-24.48 26.5 0 18.55 10.89 25.78 23.33 25.78a39.65 39.65 0 0 0 15-2.92l-.16-19.83v-6.22h-18.43v6.23h11.79l.16 15a18.41 18.41 0 0 1-7.85 1.4c-10 0-16.69-6.3-16.69-19.55 0-13.5 6.89-20 17-20" fill="#8c929d"/><path d="m247.33 64.48h-6.61v8.47 29.26c0 8.16 3.54 13.62 13.62 13.62a21.76 21.76 0 0 0 4.06-.37v-5.93a19.35 19.35 0 0 1-3.07.22c-5.55 0-8-2.85-8-7.63v-20.17h11.08v-5.53h-11.05v-11.94z" fill="#8c929d"/><path d="m223.92 114.9h6.61v-38.47h-6.61z" fill="#8c929d"/><path d="m223.92 71.13h6.61v-6.61h-6.61z" fill="#8c929d"/><path d="m375.56 67.35h12.55v17.65h14.15v-17.65h12.54v47.41h-12.54v-18.82h-14.15v18.82h-12.55z" fill="#8c929d"/><path d="m440.47 77.41c9.34 0 18.09 7 18.09 19.11s-8.75 19.11-18.09 19.11-18.09-7-18.09-19.11 8.75-19.11 18.09-19.11zm0 28.15c3.79 0 5.25-3.5 5.25-9s-1.46-9-5.25-9-5.25 3.5-5.25 9 1.45 9.01 5.25 9.01z" fill="#8c929d"/><path d="m467.3 102.79c3.35 2.48 6.35 3.65 8.9 3.65s3.65-.73 3.65-2.19c0-1.9-3.36-2.77-7-4.23-4.23-1.68-9.19-4.81-9.19-10.79 0-7.15 5.83-11.82 14.44-11.82a21.59 21.59 0 0 1 13.42 4.81l-5.52 7.45c-2.63-1.9-5.18-3.06-7.44-3.06s-3.21.58-3.21 2c0 1.9 3.21 2.62 6.86 3.94 4.38 1.6 9.34 4.38 9.34 10.94 0 6.86-5.4 12.11-15.61 12.11a24.32 24.32 0 0 1-14.15-5.1z" fill="#8c929d"/><path d="m499.24 88.06h-4.81v-9.33l5.54-.44 1.46-9.48h10.36v9.48h8.31v9.77h-8.31v12.47c0 4 2 5.33 4.38 5.33a10.46 10.46 0 0 0 3.21-.58l1.9 9a27.5 27.5 0 0 1-8.61 1.31c-9.48 0-13.42-6-13.42-14.88z" fill="#8c929d"/><path d="m541.69 77.41c10.8 0 15.9 7.88 15.9 17.65a22.71 22.71 0 0 1-.51 5h-20.79c1.17 4.67 4.38 6.13 8.46 6.13a15 15 0 0 0 7.44-2.19l4.08 7.44a24.56 24.56 0 0 1-13.27 4.19c-10.65 0-18.82-7-18.82-19.11 0-11.81 8.61-19.11 17.51-19.11zm5.25 15c0-3.06-1.17-5.54-5-5.54-2.77 0-5.1 1.53-5.83 5.54z" fill="#8c929d"/><path d="m577.71 77.41a10.94 10.94 0 0 1 8.46 3.65l-.44-5.25v-11.81h12.55v50.76h-10.21l-.87-3.35h-.29a13.81 13.81 0 0 1-9.19 4.23c-9 0-14.88-7.29-14.88-19.11s7.43-19.12 14.87-19.12zm3.35 28a5 5 0 0 0 4.67-2.63v-13.41a7.39 7.39 0 0 0-5-1.75c-2.63 0-5.11 2.33-5.11 8.75s2.09 9.05 5.45 9.05z" fill="#8c929d"/></svg>