<svg viewBox="0 0 320.53 167.9" xmlns="http://www.w3.org/2000/svg"><path d="m74.16 129h-5.16v38.23h20.83v-4.73h-15.65v-33.5z" fill="#8c929d"/><path d="m109.59 160.47a8.75 8.75 0 0 1-6.35 2.68c-3.9 0-5.48-1.93-5.48-4.45 0-3.79 2.63-5.6 8.23-5.6a24.62 24.62 0 0 1 3.62.28v7.08zm-5.32-23.17a17 17 0 0 0-10.92 3.93l1.81 3.15a15.69 15.69 0 0 1 8.35-2.45c4.21 0 6.07 2.16 6.07 5.79v1.86a23.39 23.39 0 0 0-3.55-.28c-9 0-13.55 3.15-13.55 9.74 0 5.9 3.62 8.87 9.1 8.87 3.69 0 7.25-1.69 8.47-4.45l.94 3.74h3.62v-19.58c0-6.19-2.71-10.33-10.35-10.33z" fill="#8c929d"/><path d="m131.17 163.33a12 12 0 0 1-4.89-.82v-17.67a10.11 10.11 0 0 1 6.66-2.52c5 0 6.87 3.51 6.87 9.17 0 8-3.08 11.83-8.63 11.83m2.16-26a9.39 9.39 0 0 0-7.06 3.13v-4.95-6.54h-5v37.29a25.91 25.91 0 0 0 9.69 1.62c9.57 0 14.18-6.12 14.18-16.68 0-8.35-4.28-13.88-11.81-13.88" fill="#8c929d"/><path d="m18.33 133.1a14.42 14.42 0 0 1 9.39 3l2.21-3.83a17.08 17.08 0 0 0-11.36-4c-10.92-.02-18.57 6.64-18.57 20.07 0 14.07 8.26 19.55 17.69 19.55a30.06 30.06 0 0 0 11.39-2.21l-.12-15v-4.73h-13.96v4.73h8.9l.1 11.38a14 14 0 0 1-6 1.06c-7.57 0-12.66-4.78-12.66-14.82 0-10.23 5.22-15.2 12.91-15.2" fill="#8c929d"/><path d="m54.44 128.94h-5v6.42 22.18c0 6.19 2.68 10.33 10.33 10.33a16.5 16.5 0 0 0 3.08-.28v-4.49a14.67 14.67 0 0 1-2.33.16c-4.21 0-6.07-2.16-6.07-5.79v-15.28h8.4v-4.19h-8.4v-9.06z" fill="#8c929d"/><path d="m36.69 167.18h5v-29.18h-5v29.17z" fill="#8c929d"/><path d="m36.69 134h5v-5h-5z" fill="#8c929d"/><path d="m151.66 131.12h9.51v13.38h10.73v-13.38h9.51v35.95h-9.51v-14.27h-10.72v14.27h-9.51z" fill="#8c929d"/><path d="m200.88 138.75c7.08 0 13.71 5.31 13.71 14.49s-6.64 14.49-13.71 14.49-13.71-5.31-13.71-14.49 6.63-14.49 13.71-14.49zm0 21.35c2.88 0 4-2.65 4-6.86s-1.11-6.86-4-6.86-4 2.65-4 6.86 1.12 6.86 4 6.86z" fill="#8c929d"/><path d="m221.22 158c2.54 1.88 4.81 2.77 6.75 2.77s2.77-.55 2.77-1.66c0-1.44-2.54-2.1-5.31-3.21-3.21-1.27-7-3.65-7-8.18 0-5.42 4.42-9 10.95-9a16.37 16.37 0 0 1 10.18 3.65l-4.2 5.64a10.27 10.27 0 0 0-5.64-2.32c-1.6 0-2.43.44-2.43 1.55 0 1.44 2.43 2 5.2 3 3.32 1.22 7.08 3.32 7.08 8.3 0 5.2-4.09 9.18-11.83 9.18a18.44 18.44 0 0 1-10.74-3.86z" fill="#8c929d"/><path d="m245.44 146.82h-3.65v-7.08l4.2-.33 1.11-7.19h7.9v7.19h6.3v7.41h-6.3v9.46c0 3 1.55 4 3.32 4a7.93 7.93 0 0 0 2.43-.44l1.44 6.86a20.85 20.85 0 0 1-6.53 1c-7.19 0-10.18-4.53-10.18-11.28z" fill="#8c929d"/><path d="m277.62 138.75c8.19 0 12.06 6 12.06 13.38a17.22 17.22 0 0 1-.39 3.76h-15.76c.88 3.54 3.32 4.65 6.41 4.65a11.36 11.36 0 0 0 5.64-1.66l3.1 5.64a18.63 18.63 0 0 1-10.06 3.21c-8.07 0-14.27-5.31-14.27-14.49 0-8.96 6.53-14.49 13.27-14.49zm4 11.39c0-2.32-.88-4.2-3.76-4.2-2.1 0-3.87 1.16-4.42 4.2z" fill="#8c929d"/><path d="m304.94 138.75a8.3 8.3 0 0 1 6.41 2.76l-.33-4v-9h9.51v38.49h-7.74l-.66-2.54h-.22a10.47 10.47 0 0 1-7 3.21c-6.86 0-11.28-5.53-11.28-14.49s5.67-14.43 11.31-14.43zm2.54 21.25a3.79 3.79 0 0 0 3.54-2v-10.18a5.61 5.61 0 0 0-3.76-1.33c-2 0-3.87 1.77-3.87 6.64s1.55 6.87 4.09 6.87z" fill="#8c929d"/><path d="m215.55 58.79l-6.25-19.21-12.38-38.12a2.14 2.14 0 0 0-4.06 0l-12.37 38.09h-41.1l-12.39-38.09a2.14 2.14 0 0 0-4.06 0l-12.33 38.09-6.25 19.24a4.26 4.26 0 0 0 1.54 4.76l54 39.27 54-39.27a4.27 4.27 0 0 0 1.56-4.76" fill="#fc6d26"/><path d="m160 102.79h0l20.55-63.24h-41.15z" fill="#e24329"/><path d="m159.94 102.79l-20.55-63.24h-28.78z" fill="#fc6d26"/><path d="m110.6 39.57h0l-6.25 19.21a4.26 4.26 0 0 0 1.54 4.76l54 39.27z" fill="#fca326"/><path d="m110.61 39.57h28.8l-12.41-38.09a2.14 2.14 0 0 0-4.06 0z" fill="#e24329"/><path d="m160 102.79l20.55-63.24h28.8z" fill="#fc6d26"/><path d="m209.29 39.57h0l6.25 19.21a4.26 4.26 0 0 1-1.54 4.76l-54 39.25 49.33-63.22z" fill="#fca326"/><path d="m209.3 39.57h-28.8l12.37-38.09a2.14 2.14 0 0 1 4.06 0z" fill="#e24329"/></svg>