<svg viewBox="0 0 100 100" xmlns="http://www.w3.org/2000/svg"><path d="m0 0h100v100h-100z" fill="none"/><path d="m99.82 56.61l-5.61-17.21-11.08-34.15a1.92 1.92 0 0 0-3.63 0l-11.09 34.13h-36.83l-11.08-34.13a1.92 1.92 0 0 0-3.63 0l-11.07 34.13-5.6 17.23a3.82 3.82 0 0 0 1.38 4.26l48.42 35.19 48.42-35.18a3.83 3.83 0 0 0 1.4-4.26" fill="#ec6d2e"/><path d="m50 96h0l18.42-56.63h-36.82z" fill="#9c9b9b"/><path d="m50 96l-18.42-56.63h-25.78z" fill="#c6c6c5"/><path d="m5.79 39.39h0l-5.6 17.22a3.82 3.82 0 0 0 1.38 4.26l48.43 35.19z" fill="#ececec"/><path d="m5.8 39.39h25.8l-11.1-34.12a1.92 1.92 0 0 0-3.63 0z" fill="#9c9b9b"/><path d="m50 96l18.42-56.63h25.8z" fill="#c6c6c5"/><path d="m94.21 39.39h0l5.6 17.22a3.82 3.82 0 0 1-1.38 4.26l-48.43 35.13 44.2-56.64z" fill="#ececec"/><path d="m94.22 39.39h-25.8l11.08-34.12a1.92 1.92 0 0 1 3.63 0z" fill="#9c9b9b"/></svg>