<?xml version="1.0" encoding="utf-8"?>
<!-- Generator: Adobe Illustrator 19.2.1, SVG Export Plug-In . SVG Version: 6.00 Build 0)  -->
<svg version="1.1" id="Layer_1" xmlns:sketch="http://www.bohemiancoding.com/sketch/ns"
	 xmlns="http://www.w3.org/2000/svg" xmlns:xlink="http://www.w3.org/1999/xlink" x="0px" y="0px" viewBox="0 0 500 500"
	 style="enable-background:new 0 0 500 500;" xml:space="preserve">
<style type="text/css">
	.st0{fill:#231F20;}
</style>
<title>logo-square</title>
<desc>Created with Sketch.</desc>
<g>
	<path id="path50" class="st0" d="M249.9,476.8L249.9,476.8l90.7-279.1H159.2L249.9,476.8L249.9,476.8z"/>
	<path id="path66" class="st0" d="M32.1,197.7L32.1,197.7L4.5,282.5c-2.5,7.7,0.2,16.2,6.8,21l238.5,173.3L32.1,197.7L32.1,197.7z"
		/>
	<path id="path74" class="st0" d="M32.1,197.7h127.1L104.6,29.6c-2.8-8.6-15-8.6-17.9,0L32.1,197.7L32.1,197.7z"/>
	<path id="path82" class="st0" d="M467.6,197.7L467.6,197.7l27.6,84.8c2.5,7.7-0.2,16.2-6.8,21L249.9,476.8L467.6,197.7L467.6,197.7
		z"/>
	<path id="path86" class="st0" d="M467.6,197.7H340.5l54.6-168.1c2.8-8.6,15-8.6,17.9,0L467.6,197.7L467.6,197.7z"/>
</g>
</svg>
