<svg xmlns="http://www.w3.org/2000/svg" xmlns:xlink="http://www.w3.org/1999/xlink" viewBox="0 0 510.47 64.334"><defs><style>.cls-1{fill:url(#linear-gradient);}.cls-2{fill:url(#linear-gradient-2);}.cls-3{fill:#fff;}</style><linearGradient id="linear-gradient" x1="59.683" y1="68.152" x2="20.351" y2="45.551" gradientUnits="userSpaceOnUse"><stop offset="0" stop-color="#fff" stop-opacity="0.4"/><stop offset="1" stop-color="#fff"/></linearGradient><linearGradient id="linear-gradient-2" x1="280.068" y1="-1615.845" x2="240.737" y2="-1638.445" gradientTransform="translate(283.138 -1616.707) rotate(180)" xlink:href="#linear-gradient"/></defs><title>Confluence_1-white</title><g id="Layer_2" data-name="Layer 2"><g id="White"><path class="cls-1" d="M2.234,50.028C1.585,51.083.85,52.321.277,53.3A2,2,0,0,0,.95,56.013l13,8.021a1.994,1.994,0,0,0,2.769-.679c.516-.873,1.186-2,1.918-3.207,5.151-8.5,10.333-7.464,19.665-3.028l12.889,6.127a2,2,0,0,0,2.687-1l6.19-13.977a2,2,0,0,0-.976-2.619c-2.722-1.28-8.133-3.834-12.976-6.179C28.513,30.953,13.62,31.516,2.234,50.028Z"/><path class="cls-2" d="M60.518,17.262c.649-1.056,1.384-2.293,1.957-3.268a2,2,0,0,0-.673-2.717l-13-8.021a1.994,1.994,0,0,0-2.769.679c-.516.873-1.186,2-1.918,3.207-5.151,8.5-10.333,7.464-19.665,3.028L11.564,4.043a2,2,0,0,0-2.687,1L2.687,19.016a2,2,0,0,0,.976,2.619c2.722,1.28,8.133,3.834,12.976,6.179C34.24,36.337,49.132,35.774,60.518,17.262Z"/><path class="cls-3" d="M134.629,60.014c-3.607,2.377-9.327,3.432-15.312,3.432-19.007,0-29.743-11.439-29.743-29.654,0-17.6,10.736-29.92,29.567-29.92,5.632,0,11.264,1.057,15.4,4.049v7.655c-4.136-2.64-8.712-4.048-15.4-4.048-13.552,0-21.647,8.976-21.647,22.264s8.36,22.087,22.088,22.087a32.464,32.464,0,0,0,15.047-3.52Z"/><path class="cls-3" d="M140.174,40.479c0-13.2,7.743-22.791,20.943-22.791,13.111,0,20.768,9.592,20.768,22.791s-7.656,22.967-20.768,22.967C147.917,63.445,140.174,53.678,140.174,40.479Zm7.392,0c0,8.359,4.136,15.928,13.552,15.928,9.327,0,13.375-7.568,13.375-15.928s-4.048-15.752-13.375-15.752C151.7,24.727,147.565,32.119,147.565,40.479Z"/><path class="cls-3" d="M228.084,62.566h-7.568V35.99c0-7.92-3.168-11.439-10.384-11.439-7.039,0-11.879,4.664-11.879,13.552V62.566h-7.568v-44h7.568v7.216a15.425,15.425,0,0,1,13.9-8.1c10.119,0,15.928,6.951,15.928,19.1Z"/><path class="cls-3" d="M249.116,18.567h11.352v7.04H249.116V62.566h-7.392V25.607H234.6v-7.04h7.128v-4.84C241.724,5.543,246.3,0,255.716,0a18.194,18.194,0,0,1,5.1.7V7.655a25,25,0,0,0-4.752-.44c-4.664,0-6.952,2.729-6.952,6.688Z"/><path class="cls-3" d="M280.443,62.83c-7.216,0-11.792-3.432-11.792-11.527V.176h7.568V50.422c0,3.961,2.64,5.368,5.9,5.368a19.175,19.175,0,0,0,2.2-.088v6.776A16.107,16.107,0,0,1,280.443,62.83Z"/><path class="cls-3" d="M290.738,18.567h7.567V45.143c0,7.92,3.168,11.439,10.384,11.439,7.04,0,11.88-4.664,11.88-13.552V18.567h7.567v44h-7.567V55.35a15.424,15.424,0,0,1-13.9,8.1c-10.12,0-15.928-6.951-15.928-19.095Z"/><path class="cls-3" d="M360.609,63.445c-16.455,0-23.671-9.5-23.671-22.967,0-13.287,7.392-22.791,20.768-22.791,13.551,0,19.007,9.416,19.007,22.791V43.91H344.593c1.057,7.48,5.9,12.32,16.28,12.32a38.979,38.979,0,0,0,13.375-2.377v6.953C370.641,62.742,365.1,63.445,360.609,63.445ZM344.506,37.4h24.552c-.44-8.184-4.136-12.848-11.7-12.848C349.345,24.551,345.3,29.742,344.506,37.4Z"/><path class="cls-3" d="M423.088,62.566h-7.568V35.99c0-7.92-3.168-11.439-10.384-11.439-7.039,0-11.879,4.664-11.879,13.552V62.566h-7.568v-44h7.568v7.216a15.425,15.425,0,0,1,13.9-8.1c10.119,0,15.928,6.951,15.928,19.1Z"/><path class="cls-3" d="M464.712,61.422c-2.641,1.408-6.688,2.023-10.736,2.023-15.663,0-22.967-9.5-22.967-22.967,0-13.287,7.3-22.791,22.967-22.791A23.26,23.26,0,0,1,464.447,19.8v7.04a22.183,22.183,0,0,0-9.943-2.112c-11.439,0-16.1,7.217-16.1,15.752s4.752,15.752,16.279,15.752a27.8,27.8,0,0,0,10.032-1.584Z"/><path class="cls-3" d="M494.367,63.445c-16.455,0-23.671-9.5-23.671-22.967,0-13.287,7.392-22.791,20.768-22.791,13.551,0,19.007,9.416,19.007,22.791V43.91H478.351c1.057,7.48,5.9,12.32,16.28,12.32a38.979,38.979,0,0,0,13.375-2.377v6.953C504.4,62.742,498.855,63.445,494.367,63.445ZM478.263,37.4h24.552c-.44-8.184-4.136-12.848-11.7-12.848C483.1,24.551,479.055,29.742,478.263,37.4Z"/></g></g></svg>