<svg xmlns="http://www.w3.org/2000/svg" viewBox="0 0 79.96 113.78"><defs><style>.cls-1,.cls-2{fill:#fff;}.cls-1{fill-rule:evenodd;}</style></defs><title>Asset 1</title><g id="Layer_2" data-name="Layer 2"><g id="Logo"><path class="cls-1" d="M38.56,47a8.35,8.35,0,1,1,8.33-8.36A8.33,8.33,0,0,1,38.56,47"/><path class="cls-1" d="M54.81,42.46a3.85,3.85,0,1,1,3.85-3.85,3.84,3.84,0,0,1-3.85,3.85"/><path class="cls-1" d="M68.9,46.09h0a3.69,3.69,0,1,1,.08-.3c0,.1,0,.19-.08.3"/><path class="cls-1" d="M66.17,36.17A3.86,3.86,0,1,1,69,31.54a4,4,0,0,1,0,1.51,3.71,3.71,0,0,1-2.9,3.13"/><path class="cls-1" d="M79.87,45.66a3.85,3.85,0,1,1-3.13-4.46,3.87,3.87,0,0,1,3.2,4.12,1,1,0,0,0-.08.34"/><path class="cls-1" d="M76.74,36a3.84,3.84,0,1,1,3.16-4.42,4.29,4.29,0,0,1,0,1A3.82,3.82,0,0,1,76.74,36"/><path class="cls-1" d="M74.05,59h0a3.9,3.9,0,1,1,.48-1.58A3.47,3.47,0,0,1,74.05,59"/><path class="cls-1" d="M72.66,23.61a3.86,3.86,0,1,1,1.47-5.26,3.6,3.6,0,0,1,.48,2.23,3.86,3.86,0,0,1-1.94,3"/><path class="cls-2" d="M38.71,77.41A38.71,38.71,0,1,1,38.71,0,38.33,38.33,0,0,1,62.21,8l-4.73,6.17A30.91,30.91,0,0,0,7.78,38.71,30.93,30.93,0,0,0,57.49,63.29l4.72,6.18A38.37,38.37,0,0,1,38.71,77.41Z"/><path class="cls-2" d="M0,89.36c0-3.85,2.24-6.08,7.47-6.08a23.78,23.78,0,0,1,5.71.69l-.44,3.44a30.92,30.92,0,0,0-5.14-.54C4.86,86.87,4,87.81,4,90v8.07c0,2.24.88,3.18,3.62,3.18a30.92,30.92,0,0,0,5.14-.54l.44,3.44a23.78,23.78,0,0,1-5.71.69C2.24,104.9,0,102.66,0,98.81Z"/><path class="cls-2" d="M21.69,104.9c-5.26,0-6.68-2.9-6.68-6.05V95c0-3.15,1.42-6.05,6.68-6.05s6.68,2.9,6.68,6.05v3.88C28.37,102,27,104.9,21.69,104.9Zm0-12.7c-2,0-2.84.91-2.84,2.65V99c0,1.73.79,2.65,2.84,2.65s2.84-.91,2.84-2.65V94.84C24.52,93.11,23.74,92.19,21.69,92.19Z"/><path class="cls-2" d="M40.06,104.58V93.86c0-.82-.35-1.23-1.23-1.23a10.61,10.61,0,0,0-4,1.29v10.65H31V89.23h2.93l.38,1.29a15.39,15.39,0,0,1,6.15-1.61c2.55,0,3.47,1.8,3.47,4.54v11.13Z"/><path class="cls-2" d="M51.82,104.9a18.08,18.08,0,0,1-5.3-.88l.54-2.93a17.18,17.18,0,0,0,4.57.66c1.7,0,2-.38,2-1.54,0-.95-.19-1.42-2.68-2-3.75-.91-4.19-1.86-4.19-4.82s1.36-4.44,5.74-4.44a20.19,20.19,0,0,1,4.6.54l-.38,3.06a27,27,0,0,0-4.22-.44c-1.67,0-2,.38-2,1.32,0,1.23.09,1.32,2.18,1.86,4.29,1.13,4.7,1.7,4.7,4.85C57.37,103.07,56.45,104.9,51.82,104.9Z"/><path class="cls-2" d="M63.73,89.23V99.95c0,.82.35,1.23,1.23,1.23a10.61,10.61,0,0,0,4-1.29V89.23h3.85v15.35H69.88l-.38-1.29a15.39,15.39,0,0,1-6.15,1.61c-2.55,0-3.47-1.8-3.47-4.54V89.23Z"/><path class="cls-2" d="M76.12,104.58V83L80,82.42v22.16Z"/><path class="cls-2" d="M0,108.34H3.15V109H.69v1.68H3v.62H.69v1.82H3.16v.62H0Z"/><path class="cls-2" d="M5.48,109.14v4.56H4.82v-5.36h.95l2.33,4.59v-4.59h.66v5.36H7.82Z"/><path class="cls-2" d="M11.69,109h-1.6v-.62H14V109h-1.6v4.74h-.69Z"/><path class="cls-2" d="M15.3,108.34h3.15V109H16v1.68h2.29v.62H16v1.82h2.47v.62H15.3Z"/><path class="cls-2" d="M22.13,111.76H20.82v1.94h-.69v-5.36h2c1.15,0,1.55.5,1.55,1.32v.77a1.13,1.13,0,0,1-.85,1.25l1.39,2h-.8Zm0-2.8H20.82v2.19h1.33c.66,0,.89-.19.89-.71v-.77C23,109.14,22.8,109,22.14,109Z"/><path class="cls-2" d="M25.69,108.34h1.94c1.15,0,1.55.5,1.55,1.32v.8c0,.83-.4,1.33-1.55,1.33H26.38v1.92h-.69Zm1.92.62H26.38v2.21H27.6c.66,0,.89-.19.89-.71v-.79C28.49,109.14,28.26,109,27.6,109Z"/><path class="cls-2" d="M32.65,111.76H31.34v1.94h-.69v-5.36h2c1.15,0,1.55.5,1.55,1.32v.77a1.13,1.13,0,0,1-.85,1.25l1.39,2H34Zm0-2.8H31.34v2.19h1.33c.66,0,.89-.19.89-.71v-.77C33.55,109.14,33.32,109,32.66,109Z"/><path class="cls-2" d="M36.94,113.7h-.69v-5.36h.69Z"/><path class="cls-2" d="M40.22,113.78a4.58,4.58,0,0,1-1.59-.28l.11-.56a5.09,5.09,0,0,0,1.5.23c.86,0,1-.23,1-.84s0-.79-1.11-1c-1.3-.29-1.45-.54-1.45-1.65,0-.93.39-1.38,1.71-1.38a6.11,6.11,0,0,1,1.45.18l-.06.59a6.57,6.57,0,0,0-1.38-.15c-.88,0-1,.18-1,.8s0,.77,1.06,1c1.42.35,1.5.56,1.5,1.61S41.69,113.78,40.22,113.78Z"/><path class="cls-2" d="M43.65,108.34H46.8V109H44.34v1.68h2.29v.62H44.34v1.82h2.47v.62H43.65Z"/></g></g></svg>