<?xml version="1.0" encoding="UTF-8"?>
<svg width="24px" height="24px" viewBox="0 0 24 24" version="1.1" xmlns="http://www.w3.org/2000/svg" xmlns:xlink="http://www.w3.org/1999/xlink">
    <title>Icon-Architecture/16/Arch_AWS-Application-Composer_16</title>
    <defs>
        <linearGradient x1="0%" y1="100%" x2="100%" y2="0%" id="linearGradient-1">
            <stop stop-color="#2E27AD" offset="0%"></stop>
            <stop stop-color="#527FFF" offset="100%"></stop>
        </linearGradient>
    </defs>
    <g id="Icon-Architecture/16/Arch_AWS-Application-Composer_16" stroke="none" stroke-width="1" fill="none" fill-rule="evenodd">
        <g id="Icon-Architecture-BG/16/Developer-Tools" fill="url(#linearGradient-1)">
            <rect id="Rectangle" x="0" y="0" width="24" height="24"></rect>
        </g>
        <g id="Icon-Service/16/AWS-Application-Composer_16" transform="translate(4.000000, 4.500000)" fill="#FFFFFF">
            <path d="M14,14 C13.448,14 13,13.551 13,13 C13,12.449 13.448,12 14,12 C14.552,12 15,12.449 15,13 C15,13.551 14.552,14 14,14 M8.707,13.707 C8.316,14.097 7.684,14.097 7.293,13.707 C7.104,13.518 7,13.267 7,13 C7,12.733 7.104,12.482 7.293,12.293 C7.488,12.098 7.744,12 8,12 C8.256,12 8.512,12.098 8.707,12.293 C8.896,12.482 9,12.733 9,13 C9,13.267 8.896,13.518 8.707,13.707 M1.293,8.207 C1.104,8.018 1,7.767 1,7.5 C1,7.233 1.104,6.982 1.293,6.793 C1.488,6.598 1.744,6.5 2,6.5 C2.256,6.5 2.512,6.598 2.707,6.793 C2.896,6.982 3,7.233 3,7.5 C3,7.767 2.896,8.018 2.707,8.207 C2.316,8.597 1.684,8.597 1.293,8.207 M7.293,1.293 C7.488,1.098 7.744,1 8,1 C8.256,1 8.512,1.098 8.707,1.293 C8.896,1.482 9,1.733 9,2 C9,2.267 8.896,2.518 8.707,2.707 C8.316,3.097 7.684,3.097 7.293,2.707 C7.104,2.518 7,2.267 7,2 C7,1.733 7.104,1.482 7.293,1.293 M14,1 C14.552,1 15,1.449 15,2 C15,2.551 14.552,3 14,3 C13.448,3 13,2.551 13,2 C13,1.449 13.448,1 14,1 M14,11 C13.071,11 12.295,11.64 12.071,12.5 L9.929,12.5 C9.841,12.158 9.67,11.842 9.414,11.586 C8.736,10.907 7.686,10.82 6.911,11.323 L3.759,8.434 C3.911,8.148 4,7.833 4,7.5 C4,7.167 3.911,6.852 3.759,6.566 L6.911,3.676 C7.241,3.891 7.621,3.999 8,3.999 C8.512,3.999 9.024,3.804 9.414,3.414 C9.67,3.158 9.841,2.842 9.929,2.5 L12.071,2.5 C12.295,3.36 13.071,4 14,4 C15.103,4 16,3.103 16,2 C16,0.897 15.103,0 14,0 C13.071,0 12.295,0.64 12.071,1.5 L9.929,1.5 C9.841,1.158 9.67,0.842 9.414,0.586 C8.635,-0.194 7.365,-0.194 6.586,0.586 C6.208,0.963 6,1.466 6,2 C6,2.333 6.089,2.648 6.241,2.934 L3.089,5.823 C2.314,5.32 1.264,5.407 0.586,6.086 C0.208,6.463 0,6.966 0,7.5 C0,8.034 0.208,8.537 0.586,8.914 C0.976,9.304 1.488,9.499 2,9.499 C2.379,9.499 2.759,9.391 3.089,9.176 L6.241,12.066 C6.089,12.352 6,12.667 6,13 C6,13.534 6.208,14.037 6.586,14.414 C6.976,14.804 7.488,14.999 8,14.999 C8.512,14.999 9.024,14.804 9.414,14.414 C9.67,14.158 9.841,13.842 9.929,13.5 L12.071,13.5 C12.295,14.36 13.071,15 14,15 C15.103,15 16,14.103 16,13 C16,11.897 15.103,11 14,11 M2,13.5 C1.725,13.5 1.5,13.276 1.5,13 C1.5,12.724 1.725,12.5 2,12.5 C2.275,12.5 2.5,12.724 2.5,13 C2.5,13.276 2.275,13.5 2,13.5 M2,11.5 C1.173,11.5 0.5,12.173 0.5,13 C0.5,13.827 1.173,14.5 2,14.5 C2.827,14.5 3.5,13.827 3.5,13 C3.5,12.173 2.827,11.5 2,11.5 M14,8 C13.725,8 13.5,7.776 13.5,7.5 C13.5,7.224 13.725,7 14,7 C14.275,7 14.5,7.224 14.5,7.5 C14.5,7.776 14.275,8 14,8 M14,6 C13.173,6 12.5,6.673 12.5,7.5 C12.5,8.327 13.173,9 14,9 C14.827,9 15.5,8.327 15.5,7.5 C15.5,6.673 14.827,6 14,6 M8,8 C7.725,8 7.5,7.776 7.5,7.5 C7.5,7.224 7.725,7 8,7 C8.275,7 8.5,7.224 8.5,7.5 C8.5,7.776 8.275,8 8,8 M8,6 C7.173,6 6.5,6.673 6.5,7.5 C6.5,8.327 7.173,9 8,9 C8.827,9 9.5,8.327 9.5,7.5 C9.5,6.673 8.827,6 8,6 M2,1.5 C2.275,1.5 2.5,1.724 2.5,2 C2.5,2.276 2.275,2.5 2,2.5 C1.725,2.5 1.5,2.276 1.5,2 C1.5,1.724 1.725,1.5 2,1.5 M2,3.5 C2.827,3.5 3.5,2.827 3.5,2 C3.5,1.173 2.827,0.5 2,0.5 C1.173,0.5 0.5,1.173 0.5,2 C0.5,2.827 1.173,3.5 2,3.5" id="Fill-7"></path>
        </g>
    </g>
</svg>