<?xml version="1.0" encoding="UTF-8"?>
<svg width="40px" height="40px" viewBox="0 0 40 40" version="1.1" xmlns="http://www.w3.org/2000/svg" xmlns:xlink="http://www.w3.org/1999/xlink">
    <title>Icon-Architecture/32/Arch_Amazon-Omics_32</title>
    <defs>
        <linearGradient x1="0%" y1="100%" x2="100%" y2="0%" id="linearGradient-1">
            <stop stop-color="#055F4E" offset="0%"></stop>
            <stop stop-color="#56C0A7" offset="100%"></stop>
        </linearGradient>
    </defs>
    <g id="Icon-Architecture/32/Arch_Amazon-Omics_32" stroke="none" stroke-width="1" fill="none" fill-rule="evenodd">
        <g id="Icon-Architecture-BG/32/Machine-Learning" fill="url(#linearGradient-1)">
            <rect id="Rectangle" x="0" y="0" width="40" height="40"></rect>
        </g>
        <g id="Icon-Service/32/Amazon-Omics_32" transform="translate(6.000000, 6.000000)" fill="#FFFFFF">
            <path d="M14.984607,21 L27.984607,21 L27.984607,20 L14.984607,20 L14.984607,21 Z M14.984607,9 L27.984607,9 L27.984607,8 L14.984607,8 L14.984607,9 Z M14.984607,17 L21.984607,17 L21.984607,16 L14.984607,16 L14.984607,17 Z M8.39160701,20.923 L8.04860701,21.862 C9.78060701,22.498 11.108607,23.661 11.712607,25 L1.34060701,25 C1.87260701,23.941 2.95960701,22.839 4.41860701,21.925 C5.30360701,21.371 6.26860701,20.834 7.20260701,20.316 C8.66660701,19.502 10.050607,18.734 11.005607,17.966 C12.553607,16.723 13.183607,15.099 12.930607,13.002 C12.930607,13.002 12.930607,13.001 12.930607,13 L24.984607,13 L24.984607,12 L12.620607,12 C11.779607,10.268 9.52860701,8.969 8.47260701,8.437 L8.02360701,9.331 C9.33560701,9.991 10.741607,10.963 11.462607,12 L4.98460701,12 L4.98460701,13 L11.905607,13 C11.913607,13.041 11.933607,13.082 11.938607,13.123 C12.149607,14.871 11.653607,16.163 10.378607,17.187 C9.48960701,17.901 8.14260701,18.649 6.71660701,19.442 C5.77160701,19.966 4.79660701,20.509 3.88660701,21.078 C1.81960701,22.373 0.386607007,24.07 0.0536070074,25.617 C0.0346070074,25.709 -0.00539299264,25.9 0.000607007358,28.001 L1.00060701,27.999 C0.996607007,26.768 1.00960701,26.233 1.02060701,26 L12.007607,26 C12.018607,26.238 12.029607,26.776 12.012607,27.993 L13.012607,28.007 C13.041607,25.94 12.992607,25.707 12.973607,25.618 C12.547607,23.603 10.792607,21.804 8.39160701,20.923 L8.39160701,20.923 Z M0.0216070074,1.142 L0.0216070074,-1.77635684e-15 L1.02160701,-1.77635684e-15 L1.02160701,1.164 C1.02060701,1.203 1.01960701,1.523 1.14660701,1.991 L11.947607,1.991 C11.984607,1.755 11.984607,1.602 11.983607,1.581 L11.983607,-1.77635684e-15 L12.983607,-1.77635684e-15 L12.983607,1.562 C12.987607,1.642 13.061607,4.048 10.383607,6.018 C9.35360701,6.775 7.86160701,7.516 6.54460701,8.169 C5.69060701,8.592 4.88360701,8.992 4.33960701,9.33 C2.95160701,10.19 1.25860701,11.547 1.06760701,13.123 C0.930607007,14.26 1.09860701,15.201 1.57860701,16.004 L7.98460701,16.004 L7.98460701,17.004 L2.42460701,17.004 C2.49260701,17.065 2.55360701,17.128 2.62760701,17.187 C2.94560701,17.443 3.51660701,17.817 4.17860701,18.25 L4.81760701,18.67 L4.26660701,19.504 L3.63160701,19.087 C2.94760701,18.64 2.35760701,18.253 2.00060701,17.966 C0.452607007,16.722 -0.177392993,15.099 0.0756070074,13.002 C0.312607007,11.033 2.23860701,9.456 3.81160701,8.48 C4.39760701,8.117 5.22460701,7.707 6.09960701,7.273 C7.38060701,6.638 8.83160701,5.918 9.79260701,5.212 C10.815607,4.459 11.348607,3.655 11.640607,2.991 L1.55760701,2.991 C1.87860701,3.566 2.39060701,4.208 3.21360701,4.813 C3.42560701,4.969 3.94460701,5.28 4.38560701,5.546 C4.64160701,5.7 4.87360701,5.839 5.01060701,5.928 L4.47360701,6.771 C4.34060701,6.686 4.11760701,6.551 3.87060701,6.403 C3.39560701,6.117 2.85860701,5.793 2.62160701,5.619 C-0.0563929926,3.649 0.0176070074,1.244 0.0216070074,1.142 L0.0216070074,1.142 Z" id="Fill-1"></path>
        </g>
    </g>
</svg>