<?xml version="1.0" encoding="utf-8"?>
<!-- Generator: Adobe Illustrator 22.1.0, SVG Export Plug-In . SVG Version: 6.00 Build 0)  -->
<svg version="1.1" id="Layer_1" xmlns="http://www.w3.org/2000/svg" xmlns:xlink="http://www.w3.org/1999/xlink" x="0px" y="0px"
	 width="50px" height="50px" viewBox="0 0 50 50" enable-background="new 0 0 50 50" xml:space="preserve">
<path fill="#E5E5E5" d="M40.839,40.843c-4.232,4.231-9.856,6.561-15.839,6.561c-0.001,0-0.001,0-0.001,0
	c-5.983-0.001-11.607-2.331-15.838-6.56c-4.231-4.232-6.561-9.856-6.561-15.84s2.33-11.609,6.56-15.84s9.855-6.56,15.839-6.56
	S36.608,4.934,40.84,9.165c4.231,4.231,6.56,9.856,6.56,15.839C47.399,30.986,45.07,36.612,40.839,40.843z"/>
<path opacity="0.5" fill="#FFFFFF" d="M9.161,40.844c-4.231-4.232-6.561-9.856-6.561-15.84s2.33-11.609,6.56-15.84
	s9.855-6.56,15.839-6.56S36.608,4.934,40.84,9.165L9.161,40.844z"/>
<path fill="#2999C6" d="M5.611,32.767C4.631,30.329,4.1,27.71,4.1,25.004c0-4.609,1.502-8.977,4.239-12.586
	c-0.446-0.308-0.859-0.68-1.218-1.121c-0.312-0.384-0.561-0.797-0.762-1.226c-5.605,6.985-6.693,16.373-3.299,24.316
	C3.823,33.7,4.681,33.15,5.611,32.767z"/>
<path fill="#2999C6" d="M16.339,2.756c0.749,0.763,1.326,1.628,1.746,2.548c2.195-0.771,4.518-1.201,6.914-1.201
	c4.466,0,8.706,1.412,12.249,3.99c0.362-0.736,0.879-1.409,1.555-1.96c0.002-0.001,0.003-0.002,0.004-0.003
	c0.14-0.114,0.285-0.217,0.431-0.316C32.549,0.84,23.859-0.166,16.339,2.756z"/>
<path fill="#2999C6" d="M44.39,17.24c0.98,2.438,1.511,5.057,1.511,7.764c-0.001,4.608-1.503,8.976-4.24,12.585
	c0.447,0.309,0.86,0.68,1.219,1.121c0.312,0.383,0.561,0.796,0.762,1.225c5.605-6.985,6.693-16.372,3.3-24.315
	C46.177,16.307,45.319,16.857,44.39,17.24z"/>
<path fill="#2999C6" d="M31.912,44.703c-2.195,0.771-4.517,1.201-6.912,1.201c-0.001,0-0.001,0-0.001,0
	c-4.465-0.001-8.704-1.413-12.248-3.99c-0.362,0.736-0.879,1.409-1.555,1.96c-0.002,0.001-0.003,0.002-0.004,0.003
	c-0.134,0.109-0.272,0.207-0.413,0.302c6.688,4.97,15.37,5.986,22.882,3.074C32.911,46.492,32.333,45.625,31.912,44.703z"/>
<path fill="#2999C6" d="M14.179,4.833c2.3,2.304,2.298,6.049-0.005,8.348c-2.302,2.298-6.046,2.297-8.348-0.005
	c-2.3-2.304-2.298-6.049,0.005-8.348s6.045-2.298,8.344,0.001C14.177,4.831,14.178,4.832,14.179,4.833z"/>
<path fill="#FFFFFF" d="M12.046,11.049c1.13-1.129,1.13-2.959,0.002-4.089s-2.959-1.13-4.089-0.002
	c-1.13,1.129-1.13,2.959-0.002,4.089l0.001,0.001C9.086,12.177,10.917,12.177,12.046,11.049"/>
<path fill="#2999C6" d="M36.827,4.829c2.304-2.3,6.049-2.298,8.348,0.005c2.298,2.302,2.297,6.046-0.005,8.348
	c-2.304,2.3-6.049,2.298-8.348-0.005c-2.299-2.303-2.298-6.045,0.001-8.344C36.825,4.831,36.826,4.83,36.827,4.829z"/>
<path fill="#FFFFFF" d="M43.044,6.962c-1.129-1.13-2.959-1.13-4.089-0.002c-1.13,1.129-1.13,2.959-0.002,4.089
	c1.129,1.13,2.959,1.13,4.089,0.002l0.001-0.001C44.171,9.922,44.171,8.091,43.044,6.962"/>
<path fill="#2999C6" d="M35.822,45.174c-2.3-2.304-2.298-6.049,0.005-8.348c2.302-2.298,6.046-2.297,8.348,0.005
	c2.3,2.304,2.298,6.049-0.005,8.348s-6.045,2.298-8.344-0.001C35.823,45.176,35.823,45.175,35.822,45.174z"/>
<path fill="#FFFFFF" d="M37.954,38.958c-1.13,1.129-1.13,2.959-0.002,4.089c1.129,1.13,2.959,1.13,4.089,0.002
	c1.13-1.129,1.13-2.959,0.002-4.089l-0.001-0.001C40.914,37.83,39.084,37.83,37.954,38.958"/>
<path fill="#2999C6" d="M13.173,45.178c-2.304,2.3-6.049,2.298-8.348-0.005c-2.298-2.302-2.297-6.046,0.005-8.348
	c2.304-2.3,6.049-2.298,8.348,0.005s2.298,6.045-0.001,8.344C13.175,45.176,13.174,45.177,13.173,45.178z"/>
<path fill="#FFFFFF" d="M6.956,43.045c1.129,1.13,2.959,1.13,4.089,0.002c1.13-1.129,1.13-2.959,0.002-4.089
	c-1.129-1.13-2.959-1.13-4.089-0.002l-0.001,0.001C5.829,40.085,5.829,41.916,6.956,43.045"/>
<polygon fill="#FFFFFF" points="22,22.004 25,31.004 28,22.004 "/>
<path fill="#804998" d="M35.03,32.782C34.459,27.7,32.094,23.44,28,22.004l-3,9l-3-9c-3.996,1.343-6.534,5.177-7.032,10.795
	c-0.102,1.099,0.615,2.081,1.602,2.194c0.06,0.007,0.12,0.01,0.18,0.011h16.5c0.986,0.004,1.789-0.883,1.792-1.982
	C35.042,32.942,35.038,32.862,35.03,32.782z"/>
<circle fill="#804998" cx="25" cy="17.004" r="5.9"/>
</svg>
