<?xml version="1.0" encoding="utf-8"?>
<!-- Generator: Adobe Illustrator 21.1.0, SVG Export Plug-In . SVG Version: 6.00 Build 0)  -->
<svg version="1.1" id="Layer_1" xmlns="http://www.w3.org/2000/svg" xmlns:xlink="http://www.w3.org/1999/xlink" x="0px" y="0px"
	 viewBox="0 0 206.3 60" style="enable-background:new 0 0 206.3 60;" xml:space="preserve">
<style type="text/css">
	.st0{fill:#FFFFFF;}
</style>
<title>Asset 1</title>
<g id="Layer_2">
	<g id="Logo">
		<path class="st0" d="M72.6,51.7h4.8v0.9h-3.8v2.6h3.5v0.9h-3.5v2.8h3.8v0.9h-4.8V51.7z"/>
		<path class="st0" d="M80.9,52.9v7h-1v-8.2h1.4l3.6,7v-7h1v8.2h-1.4L80.9,52.9z"/>
		<path class="st0" d="M90.4,52.7h-2.4v-0.9h5.9v0.9h-2.4v7.2h-1.1V52.7z"/>
		<path class="st0" d="M95.9,51.7h4.8v0.9h-3.7v2.6h3.5v0.9h-3.5v2.8h3.8v0.9h-4.8V51.7z"/>
		<path class="st0" d="M106.3,56.9h-2v3h-1.1v-8.2h3.1c1.8,0,2.4,0.8,2.4,2v1.2c0.1,0.9-0.4,1.7-1.3,1.9l2.1,3.1h-1.2L106.3,56.9z
			 M106.3,52.7h-2V56h2c1,0,1.3-0.3,1.3-1.1v-1.2C107.7,52.9,107.3,52.7,106.3,52.7L106.3,52.7z"/>
		<path class="st0" d="M111.7,51.7h3c1.8,0,2.4,0.8,2.4,2v1.2c0,1.3-0.6,2-2.4,2h-1.9v2.9h-1.1V51.7z M114.6,52.7h-1.9V56h1.9
			c1,0,1.3-0.3,1.3-1.1v-1.2C116,52.9,115.6,52.7,114.6,52.7L114.6,52.7z"/>
		<path class="st0" d="M122.3,56.9h-2v3h-1.1v-8.2h3.1c1.8,0,2.4,0.8,2.4,2v1.2c0.1,0.9-0.4,1.7-1.3,1.9l2.1,3.1h-1.2L122.3,56.9z
			 M122.3,52.7h-2V56h2c1,0,1.3-0.3,1.3-1.1v-1.2C123.7,52.9,123.3,52.7,122.3,52.7L122.3,52.7z"/>
		<path class="st0" d="M128.8,59.9h-1.1v-8.2h1.1V59.9z"/>
		<path class="st0" d="M133.8,60c-0.8,0-1.7-0.1-2.4-0.4l0.2-0.9c0.7,0.2,1.5,0.4,2.3,0.4c1.3,0,1.6-0.3,1.6-1.3
			c0-1.1,0-1.2-1.7-1.6c-2-0.4-2.2-0.8-2.2-2.5c0-1.4,0.6-2.1,2.6-2.1c0.7,0,1.5,0.1,2.2,0.3l-0.1,0.9c-0.7-0.2-1.4-0.2-2.1-0.2
			c-1.3,0-1.6,0.3-1.6,1.2c0,1.1,0,1.2,1.6,1.6c2.2,0.5,2.3,0.9,2.3,2.5C136.5,59.2,136.1,60,133.8,60z"/>
		<path class="st0" d="M139,51.7h4.8v0.9h-3.7v2.6h3.5v0.9h-3.5v2.8h3.8v0.9H139V51.7z"/>
		<path class="st0" d="M78.5,21.8V46h-5.9V14h8.1l12.1,24.3V14h5.9v32h-8.1L78.5,21.8z"/>
		<path class="st0" d="M113.1,46.5c-8,0-10.2-4.4-10.2-9.2v-5.9c0-4.8,2.2-9.2,10.2-9.2s10.2,4.4,10.2,9.2v5.9
			C123.3,42.1,121.1,46.5,113.1,46.5z M113.1,27.1c-3.1,0-4.3,1.4-4.3,4v6.3c0,2.6,1.2,4,4.3,4s4.3-1.4,4.3-4v-6.2
			C117.4,28.5,116.2,27.1,113.1,27.1z"/>
		<path class="st0" d="M141.1,46V29.7c0-1.2-0.5-1.9-1.9-1.9c-2.1,0.3-4.2,0.9-6.1,2V46h-5.9V22.6h4.5l0.6,2
			c2.9-1.5,6.1-2.3,9.4-2.5c1.9-0.2,3.6,0.8,4.4,2.5c2.9-1.5,6.1-2.3,9.4-2.5c3.9,0,5.3,2.7,5.3,6.9V46h-5.9V29.7
			c0-1.2-0.5-1.9-1.9-1.9c-2.2,0.2-4.2,0.9-6.1,2V46H141.1z"/>
		<path class="st0" d="M182.9,46h-4.8l-0.4-1.6c-2.1,1.4-4.5,2.1-7,2.1c-4.3,0-6.1-2.9-6.1-7c0-4.8,2.1-6.6,6.8-6.6h5.6v-2.4
			c0-2.6-0.7-3.5-4.5-3.5c-2.2,0-4.3,0.3-6.5,0.7l-0.7-4.5c2.6-0.7,5.3-1.1,8-1.1c7.3,0,9.5,2.6,9.5,8.4L182.9,46z M177,37.2h-4.3
			c-1.9,0-2.4,0.5-2.4,2.3s0.5,2.3,2.4,2.3c1.6,0,3.1-0.4,4.4-1.2V37.2z"/>
		<path class="st0" d="M186.5,30.4c0-5.2,2.3-8.3,7.7-8.3c2.1,0,4.2,0.2,6.2,0.7v-9.7l5.9-0.8V46h-4.7l-0.6-2
			c-2.1,1.6-4.7,2.5-7.4,2.5c-4.7,0-7.2-2.8-7.2-8.1V30.4z M200.5,27.8c-1.7-0.4-3.4-0.6-5.2-0.6c-2.1,0-2.9,1-2.9,3.1v8.3
			c0,1.9,0.7,3,2.9,3c1.9-0.1,3.8-0.8,5.2-2.1L200.5,27.8z"/>
		<path class="st0" d="M26,0L0,15v30l26.2,15l0.1,0l26.1-15V15v0L26,0z M38,33l-6.9,4l-8.3-5v10l-7.9,5V27l6.2-3.8l8.6,4.8V18l8.3-5
			V33z"/>
	</g>
</g>
</svg>
