<svg xmlns="http://www.w3.org/2000/svg" viewBox="0 0 87.81 114.45"><defs><style>.cls-1{fill:#fff;}</style></defs><title>Asset 1</title><g id="Layer_2" data-name="Layer 2"><g id="Logo"><polygon class="cls-1" points="59.1 29.75 59.1 42.6 50.16 47.76 43.91 43.89 43.91 77.41 44.08 77.41 77.78 58.06 77.78 19.4 77.15 19.4 59.1 29.75"/><polygon class="cls-1" points="43.63 0 10.04 19.41 32.7 32.72 37.28 29.93 48.42 36.14 48.42 23.23 59.1 16.82 59.1 29.75 77.78 19.4 77.78 19.35 43.63 0"/><polygon class="cls-1" points="39.39 41.31 39.39 54.21 29.23 60.65 29.23 34.85 33.08 32.48 10.24 19.4 10.04 19.41 10.04 58.06 43.91 77.41 43.91 43.89 39.39 41.31"/><path class="cls-1" d="M0,109H3.15v.62H.69v1.68H3v.62H.69v1.82H3.16v.62H0Z"/><path class="cls-1" d="M5.48,109.81v4.56H4.82V109h.95l2.33,4.59V109h.66v5.36H7.82Z"/><path class="cls-1" d="M11.69,109.63h-1.6V109H14v.62h-1.6v4.74h-.69Z"/><path class="cls-1" d="M15.3,109h3.15v.62H16v1.68h2.29v.62H16v1.82h2.47v.62H15.3Z"/><path class="cls-1" d="M22.13,112.43H20.82v1.94h-.69V109h2c1.15,0,1.55.5,1.55,1.32v.77a1.13,1.13,0,0,1-.85,1.25l1.39,2h-.8Zm0-2.8H20.82v2.19h1.33c.66,0,.89-.19.89-.71v-.77C23,109.81,22.8,109.63,22.14,109.63Z"/><path class="cls-1" d="M25.69,109h1.94c1.15,0,1.55.5,1.55,1.32v.8c0,.83-.4,1.33-1.55,1.33H26.38v1.92h-.69Zm1.92.62H26.38v2.21H27.6c.66,0,.89-.19.89-.71v-.79C28.49,109.81,28.26,109.63,27.6,109.63Z"/><path class="cls-1" d="M32.65,112.43H31.34v1.94h-.69V109h2c1.15,0,1.55.5,1.55,1.32v.77a1.13,1.13,0,0,1-.85,1.25l1.39,2H34Zm0-2.8H31.34v2.19h1.33c.66,0,.89-.19.89-.71v-.77C33.55,109.81,33.33,109.63,32.67,109.63Z"/><path class="cls-1" d="M36.94,114.37h-.69V109h.69Z"/><path class="cls-1" d="M40.22,114.45a4.58,4.58,0,0,1-1.59-.28l.11-.56a5.09,5.09,0,0,0,1.5.23c.86,0,1-.23,1-.84s0-.79-1.11-1c-1.3-.29-1.45-.54-1.45-1.65,0-.93.39-1.38,1.71-1.38a6.11,6.11,0,0,1,1.45.18l-.06.59a6.57,6.57,0,0,0-1.38-.15c-.88,0-1,.18-1,.8s0,.77,1.06,1c1.42.35,1.5.56,1.5,1.61S41.69,114.45,40.22,114.45Z"/><path class="cls-1" d="M43.65,109H46.8v.62H44.34v1.68h2.29v.62H44.34v1.82h2.47v.62H43.65Z"/><path class="cls-1" d="M3.88,89.34v15.92H0v-21H5.3l8,16v-16h3.88v21h-5.3Z"/><path class="cls-1" d="M26.6,105.57c-5.26,0-6.68-2.9-6.68-6.05V95.64c0-3.15,1.42-6.05,6.68-6.05s6.68,2.9,6.68,6.05v3.88C33.29,102.67,31.87,105.57,26.6,105.57Zm0-12.7c-2,0-2.84.91-2.84,2.65v4.13c0,1.73.79,2.65,2.84,2.65s2.84-.91,2.84-2.65V95.52C29.44,93.78,28.65,92.87,26.6,92.87Z"/><path class="cls-1" d="M45,105.26V94.54c0-.82-.35-1.23-1.23-1.23a10.61,10.61,0,0,0-4,1.29v10.65H35.9V89.91h2.93l.38,1.29a15.39,15.39,0,0,1,6.15-1.61,2.91,2.91,0,0,1,2.9,1.64,15.07,15.07,0,0,1,6.18-1.64c2.55,0,3.47,1.8,3.47,4.54v11.13H54.06V94.54c0-.82-.35-1.23-1.23-1.23a10.18,10.18,0,0,0-4,1.29v10.65Z"/><path class="cls-1" d="M72.43,105.26H69.28l-.28-1a8.4,8.4,0,0,1-4.57,1.36c-2.81,0-4-1.92-4-4.57,0-3.12,1.36-4.32,4.48-4.32h3.69V95.08c0-1.7-.47-2.3-2.93-2.3a21.48,21.48,0,0,0-4.26.47l-.47-2.93a20,20,0,0,1,5.26-.73c4.82,0,6.24,1.7,6.24,5.55Zm-3.85-5.8H65.75c-1.26,0-1.61.35-1.61,1.51s.35,1.54,1.54,1.54a6,6,0,0,0,2.9-.79Z"/><path class="cls-1" d="M74.8,95c0-3.4,1.51-5.42,5.07-5.42A21.16,21.16,0,0,1,84,90v-6.4l3.85-.54v22.16H84.76L84.38,104a8.08,8.08,0,0,1-4.85,1.61c-3.09,0-4.73-1.83-4.73-5.33ZM84,93.28a17.05,17.05,0,0,0-3.4-.41c-1.39,0-1.92.66-1.92,2v5.42c0,1.26.47,2,1.89,2A5.44,5.44,0,0,0,84,100.91Z"/></g></g></svg>