<?xml version="1.0" encoding="UTF-8"?>
<svg width="64px" height="64px" viewBox="0 0 64 64" version="1.1" xmlns="http://www.w3.org/2000/svg" xmlns:xlink="http://www.w3.org/1999/xlink">
    <title>Icon-Architecture/48/Arch_AWS-Clean-Rooms_48</title>
    <defs>
        <linearGradient x1="0%" y1="100%" x2="100%" y2="0%" id="linearGradient-1">
            <stop stop-color="#4D27A8" offset="0%"></stop>
            <stop stop-color="#A166FF" offset="100%"></stop>
        </linearGradient>
    </defs>
    <g id="Icon-Architecture/48/Arch_AWS-Clean-Rooms_48" stroke="none" stroke-width="1" fill="none" fill-rule="evenodd">
        <g id="Icon-Architecture-BG/48/Analytics" fill="url(#linearGradient-1)">
            <rect id="Rectangle" x="0" y="0" width="64" height="64"></rect>
        </g>
        <g id="Icon-Service/48/AWS-Clean-Rooms_48" transform="translate(10.000000, 10.000000)" fill="#FFFFFF">
            <path d="M22,23 C22.552,23 23,23.449 23,24 C23,24.551 22.552,25 22,25 C21.448,25 21,24.551 21,24 C21,23.449 21.448,23 22,23 L22,23 Z M21,26.816 L21,29 L23,29 L23,26.816 C24.161,26.402 25,25.302 25,24 C25,22.346 23.654,21 22,21 C20.346,21 19,22.346 19,24 C19,25.302 19.839,26.402 21,26.816 L21,26.816 Z M5.414,37.414 C4.658,38.17 3.342,38.17 2.586,37.414 C2.208,37.036 2,36.534 2,36 C2,35.466 2.208,34.964 2.586,34.586 C2.964,34.208 3.466,34 4,34 C4.534,34 5.036,34.208 5.414,34.586 C5.792,34.964 6,35.466 6,36 C6,36.534 5.792,37.036 5.414,37.414 L5.414,37.414 Z M9.293,29.293 L6.021,32.565 C5.413,32.206 4.725,32 4,32 C2.932,32 1.927,32.417 1.172,33.172 C0.416,33.927 0,34.932 0,36 C0,37.068 0.416,38.073 1.172,38.828 C1.927,39.583 2.932,40 4,40 C5.068,40 6.073,39.583 6.828,38.828 C7.584,38.073 8,37.068 8,36 C8,35.275 7.794,34.587 7.435,33.979 L10.707,30.707 L9.293,29.293 Z M41.414,37.414 C40.658,38.17 39.342,38.17 38.586,37.414 C38.208,37.036 38,36.534 38,36 C38,35.466 38.208,34.964 38.586,34.586 C38.964,34.208 39.466,34 40,34 C40.534,34 41.036,34.208 41.414,34.586 C41.792,34.964 42,35.466 42,36 C42,36.534 41.792,37.036 41.414,37.414 L41.414,37.414 Z M40,32 C39.275,32 38.587,32.206 37.979,32.565 L34.707,29.293 L33.293,30.707 L36.565,33.979 C36.206,34.587 36,35.275 36,36 C36,37.068 36.416,38.073 37.172,38.828 C37.927,39.583 38.932,40 40,40 C41.068,40 42.073,39.583 42.828,38.828 C43.584,38.073 44,37.068 44,36 C44,34.932 43.584,33.927 42.828,33.172 C42.073,32.417 41.068,32 40,32 L40,32 Z M2.586,9.414 C2.208,9.036 2,8.534 2,8 C2,7.466 2.208,6.964 2.586,6.586 C2.964,6.208 3.466,6 4,6 C4.534,6 5.036,6.208 5.414,6.586 C5.792,6.964 6,7.466 6,8 C6,8.534 5.792,9.036 5.414,9.414 C4.658,10.17 3.342,10.17 2.586,9.414 L2.586,9.414 Z M8,8 C8,6.932 7.584,5.927 6.828,5.172 C6.073,4.417 5.068,4 4,4 C2.932,4 1.927,4.417 1.172,5.172 C0.416,5.927 0,6.932 0,8 C0,9.068 0.416,10.073 1.172,10.828 C1.927,11.583 2.932,12 4,12 C4.725,12 5.413,11.794 6.021,11.435 L9.293,14.707 L10.707,13.293 L7.435,10.021 C7.794,9.413 8,8.725 8,8 L8,8 Z M38.586,6.586 C38.964,6.208 39.466,6 40,6 C40.534,6 41.036,6.208 41.414,6.586 C41.792,6.964 42,7.466 42,8 C42,8.534 41.792,9.036 41.414,9.414 C40.658,10.17 39.342,10.17 38.586,9.414 C38.208,9.036 38,8.534 38,8 C38,7.466 38.208,6.964 38.586,6.586 L38.586,6.586 Z M34.707,14.707 L37.979,11.435 C38.587,11.794 39.275,12 40,12 C41.068,12 42.073,11.583 42.828,10.828 C43.584,10.073 44,9.068 44,8 C44,6.932 43.584,5.927 42.828,5.172 C42.073,4.417 41.068,4 40,4 C38.932,4 37.927,4.417 37.172,5.172 C36.416,5.927 36,6.932 36,8 C36,8.725 36.206,9.413 36.565,10.021 L33.293,13.293 L34.707,14.707 Z M14,31 L30,31 L30,20 L14,20 L14,31 Z M18,15.07 C18,13.929 18.939,13 20.095,13 L23.905,13 C25.061,13 26,13.929 26,15.07 L26,18 L18,18 L18,15.07 Z M24,40 C24,41.103 23.103,42 22,42 C20.897,42 20,41.103 20,40 C20,38.897 20.897,38 22,38 C23.103,38 24,38.897 24,40 L24,40 Z M20,4 C20,2.897 20.897,2 22,2 C23.103,2 24,2.897 24,4 C24,5.103 23.103,6 22,6 C20.897,6 20,5.103 20,4 L20,4 Z M30.419,18 L28,18 L28,15.07 C28,12.826 26.163,11 23.905,11 L23,11 L23,7.858 C24.721,7.411 26,5.858 26,4 C26,1.794 24.206,0 22,0 C19.794,0 18,1.794 18,4 C18,5.858 19.279,7.411 21,7.858 L21,11 L20.095,11 C17.837,11 16,12.826 16,15.07 L16,18 L13.581,18 C12.709,18 12,18.694 12,19.548 L12,31.452 C12,32.306 12.709,33 13.581,33 L21,33 L21,36.142 C19.279,36.589 18,38.142 18,40 C18,42.206 19.794,44 22,44 C24.206,44 26,42.206 26,40 C26,38.142 24.721,36.589 23,36.142 L23,33 L31,33 C31.553,33 32,32.552 32,32 L32,19.548 C32,18.694 31.291,18 30.419,18 L30.419,18 Z" id="Fill-1"></path>
        </g>
    </g>
</svg>