<?xml version="1.0" encoding="UTF-8"?>
<svg width="64px" height="64px" viewBox="0 0 64 64" version="1.1" xmlns="http://www.w3.org/2000/svg" xmlns:xlink="http://www.w3.org/1999/xlink">
    <title>Icon-Architecture/48/Arch_Amazon-DataZone_48</title>
    <defs>
        <linearGradient x1="0%" y1="100%" x2="100%" y2="0%" id="linearGradient-1">
            <stop stop-color="#4D27A8" offset="0%"></stop>
            <stop stop-color="#A166FF" offset="100%"></stop>
        </linearGradient>
    </defs>
    <g id="Icon-Architecture/48/Arch_Amazon-DataZone_48" stroke="none" stroke-width="1" fill="none" fill-rule="evenodd">
        <g id="Icon-Architecture-BG/48/Analytics" fill="url(#linearGradient-1)">
            <rect id="Rectangle" x="0" y="0" width="64" height="64"></rect>
        </g>
        <g id="Icon-Service/48/Amazon-DataZone_48" transform="translate(10.000000, 10.000000)" fill="#FFFFFF">
            <path d="M16.6765,7.737 L15.2625,6.323 L21.2925,0.293 C21.4805,0.106 21.7345,0 21.9995,0 C22.2655,0 22.5195,0.106 22.7065,0.293 L28.7365,6.323 L27.3225,7.737 L21.9995,2.414 L16.6765,7.737 Z M43.9995,22 C43.9995,22.265 43.8945,22.52 43.7065,22.707 L37.6765,28.737 L36.2625,27.323 L41.5855,22 L36.2625,16.677 L37.6765,15.263 L43.7065,21.293 C43.8945,21.481 43.9995,21.735 43.9995,22 L43.9995,22 Z M27.2625,36.323 L28.6765,37.737 L22.7065,43.707 C22.5195,43.895 22.2655,44 21.9995,44 C21.7345,44 21.4805,43.895 21.2925,43.707 L15.3225,37.737 L16.7365,36.323 L21.9995,41.586 L27.2625,36.323 Z M7.7365,27.323 L6.3225,28.737 L0.2925,22.707 C-0.0975,22.317 -0.0975,21.684 0.2925,21.293 L6.2625,15.323 L7.6765,16.737 L2.4135,22 L7.7365,27.323 Z M32.4695,35.03 C31.0905,35.03 29.9695,33.908 29.9695,32.53 C29.9695,31.152 31.0905,30.03 32.4695,30.03 C33.8485,30.03 34.9695,31.152 34.9695,32.53 C34.9695,33.908 33.8485,35.03 32.4695,35.03 L32.4695,35.03 Z M15.2075,30.03 C14.8795,29.541 14.4585,29.12 13.9695,28.792 L13.9695,15.268 C14.4585,14.94 14.8795,14.519 15.2075,14.03 L28.7315,14.03 C29.0595,14.519 29.4805,14.94 29.9695,15.268 L29.9695,28.792 C29.4805,29.12 29.0595,29.541 28.7315,30.03 L15.2075,30.03 Z M11.4695,35.03 C10.0905,35.03 8.9695,33.908 8.9695,32.53 C8.9695,31.152 10.0905,30.03 11.4695,30.03 C12.8485,30.03 13.9695,31.152 13.9695,32.53 C13.9695,33.908 12.8485,35.03 11.4695,35.03 L11.4695,35.03 Z M8.9695,11.53 C8.9695,10.152 10.0905,9.03 11.4695,9.03 C12.8485,9.03 13.9695,10.152 13.9695,11.53 C13.9695,12.908 12.8485,14.03 11.4695,14.03 C10.0905,14.03 8.9695,12.908 8.9695,11.53 L8.9695,11.53 Z M32.4695,9.03 C33.8485,9.03 34.9695,10.152 34.9695,11.53 C34.9695,12.908 33.8485,14.03 32.4695,14.03 C31.0905,14.03 29.9695,12.908 29.9695,11.53 C29.9695,10.152 31.0905,9.03 32.4695,9.03 L32.4695,9.03 Z M32.4695,28.03 C32.2985,28.03 32.1355,28.062 31.9695,28.081 L31.9695,15.979 C32.1355,15.998 32.2985,16.03 32.4695,16.03 C34.9505,16.03 36.9695,14.011 36.9695,11.53 C36.9695,9.049 34.9505,7.03 32.4695,7.03 C29.9885,7.03 27.9695,9.049 27.9695,11.53 C27.9695,11.701 28.0015,11.864 28.0205,12.03 L15.9185,12.03 C15.9375,11.864 15.9695,11.701 15.9695,11.53 C15.9695,9.049 13.9505,7.03 11.4695,7.03 C8.9885,7.03 6.9695,9.049 6.9695,11.53 C6.9695,14.011 8.9885,16.03 11.4695,16.03 C11.6405,16.03 11.8035,15.998 11.9695,15.979 L11.9695,28.081 C11.8035,28.062 11.6405,28.03 11.4695,28.03 C8.9885,28.03 6.9695,30.049 6.9695,32.53 C6.9695,35.011 8.9885,37.03 11.4695,37.03 C13.9505,37.03 15.9695,35.011 15.9695,32.53 C15.9695,32.359 15.9375,32.196 15.9185,32.03 L28.0205,32.03 C28.0015,32.196 27.9695,32.359 27.9695,32.53 C27.9695,35.011 29.9885,37.03 32.4695,37.03 C34.9505,37.03 36.9695,35.011 36.9695,32.53 C36.9695,30.049 34.9505,28.03 32.4695,28.03 L32.4695,28.03 Z" id="Fill-3"></path>
        </g>
    </g>
</svg>