<?xml version="1.0" encoding="UTF-8"?>
<svg width="64px" height="64px" viewBox="0 0 64 64" version="1.1" xmlns="http://www.w3.org/2000/svg" xmlns:xlink="http://www.w3.org/1999/xlink">
    <title>Icon-Architecture/48/Arch_AWS-Resource-Explorer_48</title>
    <defs>
        <linearGradient x1="0%" y1="100%" x2="100%" y2="0%" id="linearGradient-1">
            <stop stop-color="#B0084D" offset="0%"></stop>
            <stop stop-color="#FF4F8B" offset="100%"></stop>
        </linearGradient>
    </defs>
    <g id="Icon-Architecture/48/Arch_AWS-Resource-Explorer_48" stroke="none" stroke-width="1" fill="none" fill-rule="evenodd">
        <g id="Icon-Architecture-BG/48/Management-Governance" fill="url(#linearGradient-1)">
            <rect id="Rectangle" x="0" y="0" width="64" height="64"></rect>
        </g>
        <g id="Icon-Service/48/AWS-Resource-Explorer_48" transform="translate(11.000000, 10.000000)" fill="#FFFFFF">
            <path d="M27.554,16.0793125 L28.447,17.8693125 L26.449,18.8653125 L25.556,17.0753125 L27.554,16.0793125 Z M23.676,18.0223125 L24.328,19.9123125 L22,20.7143125 L22.002,23.0013125 L20.002,23.0023125 L20.001,20.7223125 L17.051,19.7393125 L17.684,17.8423125 L20.995,18.9453125 L23.676,18.0223125 Z M20,28.0013125 L22,28.0013125 L22,25.0013125 L20,25.0013125 L20,28.0013125 Z M20,33.0013125 L22,33.0013125 L22,30.0013125 L20,30.0013125 L20,33.0013125 Z M39.427,41.4293125 C39.117,41.7403125 38.748,41.9423125 38.417,41.9843125 C38.147,42.0223125 37.928,41.9483125 37.756,41.7763125 L30.783,34.6403125 C31.497,34.1253125 32.152,33.5373125 32.743,32.8863125 L39.781,39.7363125 C40.22,40.1753125 39.936,40.9203125 39.427,41.4293125 L39.427,41.4293125 Z M22,41.3833125 L22,36.9033125 C22.493,36.9623125 22.991,37.0013125 23.499,37.0013125 C25.483,37.0013125 27.354,36.5243125 29.022,35.6983125 L30.449,37.1593125 L22,41.3833125 Z M2,12.7913125 L12.998,17.7463125 C11.739,19.6963125 10.999,22.0123125 10.999,24.5013125 C10.999,30.1793125 14.807,34.9763125 20,36.4943125 L20,41.3833125 L2,32.3833125 L2,12.7913125 Z M21.014,2.1233125 L37.811,10.9783125 L30.885,14.4403125 C28.813,12.9143125 26.264,12.0013125 23.499,12.0013125 C19.834,12.0013125 16.543,13.5973125 14.254,16.1183125 L3.076,11.0823125 L21.014,2.1233125 Z M23.499,35.0013125 C17.709,35.0013125 12.999,30.2913125 12.999,24.5013125 C12.999,18.7123125 17.709,14.0013125 23.499,14.0013125 C29.289,14.0013125 33.999,18.7123125 33.999,24.5013125 C33.999,30.2913125 29.289,35.0013125 23.499,35.0013125 L23.499,35.0013125 Z M36.732,33.9783125 L33.977,31.2963125 C35.251,29.3383125 35.999,27.0073125 35.999,24.5013125 C35.999,21.1503125 34.666,18.1093125 32.512,15.8623125 L39,12.6193125 L39,32.4663125 L36.732,33.9783125 Z M38.198,35.4053125 L40.555,33.8333125 C40.833,33.6483125 41,33.3363125 41,33.0013125 L41,11.0013125 C41,10.6303125 40.795,10.2903125 40.467,10.1173125 L21.493,0.115312497 C21.206,-0.0346875034 20.868,-0.0386875034 20.579,0.105312497 L0.553,10.1073125 C0.214,10.2763125 0,10.6223125 0,11.0013125 L0,33.0013125 C0,33.3803125 0.214,33.7263125 0.553,33.8963125 L20.553,43.8963125 C20.694,43.9663125 20.847,44.0013125 21,44.0013125 C21.154,44.0013125 21.307,43.9663125 21.448,43.8963125 L31.917,38.6613125 L36.334,43.1823125 C36.864,43.7123125 37.546,43.9933125 38.287,43.9933125 C38.413,43.9933125 38.541,43.9843125 38.67,43.9683125 C39.444,43.8703125 40.214,43.4703125 40.841,42.8433125 C42.231,41.4533125 42.383,39.5083125 41.185,38.3113125 L38.198,35.4053125 Z" id="Fill-3"></path>
        </g>
    </g>
</svg>