<?xml version="1.0" encoding="UTF-8"?><svg version="1.1" width="64px" height="64px" viewBox="0 0 64.0 64.0" xmlns="http://www.w3.org/2000/svg" xmlns:xlink="http://www.w3.org/1999/xlink"><defs><clipPath id="i0"><path d="M64,0 L64,64 L0,64 L0,0 L64,0 Z"></path></clipPath><linearGradient id="i1" x1="0px" y1="64px" x2="64px" y2="0px" gradientUnits="userSpaceOnUse"><stop stop-color="#B0084D" offset="0%"></stop><stop stop-color="#FF4F8B" offset="100%"></stop></linearGradient><clipPath id="i2"><path d="M22,0 C22.553,0 23,0.448 23,1 L23,15.07 C26.915,15.414 29,17.775 29,22 L29,26 C29,26.552 28.553,27 28,27 L26,27 L26,32 L24,32 L24,27 L20,27 L20,32 L18,32 L18,27 L16,27 C15.447,27 15,26.552 15,26 L15,22 C15,17.775 17.085,15.414 21,15.07 L21,2.025 C10.435,2.547 2,11.307 2,22 C2,33.028 10.972,42 22,42 C33.028,42 42,33.028 42,22 C42,13.864 37.14,6.604 29.619,3.502 L30.381,1.653 C38.654,5.064 44,13.051 44,22 C44,34.131 34.131,44 22,44 C9.869,44 0,34.131 0,22 C0,9.869 9.869,0 22,0 Z M22,17 C18.542,17 17,18.542 17,22 L17,25 L27,25 L27,22 C27,18.542 25.458,17 22,17 Z"></path></clipPath></defs><g clip-path="url(#i0)"><polygon points="0,0 64,0 64,64 0,64 0,0" stroke="none" fill="url(#i1)"></polygon></g><g transform="translate(8.0 8.0)"><g transform="translate(2.0 2.0)"><g clip-path="url(#i2)"><polygon points="0,0 44,0 44,44 0,44 0,0" stroke="none" fill="#FFFFFF"></polygon></g></g></g></svg>