<svg xmlns="http://www.w3.org/2000/svg" xmlns:xlink="http://www.w3.org/1999/xlink" viewBox="0 0 491.1 71.76"><defs><style>.cls-1{fill:#253858;}.cls-2{fill:url(#linear-gradient);}.cls-3{fill:#2684ff;}.cls-4{fill:url(#New_Gradient_Swatch_1);}</style><linearGradient id="linear-gradient" x1="28.44" y1="0.12" x2="28.44" y2="0.12" gradientUnits="userSpaceOnUse"><stop offset="0" stop-color="#0052cc"/><stop offset="1" stop-color="#2684ff"/></linearGradient><linearGradient id="New_Gradient_Swatch_1" x1="42.66" y1="50.35" x2="42.66" y2="20.14" gradientUnits="userSpaceOnUse"><stop offset="0.18" stop-color="#0052cc"/><stop offset="1" stop-color="#2684ff"/></linearGradient></defs><title>Sourcetree-blue</title><g id="Layer_2" data-name="Layer 2"><g id="Blue"><path class="cls-1" d="M107.51,65.68c-11.18,0-16.37-2.2-20.86-4.49V53.1C92,55.91,100.3,57.94,108,57.94c8.71,0,12-3.43,12-8.54s-3.17-7.83-14.17-10.47c-13-3.17-18.83-7.66-18.83-17.16,0-9,6.86-15.66,20.33-15.66,8.36,0,13.73,2,17.69,4.22v7.92a35.53,35.53,0,0,0-18-4.4c-7.57,0-12.06,2.64-12.06,7.92,0,4.75,3.7,7.13,13.9,9.68,12.23,3.08,19.1,7,19.1,17.42C127.84,58.91,121.85,65.68,107.51,65.68Z"/><path class="cls-1" d="M134.53,42.71c0-13.2,7.74-22.79,20.94-22.79s20.77,9.59,20.77,22.79-7.66,23-20.77,23S134.53,55.91,134.53,42.71Zm7.39,0c0,8.36,4.14,15.93,13.55,15.93s13.38-7.57,13.38-15.93S164.8,27,155.47,27,141.92,34.36,141.92,42.71Z"/><path class="cls-1" d="M184.16,20.8h7.57V47.38c0,7.92,3.17,11.44,10.38,11.44,7,0,11.88-4.66,11.88-13.55V20.8h7.57v44H214V57.59a15.43,15.43,0,0,1-13.9,8.1c-10.12,0-15.93-7-15.93-19.1Z"/><path class="cls-1" d="M233,20.8h7.39v7.74c2.55-5.19,7-8.89,15.58-8.36v7.39c-9.68-1-15.58,1.94-15.58,11.26v26H233Z"/><path class="cls-1" d="M292.66,63.66c-2.64,1.41-6.69,2-10.74,2-15.66,0-23-9.5-23-23,0-13.29,7.3-22.79,23-22.79A23.26,23.26,0,0,1,292.4,22v7A22.18,22.18,0,0,0,282.45,27c-11.44,0-16.1,7.22-16.1,15.75s4.75,15.75,16.28,15.75a27.8,27.8,0,0,0,10-1.58Z"/><path class="cls-1" d="M322.32,65.68c-16.46,0-23.67-9.5-23.67-23,0-13.29,7.39-22.79,20.77-22.79,13.55,0,19,9.42,19,22.79v3.43H306.3c1.06,7.48,5.9,12.32,16.28,12.32A39,39,0,0,0,336,56.09v7C332.35,65,326.8,65.68,322.32,65.68Zm-16.1-26h24.55c-.44-8.18-4.14-12.85-11.7-12.85C311.05,26.79,307,32,306.21,39.63Z"/><path class="cls-1" d="M364.82,57.41a24,24,0,0,0,4.75-.62v7.3a18.19,18.19,0,0,1-5.1.7c-9.42,0-14-5.54-14-13.73V27.84h-7.13v-7h7.13V11.48h7.39V20.8h11.7v7h-11.7V50.9C357.87,54.77,360.16,57.41,364.82,57.41Z"/><path class="cls-1" d="M379.25,20.8h7.39v7.74c2.55-5.19,7-8.89,15.58-8.36v7.39c-9.68-1-15.58,1.94-15.58,11.26v26h-7.39Z"/><path class="cls-1" d="M428.88,65.68c-16.46,0-23.67-9.5-23.67-23,0-13.29,7.39-22.79,20.77-22.79,13.55,0,19,9.42,19,22.79v3.43H412.87c1.06,7.48,5.9,12.32,16.28,12.32a39,39,0,0,0,13.38-2.38v7C438.92,65,433.37,65.68,428.88,65.68Zm-16.1-26h24.55c-.44-8.18-4.14-12.85-11.7-12.85C417.62,26.79,413.57,32,412.78,39.63Z"/><path class="cls-1" d="M475,65.68c-16.46,0-23.67-9.5-23.67-23,0-13.29,7.39-22.79,20.77-22.79,13.55,0,19,9.42,19,22.79v3.43H459c1.06,7.48,5.9,12.32,16.28,12.32a39,39,0,0,0,13.38-2.38v7C485,65,479.48,65.68,475,65.68Zm-16.1-26h24.55c-.44-8.18-4.14-12.85-11.7-12.85C463.73,26.79,459.68,32,458.89,39.63Z"/><polygon class="cls-2" points="28.44 0.12 28.44 0.12 28.44 0.12 28.44 0.12"/><path class="cls-3" d="M56.88,28.44A28.44,28.44,0,0,0,28.44,0h0a28.43,28.43,0,0,0-8.79,55.48V69.73a2,2,0,0,0,2,2h13.5a2,2,0,0,0,2-2V55.49A28.45,28.45,0,0,0,56.88,28.44ZM28.44,38.05h0a9.61,9.61,0,1,1,0-19.23h0a9.61,9.61,0,0,1,0,19.23Z"/><path class="cls-4" d="M28.44,0V18.83h0a9.61,9.61,0,0,1,0,19.23h0a8.79,8.79,0,0,1,8.79,8.79v8.65A28.44,28.44,0,0,0,28.44,0Z"/></g></g></svg>