<?xml version="1.0" encoding="UTF-8"?>
<svg width="24px" height="24px" viewBox="0 0 24 24" version="1.1" xmlns="http://www.w3.org/2000/svg" xmlns:xlink="http://www.w3.org/1999/xlink">
    <title>Icon-Architecture/16/Arch_AWS-Supply-Chain_16</title>
    <defs>
        <linearGradient x1="0%" y1="100%" x2="100%" y2="0%" id="linearGradient-1">
            <stop stop-color="#BD0816" offset="0%"></stop>
            <stop stop-color="#FF5252" offset="100%"></stop>
        </linearGradient>
    </defs>
    <g id="Icon-Architecture/16/Arch_AWS-Supply-Chain_16" stroke="none" stroke-width="1" fill="none" fill-rule="evenodd">
        <g id="Icon-Architecture-BG/16/Business-Applications" fill="url(#linearGradient-1)">
            <rect id="Rectangle" x="0" y="0" width="24" height="24"></rect>
        </g>
        <g id="Icon-Service/16/AWS-Supply-Chain_16" transform="translate(5.000000, 4.000000)" fill="#FFFFFF">
            <path d="M7.003,10.9385 L10.995,8.7465 L10.995,9.8875 L7.243,11.9475 C7.169,11.9885 7.086,12.0085 7.003,12.0085 C6.92,12.0085 6.837,11.9885 6.763,11.9475 L3.01,9.8875 L3.01,8.7465 L7.003,10.9385 Z M7.503,14.6065 L7.503,12.9935 L6.503,12.9935 L6.503,14.6065 L1,11.2835 L1,4.9145 L6.503,7.9355 L6.503,8.9835 L7.503,8.9835 L7.503,7.9355 L13.005,4.9145 L13.005,11.2835 L7.503,14.6065 Z M7.003,1.0695 L12.466,4.0695 L7.003,7.0685 L1.539,4.0695 L7.003,1.0695 Z M13.745,3.6305 L7.243,0.0615 C7.095,-0.0205 6.911,-0.0205 6.763,0.0615 L0.26,3.6305 C0.1,3.7185 0,3.8865 0,4.0695 L0,11.5655 C0,11.7415 0.092,11.9035 0.241,11.9945 L6.744,15.9205 C6.824,15.9685 6.913,15.9925 7.003,15.9925 C7.093,15.9925 7.182,15.9685 7.262,15.9205 L13.764,11.9945 C13.913,11.9035 14.005,11.7415 14.005,11.5655 L14.005,4.0695 C14.005,3.8865 13.905,3.7185 13.745,3.6305 L13.745,3.6305 Z" id="Fill-6"></path>
        </g>
    </g>
</svg>