<?xml version="1.0" encoding="utf-8"?>
<!-- Generator: Adobe Illustrator 23.0.3, SVG Export Plug-In . SVG Version: 6.00 Build 0)  -->
<svg version="1.1" id="Layer_1" xmlns="http://www.w3.org/2000/svg" xmlns:xlink="http://www.w3.org/1999/xlink" x="0px" y="0px"
	 viewBox="0 0 40 40" style="enable-background:new 0 0 40 40;" xml:space="preserve">
<style type="text/css">
	.st0{fill:#33C481;}
	.st1{fill:#21A366;}
	.st2{fill:#185C37;}
	.st3{fill:none;}
	.st4{opacity:0.5;enable-background:new    ;}
	.st5{opacity:0.1;enable-background:new    ;}
	.st6{fill:#107C41;}
	.st7{fill:#FFFFFF;}
</style>
<g id="_x34_0_32_">
	<g id="_x32_0_11_">
		<g>
			<path class="st0" d="M24,17l-5.8,3.5L12,17v-5.2c0-0.5,0.4-0.8,0.8-0.8h10.3c0.5,0,0.8,0.4,0.8,0.8V17H24z"/>
			<path class="st1" d="M27,23l-6,3.4L12.8,23c-0.5,0-0.8-0.4-0.8-0.8V17h14.2c0.5,0,0.8,0.4,0.8,0.8V23z"/>
			<path class="st2" d="M16,23h13.2c0.5,0,0.8,0.4,0.8,0.8v4.3c0,0.5-0.4,0.8-0.8,0.8H16.8c-0.5,0-0.8-0.4-0.8-0.8
				C16,28.1,16,23,16,23z"/>
		</g>
		<g>
			<g>
				<rect x="10" y="10" class="st3" width="20" height="20"/>
			</g>
			<path class="st4" d="M21.8,27c0.6,0,1.2-0.6,1.2-1.2V16c0-0.5-0.4-1-1-1H12v2v6h4v4H21.8z"/>
			<path class="st5" d="M21.8,27c0.6,0,1.2-0.6,1.2-1.2V16c0-0.5-0.4-1-1-1H12v2v6h4v4H21.8z"/>
			<path id="Back_Plate_96_" class="st6" d="M21,26H11c-0.5,0-1-0.4-1-1V15c0-0.6,0.5-1,1-1h10c0.6,0,1,0.5,1,1v10
				C22,25.6,21.6,26,21,26z"/>
			<path class="st7" d="M16.1,16.4c0.9,0,1.5,0.2,2,0.6s0.7,0.9,0.7,1.7c0,0.5-0.1,1.1-0.3,1.5c-0.2,0.4-0.6,0.7-1,0.9
				c-0.4,0.2-0.9,0.3-1.5,0.3h-1.4v2.4h-1.4v-7.3v-0.1H16.1z M14.6,20h1.2c0.5,0,0.8-0.1,1.1-0.3c0.2-0.2,0.4-0.6,0.4-1
				c0-0.8-0.5-1.2-1.4-1.2h-1.3C14.6,17.5,14.6,20,14.6,20z"/>
		</g>
	</g>
</g>
</svg>
