<svg xmlns="http://www.w3.org/2000/svg" viewBox="0 0 77.41 114.4"><defs><style>.cls-1{fill:#fff;}</style></defs><title>Asset 1</title><g id="Layer_2" data-name="Layer 2"><g id="Logo"><path class="cls-1" d="M0,0,38.57,77.41,77.41,0ZM43.16,15.54h4.49V20H43.16Zm-8.94,18H29.73V29h4.49Zm0-6.73H29.73V22.27h4.49Zm0-6.73H29.73V15.54h4.49ZM41,40.22H36.46V35.73H41Zm0-6.73H36.46V29H41Zm0-6.73H36.46V22.27H41ZM41,20H36.46V15.54H41Zm2.21,2.24h4.49v4.49H43.16Zm0,11.22V29h4.49v4.49Z"/><path class="cls-1" d="M21.69,84.19h4.13l-6.28,21H13.68l-6.28-21h4.13l5.08,17.51Z"/><path class="cls-1" d="M37.3,105.19H34.15l-.28-1a8.4,8.4,0,0,1-4.57,1.36c-2.81,0-4-1.92-4-4.57,0-3.12,1.36-4.32,4.48-4.32h3.69V95c0-1.7-.47-2.3-2.93-2.3a21.46,21.46,0,0,0-4.26.47l-.47-2.93a20,20,0,0,1,5.27-.73c4.83,0,6.25,1.7,6.25,5.55Zm-3.85-5.8H30.62c-1.26,0-1.61.35-1.61,1.51s.35,1.55,1.55,1.55a6.06,6.06,0,0,0,2.9-.79Z"/><path class="cls-1" d="M43.36,89.83v10.73c0,.82.35,1.23,1.23,1.23a10.61,10.61,0,0,0,4-1.29V89.83h3.85v15.36H49.51l-.38-1.29A15.39,15.39,0,0,1,43,105.51c-2.56,0-3.47-1.8-3.47-4.54V89.83Z"/><path class="cls-1" d="M54.5,105.19V83.55L58.34,83v22.18Z"/><path class="cls-1" d="M69.83,104.91a10.67,10.67,0,0,1-3.38.6c-2.81,0-4.23-1.32-4.23-4.07V92.89h-2.3V89.83h2.3V86l3.85-.54v4.35H70l-.25,3.06H66.07v8a1.21,1.21,0,0,0,1.39,1.36,7.41,7.41,0,0,0,1.92-.32Z"/><path class="cls-1" d="M13.65,109h3.16v.62H14.34v1.68h2.29v.62H14.34v1.82h2.47v.62H13.65Z"/><path class="cls-1" d="M19.14,109.75v4.57h-.66V109h1l2.34,4.59V109h.66v5.36h-1Z"/><path class="cls-1" d="M25.35,109.57h-1.6V109h3.9v.62H26v4.74h-.69Z"/><path class="cls-1" d="M29,109h3.16v.62H29.66v1.68h2.29v.62H29.66v1.82h2.47v.62H29Z"/><path class="cls-1" d="M35.79,112.38H34.48v1.94h-.69V109h2c1.15,0,1.55.5,1.55,1.32V111a1.13,1.13,0,0,1-.85,1.25l1.39,2h-.8Zm0-2.8H34.48v2.19h1.33c.66,0,.89-.19.89-.71v-.77C36.7,109.75,36.47,109.57,35.81,109.57Z"/><path class="cls-1" d="M39.36,109H41.3c1.15,0,1.55.5,1.55,1.32v.8c0,.83-.4,1.33-1.55,1.33H40v1.92h-.69Zm1.92.62H40v2.21h1.22c.66,0,.89-.19.89-.71v-.79C42.16,109.75,41.93,109.57,41.27,109.57Z"/><path class="cls-1" d="M46.32,112.38H45v1.94h-.69V109h2c1.15,0,1.55.5,1.55,1.32V111a1.13,1.13,0,0,1-.85,1.25l1.39,2h-.8Zm0-2.8H45v2.19h1.33c.66,0,.89-.19.89-.71v-.77C47.22,109.75,47,109.57,46.34,109.57Z"/><path class="cls-1" d="M50.62,114.32h-.69V109h.69Z"/><path class="cls-1" d="M53.9,114.4a4.58,4.58,0,0,1-1.59-.28l.11-.56a5.1,5.1,0,0,0,1.5.23c.86,0,1-.23,1-.84s0-.79-1.11-1c-1.3-.29-1.45-.54-1.45-1.65,0-.93.39-1.39,1.72-1.39a6.11,6.11,0,0,1,1.45.18l-.06.59a6.57,6.57,0,0,0-1.38-.15c-.88,0-1,.18-1,.8s0,.77,1.06,1c1.43.35,1.5.56,1.5,1.61S55.37,114.4,53.9,114.4Z"/><path class="cls-1" d="M57.33,109h3.16v.62H58v1.68h2.29v.62H58v1.82h2.47v.62H57.33Z"/></g></g></svg>