<svg xmlns="http://www.w3.org/2000/svg" viewBox="0 0 175.37 60.06"><defs><style>.cls-1{fill:#fff;}</style></defs><title>Asset 1</title><g id="Layer_2" data-name="Layer 2"><g id="Logo"><path class="cls-1" d="M0,0,29.89,60,60,0ZM33.45,12h3.48v3.48H33.45ZM26.52,26H23V22.48h3.48Zm0-5.22H23V17.26h3.48Zm0-5.22H23V12h3.48Zm5.22,15.65H28.26V27.69h3.48Zm0-5.22H28.26V22.48h3.48Zm0-5.22H28.26V17.26h3.48Zm0-5.22H28.26V12h3.48Zm1.71,1.74h3.48v3.48H33.45Zm0,8.7V22.48H37V26Z"/><path class="cls-1" d="M101.83,14.09h6.29l-9.55,32H89.64l-9.55-32h6.29L94.1,40.73Z"/><path class="cls-1" d="M125.59,46.06h-4.8l-.43-1.58a12.79,12.79,0,0,1-7,2.06c-4.27,0-6.1-2.93-6.1-7,0-4.75,2.06-6.58,6.82-6.58h5.62V30.55c0-2.59-.72-3.5-4.46-3.5a32.66,32.66,0,0,0-6.48.72l-.72-4.46a30.5,30.5,0,0,1,8-1.1c7.35,0,9.5,2.59,9.5,8.45Zm-5.86-8.83h-4.32c-1.92,0-2.45.53-2.45,2.3s.53,2.35,2.35,2.35a9.22,9.22,0,0,0,4.42-1.2Z"/><path class="cls-1" d="M134.81,22.68V39c0,1.25.53,1.87,1.87,1.87a16.15,16.15,0,0,0,6.1-2V22.68h5.86V46.06h-4.47l-.58-2a23.42,23.42,0,0,1-9.36,2.45c-3.89,0-5.28-2.74-5.28-6.91V22.68Z"/><path class="cls-1" d="M151.75,46.06V13.13l5.86-.82V46.06Z"/><path class="cls-1" d="M175.08,45.63a16.24,16.24,0,0,1-5.14.91c-4.27,0-6.43-2-6.43-6.19v-13H160V22.68h3.5V16.87l5.86-.82v6.63h6L175,27.34h-5.62V39.58a1.84,1.84,0,0,0,2.11,2.06,11.27,11.27,0,0,0,2.93-.48Z"/><path class="cls-1" d="M89.6,51.78h4.8v.94H90.65v2.56h3.48v.94H90.65V59h3.76v.94H89.6Z"/><path class="cls-1" d="M97.94,53v6.95h-1V51.78h1.45l3.55,7v-7h1v8.16H101.5Z"/><path class="cls-1" d="M107.4,52.72H105v-.94h5.93v.94h-2.44v7.22H107.4Z"/><path class="cls-1" d="M112.9,51.78h4.8v.94H114v2.56h3.48v.94H114V59h3.76v.94H112.9Z"/><path class="cls-1" d="M123.29,57h-2v3h-1.05V51.78h3.11c1.75,0,2.37.76,2.37,2V55a1.72,1.72,0,0,1-1.3,1.9l2.12,3.08h-1.21Zm0-4.27h-2v3.33h2c1,0,1.35-.28,1.35-1.08V53.8C124.67,53,124.32,52.72,123.32,52.72Z"/><path class="cls-1" d="M128.71,51.78h3c1.75,0,2.37.76,2.37,2V55c0,1.26-.61,2-2.37,2h-1.9v2.92h-1.05Zm2.92.94h-1.86v3.36h1.86c1,0,1.35-.28,1.35-1.08V53.8C133,53,132.64,52.72,131.63,52.72Z"/><path class="cls-1" d="M139.32,57h-2v3h-1.05V51.78h3.11c1.75,0,2.37.76,2.37,2V55a1.72,1.72,0,0,1-1.3,1.9l2.12,3.08h-1.21Zm0-4.27h-2v3.33h2c1,0,1.35-.28,1.35-1.08V53.8C140.69,53,140.35,52.72,139.34,52.72Z"/><path class="cls-1" d="M145.85,59.94H144.8V51.78h1.05Z"/><path class="cls-1" d="M150.84,60.06a7,7,0,0,1-2.43-.43l.17-.86a7.75,7.75,0,0,0,2.28.36c1.31,0,1.58-.34,1.58-1.27,0-1.1,0-1.2-1.69-1.58-2-.44-2.21-.82-2.21-2.51,0-1.42.59-2.11,2.61-2.11a9.3,9.3,0,0,1,2.21.27l-.09.89a10,10,0,0,0-2.1-.23c-1.34,0-1.58.27-1.58,1.21,0,1.13,0,1.18,1.62,1.58,2.17.54,2.28.86,2.28,2.45C153.5,59.25,153.08,60.06,150.84,60.06Z"/><path class="cls-1" d="M156.06,51.78h4.8v.94h-3.75v2.56h3.48v.94h-3.48V59h3.76v.94h-4.82Z"/></g></g></svg>