<?xml version="1.0" encoding="utf-8"?>
<!-- Generator: Adobe Illustrator 22.1.0, SVG Export Plug-In . SVG Version: 6.00 Build 0)  -->
<svg version="1.1" id="Layer_1" xmlns="http://www.w3.org/2000/svg" xmlns:xlink="http://www.w3.org/1999/xlink" x="0px" y="0px"
	 width="50px" height="50px" viewBox="0 0 50 50" enable-background="new 0 0 50 50" xml:space="preserve">
<g>
	<path fill="#3999C6" d="M2.293,32L23,17.293L43.707,32L23,47.707L2.293,32z"/>
</g>
<polygon fill="#FFFFFF" points="7.362,32.079 23,20.973 38.638,32.079 23,43.941 "/>
<polygon opacity="0.4" fill="#59B4D9" points="7.362,32.079 23,20.973 38.638,32.079 23,43.941 "/>
<g>
	<circle fill="#FFFFFF" cx="40" cy="32" r="6.9"/>
	<path fill="#3999C6" d="M40,28.1c2.15,0,3.9,1.75,3.9,3.9s-1.75,3.9-3.9,3.9s-3.9-1.75-3.9-3.9S37.85,28.1,40,28.1 M40,25.1
		c-3.811,0-6.9,3.089-6.9,6.9s3.089,6.9,6.9,6.9s6.9-3.089,6.9-6.9S43.811,25.1,40,25.1L40,25.1z"/>
</g>
<path fill="#804998" d="M48.773,9.551C48.773,4.388,44.845,0.1,40,0.1s-8.773,4.113-8.773,9.451S40,29.5,40,33
	C40,29.5,48.773,14.714,48.773,9.551z"/>
<circle fill="#FFFFFF" cx="40" cy="9" r="3.9"/>
<circle fill="#804998" cx="23" cy="20" r="4.9"/>
<circle fill="#804998" cx="6" cy="32" r="4.9"/>
<circle fill="#804998" cx="23" cy="45" r="4.9"/>
</svg>
