<?xml version="1.0" encoding="UTF-8"?>
<svg width="40px" height="40px" viewBox="0 0 40 40" version="1.1" xmlns="http://www.w3.org/2000/svg" xmlns:xlink="http://www.w3.org/1999/xlink">
    <title>Icon-Architecture/32/Arch_Amazon-CodeCatalyst_32</title>
    <defs>
        <linearGradient x1="0%" y1="100%" x2="100%" y2="0%" id="linearGradient-1">
            <stop stop-color="#2E27AD" offset="0%"></stop>
            <stop stop-color="#527FFF" offset="100%"></stop>
        </linearGradient>
    </defs>
    <g id="Icon-Architecture/32/Arch_Amazon-CodeCatalyst_32" stroke="none" stroke-width="1" fill="none" fill-rule="evenodd">
        <g id="Icon-Architecture-BG/32/Developer-Tools" fill="url(#linearGradient-1)">
            <rect id="Rectangle" x="0" y="0" width="40" height="40"></rect>
        </g>
        <g id="Icon-Service/32/Amazon-CodeCatalyst_32" transform="translate(6.000000, 6.000000)" fill="#FFFFFF">
            <path d="M25.891,18.788 L24.056,17.526 C24.509,16.387 24.739,15.187 24.739,13.952 C24.739,12.532 24.424,11.12 23.826,9.84 L25.62,8.552 C26.471,10.218 26.919,12.073 26.919,13.952 C26.919,15.642 26.574,17.266 25.891,18.788 L25.891,18.788 Z M26.222,7.567 C26.152,7.444 26.033,7.357 25.895,7.327 C25.757,7.298 25.612,7.328 25.496,7.409 L22.897,9.276 C22.695,9.421 22.63,9.694 22.746,9.914 C23.396,11.151 23.739,12.547 23.739,13.952 C23.739,15.185 23.484,16.38 22.981,17.502 C22.882,17.723 22.954,17.982 23.154,18.119 L25.807,19.944 C25.891,20.001 25.99,20.032 26.09,20.032 C26.131,20.032 26.173,20.027 26.213,20.016 C26.354,19.98 26.471,19.886 26.537,19.758 C27.453,17.947 27.919,15.994 27.919,13.952 C27.919,11.713 27.332,9.505 26.222,7.567 L26.222,7.567 Z M13.968,26.919 L13.968,24.461 C17.164,24.459 20.199,22.982 22.184,20.488 L24.21,21.883 C21.763,25.043 17.973,26.916 13.968,26.919 L13.968,26.919 Z M1,13.959 C1,7.148 6.286,1.56 12.968,1.05 L12.968,3.507 C7.641,4.009 3.457,8.503 3.457,13.959 C3.457,19.416 7.641,23.91 12.968,24.412 L12.968,26.869 C6.286,26.36 1,20.771 1,13.959 L1,13.959 Z M23.781,5.509 L21.778,6.948 C19.786,4.726 16.966,3.46 13.968,3.457 L13.968,1 C17.767,1.003 21.313,2.639 23.781,5.509 L23.781,5.509 Z M18.87,9.036 C17.569,7.739 15.804,7.004 13.959,7.004 C10.124,7.004 7.004,10.124 7.004,13.959 C7.004,13.96 7.004,13.961 7.004,13.962 L4.458,13.962 C4.458,13.961 4.457,13.96 4.457,13.959 C4.457,8.72 8.72,4.457 13.959,4.457 C16.637,4.457 19.148,5.583 20.948,7.543 L18.87,9.036 Z M13.959,20.914 C15.993,20.914 17.937,20.009 19.251,18.471 L21.344,19.91 C19.545,22.136 16.83,23.462 13.959,23.462 C9.059,23.462 5.014,19.732 4.511,14.962 L7.085,14.962 C7.573,18.322 10.466,20.914 13.959,20.914 L13.959,20.914 Z M22.357,19.393 L19.434,17.383 C19.214,17.232 18.911,17.281 18.748,17.497 C17.613,19.034 15.867,19.914 13.959,19.914 C10.676,19.914 8.004,17.243 8.004,13.959 C8.004,10.676 10.676,8.004 13.959,8.004 C15.668,8.004 17.298,8.742 18.43,10.028 C18.599,10.221 18.89,10.253 19.097,10.103 L21.989,8.028 L24.799,6.01 C24.91,5.93 24.984,5.808 25.002,5.673 C25.021,5.537 24.984,5.4 24.899,5.293 C22.23,1.929 18.243,1.77635684e-15 13.959,1.77635684e-15 C6.262,1.77635684e-15 1.77635684e-15,6.262 1.77635684e-15,13.959 C1.77635684e-15,21.657 6.262,27.919 13.959,27.919 C18.459,27.919 22.709,25.727 25.329,22.055 C25.407,21.946 25.437,21.81 25.413,21.678 C25.39,21.546 25.315,21.429 25.204,21.352 L22.357,19.393 Z" id="Fill-5"></path>
        </g>
    </g>
</svg>