<?xml version="1.0" encoding="UTF-8"?>
<svg width="40px" height="40px" viewBox="0 0 40 40" version="1.1" xmlns="http://www.w3.org/2000/svg" xmlns:xlink="http://www.w3.org/1999/xlink">
    <title>Icon-Architecture/32/Arch_AWS-Application-Composer_32</title>
    <defs>
        <linearGradient x1="0%" y1="100%" x2="100%" y2="0%" id="linearGradient-1">
            <stop stop-color="#2E27AD" offset="0%"></stop>
            <stop stop-color="#527FFF" offset="100%"></stop>
        </linearGradient>
    </defs>
    <g id="Icon-Architecture/32/Arch_AWS-Application-Composer_32" stroke="none" stroke-width="1" fill="none" fill-rule="evenodd">
        <g id="Icon-Architecture-BG/32/Developer-Tools" fill="url(#linearGradient-1)">
            <rect id="Rectangle" x="0" y="0" width="40" height="40"></rect>
        </g>
        <g id="Icon-Service/32/AWS-Application-Composer_32" transform="translate(6.000000, 7.000000)" fill="#FFFFFF">
            <path d="M24.5,25.9 C23.121,25.9 22,24.778 22,23.4 C22,22.022 23.121,20.9 24.5,20.9 C25.879,20.9 27,22.022 27,23.4 C27,24.778 25.879,25.9 24.5,25.9 M15.768,25.268 C14.824,26.212 13.176,26.212 12.232,25.268 C11.76,24.796 11.5,24.168 11.5,23.5 C11.5,22.833 11.76,22.205 12.232,21.733 C12.704,21.26 13.332,21 14,21 C14.668,21 15.296,21.26 15.768,21.733 C16.24,22.205 16.5,22.833 16.5,23.5 C16.5,24.168 16.24,24.796 15.768,25.268 M1.732,15.268 C1.26,14.796 1,14.168 1,13.5 C1,12.833 1.26,12.205 1.732,11.733 C2.204,11.26 2.832,11 3.5,11 C4.168,11 4.796,11.26 5.268,11.733 C5.74,12.205 6,12.833 6,13.5 C6,14.168 5.74,14.796 5.268,15.268 C4.324,16.212 2.676,16.212 1.732,15.268 M12.232,1.733 C12.704,1.26 13.332,1 14,1 C14.668,1 15.296,1.26 15.768,1.733 C16.24,2.205 16.5,2.833 16.5,3.5 C16.5,4.168 16.24,4.796 15.768,5.268 C14.824,6.212 13.176,6.212 12.232,5.268 C11.76,4.796 11.5,4.168 11.5,3.5 C11.5,2.833 11.76,2.205 12.232,1.733 M24.5,1 C25.879,1 27,2.122 27,3.5 C27,4.879 25.879,6 24.5,6 C23.121,6 22,4.879 22,3.5 C22,2.122 23.121,1 24.5,1 M24.5,19.9 C22.707,19.9 21.242,21.26 21.04,23 L17.451,23 C17.345,22.256 17.016,21.566 16.475,21.025 C15.254,19.803 13.199,19.726 11.851,20.763 L6.347,15.521 C6.766,14.934 7,14.236 7,13.5 C7,12.763 6.767,12.066 6.347,11.479 L11.848,6.24 C12.462,6.724 13.206,7 14,7 C14.935,7 15.813,6.636 16.475,5.975 C17.016,5.434 17.345,4.744 17.451,4 L21.051,4 C21.296,5.692 22.742,7 24.5,7 C26.43,7 28,5.43 28,3.5 C28,1.57 26.43,0 24.5,0 C22.742,0 21.296,1.308 21.051,3 L17.451,3 C17.345,2.256 17.016,1.566 16.475,1.025 C15.154,-0.297 12.846,-0.297 11.525,1.025 C10.864,1.686 10.5,2.565 10.5,3.5 C10.5,4.237 10.733,4.934 11.153,5.522 L5.649,10.763 C4.301,9.726 2.246,9.803 1.025,11.025 C0.364,11.686 0,12.565 0,13.5 C0,14.435 0.364,15.314 1.025,15.975 C1.686,16.636 2.564,17 3.5,17 C4.293,17 5.038,16.724 5.652,16.24 L11.153,21.479 C10.733,22.066 10.5,22.763 10.5,23.5 C10.5,24.435 10.864,25.314 11.525,25.975 C12.186,26.636 13.064,27 14,27 C14.935,27 15.813,26.636 16.475,25.975 C17.016,25.434 17.345,24.744 17.451,24 L21.061,24 C21.347,25.644 22.776,26.9 24.5,26.9 C26.43,26.9 28,25.33 28,23.4 C28,21.47 26.43,19.9 24.5,19.9 M3.5,25 C2.673,25 2,24.327 2,23.5 C2,22.673 2.673,22 3.5,22 C4.327,22 5,22.673 5,23.5 C5,24.327 4.327,25 3.5,25 M3.5,21 C2.121,21 1,22.122 1,23.5 C1,24.879 2.121,26 3.5,26 C4.879,26 6,24.879 6,23.5 C6,22.122 4.879,21 3.5,21 M24.5,15 C23.673,15 23,14.327 23,13.5 C23,12.673 23.673,12 24.5,12 C25.327,12 26,12.673 26,13.5 C26,14.327 25.327,15 24.5,15 M24.5,11 C23.121,11 22,12.122 22,13.5 C22,14.879 23.121,16 24.5,16 C25.879,16 27,14.879 27,13.5 C27,12.122 25.879,11 24.5,11 M14,15 C13.173,15 12.5,14.327 12.5,13.5 C12.5,12.673 13.173,12 14,12 C14.827,12 15.5,12.673 15.5,13.5 C15.5,14.327 14.827,15 14,15 M14,11 C12.621,11 11.5,12.122 11.5,13.5 C11.5,14.879 12.621,16 14,16 C15.379,16 16.5,14.879 16.5,13.5 C16.5,12.122 15.379,11 14,11 M3.5,2 C4.327,2 5,2.673 5,3.5 C5,4.327 4.327,5 3.5,5 C2.673,5 2,4.327 2,3.5 C2,2.673 2.673,2 3.5,2 M3.5,6 C4.879,6 6,4.879 6,3.5 C6,2.122 4.879,1 3.5,1 C2.121,1 1,2.122 1,3.5 C1,4.879 2.121,6 3.5,6" id="Fill-5"></path>
        </g>
    </g>
</svg>