<?xml version="1.0" encoding="UTF-8"?>
<svg width="64px" height="64px" viewBox="0 0 64 64" version="1.1" xmlns="http://www.w3.org/2000/svg" xmlns:xlink="http://www.w3.org/1999/xlink">
    <title>Icon-Architecture/48/Arch_Amazon-Omics_48</title>
    <defs>
        <linearGradient x1="0%" y1="100%" x2="100%" y2="0%" id="linearGradient-1">
            <stop stop-color="#055F4E" offset="0%"></stop>
            <stop stop-color="#56C0A7" offset="100%"></stop>
        </linearGradient>
    </defs>
    <g id="Icon-Architecture/48/Arch_Amazon-Omics_48" stroke="none" stroke-width="1" fill="none" fill-rule="evenodd">
        <g id="Icon-Architecture-BG/48/Machine-Learning" fill="url(#linearGradient-1)">
            <rect id="Rectangle" x="0" y="0" width="64" height="64"></rect>
        </g>
        <g id="Icon-Service/48/Amazon-Omics_48" transform="translate(10.000000, 10.000000)" fill="#FFFFFF">
            <path d="M25,32 L44,32 L44,30 L25,30 L25,32 Z M25,14 L44,14 L44,12 L25,12 L25,14 Z M25,26 L35,26 L35,24 L25,24 L25,26 Z M14.215,33.287 L13.076,34.931 C15.008,36.27 16.451,37.688 17.272,39 L2.694,39 C3.566,37.488 5.16,35.934 7.242,34.625 L9.1,33.465 C11.949,31.69 14.641,30.014 16.65,28.395 C19.213,26.329 20.316,23.642 19.927,20.409 C19.91,20.272 19.869,20.136 19.843,20 L39,20 L39,18 L19.066,18 C18.123,16.392 16.436,14.818 13.935,13.239 L12.866,14.931 C14.521,15.974 15.766,17 16.618,18 L8,18 L8,20 L17.797,20 C17.865,20.217 17.915,20.433 17.941,20.647 C18.246,23.186 17.413,25.21 15.395,26.837 C13.481,28.381 10.839,30.026 8.042,31.768 L6.178,32.932 C4.602,33.923 0.852,36.613 0.084,40.197 C0.05,40.359 0,43 0,44 L2,44 C2,44 1.986,41.419 2,41 L17.999,41 C18.013,41.426 18.022,42.305 18,44 L20,44 C20.042,40.71 19.971,40.373 19.933,40.194 C19.321,37.335 16.485,34.86 14.215,33.287 L14.215,33.287 Z M17.072,5 L3.072,5 C3.567,5.775 4.295,6.609 5.371,7.404 C5.855,7.76 6.409,8.139 7.021,8.531 L5.941,10.214 C5.294,9.8 4.703,9.396 4.185,9.014 C-0.098,5.853 0.024,1.966 0.03,1.802 L0.029,0.018 L2.029,0.018 L2.029,1.846 C2.028,1.905 2.022,2.344 2.189,3 L17.808,3 C17.985,2.244 17.999,1.724 18,1.667 L18,0 L20,0 L20,1.676 C19.999,1.876 19.928,6.497 15.672,9.639 C13.912,10.938 11.699,12.199 9.747,13.312 C8.771,13.87 7.86,14.388 7.118,14.85 C4.106,16.723 2.323,18.782 2.1,20.647 C1.947,21.914 2.045,23.018 2.388,24 L13,24 L13,26 L3.589,26 C3.85,26.29 4.132,26.572 4.461,26.837 C5.091,27.346 5.824,27.886 6.705,28.49 L5.574,30.139 C4.65,29.506 3.875,28.935 3.205,28.394 C0.72,26.391 -0.292,23.779 0.113,20.409 C0.496,17.23 3.56,14.708 6.062,13.151 C6.823,12.678 7.755,12.146 8.757,11.575 C10.661,10.489 12.819,9.259 14.484,8.029 C15.747,7.098 16.554,6.01 17.072,5 L17.072,5 Z" id="Fill-3"></path>
        </g>
    </g>
</svg>