<svg id="Logo" xmlns="http://www.w3.org/2000/svg" viewBox="0 0 621.43 108.14">
  <title>logo_AppCode</title>
  <g>
    <g>
      <path d="M278.37,149h17.25l36.45,85.66H312.52l-7.78-19.08h-36L261,234.63H241.92ZM298.06,199l-11.3-27.58L275.46,199h22.6Z" transform="translate(-139.28 -145.93)"/>
      <path d="M334.14,169.5h18.47v9.36c4.5-6.08,10.69-10.57,20.29-10.57,15.19,0,29.65,11.91,29.65,33.66v0.24c0,21.75-14.22,33.66-29.65,33.66-9.84,0-15.92-4.5-20.29-9.72v27.95H334.14V169.5Zm49.94,32.69v-0.24c0-10.81-7.29-18-15.92-18s-15.8,7.17-15.8,18v0.24c0,10.81,7.17,18,15.8,18S384.08,213.12,384.08,202.19Z" transform="translate(-139.28 -145.93)"/>
      <path d="M405.09,169.5h18.47v9.36c4.5-6.08,10.69-10.57,20.29-10.57,15.19,0,29.65,11.91,29.65,33.66v0.24c0,21.75-14.22,33.66-29.65,33.66-9.84,0-15.92-4.5-20.29-9.72v27.95H405.09V169.5ZM455,202.19v-0.24c0-10.81-7.29-18-15.92-18s-15.8,7.17-15.8,18v0.24c0,10.81,7.17,18,15.8,18S455,213.12,455,202.19Z" transform="translate(-139.28 -145.93)"/>
      <path d="M476.17,192.34V192.1c0-24.18,18.23-44,44.35-44,16,0,25.64,5.35,33.54,13.12L542.14,175c-6.56-6-13.24-9.6-21.75-9.6-14.34,0-24.67,11.91-24.67,26.49v0.24c0,14.58,10.08,26.73,24.67,26.73,9.72,0,15.67-3.89,22.36-10l11.91,12c-8.75,9.36-18.47,15.19-34.87,15.19C494.76,236.09,476.17,216.77,476.17,192.34Z" transform="translate(-139.28 -145.93)"/>
      <path d="M552.1,202.43v-0.24c0-18.71,15.07-33.9,35.36-33.9s35.12,14.95,35.12,33.66v0.24c0,18.71-15.07,33.9-35.36,33.9S552.1,221.14,552.1,202.43Zm52.25,0v-0.24c0-9.6-6.93-18-17.13-18-10.57,0-16.89,8.14-16.89,17.74v0.24c0,9.6,6.93,18,17.13,18C598,220.17,604.35,212,604.35,202.43Z" transform="translate(-139.28 -145.93)"/>
      <path d="M625,202.19v-0.24c0-21.75,14.22-33.66,29.65-33.66,9.84,0,15.92,4.5,20.29,9.72V145.93h18.47v88.7H674.94v-9.36c-4.5,6.08-10.69,10.57-20.29,10.57C639.46,235.84,625,223.94,625,202.19Zm50.18,0v-0.24c0-10.81-7.17-18-15.8-18s-15.92,7-15.92,18v0.24c0,10.81,7.29,18,15.92,18S675.18,213,675.18,202.19Z" transform="translate(-139.28 -145.93)"/>
      <path d="M696.81,202.43v-0.24c0-18.59,13.24-33.9,32.2-33.9,21.75,0,31.71,16.89,31.71,35.36,0,1.46-.12,3.16-0.24,4.86H715.15c1.82,8.38,7.66,12.76,15.92,12.76,6.2,0,10.69-1.94,15.8-6.68l10.57,9.36c-6.08,7.53-14.82,12.15-26.61,12.15C711.26,236.09,696.81,222.36,696.81,202.43ZM742.73,197c-1.09-8.26-6-13.85-13.73-13.85s-12.64,5.47-14.09,13.85h27.82Z" transform="translate(-139.28 -145.93)"/>
    </g>
    <g>
      <rect y="3.67" width="85.04" height="85.04"/>
      <path d="M154.92,160.2h4.29l9.06,21.29H163.4l-1.93-4.74h-8.94l-1.93,4.74h-4.74Zm4.89,12.44L157,165.78l-2.81,6.85h5.62Z" transform="translate(-139.28 -145.93)" fill="#fff"/>
      <path d="M167.07,171v-0.06a10.9,10.9,0,0,1,11.18-11.09,11.06,11.06,0,0,1,8.45,3.31l-3,3.46a7.91,7.91,0,0,0-5.48-2.42c-3.61,0-6.22,3-6.22,6.68v0.06c0,3.68,2.54,6.74,6.22,6.74,2.45,0,4-1,5.64-2.51l3,3a11,11,0,0,1-8.79,3.83,10.82,10.82,0,0,1-11-11" transform="translate(-139.28 -145.93)" fill="#fff"/>
      <rect x="7.97" y="72.76" width="31.89" height="5.31" fill="#fff"/>
    </g>
  </g>
</svg>
