<svg xmlns="http://www.w3.org/2000/svg" viewBox="0 0 40 40"><title>Sway_40x40</title><path d="M29.17,11H15.83a.831.831,0,0,0-.83.83V25l8,2,7-2V11.83A.831.831,0,0,0,29.17,11Z" fill="#37c6d0"/><circle cx="26.625" cy="14.375" r="1.406" fill="#86f2f2"/><path d="M30,21.124v5.625H17.625l8.2-8.2a1.134,1.134,0,0,1,1.6,0Z" fill="#038387"/><path d="M30,25H15v3.177a.822.822,0,0,0,.823.823H29.177A.822.822,0,0,0,30,28.177Z" fill="#036c70"/><rect x="10" y="10" width="20" height="20" fill="none"/><path d="M21.939,15H15V27h6.731A1.329,1.329,0,0,0,23,25.839V16A1.035,1.035,0,0,0,21.939,15Z" opacity="0.5"/><rect x="10" y="14" width="12" height="12" rx="1" fill="#038387"/><path d="M14.193,19.864a2.042,2.042,0,0,1-.638-.675,1.823,1.823,0,0,1-.223-.923,1.778,1.778,0,0,1,.413-1.195,2.438,2.438,0,0,1,1.1-.717,4.646,4.646,0,0,1,1.5-.233,5.727,5.727,0,0,1,1.978.277v1.4a3.124,3.124,0,0,0-.895-.366,4.323,4.323,0,0,0-1.046-.126,2.262,2.262,0,0,0-1.075.228.706.706,0,0,0-.426.646.657.657,0,0,0,.18.458,1.663,1.663,0,0,0,.486.348q.308.151.913.4a.886.886,0,0,1,.131.053,7.524,7.524,0,0,1,1.151.567,2.069,2.069,0,0,1,.68.685,1.986,1.986,0,0,1,.246,1.034,1.926,1.926,0,0,1-.387,1.245,2.164,2.164,0,0,1-1.036.7,4.686,4.686,0,0,1-1.475.215,7.815,7.815,0,0,1-1.337-.11,4.57,4.57,0,0,1-1.085-.314V21.98a3.48,3.48,0,0,0,1.1.523,4.285,4.285,0,0,0,1.209.194,2.083,2.083,0,0,0,1.1-.233.734.734,0,0,0,.368-.657.7.7,0,0,0-.206-.5,2.1,2.1,0,0,0-.57-.4q-.364-.183-1.075-.482A6.037,6.037,0,0,1,14.193,19.864Z" fill="#fff"/></svg>