<svg xmlns="http://www.w3.org/2000/svg" viewBox="0 0 64 64"><title>Sway_64x64</title><path d="M48,19.33V39L37,41,24,39V19.33A1.336,1.336,0,0,1,25.33,18H46.67A1.336,1.336,0,0,1,48,19.33Z" fill="#37c6d0"/><path d="M48,31.84v3.99l-.83.84h-13l7.33-7.34.86-.86a1.618,1.618,0,0,1,2.28,0Z" fill="#1a9ba1"/><path d="M48,35.83V39L36.17,40.67,24,39v-.16L36.36,26.47a1.618,1.618,0,0,1,2.28,0l2.86,2.86Z" fill="#038387"/><circle cx="43.5" cy="22.5" r="1.5" fill="#86f2f2"/><path d="M48,39H24v5.667A1.333,1.333,0,0,0,25.333,46H46.667A1.333,1.333,0,0,0,48,44.667Z" fill="#036c70"/><path d="M34,24.33V40.67a1.32,1.32,0,0,1-1.04,1.29.967.967,0,0,1-.29.04H24V23h8.67A1.336,1.336,0,0,1,34,24.33Z" opacity="0.1"/><path d="M33,25.33V41.67a.967.967,0,0,1-.04.29A1.32,1.32,0,0,1,31.67,43H24V24h7.67A1.336,1.336,0,0,1,33,25.33Z" opacity="0.2"/><path d="M33,25.33V39.67A1.336,1.336,0,0,1,31.67,41H24V24h7.67A1.336,1.336,0,0,1,33,25.33Z" opacity="0.2"/><path d="M32,25.33V39.67A1.336,1.336,0,0,1,30.67,41H24V24h6.67A1.336,1.336,0,0,1,32,25.33Z" opacity="0.2"/><rect x="16" y="24" width="16" height="16" rx="1.333" fill="#038387"/><path d="M21.576,31.817a2.749,2.749,0,0,1-.856-.9,2.47,2.47,0,0,1-.3-1.239,2.388,2.388,0,0,1,.554-1.6,3.278,3.278,0,0,1,1.474-.961,6.221,6.221,0,0,1,2.013-.312,7.645,7.645,0,0,1,2.652.372v1.873a4.134,4.134,0,0,0-1.2-.491,5.832,5.832,0,0,0-1.4-.168,3.038,3.038,0,0,0-1.442.3.946.946,0,0,0-.571.866.875.875,0,0,0,.242.614,2.221,2.221,0,0,0,.652.467q.411.2,1.224.54a1.339,1.339,0,0,1,.176.07,10.073,10.073,0,0,1,1.543.761,2.761,2.761,0,0,1,.912.919,2.658,2.658,0,0,1,.33,1.386,2.579,2.579,0,0,1-.519,1.669,2.9,2.9,0,0,1-1.389.933,6.287,6.287,0,0,1-1.979.288,10.46,10.46,0,0,1-1.792-.147,6.207,6.207,0,0,1-1.456-.421V34.655a4.69,4.69,0,0,0,1.473.7,5.743,5.743,0,0,0,1.621.259,2.791,2.791,0,0,0,1.47-.312.983.983,0,0,0,.494-.88.941.941,0,0,0-.277-.674,2.821,2.821,0,0,0-.765-.533q-.488-.244-1.441-.645A8.155,8.155,0,0,1,21.576,31.817Z" fill="#fff"/><rect x="16" y="16" width="32" height="32" fill="none"/></svg>