<?xml version="1.0" encoding="UTF-8"?>
<svg width="40px" height="40px" viewBox="0 0 40 40" version="1.1" xmlns="http://www.w3.org/2000/svg" xmlns:xlink="http://www.w3.org/1999/xlink">
    <title>Icon-Architecture/32/Arch_AWS-Verified-Access_32</title>
    <defs>
        <linearGradient x1="0%" y1="100%" x2="100%" y2="0%" id="linearGradient-1">
            <stop stop-color="#4D27A8" offset="0%"></stop>
            <stop stop-color="#A166FF" offset="100%"></stop>
        </linearGradient>
    </defs>
    <g id="Icon-Architecture/32/Arch_AWS-Verified-Access_32" stroke="none" stroke-width="1" fill="none" fill-rule="evenodd">
        <g id="Icon-Architecture-BG/32/Networking-Content-Delivery" fill="url(#linearGradient-1)">
            <rect id="Rectangle" x="0" y="0" width="40" height="40"></rect>
        </g>
        <g id="Icon-Service/32/AWS-Verified-Access_32" transform="translate(6.000000, 6.000000)" fill="#FFFFFF">
            <path d="M10.173,25.531 L9.827,26.469 C6.509,25.243 3.851,22.587 2.533,19.18 L3.467,18.82 C4.68,21.959 7.125,24.405 10.173,25.531 L10.173,25.531 Z M3.467,10.18 L2.533,9.82 C3.851,6.414 6.509,3.757 9.827,2.531 L10.173,3.469 C7.125,4.596 4.68,7.042 3.467,10.18 L3.467,10.18 Z M25.533,18.82 L26.467,19.18 C25.15,22.587 22.491,25.243 19.173,26.469 L18.827,25.531 C21.875,24.405 24.32,21.959 25.533,18.82 L25.533,18.82 Z M14.5,27 C13.673,27 13,26.327 13,25.5 C13,24.673 13.673,24 14.5,24 C15.327,24 16,24.673 16,25.5 C16,26.327 15.327,27 14.5,27 L14.5,27 Z M14.5,23 C13.121,23 12,24.122 12,25.5 C12,26.879 13.121,28 14.5,28 C15.879,28 17,26.879 17,25.5 C17,24.122 15.879,23 14.5,23 L14.5,23 Z M2.5,16 C1.673,16 1,15.327 1,14.5 C1,13.673 1.673,13 2.5,13 C3.327,13 4,13.673 4,14.5 C4,15.327 3.327,16 2.5,16 L2.5,16 Z M5,14.5 C5,13.122 3.879,12 2.5,12 C1.121,12 1.77635684e-15,13.122 1.77635684e-15,14.5 C1.77635684e-15,15.879 1.121,17 2.5,17 C3.879,17 5,15.879 5,14.5 L5,14.5 Z M18.827,3.469 L19.173,2.531 C22.491,3.757 25.15,6.414 26.467,9.82 L25.533,10.18 C24.32,7.042 21.875,4.596 18.827,3.469 L18.827,3.469 Z M14.5,1 C15.327,1 16,1.673 16,2.5 C16,3.327 15.327,4 14.5,4 C13.673,4 13,3.327 13,2.5 C13,1.673 13.673,1 14.5,1 L14.5,1 Z M14.5,5 C15.879,5 17,3.879 17,2.5 C17,1.122 15.879,0 14.5,0 C13.121,0 12,1.122 12,2.5 C12,3.879 13.121,5 14.5,5 L14.5,5 Z M25.5,16 C24.673,16 24,15.327 24,14.5 C24,13.673 24.673,13 25.5,13 C26.327,13 27,13.673 27,14.5 C27,15.327 26.327,16 25.5,16 L25.5,16 Z M25.5,12 C24.121,12 23,13.122 23,14.5 C23,15.879 24.121,17 25.5,17 C26.879,17 28,15.879 28,14.5 C28,13.122 26.879,12 25.5,12 L25.5,12 Z M13.212,17.666 L11.098,15.677 L11.783,14.948 L13.257,16.335 L16.683,13.519 L17.318,14.291 L13.212,17.666 Z M11,9.269 C11,8.57 11.747,8 12.666,8 L15.334,8 C16.253,8 17,8.57 17,9.269 L17,11 L11,11 L11,9.269 Z M19,12.055 L19,18.946 C19,18.976 18.976,19 18.945,19 L9,18.946 L9.055,12 L19,12.055 Z M10,11 L9.055,11 C8.473,11 8,11.473 8,12.055 L8,18.946 C8,19.527 8.473,20 9.055,20 L18.945,20 C19.527,20 20,19.527 20,18.946 L20,12.055 C20,11.473 19.527,11 18.945,11 L18,11 L18,9.269 C18,8.018 16.804,7 15.334,7 L12.666,7 C11.196,7 10,8.018 10,9.269 L10,11 Z" id="Fill-6"></path>
        </g>
    </g>
</svg>