<?xml version="1.0" encoding="UTF-8"?>
<svg width="40px" height="40px" viewBox="0 0 40 40" version="1.1" xmlns="http://www.w3.org/2000/svg" xmlns:xlink="http://www.w3.org/1999/xlink">
    <title>Icon-Architecture/32/Arch_Amazon-VPC-Lattice_32</title>
    <defs>
        <linearGradient x1="0%" y1="100%" x2="100%" y2="0%" id="linearGradient-1">
            <stop stop-color="#4D27A8" offset="0%"></stop>
            <stop stop-color="#A166FF" offset="100%"></stop>
        </linearGradient>
    </defs>
    <g id="Icon-Architecture/32/Arch_Amazon-VPC-Lattice_32" stroke="none" stroke-width="1" fill="none" fill-rule="evenodd">
        <g id="Icon-Architecture-BG/32/Networking-Content-Delivery" fill="url(#linearGradient-1)">
            <rect id="Rectangle" x="0" y="0" width="40" height="40"></rect>
        </g>
        <g id="Icon-Service/32/Amazon-VPC-Lattice_32" transform="translate(6.000000, 6.000000)" fill="#FFFFFF">
            <path d="M21,15.964 C21,17.606 20.495,22.964 14,22.964 C7.338,22.964 7,17.133 7,15.964 L7,7.737 L14,5.07 L21,7.737 L21,15.964 Z M1,4 L4,4 L4,1 L1,1 L1,4 Z M24,4 L27,4 L27,1 L24,1 L24,4 Z M24,27 L27,27 L27,24 L24,24 L24,27 Z M1,27 L4,27 L4,24 L1,24 L1,27 Z M27.5,5 C27.776,5 28,4.776 28,4.5 L28,0.5 C28,0.223 27.776,0 27.5,0 L23.5,0 C23.224,0 23,0.223 23,0.5 L23,4.293 L20.728,6.564 L14.178,4.068 C14.064,4.024 13.936,4.024 13.822,4.068 L7.272,6.564 L5,4.293 L5,0.5 C5,0.223 4.776,0 4.5,0 L0.5,0 C0.224,0 0,0.223 0,0.5 L0,4.5 C0,4.776 0.224,5 0.5,5 L4.293,5 L6.264,6.971 C6.109,7.058 6,7.211 6,7.393 L6,15.964 C6,17.394 6.32,18.914 7.049,20.244 L4.293,23 L0.5,23 C0.224,23 0,23.223 0,23.5 L0,27.5 C0,27.776 0.224,28 0.5,28 L4.5,28 C4.776,28 5,27.776 5,27.5 L5,23.707 L7.605,21.102 C8.852,22.768 10.895,23.964 14,23.964 C17.34,23.964 19.288,22.682 20.424,21.13 L23,23.707 L23,27.5 C23,27.776 23.224,28 23.5,28 L27.5,28 C27.776,28 28,27.776 28,27.5 L28,23.5 C28,23.223 27.776,23 27.5,23 L23.707,23 L20.962,20.254 C21.902,18.481 22,16.607 22,15.964 L22,7.393 C22,7.211 21.891,7.058 21.736,6.971 L23.707,5 L27.5,5 Z M18,15.964 C18,18.477 16.843,19.769 14.5,19.931 L14.5,8.471 L18,9.804 L18,15.964 Z M10,15.964 L10,9.804 L13.5,8.471 L13.5,19.93 C11.187,19.762 10,18.44 10,15.964 L10,15.964 Z M13.822,7.278 L9.322,8.992 C9.128,9.066 9,9.252 9,9.46 L9,15.964 C9,19.188 10.775,20.964 14,20.964 C17.271,20.964 19,19.235 19,15.964 L19,9.46 C19,9.252 18.872,9.066 18.678,8.992 L14.178,7.278 C14.064,7.235 13.936,7.235 13.822,7.278 L13.822,7.278 Z" id="Fill-4"></path>
        </g>
    </g>
</svg>