<?xml version="1.0" encoding="UTF-8"?>
<svg width="64px" height="64px" viewBox="0 0 64 64" version="1.1" xmlns="http://www.w3.org/2000/svg" xmlns:xlink="http://www.w3.org/1999/xlink">
    <title>Icon-Architecture/48/Arch_AWS-Wickr_48</title>
    <defs>
        <linearGradient x1="0%" y1="100%" x2="100%" y2="0%" id="linearGradient-1">
            <stop stop-color="#BD0816" offset="0%"></stop>
            <stop stop-color="#FF5252" offset="100%"></stop>
        </linearGradient>
    </defs>
    <g id="Icon-Architecture/48/Arch_AWS-Wickr_48" stroke="none" stroke-width="1" fill="none" fill-rule="evenodd">
        <g id="Icon-Architecture-BG/48/Business-Applications" fill="url(#linearGradient-1)">
            <rect id="Rectangle" x="0" y="0" width="64" height="64"></rect>
        </g>
        <g id="Icon-Service/48/AWS-Wickr_48" transform="translate(11.000000, 10.000000)" fill="#FFFFFF">
            <path d="M11,26 C11,27.654 12.346,29 14,29 L28,29 C29.654,29 31,27.654 31,26 L31,15 C31,13.346 29.654,12 28,12 L14,12 C12.346,12 11,13.346 11,15 L11,26 Z M16,10 L26,10 L26,6 C26,3.794 24.206,2 22,2 L20,2 C17.794,2 16,3.794 16,6 L16,10 Z M14,10 L14,6 C14,2.691 16.691,3.55271368e-15 20,3.55271368e-15 L22,3.55271368e-15 C25.309,3.55271368e-15 28,2.691 28,6 L28,10 C30.757,10 33,12.243 33,15 L33,26 C33,28.757 30.757,31 28,31 L14,31 C11.243,31 9,28.757 9,26 L9,15 C9,12.243 11.243,10 14,10 L14,10 Z M19.707,25.707 L28.707,16.707 L27.293,15.293 L18.293,24.293 L19.707,25.707 Z M22.707,16.707 L21.293,15.293 L12.293,24.293 L13.707,25.707 L22.707,16.707 Z M42,10.659 L42,35.322 C42,37.355 40.305,39.008 38.221,39.008 L19,38.973 L19,43.971 C19,44.361 18.772,44.716 18.418,44.88 C18.284,44.941 18.142,44.971 18,44.971 C17.766,44.971 17.534,44.888 17.35,44.73 L10.63,38.97 L3.806,38.964 C1.708,38.964 0,37.312 0,35.281 L0,10.659 C0,8.646 1.7,7.008 3.791,7.008 L12,7.008 L12,9.008 L3.791,9.008 C2.804,9.008 2,9.749 2,10.659 L2,35.281 C2,36.209 2.811,36.964 3.807,36.964 L11.001,36.971 C11.239,36.971 11.47,37.056 11.65,37.212 L17,41.797 L17,37.971 C17,37.705 17.105,37.451 17.294,37.263 C17.481,37.076 17.735,36.971 18,36.971 L38.223,37.008 C39.202,37.008 40,36.252 40,35.322 L40,10.659 C40,9.749 39.196,9.008 38.209,9.008 L30,9.008 L30,7.008 L38.209,7.008 C40.3,7.008 42,8.646 42,10.659 L42,10.659 Z" id="Fill-5"></path>
        </g>
    </g>
</svg>