<?xml version="1.0" encoding="utf-8"?>
<!-- Generator: Adobe Illustrator 20.1.0, SVG Export Plug-In . SVG Version: 6.00 Build 0)  -->
<svg version="1.1" id="Layer_1" xmlns="http://www.w3.org/2000/svg" xmlns:xlink="http://www.w3.org/1999/xlink" x="0px" y="0px"
	 width="50px" height="50px" viewBox="0 0 50 50" enable-background="new 0 0 50 50" xml:space="preserve">
<linearGradient id="path-2_2_" gradientUnits="userSpaceOnUse" x1="1.0375" y1="51.2336" x2="1.0375" y2="51.1709" gradientTransform="matrix(640 0 0 -640 -639.0002 32799.3984)">
	<stop  offset="0" style="stop-color:#7540B7"/>
	<stop  offset="1" style="stop-color:#9351E5"/>
</linearGradient>
<path id="path-2_1_" fill="url(#path-2_2_)" d="M24.717,49.883L5.077,30.243c-0.157-0.157-0.157-0.41,0-0.567l19.639-19.639
	c0.157-0.157,0.41-0.157,0.567,0l19.639,19.639c0.157,0.157,0.157,0.41,0,0.567L25.283,49.883
	C25.127,50.039,24.873,50.039,24.717,49.883"/>
<linearGradient id="Fill-11_2_" gradientUnits="userSpaceOnUse" x1="-0.0723" y1="53.3366" x2="-0.0723" y2="53.3992" gradientTransform="matrix(188.2576 0 0 -188.2592 38.6136 10082.998)">
	<stop  offset="0" style="stop-color:#E9DCF9"/>
	<stop  offset="1" style="stop-color:#FFFFFF"/>
</linearGradient>
<path id="Fill-11_1_" fill="url(#Fill-11_2_)" d="M25.286,30.227c-0.158-0.158-0.414-0.158-0.572,0l-5.491,5.491
	c-0.158,0.158-0.158,0.414,0,0.572l5.491,5.491c0.158,0.158,0.414,0.158,0.572,0l5.491-5.491c0.158-0.158,0.158-0.414,0-0.572
	L25.286,30.227z"/>
<linearGradient id="Path_1_" gradientUnits="userSpaceOnUse" x1="-0.6346" y1="52.7743" x2="-0.6346" y2="52.8369" gradientTransform="matrix(188.2592 0 0 -188.2568 151.5472 9969.9434)">
	<stop  offset="0" style="stop-color:#DECBF7"/>
	<stop  offset="1" style="stop-color:#F4EDFC"/>
</linearGradient>
<path id="Path_8_" fill="url(#Path_1_)" d="M32.358,23.155c-0.158-0.158-0.414-0.158-0.572,0l-5.491,5.491
	c-0.158,0.158-0.158,0.414,0,0.572l5.491,5.491c0.158,0.158,0.414,0.158,0.572,0l5.491-5.491c0.158-0.158,0.158-0.414,0-0.572
	L32.358,23.155z"/>
<linearGradient id="Path_2_" gradientUnits="userSpaceOnUse" x1="0.49" y1="52.7743" x2="0.49" y2="52.8369" gradientTransform="matrix(188.2592 0 0 -188.2568 -74.3248 9969.9434)">
	<stop  offset="0" style="stop-color:#DECBF7"/>
	<stop  offset="1" style="stop-color:#F4EDFC"/>
</linearGradient>
<path id="Path_9_" fill="url(#Path_2_)" d="M23.704,28.646l-5.491-5.491c-0.158-0.158-0.414-0.158-0.572,0l-5.491,5.491
	c-0.158,0.158-0.158,0.414,0,0.572l5.491,5.491c0.158,0.158,0.414,0.158,0.572,0l5.491-5.491
	C23.862,29.059,23.862,28.803,23.704,28.646L23.704,28.646z"/>
<linearGradient id="Path_3_" gradientUnits="userSpaceOnUse" x1="-1.197" y1="52.2746" x2="-1.197" y2="52.212" gradientTransform="matrix(188.2568 0 0 -188.2568 264.4864 9857.0068)">
	<stop  offset="0" style="stop-color:#D3B9F4"/>
	<stop  offset="1" style="stop-color:#BE96EF"/>
</linearGradient>
<path id="Path_10_" fill="url(#Path_3_)" d="M44.922,21.573l-5.491-5.491c-0.158-0.158-0.414-0.158-0.572,0l-5.491,5.491
	c-0.158,0.158-0.158,0.414,0,0.572l5.491,5.491c0.158,0.158,0.414,0.158,0.572,0l5.491-5.491
	C45.079,21.987,45.079,21.731,44.922,21.573L44.922,21.573z"/>
<linearGradient id="Path_4_" gradientUnits="userSpaceOnUse" x1="-0.0723" y1="52.2746" x2="-0.0723" y2="52.212" gradientTransform="matrix(188.2576 0 0 -188.2568 38.6136 9857.0068)">
	<stop  offset="0" style="stop-color:#D3B9F4"/>
	<stop  offset="1" style="stop-color:#BE96EF"/>
</linearGradient>
<path id="Path_11_" fill="url(#Path_4_)" d="M24.714,16.082l-5.491,5.491c-0.158,0.158-0.158,0.414,0,0.572l5.491,5.491
	c0.158,0.158,0.414,0.158,0.572,0l5.491-5.491c0.158-0.158,0.158-0.414,0-0.572l-5.491-5.491
	C25.128,15.924,24.872,15.924,24.714,16.082L24.714,16.082z"/>
<linearGradient id="Path_5_" gradientUnits="userSpaceOnUse" x1="1.0523" y1="52.2746" x2="1.0523" y2="52.212" gradientTransform="matrix(188.2568 0 0 -188.2568 -187.2568 9857.0068)">
	<stop  offset="0" style="stop-color:#D3B9F4"/>
	<stop  offset="1" style="stop-color:#BE96EF"/>
</linearGradient>
<path id="Path_12_" fill="url(#Path_5_)" d="M16.631,22.145l-5.491,5.491c-0.158,0.158-0.414,0.158-0.572,0l-5.491-5.491
	c-0.158-0.158-0.158-0.414,0-0.572l5.491-5.491c0.158-0.158,0.414-0.158,0.572,0l5.491,5.491
	C16.789,21.731,16.789,21.987,16.631,22.145L16.631,22.145z"/>
<linearGradient id="Path_6_" gradientUnits="userSpaceOnUse" x1="-0.6346" y1="51.6481" x2="-0.6346" y2="51.5855" gradientTransform="matrix(188.2592 0 0 -188.2592 151.5472 9731.3135)">
	<stop  offset="0" style="stop-color:#BE96EF"/>
	<stop  offset="1" style="stop-color:#A873EA"/>
</linearGradient>
<path id="Path_13_" fill="url(#Path_6_)" d="M26.296,14.265l5.491,5.491c0.158,0.158,0.414,0.158,0.572,0l5.491-5.491
	c0.158-0.158,0.158-0.414,0-0.572l-5.491-5.491c-0.158-0.158-0.414-0.158-0.572,0l-5.491,5.491
	C26.138,13.852,26.138,14.107,26.296,14.265L26.296,14.265z"/>
<linearGradient id="Path_7_" gradientUnits="userSpaceOnUse" x1="0.49" y1="51.6481" x2="0.49" y2="51.5855" gradientTransform="matrix(188.2592 0 0 -188.2592 -74.3248 9731.3135)">
	<stop  offset="0" style="stop-color:#BE96EF"/>
	<stop  offset="1" style="stop-color:#A873EA"/>
</linearGradient>
<path id="Path_14_" fill="url(#Path_7_)" d="M17.642,19.756c0.158,0.158,0.414,0.158,0.572,0l5.491-5.491
	c0.158-0.158,0.158-0.414,0-0.572l-5.491-5.491c-0.158-0.158-0.414-0.158-0.572,0l-5.491,5.491c-0.158,0.158-0.158,0.414,0,0.572
	L17.642,19.756z"/>
<linearGradient id="Path_16_" gradientUnits="userSpaceOnUse" x1="-0.0723" y1="51.0053" x2="-0.0723" y2="50.9427" gradientTransform="matrix(188.2576 0 0 -188.2568 38.6136 9602.0957)">
	<stop  offset="0" style="stop-color:#A873EA"/>
	<stop  offset="1" style="stop-color:#9351E5"/>
</linearGradient>
<path id="Path_15_" fill="url(#Path_16_)" d="M24.714,11.671c0.158,0.158,0.414,0.158,0.572,0l5.491-5.491
	c0.158-0.158,0.158-0.414,0-0.572l-5.491-5.491c-0.158-0.158-0.414-0.158-0.572,0l-5.491,5.491c-0.158,0.158-0.158,0.414,0,0.572
	L24.714,11.671z"/>
</svg>
