<svg width="800" height="800" viewBox="0 0 800 800" fill="none" xmlns="http://www.w3.org/2000/svg">
<path fill-rule="evenodd" clip-rule="evenodd" d="M420 362V286H376V362C376 423 235 362 235 461V540H268V461C268 408 398 440.5 398 391.5C398 440.851 528 408 528 461V540H561V461C561 362 420 423 420 362Z" fill="#59B4D9"/>
<path fill-rule="evenodd" clip-rule="evenodd" d="M435.786 180H359.206C343.269 180 332 191.976 332 208V285C332 301.024 343.269 312 359.206 312H435.786C451.737 312 464 301.024 464 285V208C464 191.976 450.512 180 435.786 180ZM371.298 273H423.695V220H371.298V273Z" fill="#0072C6"/>
<path fill-rule="evenodd" clip-rule="evenodd" d="M161 683C108 683 79 659.529 79 609V461C79 436.348 69.4767 427 50 427V390C69.4767 390 79 380.882 79 355V208C79 154.031 109.365 133 161 133V170C140.308 170 129 183.348 129 208V355C129 387.049 118.706 399.386 98 408C117.477 416.627 129 428.965 129 461V609C129 630.1 138.504 646 161 646V683Z" fill="#59B4D9"/>
<path fill-rule="evenodd" clip-rule="evenodd" d="M635 133C685 133 717 157.624 717 208V355C717 379.652 726.523 390 746 390V427C726.523 427 716.9 435.118 716.9 461V609C716.9 662.534 686.61 683 635 683V646C655.692 646 666.993 633.652 666.993 609V461C666.993 428.951 676.294 416.627 697 408C677.523 398.142 666.993 387.035 666.993 355L667 208C667 186.891 657.507 170 635 170V133Z" fill="#59B4D9"/>
<rect x="190" y="483" width="122" height="122" rx="30" fill="#7FBA00"/>
<rect x="482" y="483" width="122" height="122" rx="30" fill="#7FBA00"/>
</svg>
