<svg xmlns="http://www.w3.org/2000/svg" xmlns:xlink="http://www.w3.org/1999/xlink" viewBox="0 0 527.16 76.38"><defs><style>.cls-1{fill:#253858;}.cls-2{fill:url(#linear-gradient);}.cls-3{fill:#2684ff;}</style><linearGradient id="linear-gradient" x1="37.31" y1="52.67" x2="37.31" y2="21.72" gradientUnits="userSpaceOnUse"><stop offset="0" stop-color="#2684ff"/><stop offset="0.82" stop-color="#0052cc"/></linearGradient></defs><title>Statuspage-blue</title><g id="Layer_2" data-name="Layer 2"><g id="Blue"><path class="cls-1" d="M116.38,59.57c-11.18,0-16.37-2.2-20.86-4.49V47c5.37,2.82,13.64,4.84,21.29,4.84,8.71,0,12-3.43,12-8.54s-3.17-7.83-14.17-10.47c-13-3.17-18.83-7.66-18.83-17.16,0-9,6.86-15.66,20.33-15.66,8.36,0,13.73,2,17.69,4.22v7.92a35.53,35.53,0,0,0-18-4.4c-7.57,0-12.06,2.64-12.06,7.92,0,4.75,3.7,7.13,13.9,9.68,12.23,3.08,19.1,7,19.1,17.42C136.71,52.8,130.72,59.57,116.38,59.57Z"/><path class="cls-1" d="M163.46,51.3a24,24,0,0,0,4.75-.62V58a18.19,18.19,0,0,1-5.1.7c-9.42,0-14-5.54-14-13.73V21.74H142v-7h7.13V5.37h7.39V14.7h11.7v7h-11.7V44.79C156.51,48.66,158.8,51.3,163.46,51.3Z"/><path class="cls-1" d="M206,50.77c-2.82,5.81-8.1,8.8-14.87,8.8-11.7,0-17.6-9.94-17.6-22.88,0-12.41,6.16-22.88,18.48-22.88,6.42,0,11.35,2.9,14,8.62V14.7h7.57v44H206Zm-12.85,1.76c6.78,0,12.85-4.31,12.85-14.08V34.93c0-9.77-5.54-14.08-12-14.08-8.54,0-12.94,5.63-12.94,15.84C181.06,47.25,185.28,52.53,193.12,52.53Z"/><path class="cls-1" d="M242.4,51.3a24,24,0,0,0,4.75-.62V58a18.19,18.19,0,0,1-5.1.7c-9.42,0-14-5.54-14-13.73V21.74h-7.13v-7h7.13V5.37h7.39V14.7h11.7v7h-11.7V44.79C235.44,48.66,237.73,51.3,242.4,51.3Z"/><path class="cls-1" d="M255.95,14.7h7.57V41.27c0,7.92,3.17,11.44,10.38,11.44,7,0,11.88-4.66,11.88-13.55V14.7h7.57v44h-7.57V51.48a15.43,15.43,0,0,1-13.9,8.1c-10.12,0-15.93-7-15.93-19.1Z"/><path class="cls-1" d="M318.6,59.57a33.9,33.9,0,0,1-15.31-3.26v-8A34.39,34.39,0,0,0,319,52.62c5.81,0,8.8-2.38,8.8-5.81s-2.55-5.28-10.91-7.3c-9.77-2.38-13.9-6.16-13.9-13.38,0-7.66,5.9-12.32,15.93-12.32A31.24,31.24,0,0,1,333,17v7.83c-5.28-2.64-9.59-4-14.25-4-5.54,0-8.54,1.94-8.54,5.37,0,3.08,2.11,5,10.21,7,9.77,2.38,14.7,6,14.7,13.64C335.15,54,330.4,59.57,318.6,59.57Z"/><path class="cls-1" d="M351.43,51v24.9h-7.57V14.7h7.57v7.92c2.82-5.81,8.1-8.8,14.87-8.8,11.7,0,17.6,9.94,17.6,22.88,0,12.41-6.16,22.88-18.48,22.88C359,59.57,354.07,56.67,351.43,51Zm12.85-30.09c-6.78,0-12.85,4.31-12.85,14.08v3.52c0,9.77,5.54,14.08,12,14.08,8.54,0,12.94-5.63,12.94-15.84C376.33,26.13,372.11,20.86,364.27,20.86Z"/><path class="cls-1" d="M422.53,50.77c-2.82,5.81-8.1,8.8-14.87,8.8-11.7,0-17.6-9.94-17.6-22.88,0-12.41,6.16-22.88,18.48-22.88,6.42,0,11.35,2.9,14,8.62V14.7h7.57v44h-7.57Zm-12.85,1.76c6.78,0,12.85-4.31,12.85-14.08V34.93c0-9.77-5.54-14.08-12-14.08-8.54,0-12.94,5.63-12.94,15.84C397.63,47.25,401.85,52.53,409.68,52.53Z"/><path class="cls-1" d="M471.19,50.77c-2.82,5.81-8.1,8.8-14.87,8.8-11.62,0-17.42-9.94-17.42-22.88,0-12.41,6.07-22.88,18.3-22.88,6.42,0,11.35,2.9,14,8.62V14.7h7.39v40c0,12.94-6.07,21.65-21.82,21.65A44.31,44.31,0,0,1,441.1,74V66.61a48.61,48.61,0,0,0,15.31,2.64c11,0,14.78-5.9,14.78-14.08Zm-12.85,1.76c6.78,0,12.85-4.31,12.85-14.08V34.93c0-9.77-5.54-14.08-12-14.08-8.54,0-12.94,5.63-12.94,15.84C446.29,47.25,450.51,52.53,458.35,52.53Z"/><path class="cls-1" d="M511.06,59.57c-16.46,0-23.67-9.5-23.67-23,0-13.29,7.39-22.79,20.77-22.79,13.55,0,19,9.42,19,22.79V40H495c1.06,7.48,5.9,12.32,16.28,12.32A39,39,0,0,0,524.7,50v7C521.09,58.87,515.54,59.57,511.06,59.57Zm-16.1-26H519.5c-.44-8.18-4.14-12.85-11.7-12.85C499.79,20.68,495.75,25.87,495,33.53Z"/><circle class="cls-2" cx="37.31" cy="41.21" r="17.47"/><path class="cls-3" d="M.47,21,9.85,32.11a2,2,0,0,0,2.84.21c15.19-13.62,34-13.62,49.23,0a2,2,0,0,0,2.84-.21L74.15,21a2,2,0,0,0-.23-2.81C51.87-1.1,22.74-1.1.7,18.19A2,2,0,0,0,.47,21Z"/></g></g></svg>