<?xml version="1.0" encoding="utf-8"?>
<!-- Generator: Adobe Illustrator 23.0.3, SVG Export Plug-In . SVG Version: 6.00 Build 0)  -->
<svg version="1.1" id="Layer_1" xmlns="http://www.w3.org/2000/svg" xmlns:xlink="http://www.w3.org/1999/xlink" x="0px" y="0px"
	 width="50px" height="50px" viewBox="0 0 50 50" enable-background="new 0 0 50 50" xml:space="preserve">
<path fill="#3E3E3E" d="M44,0H6C2.686,0,0,2.686,0,6v8v22v8c0,3.314,2.686,6,6,6h38c3.314,0,6-2.686,6-6v-8V14V6
	C50,2.686,47.314,0,44,0z"/>
<rect x="4" y="20" fill="#B8D432" width="42" height="11"/>
<rect x="4" y="35" fill="#804998" enable-background="new    " width="42" height="11"/>
<rect x="4" y="5" fill="#59B4D9" width="42" height="11"/>
<rect x="4" y="20" opacity="0.25" fill="#FFFFFF" enable-background="new    " width="42" height="2"/>
<rect x="4" y="5" opacity="0.2" fill="#FFFFFF" enable-background="new    " width="42" height="2"/>
<rect x="4" y="35" opacity="0.4" fill="#FFFFFF" enable-background="new    " width="42" height="2"/>
<path opacity="0.15" fill="#FFFFFF" enable-background="new    " d="M6,50h2.88L42.994,0H6C2.686,0,0,2.686,0,6v8v22v8
	C0,47.314,2.686,50,6,50z"/>
</svg>
