<?xml version="1.0" encoding="utf-8"?>
<!-- Generator: Adobe Illustrator 23.0.3, SVG Export Plug-In . SVG Version: 6.00 Build 0)  -->
<svg version="1.1" id="Layer_1" xmlns="http://www.w3.org/2000/svg" xmlns:xlink="http://www.w3.org/1999/xlink" x="0px" y="0px"
	 width="50px" height="50px" viewBox="0 0 50 50" enable-background="new 0 0 50 50" xml:space="preserve">
<path fill="#3E3E3E" d="M43,3H6C2.686,3,0,5.686,0,9v5v22v8c0,3.314,2.686,6,6,6h37c3.314,0,6-2.686,6-6v-8V14V9
	C49,5.686,46.314,3,43,3z"/>
<rect x="34" y="7" opacity="0.9" fill="#FFFFFF" width="11" height="11"/>
<rect x="19" y="7" opacity="0.9" fill="#FFFFFF" width="11" height="11"/>
<rect x="4" y="7" opacity="0.9" fill="#FFFFFF" width="11" height="11"/>
<rect x="34" y="21" opacity="0.9" fill="#FFFFFF" width="11" height="11"/>
<rect x="19" y="21" fill="#FCD116" width="11" height="11"/>
<rect x="4" y="21" opacity="0.9" fill="#FFFFFF" width="11" height="11"/>
<rect x="34" y="35" fill="#FCD116" width="11" height="11"/>
<rect x="34" y="35" opacity="0.3" fill="#FFFFFF" width="11" height="2"/>
<rect x="19" y="35" fill="#FCD116" width="11" height="11"/>
<rect x="4" y="35" fill="#FCD116" width="11" height="11"/>
<rect x="19" y="35" opacity="0.3" fill="#FFFFFF" width="11" height="2"/>
<rect x="4" y="35" opacity="0.3" fill="#FFFFFF" width="11" height="2"/>
<rect x="4" y="21" opacity="0.6" fill="#FFFFFF" width="11" height="2"/>
<rect x="19" y="21" opacity="0.3" fill="#FFFFFF" width="11" height="2"/>
<rect x="34" y="21" opacity="0.6" fill="#FFFFFF" width="11" height="2"/>
<rect x="34" y="7" opacity="0.6" fill="#FFFFFF" width="11" height="2"/>
<rect x="19" y="7" opacity="0.6" fill="#FFFFFF" width="11" height="2"/>
<rect x="4" y="7" opacity="0.6" fill="#FFFFFF" width="11" height="2"/>
<path opacity="0.15" fill="#FFFFFF" enable-background="new    " d="M6,50h2.88L41.994,3H6C2.686,3,0,5.686,0,9v5v22v8
	C0,47.314,2.686,50,6,50z"/>
</svg>
