<?xml version="1.0" encoding="UTF-8"?>
<svg width="40px" height="40px" viewBox="0 0 40 40" version="1.1" xmlns="http://www.w3.org/2000/svg" xmlns:xlink="http://www.w3.org/1999/xlink">
    <title>Icon-Architecture/32/Arch_Amazon-File-Cache_32</title>
    <defs>
        <linearGradient x1="0%" y1="100%" x2="100%" y2="0%" id="linearGradient-1">
            <stop stop-color="#1B660F" offset="0%"></stop>
            <stop stop-color="#6CAE3E" offset="100%"></stop>
        </linearGradient>
    </defs>
    <g id="Icon-Architecture/32/Arch_Amazon-File-Cache_32" stroke="none" stroke-width="1" fill="none" fill-rule="evenodd">
        <g id="Icon-Architecture-BG/32/Storage" fill="url(#linearGradient-1)">
            <rect id="Rectangle" x="0" y="0" width="40" height="40"></rect>
        </g>
        <g id="Icon-Service/32/Amazon-File-Cache_32" transform="translate(6.000000, 6.000000)" fill="#FFFFFF">
            <path d="M15.5,15.5 L15.5,15.499 L16,15.5 L15.5,15.5 Z M15.5,14.5 C14.948,14.5 14.5,14.949 14.5,15.5 C14.5,16.051 14.948,16.5 15.5,16.5 C16.052,16.5 16.5,16.051 16.5,15.5 C16.5,14.949 16.052,14.5 15.5,14.5 L15.5,14.5 Z M20,20.293 L18.854,19.146 C18.739,19.033 18.58,18.979 18.42,19.006 C18.262,19.032 18.125,19.133 18.053,19.276 L17.191,21 L13.809,21 L12.947,19.276 C12.875,19.133 12.738,19.032 12.58,19.006 C12.421,18.979 12.261,19.033 12.146,19.146 L11,20.293 L11,17.741 L12.812,16.296 C12.931,16.201 13,16.057 13,15.905 C13,12.394 14.751,10.057 15.5,9.218 C16.249,10.057 18,12.394 18,15.905 C18,16.057 18.069,16.201 18.188,16.296 L20,17.741 L20,20.293 Z M18.997,15.662 C18.9,10.906 15.959,8.239 15.832,8.126 C15.643,7.958 15.357,7.958 15.168,8.126 C15.041,8.239 12.1,10.906 12.003,15.662 L10.188,17.109 C10.069,17.204 10,17.348 10,17.5 L10,21.5 C10,21.702 10.122,21.885 10.309,21.962 C10.494,22.04 10.71,21.997 10.854,21.854 L12.363,20.344 L13.053,21.724 C13.138,21.893 13.311,22 13.5,22 L17.5,22 C17.689,22 17.862,21.893 17.947,21.724 L18.637,20.344 L20.146,21.854 C20.242,21.949 20.37,22 20.5,22 C20.564,22 20.63,21.988 20.691,21.962 C20.878,21.885 21,21.702 21,21.5 L21,17.5 C21,17.348 20.931,17.204 20.812,17.109 L18.997,15.662 Z M18,27 L19,27 L19,24 L18,24 L18,27 Z M12,27 L13,27 L13,24 L12,24 L12,27 Z M15,28 L16,28 L16,23 L15,23 L15,28 Z M25,5 L3.5,5 C3.224,5 3,5.224 3,5.5 L3,21 C3,21.551 2.552,22 2,22 C1.448,22 1,21.551 1,21 L1,1 L7.293,1 L9.146,2.854 C9.24,2.947 9.367,3 9.5,3 L25,3 L25,5 Z M27.5,5 L26,5 L26,2.5 C26,2.224 25.776,2 25.5,2 L9.707,2 L7.854,0.146 C7.76,0.053 7.633,0 7.5,0 L0.5,0 C0.224,0 0,0.224 0,0.5 L0,21 C0,22.103 0.897,23 2,23 L8,23 L8,22 L3.722,22 C3.894,21.705 4,21.366 4,21 L4,6 L27,6 L27,22 L23,22 L23,23 L27.5,23 C27.776,23 28,22.776 28,22.5 L28,5.5 C28,5.224 27.776,5 27.5,5 L27.5,5 Z" id="Fill-5"></path>
        </g>
    </g>
</svg>