<?xml version="1.0" encoding="utf-8"?>
<!-- Generator: Adobe Illustrator 22.1.0, SVG Export Plug-In . SVG Version: 6.00 Build 0)  -->
<svg version="1.1" id="Layer_1" xmlns="http://www.w3.org/2000/svg" xmlns:xlink="http://www.w3.org/1999/xlink" x="0px" y="0px"
	 width="16px" height="16px" viewBox="0 0 16 16" enable-background="new 0 0 16 16" xml:space="preserve">
<path fill="#804998" d="M11,0H5C3.9,0,3,0.9,3,2v14h10V2C13,0.9,12.1,0,11,0z"/>
<path fill="#E5E5E5" d="M10.5,4h-5C5.22,4,5,3.78,5,3.5l0,0C5,3.22,5.22,3,5.5,3h5C10.78,3,11,3.22,11,3.5l0,0
	C11,3.78,10.78,4,10.5,4z"/>
<path fill="#E5E5E5" d="M10.5,8h-5C5.22,8,5,7.78,5,7.5l0,0C5,7.22,5.22,7,5.5,7h5C10.78,7,11,7.22,11,7.5l0,0
	C11,7.78,10.78,8,10.5,8z"/>
<circle fill="#B8D432" cx="8" cy="13" r="1"/>
</svg>
