<?xml version="1.0" encoding="utf-8"?>
<!-- Generator: Adobe Illustrator 23.0.3, SVG Export Plug-In . SVG Version: 6.00 Build 0)  -->
<svg version="1.1" id="Layer_2" xmlns="http://www.w3.org/2000/svg" xmlns:xlink="http://www.w3.org/1999/xlink" x="0px" y="0px"
	 width="50px" height="50px" viewBox="0 0 50 50" enable-background="new 0 0 50 50" xml:space="preserve">
<path fill="#804998" d="M46.979,2H2.718C1.214,2,0.001,3.345,0.001,4.847v31.329c0,1.493,1.213,2.823,2.717,2.823h44.261
	c1.501,0,3.021-1.33,3.021-2.823V4.847C50,3.341,48.48,2,46.979,2"/>
<path opacity="0.2" fill="#FFFFFF" enable-background="new    " d="M47.01,2.003c-0.011,0-0.021-0.002-0.031-0.002H2.717
	C1.213,2.001,0,3.345,0,4.848v31.328C0,37.67,1.213,39,2.717,39H3.77L47.01,2.003z"/>
<polygon fill="#804998" points="45.999,6 45.999,35 3.999,35 3.999,6 "/>
<polygon opacity="0.4" fill="#FFFFFF" points="45.999,6 45.999,35 3.999,35 3.999,6 "/>
<rect x="21" y="39" fill="#68217A" width="8" height="5"/>
<path fill="#FFFFFF" d="M25.027,19.394c-0.045,0-0.091-0.014-0.134-0.038l-8.804-5.082c-0.081-0.048-0.132-0.137-0.132-0.231
	c0-0.095,0.051-0.183,0.132-0.23l8.751-5.049c0.082-0.046,0.182-0.046,0.263,0l8.807,5.084c0.082,0.047,0.131,0.135,0.131,0.23
	c0,0.096-0.049,0.183-0.131,0.23l-8.748,5.048C25.119,19.38,25.075,19.394,25.027,19.394"/>
<path opacity="0.7" fill="#FFFFFF" enable-background="new    " d="M23.762,31.746c-0.05,0-0.095-0.012-0.134-0.036l-8.778-5.066
	c-0.085-0.047-0.136-0.133-0.136-0.231V16.247c0-0.096,0.051-0.183,0.136-0.231c0.081-0.049,0.181-0.049,0.268,0l8.777,5.064
	c0.078,0.05,0.13,0.137,0.13,0.233v10.166c0,0.097-0.052,0.183-0.13,0.231C23.851,31.734,23.805,31.746,23.762,31.746"/>
<path opacity="0.4" fill="#FFFFFF" enable-background="new    " d="M26.247,31.746c-0.048,0-0.093-0.012-0.138-0.036
	c-0.078-0.048-0.129-0.134-0.129-0.231V21.377c0-0.094,0.051-0.182,0.129-0.231l8.777-5.064c0.084-0.048,0.182-0.048,0.264,0
	c0.084,0.047,0.135,0.135,0.135,0.23v10.101c0,0.098-0.051,0.184-0.135,0.231l-8.774,5.066
	C26.339,31.734,26.293,31.746,26.247,31.746"/>
<path fill="#804998" d="M38,48H12v0c0-2.209,1.791-4,4-4h18C36.209,44,38,45.791,38,48L38,48z"/>
<path fill="#B8D432" d="M25.517,4.095c0,0.392-0.318,0.71-0.71,0.71c-0.393,0-0.709-0.318-0.709-0.71c0-0.393,0.316-0.71,0.709-0.71
	C25.199,3.385,25.517,3.702,25.517,4.095"/>
</svg>
