<?xml version="1.0" encoding="utf-8"?>
<!-- Generator: Adobe Illustrator 23.0.3, SVG Export Plug-In . SVG Version: 6.00 Build 0)  -->
<svg version="1.1" id="Layer_1" xmlns="http://www.w3.org/2000/svg" xmlns:xlink="http://www.w3.org/1999/xlink" x="0px" y="0px"
	 width="50px" height="50px" viewBox="0 0 50 50" enable-background="new 0 0 50 50" xml:space="preserve">
<path fill="#7A7A7A" d="M33,38h-1.207H19.892h-0.621C20.92,43.999,18.705,44.859,9,44.859V48h12.342h9.011H42v-3.141
	c-9.705,0-10.656-0.857-9.005-6.859"/>
<path fill="#A0A1A2" d="M46.98,2H2.719C1.215,2,0.002,3.345,0.002,4.847v31.329c0,1.493,1.213,2.823,2.717,2.823H46.98
	c1.501,0,3.021-1.33,3.021-2.823V4.847C50.001,3.341,48.481,2,46.98,2"/>
<path opacity="0.2" fill="#FFFFFF" enable-background="new    " d="M47.011,2.003c-0.011,0-0.021-0.002-0.031-0.002H2.718
	c-1.504,0-2.717,1.344-2.717,2.847v31.328C0.001,37.67,1.214,39,2.718,39h1.053L47.011,2.003z"/>
<polygon fill="#59B4D9" points="46,6 46,35 4,35 4,6 "/>
<rect x="9" y="45" fill="#A0A1A2" width="33" height="3"/>
<path fill="#B8D432" d="M25.518,4.095c0,0.392-0.318,0.71-0.71,0.71c-0.393,0-0.709-0.318-0.709-0.71c0-0.393,0.316-0.71,0.709-0.71
	C25.2,3.385,25.518,3.702,25.518,4.095"/>
<path opacity="0.2" fill="#0072C6" d="M35.434,30.997l-19.61-1.579C15.362,29.38,15,28.988,15,28.524V13.473
	c0-0.464,0.362-0.856,0.825-0.894c0,0,19.614-1.579,19.616-1.579c0.564,0,0.962,0.401,0.962,0.894v18.21
	c0,0.241-0.094,0.466-0.264,0.636C35.969,30.907,35.746,31,35.509,31L35.434,30.997z"/>
<polygon opacity="0.8" fill="#FFFFFF" points="25.701,12.683 25.701,20.299 35.506,20.299 35.506,11.894 "/>
<polygon opacity="0.8" fill="#FFFFFF" points="15.896,13.473 15.896,20.299 24.301,20.299 24.301,12.796 "/>
<polygon opacity="0.8" fill="#FFFFFF" points="25.701,29.314 25.701,21.699 35.506,21.699 35.506,30.103 "/>
<polygon opacity="0.8" fill="#FFFFFF" points="15.896,28.524 15.896,21.699 24.301,21.699 24.301,29.201 "/>
</svg>
