<?xml version="1.0" encoding="utf-8"?>
<!-- Generator: Adobe Illustrator 23.0.3, SVG Export Plug-In . SVG Version: 6.00 Build 0)  -->
<svg version="1.1" id="Layer_2" xmlns="http://www.w3.org/2000/svg" xmlns:xlink="http://www.w3.org/1999/xlink" x="0px" y="0px"
	 width="50px" height="50px" viewBox="0 0 50 50" enable-background="new 0 0 50 50" xml:space="preserve">
<path fill="#804998" d="M46.979,2H2.718C1.214,2,0.001,3.345,0.001,4.847v31.329c0,1.493,1.213,2.823,2.717,2.823h44.261
	c1.501,0,3.021-1.33,3.021-2.823V4.847C50,3.341,48.48,2,46.979,2"/>
<path opacity="0.2" fill="#FFFFFF" enable-background="new    " d="M47.01,2.003c-0.011,0-0.021-0.002-0.031-0.002H2.717
	C1.213,2.001,0,3.345,0,4.848v31.328C0,37.67,1.213,39,2.717,39H3.77L47.01,2.003z"/>
<polygon fill="#804998" points="45.999,6 45.999,35 3.999,35 3.999,6 "/>
<polygon opacity="0.4" fill="#FFFFFF" points="45.999,6 45.999,35 3.999,35 3.999,6 "/>
<path opacity="0.2" fill="#804998" enable-background="new    " d="M35.433,30.997l-19.61-1.579
	c-0.462-0.038-0.824-0.43-0.824-0.894V13.473c0-0.464,0.362-0.856,0.825-0.894c0,0,19.614-1.579,19.616-1.579
	c0.564,0,0.962,0.401,0.962,0.894v18.21c0,0.241-0.094,0.466-0.264,0.636c-0.17,0.167-0.393,0.26-0.63,0.26L35.433,30.997z"/>
<polygon opacity="0.8" fill="#FFFFFF" enable-background="new    " points="25.7,12.683 25.7,20.299 35.505,20.299 35.505,11.894 
	"/>
<polygon opacity="0.8" fill="#FFFFFF" enable-background="new    " points="15.895,13.473 15.895,20.299 24.3,20.299 24.3,12.796 
	"/>
<polygon opacity="0.8" fill="#FFFFFF" enable-background="new    " points="25.7,29.314 25.7,21.699 35.505,21.699 35.505,30.103 
	"/>
<polygon opacity="0.8" fill="#FFFFFF" enable-background="new    " points="15.895,28.524 15.895,21.699 24.3,21.699 24.3,29.201 
	"/>
<path fill="#804998" d="M38,48H12v0c0-2.209,1.791-4,4-4h18C36.209,44,38,45.791,38,48L38,48z"/>
<rect x="21" y="39" fill="#68217A" width="8" height="5"/>
<path fill="#B8D432" d="M25.517,4.095c0,0.392-0.318,0.71-0.71,0.71c-0.393,0-0.709-0.318-0.709-0.71c0-0.393,0.316-0.71,0.709-0.71
	C25.199,3.385,25.517,3.702,25.517,4.095"/>
</svg>
