<?xml version="1.0" encoding="utf-8"?>
<!-- Generator: Adobe Illustrator 24.0.2, SVG Export Plug-In . SVG Version: 6.00 Build 0)  -->
<svg version="1.1" xmlns="http://www.w3.org/2000/svg" xmlns:xlink="http://www.w3.org/1999/xlink" x="0px" y="0px"
	 viewBox="0 0 709.5 111.6" style="enable-background:new 0 0 709.5 111.6;" xml:space="preserve">
<style type="text/css">
	.st0{fill:#F2F2F2;}
	.st1{fill:none;stroke:#808080;stroke-width:0.5;stroke-miterlimit:10;}
	.st2{fill:#1B3139;}
	.st3{fill:#EE3D2C;}
	.st4{fill:none;stroke:#EE3D2C;stroke-miterlimit:10;}
	.st5{fill:none;stroke:#221F1F;stroke-miterlimit:10;}
	.st6{fill:#FFFFFF;}
	.st7{fill:none;stroke:#000000;stroke-miterlimit:10;}
</style>
<g id="Alternative_Print_Lock-up">
</g>
<g id="Small_Scale_Lock-up">
	<g>
		<g>
			<g>
				<g>
					<g>
						<g>
							<g>
								<g>
								</g>
							</g>
						</g>
					</g>
				</g>
			</g>
		</g>
	</g>
	<g>
		<g>
			<path class="st0" d="M200.6,94.9V6.4h-12.8v33c0,0.7-0.4,1.3-1.1,1.6c-0.2,0.1-0.4,0.1-0.6,0.1c-0.5,0-1-0.2-1.3-0.6
				c-4.6-5.4-11.7-8.4-19.6-8.4c-16.8,0-29.9,14.2-29.9,32.2c0,8.9,3.1,17,8.6,23c5.5,5.9,13.1,9.2,21.3,9.2
				c7.7,0,14.9-3.2,19.6-8.8c0.3-0.4,0.8-0.6,1.3-0.6c0.2,0,0.4,0,0.6,0.1c0.7,0.2,1.1,0.9,1.1,1.6v6.2H200.6z M168.3,85
				c-11.3,0-20.1-9.1-20.1-20.7s8.8-20.7,20.1-20.7s20.1,9.1,20.1,20.7S179.6,85,168.3,85z M274.2,94.9V33.6h-12.7v5.8
				c0,0.7-0.4,1.3-1.1,1.6c-0.2,0.1-0.4,0.1-0.6,0.1c-0.5,0-1-0.2-1.3-0.6C254,35,247.1,32,239,32c-16.8,0-29.9,14.2-29.9,32.2
				s13.1,32.2,29.9,32.2c7.8,0,14.9-3.2,19.6-8.9c0.3-0.4,0.8-0.6,1.3-0.6c0.2,0,0.4,0,0.6,0.1c0.7,0.2,1.1,0.9,1.1,1.6v6.3H274.2z
				 M242.1,85c-11.3,0-20.1-9.1-20.1-20.7s8.8-20.7,20.1-20.7c11.3,0,20.1,9.1,20.1,20.7S253.4,85,242.1,85z M391.1,94.9V33.6h-12.7
				v5.8c0,0.7-0.4,1.3-1.1,1.6c-0.2,0.1-0.4,0.1-0.6,0.1c-0.5,0-1-0.2-1.3-0.6c-4.5-5.4-11.5-8.4-19.6-8.4
				C339.1,32,326,46.2,326,64.2s13.1,32.2,29.9,32.2c7.8,0,14.9-3.2,19.6-8.9c0.3-0.4,0.8-0.6,1.3-0.6c0.2,0,0.4,0,0.6,0.1
				c0.7,0.2,1.1,0.9,1.1,1.6v6.3H391.1z M359,85c-11.3,0-20.1-9.1-20.1-20.7s8.8-20.7,20.1-20.7c11.3,0,20.1,9.1,20.1,20.7
				S370.2,85,359,85z M459.1,41.2c-5.5-5.9-13.1-9.2-21.3-9.2c-7.7,0-14.9,3.2-19.6,8.8c-0.3,0.4-0.8,0.6-1.3,0.6
				c-0.2,0-0.4,0-0.6-0.1c-0.7-0.2-1.1-0.9-1.1-1.6l0-33.4h-12.8l0,88.5h12.8v-5.8c0-0.7,0.4-1.3,1.1-1.6c0.2-0.1,0.4-0.1,0.6-0.1
				c0.5,0,1,0.2,1.3,0.6c4.6,5.4,11.7,8.4,19.6,8.4c16.8,0,29.9-14.2,29.9-32.2C467.8,55.4,464.7,47.2,459.1,41.2z M434.8,85
				c-11.3,0-20.1-9.1-20.1-20.7s8.8-20.7,20.1-20.7c11.3,0,20.1,9.1,20.1,20.7S446,85,434.8,85z M508,45.3c1,0,2,0.1,2.8,0.2V32.4
				c-0.4-0.1-1.1-0.1-1.8-0.1c-7,0-13.4,3.6-16.8,9.3c-0.3,0.5-0.9,0.8-1.5,0.8c-0.1,0-0.3,0-0.4-0.1c-0.7-0.2-1.2-0.9-1.2-1.6v-7.2
				h-12.7v61.4h12.8V68C489.2,54,496.4,45.3,508,45.3z M520.4,33.6v61.4h12.9V33.6H520.4z M526.7,6.4c-4.4,0-7.9,3.6-7.9,7.9
				c0,4.4,3.6,7.9,7.9,7.9c4.4,0,7.9-3.6,7.9-7.9C534.7,10,531.1,6.4,526.7,6.4z M551.3,87.4c5.8,5.9,14.1,9.1,23.3,9.1
				c7.5,0,13.4-1.5,24.4-9.4l-7.2-7.5c-5.5,3.6-10.7,5.4-15.8,5.4c-11.8,0-20.7-8.9-20.7-20.6s8.9-20.6,20.7-20.6
				c5.5,0,10.6,1.8,15.6,5.4l8-7.6c-9.9-8.4-18.9-9.4-24.9-9.4c-18.8,0-32.5,13.6-32.5,32.2C542.3,73.3,545.5,81.5,551.3,87.4z
				 M623.7,67.6c0.3-0.3,0.7-0.4,1.1-0.4l0.1,0c0.5,0,0.9,0.3,1.2,0.6L648,94.9l15.7,0l-27.9-33.7c-0.6-0.7-0.5-1.6,0.1-2.3
				l25.4-25.4h-15.4l-22.4,22.6c-0.3,0.3-0.7,0.5-1.2,0.5c-0.2,0-0.4,0-0.6-0.1c-0.6-0.3-1-0.9-1-1.6l0-48.6h-12.8l0,88.5h12.8V71.1
				c0-0.5,0.2-0.9,0.5-1.2L623.7,67.6z M687.3,96.5c11.1,0,22.3-6.7,22.3-19.4c0-8.3-5.2-14-16-17.5l-7.5-2.5
				c-5.3-1.8-7.8-4.3-7.8-7.9c0-4,3.6-6.9,8.7-6.9c4.6,0,8.8,2.9,11.5,8l10.2-5.5c-4-8-12.3-12.9-21.7-12.9
				c-12.1,0-20.8,7.7-20.8,18.4c0,8.4,5.1,14.1,15.5,17.4l7.6,2.5c5.7,1.8,8,4.1,8,7.9c0,5.6-5.2,7.7-9.6,7.7
				c-5.6,0-10.6-3.5-13.2-9.3L664,81.8C667.7,90.9,676.6,96.5,687.3,96.5z M312.9,95.8c4,0,7.7-0.3,10-0.7l0-10.9
				c-1.9,0.2-4.6,0.4-6.4,0.4c-5.7,0-10.4-1-10.4-13.5V45.5c0-0.9,0.8-1.7,1.7-1.7h12.9l0-10.2l-12.9,0c-0.9,0-1.7-0.8-1.7-1.7V14.3
				l-12.7,0l0,17.6c0,0.9-0.8,1.7-1.7,1.7h-9.1l0,10.2l9.1,0c0.9,0,1.7,0.8,1.7,1.7v29C293.4,95.8,307.6,95.8,312.9,95.8z"/>
			<polygon class="st3" points="103.4,82.5 103.4,62.7 101.6,61.6 51.7,89.7 4.6,63.2 4.6,51.2 51.7,77.7 103.4,48.6 103.4,29.1 
				101.3,27.9 51.7,55.8 6.5,30.4 51.7,5 88.1,25.4 90.9,23.9 90.9,22 51.7,0 0,29.1 0,31.7 51.7,60.8 98.9,34.3 98.9,46.2 
				51.7,72.7 1.9,44.7 0,45.7 0,65.5 51.7,94.6 98.9,68.1 98.9,80.1 51.7,106.6 1.9,78.6 0,79.6 0,82.5 51.7,111.6 			"/>
		</g>
	</g>
</g>
<g id="Primary_Logo_Lock-up">
</g>
<g id="Guide">
</g>
</svg>
