<?xml version="1.0" encoding="UTF-8"?>
<svg width="24px" height="24px" viewBox="0 0 24 24" version="1.1" xmlns="http://www.w3.org/2000/svg" xmlns:xlink="http://www.w3.org/1999/xlink">
    <title>Icon-Architecture/16/Arch_Amazon-Security-Lake_16</title>
    <defs>
        <linearGradient x1="0%" y1="100%" x2="100%" y2="0%" id="linearGradient-1">
            <stop stop-color="#BD0816" offset="0%"></stop>
            <stop stop-color="#FF5252" offset="100%"></stop>
        </linearGradient>
    </defs>
    <g id="Icon-Architecture/16/Arch_Amazon-Security-Lake_16" stroke="none" stroke-width="1" fill="none" fill-rule="evenodd">
        <g id="Icon-Architecture-BG/16/Security-Identity-Compliance" fill="url(#linearGradient-1)">
            <rect id="Rectangle" x="0" y="0" width="24" height="24"></rect>
        </g>
        <g id="Icon-Service/16/Amazon-Security-Lake_16" transform="translate(4.000000, 4.000000)" fill="#FFFFFF">
            <path d="M10.864,6.79800551 C10.296,6.79800551 9.833,6.33600551 9.833,5.76700551 L8.833,5.76700551 C8.833,6.33600551 8.37,6.79800551 7.801,6.79800551 C7.233,6.79800551 6.77,6.33600551 6.77,5.76700551 L5.77,5.76700551 C5.77,6.33600551 5.308,6.79800551 4.74,6.79800551 L4.74,7.79800551 C5.35,7.79800551 5.898,7.52700551 6.27,7.10000551 C6.643,7.52700551 7.191,7.79800551 7.801,7.79800551 C8.412,7.79800551 8.96,7.52700551 9.333,7.10000551 C9.706,7.52700551 10.254,7.79800551 10.864,7.79800551 C11.474,7.79800551 12.022,7.52700551 12.394,7.10000551 C12.767,7.52700551 13.315,7.79800551 13.926,7.79800551 C15.046,7.79800551 15.957,6.88700551 15.957,5.76700551 L14.957,5.76700551 C14.957,6.33600551 14.494,6.79800551 13.926,6.79800551 C13.357,6.79800551 12.894,6.33600551 12.894,5.76700551 L11.894,5.76700551 C11.894,6.33600551 11.432,6.79800551 10.864,6.79800551 M13.926,10.3450055 C13.357,10.3450055 12.894,9.88200551 12.894,9.31400551 L11.894,9.31400551 C11.894,9.88200551 11.432,10.3450055 10.864,10.3450055 C10.296,10.3450055 9.833,9.88200551 9.833,9.31400551 L8.833,9.31400551 C8.833,9.88200551 8.37,10.3450055 7.801,10.3450055 C7.233,10.3450055 6.77,9.88200551 6.77,9.31400551 L5.77,9.31400551 C5.77,9.88200551 5.308,10.3450055 4.74,10.3450055 L4.74,11.3450055 C5.35,11.3450055 5.898,11.0740055 6.27,10.6470055 C6.643,11.0740055 7.191,11.3450055 7.801,11.3450055 C8.412,11.3450055 8.96,11.0740055 9.333,10.6470055 C9.706,11.0740055 10.254,11.3450055 10.864,11.3450055 C11.474,11.3450055 12.022,11.0740055 12.394,10.6470055 C12.767,11.0740055 13.315,11.3450055 13.926,11.3450055 C15.046,11.3450055 15.957,10.4340055 15.957,9.31400551 L14.957,9.31400551 C14.957,9.88200551 14.494,10.3450055 13.926,10.3450055 M10.708,12.2510055 L11.643,12.6050055 C11.225,13.7080055 9.845,16.2740055 6.056,16.2740055 C1.525,16.2740055 0,12.5730055 0,10.8850055 L0,2.32900551 C0,2.11300551 0.138,1.92200551 0.343,1.85400551 L5.9,0.0250055139 C6.003,-0.00899448609 6.113,-0.00799448609 6.216,0.0260055139 L11.659,1.85500551 C11.863,1.92300551 12,2.11400551 12,2.32900551 L12,4.07700551 L11,4.07700551 L11,2.68900551 L6.054,1.02700551 L1,2.69100551 L1,10.8850055 C1,11.7560055 1.899,15.2740055 6.056,15.2740055 C9.108,15.2740055 10.281,13.3800055 10.708,12.2510055" id="Fill-1"></path>
        </g>
    </g>
</svg>