<?xml version="1.0" encoding="UTF-8"?><svg version="1.1" width="24px" height="24px" viewBox="0 0 24.0 24.0" xmlns="http://www.w3.org/2000/svg" xmlns:xlink="http://www.w3.org/1999/xlink"><defs><clipPath id="i0"><path d="M24,0 L24,24 L0,24 L0,0 L24,0 Z"></path></clipPath><linearGradient id="i1" x1="0px" y1="24px" x2="24px" y2="0px" gradientUnits="userSpaceOnUse"><stop stop-color="#BD0816" offset="0%"></stop><stop stop-color="#FF5252" offset="100%"></stop></linearGradient><clipPath id="i2"><path d="M15.5,0 C15.777,0 16,0.224 16,0.5 L16,15.5 C16,15.776 15.777,16 15.5,16 L14,16 L14,15 L15,15 L15,1 L1,1 L1,15 L11,15 L11,16 L0.5,16 C0.224,16 0,15.776 0,15.5 L0,0.5 C0,0.224 0.224,0 0.5,0 Z M6,11 L6,12.762 L7.815,12.036 C7.934,11.988 8.067,11.988 8.186,12.036 L10,12.762 L10,11 L11,11 L11,13.5 C11,13.666 10.918,13.821 10.781,13.914 C10.697,13.971 10.599,14 10.5,14 C10.438,14 10.375,13.988 10.315,13.964 L8,13.039 L5.686,13.964 C5.533,14.025 5.357,14.006 5.22,13.914 C5.083,13.821 5,13.666 5,13.5 L5,11 L6,11 Z M8,2 C10.207,2 12,3.794 12,6 C12,8.206 10.207,10 8,10 C5.794,10 4,8.206 4,6 C4,3.794 5.794,2 8,2 Z M8,3 C6.346,3 5,4.346 5,6 C5,7.654 6.346,9 8,9 C9.655,9 11,7.654 11,6 C11,4.346 9.655,3 8,3 Z M9.397,4.48 L10.104,5.187 L7.771,7.52 C7.673,7.618 7.545,7.666 7.417,7.666 C7.29,7.666 7.162,7.618 7.064,7.52 L5.897,6.353 L6.604,5.646 L7.417,6.459 L9.397,4.48 Z"></path></clipPath></defs><g clip-path="url(#i0)"><polygon points="0,0 24,0 24,24 0,24 0,0" stroke="none" fill="url(#i1)"></polygon></g><g transform="translate(4.0 4.0)"><g clip-path="url(#i2)"><polygon points="0,0 16,0 16,16 0,16 0,0" stroke="none" fill="#FFFFFF"></polygon></g></g></svg>