<?xml version="1.0" encoding="utf-8"?>
<!-- Generator: Adobe Illustrator 21.1.0, SVG Export Plug-In . SVG Version: 6.00 Build 0)  -->
<svg version="1.1" id="Layer_1" xmlns="http://www.w3.org/2000/svg" xmlns:xlink="http://www.w3.org/1999/xlink" x="0px" y="0px"
	 width="50px" height="50px" viewBox="0 0 50 50" style="enable-background:new 0 0 50 50;" xml:space="preserve">
<style type="text/css">
	.st0{fill:#FFFFFF;}
	.st1{opacity:0.4;fill:#7FBA00;enable-background:new    ;}
	.st2{opacity:0.8;fill:#7FBA00;enable-background:new    ;}
	.st3{opacity:0.6;fill:#7FBA00;enable-background:new    ;}
	.st4{opacity:0.25;fill:#7FBA00;enable-background:new    ;}
	.st5{fill:#A0A1A2;}
	.st6{opacity:0.2;fill:#FFFFFF;enable-background:new    ;}
	.st7{fill:#7FBA00;}
	.st8{fill:#DD5900;}
</style>
<title>Monitoring</title>
<path class="st0" d="M22.8,4.4C11.4,5.6,3.2,15.8,4.4,27.2s11.4,19.7,22.8,18.5s19.7-11.4,18.5-22.8c-0.6-5.5-3.4-10.6-7.7-14.1
	C34.2,5.8,29.7,4.2,25,4.3C24.3,4.3,23.6,4.3,22.8,4.4"/>
<path class="st1" d="M16.4,19.5l-5-4.1c-2.1,3-3.1,6.6-3,10.2l6.4-0.7C14.9,23,15.4,21.1,16.4,19.5"/>
<path class="st2" d="M30.6,16.3l4.1-5c-3-2.1-6.6-3.1-10.2-3l0.7,6.5C27,14.7,28.9,15.2,30.6,16.3"/>
<path class="st3" d="M22.8,15l-0.7-6.5c-3.6,0.6-6.9,2.4-9.3,5.1l5,4.1C19.2,16.3,21,15.4,22.8,15"/>
<path class="st4" d="M15.1,27.2l-6.5,0.7c0.6,3.6,2.4,6.9,5.1,9.4l4.1-5C16.5,30.8,15.5,29.1,15.1,27.2"/>
<path class="st5" d="M49.8,22.4c-0.7-6.7-4-12.7-9.3-16.9c-1-0.8-2-1.5-3.1-2.1l-2,3.8c0.8,0.5,1.6,1,2.4,1.6
	c9,7.1,10.5,20.2,3.3,29.2c-3.5,4.4-8.5,7.1-14.1,7.7c-3.7,0.4-7.4-0.2-10.7-1.8l-2,3.8c12.5,5.8,27.3,0.4,33.2-12.1
	C49.5,31.5,50.3,26.9,49.8,22.4"/>
<path class="st5" d="M11.9,41.1C3,33.9,1.7,20.9,8.9,12c6.5-8,17.8-10,26.6-4.8l2-3.8C26.8-2.8,13.3-0.3,5.6,9.3l0,0
	c-8.7,10.7-7.1,26.4,3.6,35.1c1.6,1.3,3.4,2.4,5.3,3.3l2-3.8C14.8,43.2,13.3,42.2,11.9,41.1"/>
<path class="st6" d="M11.9,41.1C3,33.9,1.7,20.9,8.9,12c6.5-8,17.8-10,26.6-4.8l2-3.8C26.8-2.8,13.3-0.3,5.6,9.3l0,0
	c-8.7,10.7-7.1,26.4,3.6,35.1c1.6,1.3,3.4,2.4,5.3,3.3l2-3.8C14.8,43.2,13.3,42.2,11.9,41.1"/>
<path class="st7" d="M36.4,12.6l-4.1,5c1,1,1.8,2.2,2.3,3.4h6.8C40.6,17.9,38.9,14.9,36.4,12.6z"/>
<path class="st8" d="M23.1,27c-1.1-1.1-1.2-3,0-4.1c0.6-0.6,1.3-0.9,2.1-0.9c0.8,0,1.5,0.3,2.1,0.8c0,0,0,0,0,0h14.3h0.6l0,0
	c1.2,0,2.1,0.9,2.1,2.1s-0.9,2.1-2.1,2.1H27c-0.5,0.5-1.2,0.8-1.9,0.8C24.3,27.9,23.6,27.6,23.1,27"/>
</svg>
