<?xml version="1.0" encoding="UTF-8"?>
<svg width="64px" height="64px" viewBox="0 0 64 64" version="1.1" xmlns="http://www.w3.org/2000/svg" xmlns:xlink="http://www.w3.org/1999/xlink">
    <title>Icon-Architecture/48/Arch_Amazon-Security-Lake_48</title>
    <defs>
        <linearGradient x1="0%" y1="100%" x2="100%" y2="0%" id="linearGradient-1">
            <stop stop-color="#BD0816" offset="0%"></stop>
            <stop stop-color="#FF5252" offset="100%"></stop>
        </linearGradient>
    </defs>
    <g id="Icon-Architecture/48/Arch_Amazon-Security-Lake_48" stroke="none" stroke-width="1" fill="none" fill-rule="evenodd">
        <g id="Icon-Architecture-BG/48/Security-Identity-Compliance" fill="url(#linearGradient-1)">
            <rect id="Rectangle" x="0" y="0" width="64" height="64"></rect>
        </g>
        <g id="Icon-Service/48/Amazon-Security-Lake_48" transform="translate(10.000000, 10.000000)" fill="#FFFFFF">
            <path d="M15,21.61025 L15,6.28725 L22,8.78725 L22,17.61025 L24,17.61025 L24,8.08325 C24,7.66025 23.734,7.28325 23.336,7.14125 L14.336,3.92625 C14.119,3.84925 13.881,3.84925 13.664,3.92625 L4.664,7.14125 C4.266,7.28325 4,7.66025 4,8.08325 L4,22.22625 C4,24.55225 6.37,30.94025 14,30.94025 L14,28.94025 C7.391,28.94025 6,23.33025 6,22.22625 L6,8.78725 L13,6.28725 L13,21.61025 L15,21.61025 Z M40.542,37.96425 L38.542,37.96425 C38.542,39.91725 36.954,41.50525 35.002,41.50525 C33.05,41.50525 31.461,39.91725 31.461,37.96425 L29.461,37.96425 C29.461,39.91725 27.872,41.50525 25.92,41.50525 C23.968,41.50525 22.38,39.91725 22.38,37.96425 L20.38,37.96425 C20.38,39.91725 18.791,41.50525 16.839,41.50525 L16.839,43.50525 C18.715,43.50525 20.377,42.56825 21.38,41.13625 C22.383,42.56825 24.044,43.50525 25.92,43.50525 C27.797,43.50525 29.458,42.56825 30.461,41.13625 C31.464,42.56825 33.125,43.50525 35.002,43.50525 C36.878,43.50525 38.539,42.56825 39.542,41.13625 C40.545,42.56825 42.207,43.50525 44.083,43.50525 L44.083,41.50525 C42.131,41.50525 40.542,39.91725 40.542,37.96425 L40.542,37.96425 Z M40.542,29.56825 L38.542,29.56825 C38.542,31.52025 36.954,33.10925 35.002,33.10925 C33.05,33.10925 31.461,31.52025 31.461,29.56825 L29.461,29.56825 C29.461,31.52025 27.872,33.10925 25.92,33.10925 C23.968,33.10925 22.38,31.52025 22.38,29.56825 L20.38,29.56825 C20.38,31.52025 18.791,33.10925 16.839,33.10925 L16.839,35.10925 C18.715,35.10925 20.377,34.17125 21.38,32.74025 C22.383,34.17125 24.044,35.10925 25.92,35.10925 C27.797,35.10925 29.458,34.17125 30.461,32.73925 C31.464,34.17125 33.125,35.10925 35.002,35.10925 C36.878,35.10925 38.539,34.17125 39.542,32.74025 C40.545,34.17125 42.207,35.10925 44.083,35.10925 L44.083,33.10925 C42.131,33.10925 40.542,31.52025 40.542,29.56825 L40.542,29.56825 Z M40.542,20.69925 L38.542,20.69925 C38.542,22.65125 36.954,24.23925 35.002,24.23925 C33.05,24.23925 31.461,22.65125 31.461,20.69925 L29.461,20.69925 C29.461,22.65125 27.872,24.23925 25.92,24.23925 C23.968,24.23925 22.38,22.65125 22.38,20.69925 L20.38,20.69925 C20.38,22.65125 18.791,24.23925 16.839,24.23925 L16.839,26.23925 C18.715,26.23925 20.377,25.30225 21.38,23.87125 C22.383,25.30225 24.044,26.23925 25.92,26.23925 C27.797,26.23925 29.458,25.30225 30.461,23.87125 C31.464,25.30225 33.125,26.23925 35.002,26.23925 C36.878,26.23925 38.539,25.30225 39.542,23.87125 C40.545,25.30225 42.207,26.23925 44.083,26.23925 L44.083,24.23925 C42.131,24.23925 40.542,22.65125 40.542,20.69925 L40.542,20.69925 Z M14,32.80925 L14,34.80925 C2.926,34.80925 0,25.65125 0,20.80925 L0,5.95225 C0,5.53725 0.256,5.16525 0.644,5.01725 L13.644,0.06525 C13.874,-0.02175 14.126,-0.02175 14.356,0.06525 L27.356,5.01725 C27.744,5.16525 28,5.53725 28,5.95225 L28,17.61025 L26,17.61025 L26,6.64125 L14,2.06925 L2,6.64125 L2,20.80925 C2,21.29825 2.137,32.80925 14,32.80925 L14,32.80925 Z" id="Fill-6"></path>
        </g>
    </g>
</svg>