<?xml version="1.0" encoding="UTF-8"?>
<svg width="64px" height="64px" viewBox="0 0 64 64" version="1.1" xmlns="http://www.w3.org/2000/svg" xmlns:xlink="http://www.w3.org/1999/xlink">
    <title>Icon-Architecture/48/Arch_Amazon-Verified-Permissions_48</title>
    <defs>
        <linearGradient x1="0%" y1="100%" x2="100%" y2="0%" id="linearGradient-1">
            <stop stop-color="#BD0816" offset="0%"></stop>
            <stop stop-color="#FF5252" offset="100%"></stop>
        </linearGradient>
    </defs>
    <g id="Icon-Architecture/48/Arch_Amazon-Verified-Permissions_48" stroke="none" stroke-width="1" fill="none" fill-rule="evenodd">
        <g id="Icon-Architecture-BG/48/Security-Identity-Compliance" fill="url(#linearGradient-1)">
            <rect id="Rectangle" x="0" y="0" width="64" height="64"></rect>
        </g>
        <g id="Icon-Service/48/Amazon-Verified-Permissions_48" transform="translate(10.000000, 10.000000)" fill="#FFFFFF">
            <path d="M28,27 L36,27 L36,29 L28,29 L28,32 L36,32 L36,34 L28,34 L28,37 L26,37 L26,24 L28,24 L28,27 Z M42,31.926 L40.982,31.868 C40.513,31.837 40.058,32.168 39.95,32.646 C39.708,33.719 39.288,34.735 38.7,35.666 C38.439,36.079 38.516,36.621 38.88,36.946 L39.64,37.624 L37.624,39.64 L36.949,38.884 C36.623,38.517 36.081,38.442 35.669,38.704 C34.737,39.292 33.721,39.714 32.646,39.957 C32.169,40.064 31.84,40.501 31.868,40.989 L31.926,42 L29.074,42 L29.132,40.988 C29.16,40.5 28.831,40.063 28.354,39.956 C27.282,39.713 26.266,39.292 25.333,38.702 C24.92,38.441 24.378,38.515 24.053,38.882 L23.376,39.64 L21.36,37.624 L22.118,36.948 C22.482,36.623 22.559,36.082 22.298,35.668 C21.71,34.736 21.289,33.719 21.048,32.646 C20.939,32.169 20.476,31.848 20.016,31.868 L19,31.926 L19,29.074 L20.02,29.132 C20.5,29.154 20.942,28.832 21.052,28.355 C21.294,27.286 21.715,26.271 22.305,25.339 C22.565,24.925 22.489,24.384 22.125,24.059 L21.36,23.376 L23.377,21.36 L24.058,22.124 C24.382,22.489 24.925,22.563 25.337,22.304 C26.267,21.717 27.281,21.297 28.354,21.055 C28.831,20.947 29.16,20.511 29.132,20.023 L29.074,19 L31.926,19 L31.868,20.024 C31.84,20.512 32.169,20.948 32.646,21.056 C33.715,21.298 34.729,21.719 35.661,22.306 C36.071,22.565 36.615,22.49 36.94,22.126 L37.623,21.36 L39.64,23.376 L38.877,24.057 C38.513,24.382 38.437,24.924 38.698,25.337 C39.285,26.266 39.707,27.281 39.949,28.354 C40.057,28.832 40.513,29.154 40.981,29.132 L42,29.074 L42,31.926 Z M43.687,27.289 C43.487,27.1 43.215,27 42.943,27.017 L41.682,27.089 C41.462,26.367 41.173,25.671 40.817,25.006 L41.762,24.164 C41.967,23.981 42.088,23.722 42.096,23.446 C42.104,23.171 41.997,22.905 41.803,22.711 L38.289,19.198 C38.095,19.003 37.819,18.895 37.554,18.905 C37.278,18.913 37.019,19.034 36.836,19.239 L35.991,20.186 C35.326,19.831 34.63,19.543 33.911,19.324 L33.982,18.057 C33.998,17.782 33.9,17.513 33.711,17.313 C33.522,17.113 33.26,17 32.984,17 L28.016,17 C27.74,17 27.478,17.113 27.289,17.313 C27.1,17.513 27.002,17.782 27.018,18.057 L27.089,19.322 C26.368,19.542 25.672,19.83 25.007,20.184 L24.164,19.239 C23.981,19.034 23.722,18.913 23.446,18.905 C23.169,18.897 22.906,19.003 22.711,19.198 L19.197,22.711 C19.003,22.905 18.896,23.171 18.904,23.446 C18.912,23.722 19.033,23.981 19.238,24.164 L20.185,25.008 C19.828,25.673 19.539,26.369 19.319,27.089 L18.057,27.017 C17.784,27 17.513,27.1 17.313,27.289 C17.113,27.478 17,27.741 17,28.016 L17,32.984 C17,33.259 17.113,33.522 17.313,33.711 C17.513,33.9 17.785,33.995 18.057,33.983 L19.314,33.911 C19.533,34.633 19.822,35.331 20.178,35.998 L19.238,36.836 C19.033,37.02 18.912,37.279 18.904,37.554 C18.896,37.829 19.003,38.095 19.197,38.29 L22.711,41.803 C22.906,41.998 23.166,42.11 23.446,42.095 C23.722,42.087 23.981,41.967 24.164,41.761 L25.002,40.822 C25.669,41.179 26.367,41.468 27.089,41.688 L27.018,42.943 C27.002,43.218 27.1,43.487 27.289,43.687 C27.478,43.887 27.74,44 28.016,44 L32.984,44 C33.26,44 33.522,43.887 33.711,43.687 C33.9,43.487 33.998,43.218 33.982,42.943 L33.911,41.689 C34.635,41.47 35.333,41.18 36,40.824 L36.836,41.761 C37.019,41.967 37.278,42.087 37.554,42.095 C37.822,42.113 38.095,41.998 38.289,41.803 L41.803,38.29 C41.997,38.095 42.104,37.829 42.096,37.554 C42.088,37.279 41.967,37.02 41.762,36.836 L40.82,35.997 C41.176,35.331 41.464,34.633 41.684,33.911 L42.943,33.983 C43.214,33.994 43.487,33.9 43.687,33.711 C43.887,33.522 44,33.259 44,32.984 L44,28.016 C44,27.741 43.887,27.478 43.687,27.289 L43.687,27.289 Z M15.256,18.724 L9.365,24.614 C9.178,24.802 8.924,24.907 8.658,24.907 C8.393,24.907 8.139,24.802 7.951,24.614 L5.007,21.669 L6.421,20.255 L8.658,22.493 L13.842,17.31 L15.256,18.724 Z M15.256,7.487 L9.365,13.377 C9.178,13.565 8.924,13.67 8.658,13.67 C8.393,13.67 8.139,13.565 7.951,13.377 L5.007,10.433 L6.421,9.019 L8.658,11.256 L13.842,6.073 L15.256,7.487 Z M13.783,31.322 L11.177,33.928 L13.783,36.535 L12.369,37.949 L9.763,35.343 L7.157,37.949 L5.743,36.535 L8.349,33.928 L5.743,31.322 L7.157,29.908 L9.763,32.514 L12.369,29.908 L13.783,31.322 Z M26,3.548 L29.847,7 L26,7 L26,3.548 Z M2,2 L24,2 L24,8 C24,8.552 24.447,9 25,9 L31,9 L31,15 L33,15 L33,7.588 C33,7.304 32.879,7.034 32.668,6.844 L25.326,0.256 C25.143,0.091 24.904,0 24.658,0 L1,0 C0.447,0 0,0.448 0,1 L0,43 C0,43.552 0.447,44 1,44 L20,44 L20,42 L2,42 L2,2 Z" id="Fill-3"></path>
        </g>
    </g>
</svg>