<?xml version="1.0" encoding="UTF-8"?><svg version="1.1" width="64px" height="64px" viewBox="0 0 64.0 64.0" xmlns="http://www.w3.org/2000/svg" xmlns:xlink="http://www.w3.org/1999/xlink"><defs><clipPath id="i0"><path d="M64,0 L64,64 L0,64 L0,0 L64,0 Z"></path></clipPath><linearGradient id="i1" x1="0px" y1="64px" x2="64px" y2="0px" gradientUnits="userSpaceOnUse"><stop stop-color="#BD0816" offset="0%"></stop><stop stop-color="#FF5252" offset="100%"></stop></linearGradient><clipPath id="i2"><path d="M43,4 C43.553,4 44,4.448 44,5 L44,43 C44,43.552 43.553,44 43,44 L38,44 L38,42 L42,42 L42,4 Z M32,42 L32,44 L5,44 C4.447,44 4,43.552 4,43 L4,42 L32,42 Z M39,0 C39.553,0 40,0.448 40,1 L40,39 C40,39.552 39.553,40 39,40 L34,40 L34,38 L38,38 L38,6 L2,6 L2,38 L28,38 L28,40 L1,40 C0.447,40 0,39.552 0,39 L0,1 C0,0.448 0.447,0 1,0 L39,0 Z M14,29 L14,33.483 L19.606,31.081 C19.856,30.973 20.144,30.973 20.394,31.081 L26,33.483 L26,29 L28,29 L28,35 C28,35.336 27.831,35.65 27.551,35.835 C27.385,35.944 27.192,36 27,36 C26.866,36 26.732,35.973 26.606,35.919 L20,33.088 L13.394,35.919 C13.087,36.052 12.731,36.021 12.449,35.835 C12.169,35.65 12,35.336 12,35 L12,29 L14,29 Z M20,8 C25.79,8 30.5,12.71 30.5,18.5 C30.5,24.29 25.79,29 20,29 C14.21,29 9.5,24.29 9.5,18.5 C9.5,12.71 14.21,8 20,8 Z M20,10 C15.313,10 11.5,13.813 11.5,18.5 C11.5,23.187 15.313,27 20,27 C24.687,27 28.5,23.187 28.5,18.5 C28.5,13.813 24.687,10 20,10 Z M23.793,14.793 L25.207,16.207 L19.207,22.207 C19.012,22.402 18.756,22.5 18.5,22.5 C18.244,22.5 17.988,22.402 17.793,22.207 L14.793,19.207 L16.207,17.793 L18.5,20.086 L23.793,14.793 Z M38,2 L2,2 L2,4 L38,4 L38,2 Z"></path></clipPath></defs><g clip-path="url(#i0)"><polygon points="0,0 64,0 64,64 0,64 0,0" stroke="none" fill="url(#i1)"></polygon></g><g transform="translate(8.0 8.0)"><g transform="translate(2.0 2.0)"><g clip-path="url(#i2)"><polygon points="0,0 44,0 44,44 0,44 0,0" stroke="none" fill="#FFFFFF"></polygon></g></g></g></svg>